<svg version="1.2" xmlns="http://www.w3.org/2000/svg" viewBox="0 0 2300 1500" width="1920"
	height="1252">
	<title>vecteezy_creativity-process-gradient-landing-page-colourful-concept_11420627-ai</title>
	<defs>
		<linearGradient id="g1" x1="46.2" y1="205.1" x2="2602.9" y2="-401.2"
			gradientUnits="userSpaceOnUse">
			<stop offset="0" stop-color="#0091c7" />
			<stop offset=".2" stop-color="#902ad5" />
			<stop offset=".4" stop-color="#ef567f" />
			<stop offset=".6" stop-color="#fd8e2c" />
			<stop offset=".7" stop-color="#e6643a" />
			<stop offset=".9" stop-color="#8a1fc5" />
		</linearGradient>
		<linearGradient id="g2" x1="1944.6" y1="975" x2="2650.8" y2="1724.3"
			gradientUnits="userSpaceOnUse">
			<stop offset="0" stop-color="#ffffff" />
			<stop offset="1" stop-color="#ffffff" />
		</linearGradient>
		<linearGradient id="g3" x1="1449.9" y1="912" x2="607" y2="707.4"
			gradientUnits="userSpaceOnUse">
			<stop offset="0" stop-color="#ffffff" />
			<stop offset="1" stop-color="#ffffff" />
		</linearGradient>
		<linearGradient id="g4" x1="1915.3" y1="-153.9" x2="2708.1" y2="-527"
			gradientUnits="userSpaceOnUse">
			<stop offset="0" stop-color="#ffffff" />
			<stop offset="1" stop-color="#ffffff" />
		</linearGradient>
		<linearGradient id="g5" x1="-105" y1="0" x2="523.3" y2="0" gradientUnits="userSpaceOnUse">
			<stop offset="0" stop-color="#0091c7" />
			<stop offset=".2" stop-color="#902ad5" />
			<stop offset=".4" stop-color="#ef567f" />
			<stop offset=".6" stop-color="#fd8e2c" />
			<stop offset=".7" stop-color="#e6643a" />
			<stop offset=".9" stop-color="#8a1fc5" />
		</linearGradient>
	</defs>
	<style>
		.s0 { fill: #ffffff }
		.s1 { fill: url(#g1) }
		.s2 { fill: #0e0c23 }
		.s3 { opacity: .3;fill: url(#g2) }
		.s4 { fill: #3b2c31 }
		.s5 { fill: #e6ede8 }
		.s6 { fill: #d6d8d7 }
		.s7 { fill: #0f0a32 }
		.s8 { fill: #181333 }
		.s9 { fill: #ffcdc6 }
		.s10 { fill: #77c811 }
		.s11 { fill: #32212b }
		.s12 { opacity: .3;fill: url(#g3) }
		.s13 { opacity: .5;fill: url(#g4) }
		.s14 { fill: url(#g5) }
		.s15 { fill: #f4d121 }
		.s16 { fill: #eaeaea }
		.s17 { fill: #d8d8d8 }
		.s18 { fill: #c7c3c4 }
		.s19 { fill: #b5b4b4 }
		.s20 { fill: #fff3d7 }
		.s21 { fill: #ffb8b3 }
		.s22 { fill: #2122a0 }
		.s23 { fill: #f53818 }
		.s24 { fill: #008e41 }
		.s25 { fill: #db260e }
		.s26 { fill: #017a35 }
		.s27 { fill: #121889 }
		.s28 { fill: #7f387f }
		.s29 { fill: #6e2e70 }
		.s30 { fill: #c4104d }
		.s31 { fill: #b20b4b }
		.s32 { fill: #f9c011 }
		.s33 { fill: #e2aa0e }
		.s34 { fill: #db5b1b }
		.s35 { fill: #21100a }
		.s36 { fill: #381404 }
		.s37 { fill: #ffd360 }
		.s38 { fill: #e2b042 }
		.s39 { fill: #ef5c3a }
		.s40 { fill: #fff679 }
		.s41 { fill: #404040 }
		.s42 { fill: #535353 }
		.s43 { fill: #353535 }
		.s44 { fill: #3f3f3f }
		.s45 { fill: #67645b }
		.s46 { fill: #153c75 }
		.s47 { fill: #0c0c0c }
		.s48 { fill: #f9f5e1 }
		.s49 { fill: #29c5db }
		.s50 { fill: #9eca68 }
		.s51 { fill: #b5eaf2 }
	</style>
	<g id="object">
		<g id="&lt;Group&gt;">
			<path id="&lt;Path&gt;" class="s0" d="m2300 1500h-2300v-1500h2300z" />
			<path id="&lt;Path&gt;" class="s1"
				d="m2300 0v1416.5h-119.4c-233.3-47.2-219.5-236.1-441.6-194.4-222.2 41.7-226.7-199.3-343.2-218.5-93.9-15.5-312.6 99.4-178.5-118.7 143.2-232.8 171.7-326.6-6.1-321.1-177.7 5.6-86.1-91.6-261.1-208.3-174.9-116.6-118.8-355.5-118.8-355.5z" />
			<g id="&lt;Group&gt;">
				<path id="&lt;Path&gt;" class="s2"
					d="m1042.6 1283.4c5.2 3.9 3.6 17.1 1.3 25.7-2.2 8.5-40 3.8-76 3.8-35.9 0-41.4 0.9-39.6-10.8 1.9-11.8 16.1 3 32.7-4.7 18.6-8.6 55.8-18.4 55.8-18.4 7.9 17.7 20.5 0.6 25.8 4.4z" />
				<path id="&lt;Path&gt;" class="s3"
					d="m2300 1134.5v282h-119.4c-233.3-47.2-219.5-236.1-441.6-194.4-202.8 38-224.3-159.2-314.9-208.7 0 0 106.9-20.4 234.9 81.6 128 102 274-51.6 374 5.2 68.8 39.1 192.6 67.4 267 34.3z" />
				<path id="&lt;Path&gt;" class="s4"
					d="m1274.2 1174.8l68.5 114.3c0 0-66.1 38.1-110.8 5.3-44.6-32.7-164.3-160.1-182.7-183.9 0 0-0.6 36.3-23.3 63.7-22.6 27.4-80.8 127.2-80.8 127.2l-24.5 6.3c0 0 44.6-166.9 57.1-197.2 12.5-30.4 14.9-76.8 60.2-77.4 45.2-0.6 111.9 50.6 146.7 84.1 34.8 33.5 62.7 64.7 89.6 57.6z" />
				<path id="&lt;Path&gt;" class="s5"
					d="m1231.6 1071.5l-15.3 3.3c-3.9-1.9-6.4-3.3-7.3-4.1-6.2-5.3-7.1-16-7.1-24.5 0-8.5-11.1-17.2-16.2-22.6-5-5.3-12.8-10-14.3-4.1-1.5 5.9 22.7 23.7 9.3 18.8-13.4-4.9-25.7-31.8-31.2-27.4-7.6 6.1 11.6 22.2 11.6 22.2-1 0.6-1.7 1.4-2.2 2.2l-30.9-35.3 43.5-32.8z" />
				<path id="&lt;Path&gt;" class="s6"
					d="m1161.1 1033.1c-1 0.6-1.7 1.4-2.2 2.2l-30.9-35.2 10.6-8 33.3 40.1c-9.8-9.4-18.1-24.7-22.4-21.3-7.6 6.1 11.6 22.2 11.6 22.2z" />
				<path id="&lt;Path&gt;" class="s7"
					d="m1470.6 958c-16.6 12.4-49.9-4.5-60.5-10.4-6.3-5.4-12.8-11.6-15.4-15.9-7.3-12.2-4.2-48 0.3-53.8 6.6-8.5 0.9-15.1-8.3-18.6-9.2-3.6-8.9 1.4-6.8 16.9 2.1 15.5-5.5 19.4-5.5 19.4 0 0 5.5-19.4-18.6-17.6-24.2 1.8-50.2-39-50.2-39-12.3 6.9-8.9 22.1-6.2 39.3 2.6 17.2-3.4 26.1-4.3 31.4-0.9 5.2 12.1 2.4 12.1 2.4 2.8 11.9 23.3 30.2 34.9 30.2 11.6 0 16.9-8.3 16.9-8.3 6.8 8.7 10 18.6 11.4 27.4-79.5 30.2-87.3-68.9-89.7-98.9-2.3-30 20.3-37.6 20.3-37.6 43.6-54.8 121.7 4 151.2 42.4 29.5 38.4 44.1 71.7 18.4 90.7z" />
				<path id="&lt;Path&gt;" class="s8"
					d="m945.1 1301.4c5.1 3.1 3.5 13.8 1.3 20.7-2.2 6.9-39.1 3.1-74.1 3.1-35.1 0-40.4 0.8-38.6-8.7 1.7-9.6 19 4.7 32.7-4.8 13.7-9.5 59.5-17.3 59.5-17.3 7.7 14.3 14 3.8 19.2 7z" />
				<path id="&lt;Path&gt;" class="s9"
					d="m1424.1 958.9c-9.7-3.2-24.4 2.5-53.6 26.4 0.1-0.6 5.3-29.8-11.5-51.3 0 0-5.3 8.3-16.9 8.3-11.6 0-32.1-18.3-34.9-30.2 0 0-13 2.8-12.1-2.4 0.9-5.3 6.9-14.2 4.3-31.4-2.7-17.2-6.1-32.4 6.2-39.3 0 0 26 40.8 50.2 39 24.1-1.8 18.6 17.6 18.6 17.6 0 0 7.6-3.9 5.5-19.4-2.1-15.4-2.4-20.5 6.8-16.9 9.2 3.5 14.9 10.1 8.3 18.6-4.5 5.8-7.6 41.6-0.3 53.8 5.4 9.1 28.4 26.4 29.4 27.2z" />
				<path id="&lt;Path&gt;" class="s10"
					d="m1471.2 1116.4c-16 111.9-109.8 178.9-119 180.7-9.2 1.8-9.6-8-9.6-8l-68.4-114.3c0 0 46.6-17 48.4-44.7 1.8-27.7 8.4-112 45.5-142.9 37.1-30.8 51.6-33.3 61.5-25.3 9.8 8.1 57.7 42.6 41.6 154.5z" />
				<path id="&lt;Path&gt;" class="s9"
					d="m1406.9 1100.2c0 0-37 72.8-62.5 79-25.4 6.3-139.7-89.7-155.8-96.8-16.1-7.2-35.8-20.7-34.1-32 0 0-1.9-6 3-9.1 0 0-0.7-5.2 3.6-8.2 0 0-19.2-16.1-11.6-22.2 5.5-4.5 17.8 22.5 31.2 27.4 13.4 4.9-10.8-12.9-9.3-18.8 1.5-5.9 9.3-1.2 14.3 4.1 5.1 5.4 16.2 14.1 16.2 22.6 0 8.5 0.9 19.2 7.1 24.5 6.3 5.4 103 46.9 120.6 61.8 0 0 29.4-56.5 33.3-61.3 0 0 34.5 26.5 44 29z" />
				<path id="&lt;Path&gt;" class="s11"
					d="m1251.3 1172.6c-20.1-8.3-41.6-31.3-66.7-55.4-34.8-33.5-101.5-84.7-146.7-84.1q-4.5 0.1-8.4 0.7c0 0 39-12.2 64.5-1.7 22.1 9.1 139.6 116.8 157.3 140.5z" />
				<path id="&lt;Path&gt;" class="s11"
					d="m1075.7 1140.8c0 0-4.2 36.3-12.5 62-8.4 25.5-19.4 85.1-19.4 85.1 0 0-29.8 2.4-31.3-8.6-1.4-11.1 2.6-75.2 5.9-95.2 2.8-3.9 5.3-7.3 7.6-9.9 22.6-27.4 23.2-63.7 23.2-63.7 4.2 5.4 13.7 16.3 26.5 30.3z" />
				<path id="&lt;Path&gt;" class="s12"
					d="m1295.1 749.4c67.9-134.2 54.2-189.9-83.9-185.6-177.7 5.6-86.1-91.6-261.1-208.3-174.9-116.6-118.8-355.5-118.8-355.5h348.5c0 0-26.8 209.8 153.4 275.8 180.2 66 175.6 392.1-38.1 473.6z" />
			</g>
			<path id="&lt;Path&gt;" class="s13"
				d="m2300 143.9v823.3c-185.5-49.6 32.5-46.4-180.6-274.3-213-228 180.6-549 180.6-549z" />
			<g id="&lt;Group&gt;">
				<path id="&lt;Path&gt;" class="s14"
					d="m0 0h292.7c0 0 77.3 50 0 180-77.3 130-292.7 106-292.7 106z" />
			</g>
			<g id="&lt;Group&gt;">
				<path id="&lt;Path&gt;" class="s15"
					d="m2125.9 735.4c-7.4 23.5-21.8 42.8-40.2 56.4q-0.1 0-0.2 0.1c-7 5.3-43.1 34.1-55 70.1q-1.2-0.7-2.6-1.1l-107.2-33.9q-1.4-0.4-2.8-0.5c11-36.3-2.1-80.7-4.8-89q0-0.1-0.1-0.2h0.1c-7.3-21.7-8.1-45.8-0.7-69.3 18.6-58.9 81.5-91.7 140.5-73 58.9 18.6 91.6 81.4 73 140.4z" />
				<path id="&lt;Path&gt;" class="s0"
					d="m2033.7 878.6c-2.9 3.9-7.9 5.7-12.7 4.2l-107.2-33.9c-6.1-1.9-9.4-8.3-7.5-14.4q0.6-1.8 1.7-3.4c2.8-3.8 7.9-5.6 12.7-4.1l107.2 33.9c6 1.9 9.4 8.3 7.5 14.4q-0.6 1.8-1.7 3.3z" />
				<path id="&lt;Path&gt;" class="s16"
					d="m2020.7 889.5c-4.9 6.6-13.7 9.8-22 7.1l-74.6-23.5c-10.5-3.3-16.3-14.5-13-25l112.6 35.5c-0.7 2.2-1.7 4.1-3 5.9z" />
				<path id="&lt;Path&gt;" class="s17"
					d="m2004.3 905.2c-4.9 6.7-13.7 9.8-22.1 7.2l-53.7-17c-10.5-3.3-16.3-14.5-13-25l91.7 28.9c-0.6 2.2-1.7 4.2-2.9 5.9z" />
				<path id="&lt;Path&gt;" class="s18"
					d="m1990.3 918.8c-2.9 3.8-7.9 5.7-12.7 4.1l-51.4-16.2c-6-1.9-9.4-8.3-7.5-14.4l73.3 23.1q-0.6 1.9-1.7 3.4z" />
				<path id="&lt;Path&gt;" class="s19"
					d="m1979 923.3c-8.8 6.2-20.3 8.4-31.3 4.9-11-3.5-19.2-11.8-22.8-22q0.7 0.3 1.3 0.5l51.4 16.2q0.7 0.3 1.4 0.4z" />
				<g id="&lt;Group&gt;">
					<path id="&lt;Compound Path&gt;" fill-rule="evenodd" class="s20"
						d="m2023.4 775.9c-11.1 31.4-18.5 64.5-21.1 76.9l-3.1-1c1.8-8.5 5.7-26.1 11.3-46q4.7-16.6 9.6-30.6h-0.1q-2.2-0.7-4.1-2c-7.4-4.8-10.8-15.5-12.1-29.3-4.6 1.3-9.2 2.1-13.7 2.5q-0.2 1.4-0.5 2.9c-2.4 12.8-6.9 27.5-13.5 43.6-7.9 19.6-17 36.6-21.6 44.8l-3.2-1c4.4-7.8 13.7-25.1 21.8-45.1 6.9-16.8 11.4-31.9 13.6-45q-1.3 0-2.7 0c-10.7-0.1-20.1-3.1-27.3-8.5-9.2-7-12.5-17.9-8.9-29 3.4-10.3 12-17.9 20.5-18.1 4.8-0.1 13.9 2.1 20 18.5 3.4 8.9 4.1 20.2 2.3 33.6 4.2-0.4 8.5-1.2 12.9-2.5-1.2-15.5 0-34.4 1.2-52.9l0.1-0.6c1.6-25.2 12.3-33.6 21.8-33 12.2 0.7 24.6 16.2 23.2 40-1.1 19-14.3 36.1-35.2 45.8q-3.8 1.7-7.7 3c1.4 14.7 4.9 23.7 10.8 27.6q1.6 1 3.5 1.6c7.5-20.8 15.3-36.9 23.3-48.2 9.4-13.2 16.3-14.7 20.5-13.6 4.4 1.2 7.4 5.8 8.1 12.6 1.4 12.5-5.3 35.6-29.2 47.8-8.1 4.1-14.9 5.8-20.5 5.2zm1.1-3.3q7.3 0.5 17.9-4.8c22.4-11.5 28.7-32.9 27.5-44.5-0.6-5.2-2.6-8.8-5.5-9.8q-0.1 0-0.3 0c-4.3-1.2-10.5 3.3-16.9 12.3-8.6 12-16.2 29-22.7 46.8zm-37.3-29.2c1.9-13.3 1.3-24.3-1.9-32.8-3.3-8.7-7.9-14.1-13.2-15.8q-1.8-0.6-3.7-0.6c-7.2 0.2-14.6 6.9-17.5 15.9-3.2 9.8-0.3 19.2 7.8 25.4 7.4 5.6 17.5 8.3 28.5 7.9zm19.5-3.8q3.2-1.2 6.5-2.7c19.8-9.1 32.3-25.2 33.4-43 1.1-19-7.5-33-17.1-36q-1.5-0.5-3.1-0.6c-7.9-0.5-16.9 7.2-18.4 30v0.6c-1.2 17.9-2.3 36.5-1.3 51.6q0 0 0 0.1z" />
				</g>
				<g id="&lt;Group&gt;">
					<path id="&lt;Path&gt;" class="s0"
						d="m2169.3 731.2l-24.3-7.7c-2-0.6-3.1-2.8-2.4-4.8 0.6-2 2.7-3.1 4.7-2.4l24.3 7.6c2 0.6 3.1 2.8 2.4 4.8-0.6 2-2.7 3.1-4.7 2.5z" />
				</g>
				<g id="&lt;Group&gt;">
					<path id="&lt;Path&gt;" class="s0"
						d="m1903.6 647.3l-20.1-6.3c-2-0.7-3.1-2.8-2.5-4.8 0.7-2 2.8-3.1 4.8-2.5l20.1 6.3c2 0.7 3.1 2.8 2.5 4.8-0.7 2-2.8 3.1-4.8 2.5z" />
				</g>
				<g id="&lt;Group&gt;">
					<path id="&lt;Path&gt;" class="s0"
						d="m2142 666.1c-1-0.3-1.7-1.1-1.9-2.2-0.2-1.4 0.8-2.8 2.3-3.1l32.5-5.3c1.5-0.3 2.9 0.7 3.2 2.2 0.2 1.5-0.8 2.9-2.3 3.1l-32.5 5.4q-0.7 0.1-1.3-0.1z" />
				</g>
				<g id="&lt;Group&gt;">
					<path id="&lt;Path&gt;" class="s0"
						d="m2121.6 626.6c-0.8-0.2-1.6-0.8-2.1-1.6-1.1-1.8-0.6-4.1 1.2-5.2l31.9-19.9c1.8-1.1 4.1-0.6 5.3 1.2 1.1 1.8 0.5 4.1-1.3 5.2l-31.8 19.9c-1 0.7-2.2 0.8-3.2 0.4z" />
				</g>
				<g id="&lt;Group&gt;">
					<path id="&lt;Path&gt;" class="s0"
						d="m2098.3 601.3q-0.5-0.2-0.9-0.6c-1.2-0.9-1.3-2.7-0.3-3.8l25.7-30.1c1-1.2 2.7-1.3 3.9-0.3 1.1 1 1.2 2.7 0.3 3.8l-25.8 30.1c-0.7 0.9-1.9 1.2-2.9 0.9z" />
				</g>
				<g id="&lt;Group&gt;">
					<path id="&lt;Path&gt;" class="s0"
						d="m2016 573.9c-1-0.3-1.8-1.2-1.9-2.4l-3.6-37.9c-0.2-1.5 0.9-2.9 2.4-3 1.5-0.1 2.9 1 3 2.4l3.7 38c0.1 1.5-1 2.8-2.5 3q-0.6 0-1.1-0.1z" />
				</g>
				<g id="&lt;Group&gt;">
					<path id="&lt;Path&gt;" class="s0"
						d="m1981.6 580.4c-1.1-0.3-1.9-1-2.4-2.1l-13.7-32.3c-0.8-1.9 0.1-4.2 2-5 2-0.8 4.2 0.1 5 2l13.7 32.3c0.8 2-0.1 4.2-2 5-0.9 0.4-1.8 0.4-2.6 0.1z" />
				</g>
				<g id="&lt;Group&gt;">
					<path id="&lt;Path&gt;" class="s0"
						d="m1940.6 600.8q-0.6-0.2-1.1-0.6l-21-20.6c-1.1-1-1.1-2.7 0-3.8 1-1.1 2.7-1.1 3.8-0.1l21 20.6c1.1 1 1.1 2.8 0.1 3.8-0.8 0.8-1.8 1-2.8 0.7z" />
				</g>
				<g id="&lt;Group&gt;">
					<path id="&lt;Path&gt;" class="s0"
						d="m2060.4 581.8q0 0-0.1 0c-2-0.6-3-2.8-2.4-4.8l12.5-38.2c0.6-2 2.7-3.1 4.7-2.4q0.1 0 0.1 0c2 0.6 3.1 2.8 2.4 4.8l-12.5 38.2c-0.6 2-2.7 3.1-4.7 2.4z" />
				</g>
			</g>
			<g id="&lt;Group&gt;">
				<path id="&lt;Path&gt;" class="s21"
					d="m1611.1 263.1c-3.2 15.9 45.5-16.2 56.2 13.8 10.8 30.1-55.4 164.2-166.4 145.7-110.9-18.5-43.1-170.3-6.9-204.2 36.2-33.9 84-37.8 110.2-20.8 26.2 16.9 9.2 53.9 6.9 65.5z" />
				<path id="&lt;Path&gt;" class="s22"
					d="m1514.5 374.3c5.1 10.2 4.8 20.8-3.8 25.1-8.5 4.3-19.6-0.5-24.8-10.7-5.1-10.2-2.3-22 6.2-26.3 8.6-4.3 17.2 1.7 22.4 11.9z" />
				<path id="&lt;Path&gt;" class="s23"
					d="m1524.8 267.3c-3.6 11.6-12.5 19.1-24.1 15.5-11.6-3.5-18.1-15.8-14.5-27.4 3.5-11.6 15.8-18.1 27.4-14.5 11.6 3.5 14.8 14.8 11.2 26.4z" />
				<path id="&lt;Path&gt;" class="s24"
					d="m1499 326.3c0 12.1-6.4 21.9-18.5 21.9-12.1 0-22-9.8-22-21.9 0-12.2 9.9-22 22-22 12.1 0 18.5 9.8 18.5 22z" />
				<path id="&lt;Path&gt;" class="s25"
					d="m1513.6 282c-3.8 1.9-8.1 2.3-12.9 0.8-11.6-3.5-18.1-15.8-14.5-27.4 3.5-11.5 15.6-18 27.1-14.6-6.2 2.3-11.2 7.3-13.3 14.1-3.5 11.3 2.5 23.2 13.6 27.1z" />
				<path id="&lt;Path&gt;" class="s26"
					d="m1490.5 345.3c-2.7 1.9-6 2.9-10 2.9-12.1 0-22-9.8-22-21.9 0-11.7 9.1-21.2 20.5-21.9-6.5 3.8-11 10.8-11 19 0 12.1 9.9 21.9 22 21.9q0.3 0 0.5 0z" />
				<path id="&lt;Path&gt;" class="s27"
					d="m1517.3 391.3c-0.9 3.4-3.1 6.3-6.6 8.1-8.5 4.3-19.6-0.5-24.8-10.7-5.1-10.2-2.3-22 6.2-26.3q0.5-0.2 1-0.4c-2.1 5.2-1.8 11.8 1.2 17.8 4.8 9.5 14.7 14.3 23 11.5z" />
				<path id="&lt;Path&gt;" class="s28"
					d="m1568 238.4c-8.8 8.3-20.3 10.5-28.7 1.7-8.3-8.8-7.9-22.7 0.9-31.1 8.8-8.3 22.7-7.9 31 0.9 8.4 8.8 5.6 20.2-3.2 28.5z" />
				<path id="&lt;Path&gt;" class="s29"
					d="m1546.6 240.1c2.7 2.8 5.7 4.5 8.9 5.2-5.7 1.2-11.5-0.2-16.2-5.2-8.3-8.8-7.9-22.7 0.9-31.1 5.2-4.9 12.2-6.8 18.7-5.7-4.2 0.7-8.2 2.6-11.4 5.7-8.9 8.4-9.2 22.3-0.9 31.1z" />
				<path id="&lt;Path&gt;" class="s30"
					d="m1594 292.5c-8.4 7.9-18.7 10.7-25.4 3.6-6.6-7-5.2-19.1 3.2-27.1 8.4-7.9 20.6-8.7 27.2-1.6 6.7 7 3.4 17.1-5 25.1z" />
				<path id="&lt;Path&gt;" class="s31"
					d="m1574.5 296.1c1.8 2 4 3.2 6.4 3.8-4.6 0.9-8.9-0.2-12.3-3.8-6.6-7-5.2-19.1 3.2-27.1 5.3-5.1 12.3-7.2 18.3-6.2-4.4 0.6-8.8 2.7-12.5 6.2-8.4 8-9.8 20.1-3.1 27.1z" />
				<path id="&lt;Path&gt;" class="s32"
					d="m1551.9 328c-8.3 7.8-18.5 10.5-25.1 3.6-6.6-7-5.2-19 3.1-26.8 8.3-7.9 20.4-8.6 27-1.6 6.5 6.9 3.3 16.9-5 24.8z" />
				<path id="&lt;Path&gt;" class="s33"
					d="m1542.2 334.4c-5.7 2.1-11.3 1.6-15.4-2.8-6.6-7-5.2-19 3.1-26.8 3.8-3.6 8.3-5.6 12.8-6.2-2.9 1-5.7 2.7-8.2 5.1-8.3 7.8-9.7 19.8-3.1 26.8 3 3.1 6.8 4.3 10.8 3.9z" />
				<path id="&lt;Path&gt;" class="s34"
					d="m1624.6 323.6c-5.8 10-83.4 69.7-92.1 63.1-15.4-11.5 69.2-80.5 75.5-82.8 2-0.7 4.3-0.6 6.6 0.2 5.3 1.9 10.5 7.2 11.2 12.9 0.3 2.2 0 4.4-1.2 6.6z" />
				<path id="&lt;Path&gt;" class="s35"
					d="m1633.6 307.1c-0.6 5.6-7.5 9.8-7.8 9.9-0.7-5.7-5.9-11-11.2-12.9 0.2-0.3 7.6-12.2 16-3.9 2.5 2.4 3.2 4.8 3 6.9z" />
				<path id="&lt;Path&gt;" class="s36"
					d="m1633.6 307c0.2-2.1-0.6-4.4-3-6.8-2.3-2.2-4.5-3-6.5-2.9 0.6-2.8 5.5-24.7 21.9-25.9 17.4-1.3 22.5-10.1 22.5-10.1 0 0 9.1 39-34.9 45.7z" />
			</g>
			<g id="&lt;Group&gt;">
				<g id="&lt;Group&gt;">
					<path id="&lt;Compound Path&gt;" fill-rule="evenodd" class="s37"
						d="m2188.4 1087.4l-49.9 135.7-230.1-84.6zm-68.6 97.6l21.6-58.7-121.1 22.1z" />
				</g>
				<g id="&lt;Group&gt;">
					<path id="&lt;Path&gt;" class="s38"
						d="m2188.4 1087.4l-49.9 135.7-9.5-3.5 39.1-106.3c2.2-6-2.9-12.1-9.2-11l-233.1 42.5-17.4-6.3z" />
				</g>
				<g id="&lt;Group&gt;">
					<path id="&lt;Path&gt;" class="s39" d="m1941.2 1150.5l-1.8-0.6 2.6-7 1.8 0.6z" />
				</g>
				<g id="&lt;Group&gt;">
					<path id="&lt;Path&gt;" class="s39" d="m1949.4 1153.6l-1.8-0.7 2.6-7 1.8 0.6z" />
				</g>
				<g id="&lt;Group&gt;">
					<path id="&lt;Path&gt;" class="s39" d="m1933 1147.5l-1.8-0.6 2.6-7.1 1.8 0.7z" />
				</g>
				<g id="&lt;Group&gt;">
					<path id="&lt;Path&gt;" class="s39" d="m1957.6 1156.6l-1.8-0.7 2.6-7 1.8 0.6z" />
				</g>
				<g id="&lt;Group&gt;">
					<path id="&lt;Path&gt;" class="s39" d="m1965.8 1159.6l-1.8-0.7 2.6-7 1.8 0.7z" />
				</g>
				<g id="&lt;Group&gt;">
					<path id="&lt;Path&gt;" class="s39" d="m1974 1162.6l-1.8-0.7 2.5-7 1.9 0.7z" />
				</g>
				<g id="&lt;Group&gt;">
					<path id="&lt;Path&gt;" class="s39" d="m1982.2 1165.6l-1.9-0.7 2.6-7 1.8 0.7z" />
				</g>
				<g id="&lt;Group&gt;">
					<path id="&lt;Path&gt;" class="s39" d="m1990.4 1168.6l-1.9-0.7 2.6-7 1.8 0.7z" />
				</g>
				<g id="&lt;Group&gt;">
					<path id="&lt;Path&gt;" class="s39" d="m1998.5 1171.6l-1.8-0.6 2.6-7.1 1.8 0.7z" />
				</g>
				<g id="&lt;Group&gt;">
					<path id="&lt;Path&gt;" class="s39" d="m2006.7 1174.6l-1.8-0.6 2.6-7.1 1.8 0.7z" />
				</g>
				<g id="&lt;Group&gt;">
					<path id="&lt;Path&gt;" class="s39" d="m2014.9 1177.6l-1.8-0.6 2.6-7 1.8 0.6z" />
				</g>
				<g id="&lt;Group&gt;">
					<path id="&lt;Path&gt;" class="s39" d="m2023.1 1180.7l-1.8-0.7 2.6-7 1.8 0.6z" />
				</g>
				<g id="&lt;Group&gt;">
					<path id="&lt;Path&gt;" class="s39" d="m2031.3 1183.7l-1.8-0.7 2.6-7 1.8 0.7z" />
				</g>
				<g id="&lt;Group&gt;">
					<path id="&lt;Path&gt;" class="s39" d="m2039.5 1186.7l-1.8-0.7 2.5-7 1.9 0.7z" />
				</g>
				<g id="&lt;Group&gt;">
					<path id="&lt;Path&gt;" class="s39" d="m2047.7 1189.7l-1.8-0.7 2.5-7 1.9 0.7z" />
				</g>
				<g id="&lt;Group&gt;">
					<path id="&lt;Path&gt;" class="s39" d="m2055.9 1192.7l-1.9-0.7 2.6-7 1.8 0.7z" />
				</g>
				<g id="&lt;Group&gt;">
					<path id="&lt;Path&gt;" class="s39" d="m2064 1195.7l-1.8-0.7 2.6-7 1.8 0.7z" />
				</g>
				<g id="&lt;Group&gt;">
					<path id="&lt;Path&gt;" class="s39" d="m2072.2 1198.7l-1.8-0.6 2.6-7.1 1.8 0.7z" />
				</g>
				<g id="&lt;Group&gt;">
					<path id="&lt;Path&gt;" class="s39" d="m2080.4 1201.7l-1.8-0.6 2.6-7 1.8 0.6z" />
				</g>
				<g id="&lt;Group&gt;">
					<path id="&lt;Path&gt;" class="s39" d="m2088.6 1204.8l-1.8-0.7 2.6-7 1.8 0.6z" />
				</g>
				<g id="&lt;Group&gt;">
					<path id="&lt;Path&gt;" class="s39" d="m2096.8 1207.8l-1.8-0.7 2.6-7 1.8 0.6z" />
				</g>
				<g id="&lt;Group&gt;">
					<path id="&lt;Path&gt;" class="s39" d="m2105 1210.8l-1.8-0.7 2.5-7 1.9 0.7z" />
				</g>
				<g id="&lt;Group&gt;">
					<path id="&lt;Path&gt;" class="s39" d="m2113.2 1213.8l-1.8-0.7 2.5-7 1.9 0.7z" />
				</g>
				<g id="&lt;Group&gt;">
					<path id="&lt;Path&gt;" class="s39" d="m2121.4 1216.8l-1.9-0.7 2.6-7 1.8 0.7z" />
				</g>
				<g id="&lt;Group&gt;">
					<path id="&lt;Path&gt;" class="s39" d="m2129.5 1219.8l-1.8-0.7 2.6-7 1.8 0.7z" />
				</g>
			</g>
			<path id="&lt;Compound Path&gt;" fill-rule="evenodd" class="s40"
				d="m1265.1 368.7c0.8 8.7-7.7 17.4-19.8 20-13 2.8-25.2-2.4-27.4-11.6-2.1-9.2 6.8-18.3 19.7-21.1 6.2-1.4 12.3-1 17.1 0.8l-11.4-73.9-91.8 14.2 13.5 87.1c0.8 8.6-7.7 17.4-19.8 20-13 2.8-25.2-2.4-27.4-11.6-2.1-9.2 6.8-18.3 19.7-21.1 6.2-1.4 12.3-1 17.1 0.8l-15.5-100.2 108.5-16.7zm-23-93.2l-1.8-11.5-91.7 14.1 1.8 11.6z" />
			<g id="&lt;Group&gt;">
				<path id="&lt;Path&gt;" class="s15"
					d="m1742.4 996.8c-3 17.2-9.1 43.5-12 55.3-0.1 0.6-1 0.5-0.9-0.1 0.9-12.3 2.4-38.7-1.7-45.9-3.4-5.8-24.4-29.9-39.9-47.4-0.2-0.3-0.7-0.1-0.8 0.3l-19.3 134.6h-0.1c-2.8 11.9-15.5 22.9-32.5 26.7-21.4 4.9-41.4-3.4-44.8-18.4-3.4-15 11.2-31 32.5-35.8 10.7-2.4 21.1-1.6 29.2 1.8 0.3 0.1 0.6-0.1 0.7-0.4l18.4-128.3 6.5-45c0.1-0.5 0.8-0.6 0.9 0 1 4.3 4 13.3 12.6 26 12.4 18.4 55.1 53.8 51.2 76.6z" />
			</g>
			<g id="&lt;Group&gt;">
				<g id="&lt;Group&gt;">
					<path id="&lt;Path&gt;" class="s0"
						d="m1609.2 607.6l13 76.6c2.8 16.2-8.2 31.7-24.5 34.5l-115.9 19.6-19.6 3.4c-16.3 2.7-31.7-8.2-34.5-24.5l-13-76.6c-2.1-12.2 3.6-24.1 13.6-30.3q-0.7-1-0.9-2.2l-1.1-6.6c-0.5-3 1.5-5.9 4.6-6.5l1.8-0.3c3.1-0.5 6 1.6 6.5 4.6l1.1 6.6 18.5-3.1 58.4-9.9q-0.5-0.8-0.6-1.8l-1.2-6.6c-0.5-3 1.6-5.9 4.6-6.5l31-5.2c3-0.5 5.9 1.5 6.5 4.6l1.1 6.6q0.1 1 0 1.9l16.1-2.8c16.3-2.7 31.8 8.2 34.5 24.5z" />
				</g>
				<g id="&lt;Group&gt;">
					<g id="&lt;Group&gt;">
						<g id="&lt;Group&gt;">
							<path id="&lt;Path&gt;" class="s41"
								d="m1458.8 602.8l23 135.5-19.6 3.4c-16.3 2.7-31.7-8.2-34.5-24.5l-13-76.6c-2.1-12.2 3.6-24.1 13.6-30.3 3.2-2 6.9-3.5 10.9-4.2z" />
						</g>
						<g id="&lt;Group&gt;">
							<path id="&lt;Path&gt;" class="s42"
								d="m1609.2 607.6l13 76.6c2.8 16.2-8.2 31.7-24.5 34.5l-115.9 19.6-23-135.5 115.9-19.7c16.3-2.7 31.8 8.2 34.5 24.5z" />
						</g>
					</g>
					<g id="&lt;Group&gt;">
						<g id="&lt;Group&gt;">
							<path id="&lt;Path&gt;" class="s43"
								d="m1557.5 577.4l1.1 6.6q0.1 1 0 1.9l-41.4 7q-0.5-0.8-0.6-1.8l-1.2-6.6c-0.5-3 1.6-5.9 4.6-6.5l31-5.2c3-0.5 5.9 1.5 6.5 4.6z" />
						</g>
						<g id="&lt;Group&gt;">
							<path id="&lt;Path&gt;" class="s43"
								d="m1557.5 577.4l1.1 6.6q0.1 1 0 1.9l-41.4 7q-0.5-0.8-0.6-1.8l-1.2-6.6c-0.5-3 1.6-5.9 4.6-6.5l31-5.2c3-0.5 5.9 1.5 6.5 4.6z" />
						</g>
						<g id="&lt;Group&gt;" style="opacity: .9">
							<path id="&lt;Path&gt;" class="s44"
								d="m1557.5 577.4l0.2 1.4q0 0 0 0l-41.4 7.1q-0.5-0.8-0.6-1.8l-0.3-1.4c0.4-2.3 2.2-4.2 4.6-4.7l31-5.2c3-0.5 5.9 1.5 6.5 4.6z" />
						</g>
						<g id="&lt;Group&gt;">
							<path id="&lt;Path&gt;" class="s43"
								d="m1439.2 599.3l1.1 6.6-1.1 0.2c-4 0.7-7.7 2.2-10.9 4.2q-0.7-1-0.9-2.2l-1.1-6.6c-0.5-3 1.5-5.9 4.6-6.5l1.8-0.3c3.1-0.5 6 1.6 6.5 4.6z" />
						</g>
					</g>
					<g id="&lt;Group&gt;">
						<g id="&lt;Group&gt;">
							<path id="&lt;Path&gt;" class="s45"
								d="m1591 651.4c3.9 22.9-11.5 44.6-34.4 48.4-22.9 3.9-44.5-11.5-48.4-34.3-3.9-22.9 11.5-44.6 34.4-48.5 22.8-3.9 44.5 11.5 48.4 34.4z" />
						</g>
						<g id="&lt;Group&gt;">
							<path id="&lt;Path&gt;" class="s46"
								d="m1586.2 652.2c3.4 20-10 38.9-30 42.3-20 3.4-38.9-10-42.3-30-3.4-20 10-38.9 30-42.3 20-3.4 38.9 10 42.3 30z" />
						</g>
						<g id="&lt;Group&gt;">
							<path id="&lt;Path&gt;" class="s0"
								d="m1572.7 654.5c2.2 12.8-6.4 24.9-19.2 27-12.7 2.2-24.9-6.4-27-19.2-2.2-12.7 6.4-24.8 19.2-27 12.7-2.2 24.8 6.4 27 19.2z" />
						</g>
						<g id="&lt;Group&gt;" style="opacity: .1">
							<path id="&lt;Path&gt;" class="s47"
								d="m1541.4 670.9c0.7 4.1 2.4 7.7 4.7 10.7-9.7-1.4-17.9-9-19.6-19.3-2.2-12.7 6.4-24.8 19.2-27 8.7-1.5 17.1 2.1 22.2 8.5-2.3-0.3-4.8-0.3-7.3 0.1-12.8 2.2-21.4 14.3-19.2 27z" />
						</g>
					</g>
				</g>
			</g>
			<g id="&lt;Group&gt;">
				<g id="&lt;Group&gt;">
					<g id="&lt;Group&gt;">
						<g id="&lt;Group&gt;">
							<path id="&lt;Path&gt;" class="s48"
								d="m2024.8 393.8l-115.1 34.6c-3 0.9-6-0.8-6.9-3.7l-44.7-149.2c-0.9-2.9 0.7-6 3.7-6.9l115.1-34.5c3-0.9 6 0.8 6.9 3.7l44.7 149.2c0.9 2.9-0.7 6-3.7 6.8z" />
						</g>
						<g id="&lt;Group&gt;">
							<g id="&lt;Group&gt;">
								<path id="&lt;Path&gt;" class="s49"
									d="m1993.4 341.1l-86.5 25.9c-2 0.7-4.2-0.5-4.8-2.6l-5.8-19.4 93.6-28.9 6.1 20.2c0.6 2.1-0.6 4.2-2.6 4.8z" />
							</g>
							<g id="&lt;Group&gt;">
								<path id="&lt;Path&gt;" class="s50"
									d="m1989.9 316.1l-93.6 28.9-1.5-5.1 23.1-29.3c1.6-2 4.4-2.7 6.7-1.6l18.9 8.4 17.6-27.1c1.5-2.3 4.5-3.2 7-2.1l15.5 6.8z" />
							</g>
							<g id="&lt;Group&gt;">
								<path id="&lt;Path&gt;" class="s51"
									d="m1983.6 295l-15.5-6.8c-2.5-1.1-5.5-0.2-7 2.1l-17.6 27.1-18.9-8.4c-2.3-1.1-5.1-0.4-6.7 1.6l-23.1 29.3-16-53.2c-0.6-2 0.6-4.2 2.6-4.8l86.4-25.9c2.1-0.6 4.2 0.6 4.9 2.6z" />
							</g>
							<g id="&lt;Group&gt;">
								<path id="&lt;Path&gt;" class="s40"
									d="m1943.9 287.4c-0.1 3.4-2.9 6.2-6.3 6.1-3.4 0-6.1-2.8-6.1-6.2 0.1-3.4 2.9-6.2 6.3-6.1 3.4 0 6.1 2.8 6.1 6.2z" />
							</g>
						</g>
					</g>
					<g id="&lt;Group&gt;">
						<g id="&lt;Group&gt;">
							<path id="&lt;Path&gt;" class="s0"
								d="m1971.8 429.1l-110.6 33.1c-4.2 1.3-8.6-1.1-9.9-5.3l-43.3-144.5c-1.3-4.2 1.1-8.6 5.3-9.9l110.6-33.2c4.1-1.2 8.6 1.2 9.8 5.4l43.4 144.5c1.2 4.2-1.2 8.6-5.3 9.9z" />
						</g>
						<g id="&lt;Group&gt;">
							<g id="&lt;Group&gt;">
								<path id="&lt;Path&gt;" class="s49"
									d="m1942.6 375.7l-86.4 25.9c-2.1 0.6-4.2-0.6-4.9-2.6l-5.8-19.4 93.6-29 6.1 20.2c0.6 2.1-0.6 4.3-2.6 4.9z" />
							</g>
							<g id="&lt;Group&gt;">
								<path id="&lt;Path&gt;" class="s50"
									d="m1939.1 350.6l-93.6 29-1.5-5.1 23.2-29.3c1.6-2.1 4.3-2.7 6.7-1.7l18.8 8.4 17.6-27.1c1.5-2.3 4.5-3.2 7-2.1l15.5 6.8z" />
							</g>
							<g id="&lt;Group&gt;">
								<path id="&lt;Path&gt;" class="s51"
									d="m1932.8 329.5l-15.5-6.8c-2.5-1.1-5.5-0.2-7 2.1l-17.6 27.1-18.8-8.4c-2.4-1-5.1-0.4-6.7 1.7l-23.2 29.3-16-53.2c-0.6-2.1 0.6-4.2 2.6-4.8l86.5-26c2-0.6 4.2 0.6 4.8 2.6z" />
							</g>
							<g id="&lt;Group&gt;">
								<path id="&lt;Path&gt;" class="s40"
									d="m1893.1 322c-0.1 3.4-2.9 6.1-6.3 6.1-3.4-0.1-6.1-2.9-6-6.3 0-3.4 2.8-6.1 6.2-6.1 3.4 0.1 6.1 2.9 6.1 6.3z" />
							</g>
						</g>
					</g>
				</g>
			</g>
			<g id="&lt;Group&gt;">
				<path id="&lt;Path&gt;" class="s0"
					d="m1925.9 1057.2c0 0-33.5 11.9-36.1 35.6-2.5-23.7-36.1-35.6-36.1-35.6 33.8-3.8 36.1-34.9 36.1-34.9 0 0 2.4 31.1 36.1 34.9z" />
				<path id="&lt;Path&gt;" class="s0"
					d="m1854.1 1093.7c0 0-18.5 6.5-19.9 19.7-1.5-13.2-20-19.7-20-19.7 18.7-2.2 20-19.4 20-19.4 0 0 1.2 17.2 19.9 19.4z" />
				<path id="&lt;Path&gt;" class="s0"
					d="m1947.5 1026.6c0 0-10 3.6-10.8 10.7-0.7-7.1-10.8-10.7-10.8-10.7 10.1-1.1 10.8-10.5 10.8-10.5 0 0 0.7 9.4 10.8 10.5z" />
				<path id="&lt;Path&gt;" class="s0"
					d="m1877.7 1131.4c0 0-7.1 2.5-7.6 7.5-0.5-5-7.6-7.5-7.6-7.5 7.1-0.8 7.6-7.4 7.6-7.4 0 0 0.5 6.6 7.6 7.4z" />
			</g>
			<g id="&lt;Group&gt;">
				<path id="&lt;Path&gt;" class="s0"
					d="m1731.7 708.2c0 0 28.1-21.8 23.2-45.1 9.8 21.7 45.4 22.6 45.4 22.6-30.9 14.1-23.5 44.4-23.5 44.4 0 0-11.9-28.8-45.1-21.9z" />
				<path id="&lt;Path&gt;" class="s0"
					d="m1788.5 651.2c0 0 15.6-12.1 12.9-25 5.4 12.1 25.1 12.5 25.1 12.5-17.1 7.9-13 24.6-13 24.6 0 0-6.6-15.9-25-12.1z" />
				<path id="&lt;Path&gt;" class="s0"
					d="m1720.6 744c0 0 8.5-6.5 7-13.5 2.9 6.5 13.6 6.7 13.6 6.7-9.3 4.3-7 13.4-7 13.4 0 0-3.6-8.7-13.6-6.6z" />
				<path id="&lt;Path&gt;" class="s0"
					d="m1754.4 622.7c0 0 5.9-4.6 4.9-9.5 2 4.6 9.5 4.7 9.5 4.7-6.5 3-4.9 9.4-4.9 9.4 0 0-2.5-6.1-9.5-4.6z" />
			</g>
			<path id="&lt;Path&gt;" class="s0"
				d="m1542.4 950.2q-4.4 0.1-8.7-0.3-0.8 4.3-2 8.5c-1.2 4.3-2.8 8.5-5.2 12.6-1.3-4.6-1.7-9.1-1.8-13.5q-0.1-4.4 0.2-8.7-4.3-0.8-8.5-2c-4.2-1.2-8.4-2.7-12.5-5.2 4.6-1.3 9-1.7 13.4-1.8q4.4-0.1 8.8 0.2 0.7-4.2 1.9-8.5c1.3-4.2 2.8-8.4 5.2-12.5 1.3 4.6 1.7 9 1.9 13.4q0.1 4.4-0.3 8.8 4.3 0.7 8.5 1.9c4.3 1.3 8.5 2.8 12.6 5.2-4.6 1.3-9.1 1.7-13.5 1.9z" />
			<path id="&lt;Path&gt;" class="s0"
				d="m1372.1 467.8q-4.4 0-8.7-0.3-0.8 4.3-2 8.5c-1.2 4.3-2.8 8.5-5.2 12.5-1.3-4.5-1.7-9-1.8-13.4q-0.1-4.4 0.2-8.7-4.3-0.8-8.5-2c-4.2-1.2-8.4-2.8-12.5-5.2 4.5-1.3 9-1.7 13.4-1.8q4.4-0.1 8.8 0.2 0.7-4.3 1.9-8.5c1.3-4.2 2.8-8.4 5.2-12.5 1.3 4.5 1.7 9 1.9 13.4q0 4.4-0.3 8.8 4.3 0.7 8.5 1.9c4.3 1.3 8.5 2.8 12.5 5.2-4.5 1.3-9 1.7-13.4 1.9z" />
			<path id="&lt;Path&gt;" class="s0"
				d="m2048.3 202.8q-3-1.8-5.8-3.9-2.3 2.5-5 4.9c-2.6 2.3-5.4 4.4-8.8 6.2 1.1-3.7 2.7-6.9 4.5-9.9q1.8-3 3.9-5.7-2.5-2.4-4.9-5c-2.3-2.7-4.5-5.5-6.2-8.9 3.7 1.1 6.8 2.7 9.9 4.5q3 1.9 5.7 4 2.4-2.6 5-4.9c2.6-2.3 5.5-4.5 8.8-6.2-1 3.6-2.7 6.8-4.5 9.8q-1.8 3-3.9 5.8 2.6 2.3 4.9 4.9c2.3 2.7 4.5 5.5 6.2 8.9-3.6-1.1-6.8-2.7-9.8-4.5z" />
			<path id="&lt;Path&gt;" class="s0"
				d="m993.7 242.7q-3-1.8-5.7-3.9-2.4 2.6-5 4.9c-2.7 2.3-5.5 4.5-8.9 6.2 1.1-3.6 2.7-6.8 4.5-9.8q1.9-3 4-5.8-2.6-2.3-4.9-4.9c-2.3-2.7-4.5-5.5-6.2-8.9 3.6 1.1 6.8 2.7 9.8 4.5q3 1.8 5.8 3.9 2.3-2.5 4.9-4.9c2.7-2.3 5.5-4.4 8.9-6.2-1.1 3.7-2.7 6.8-4.5 9.9q-1.9 3-3.9 5.7 2.5 2.4 4.8 5c2.4 2.7 4.5 5.5 6.3 8.9-3.7-1.1-6.8-2.8-9.9-4.6z" />
			<path id="&lt;Path&gt;" class="s0"
				d="m2199 1323.1q-3-1.9-5.7-4-2.4 2.6-5 4.9c-2.6 2.3-5.5 4.5-8.9 6.2 1.1-3.6 2.8-6.8 4.6-9.8q1.8-3 3.9-5.8-2.6-2.3-4.9-4.9c-2.3-2.7-4.5-5.5-6.2-8.9 3.6 1.1 6.8 2.7 9.8 4.5q3 1.8 5.8 4 2.3-2.6 4.9-4.9c2.7-2.4 5.5-4.5 8.9-6.2-1.1 3.6-2.7 6.8-4.5 9.8q-1.8 3-3.9 5.7 2.5 2.4 4.9 5c2.3 2.7 4.5 5.5 6.2 8.9-3.7-1.1-6.8-2.7-9.9-4.5z" />
			<path id="&lt;Path&gt;" class="s0"
				d="m2199 496.5q-3-1.8-5.7-3.9-2.4 2.5-5 4.9c-2.6 2.3-5.5 4.4-8.9 6.2 1.1-3.7 2.8-6.9 4.6-9.9q1.8-3 3.9-5.7-2.6-2.4-4.9-5c-2.3-2.7-4.5-5.5-6.2-8.9 3.6 1.1 6.8 2.7 9.8 4.5q3 1.9 5.8 4 2.3-2.6 4.9-4.9c2.7-2.3 5.5-4.5 8.9-6.2-1.1 3.6-2.7 6.8-4.5 9.8q-1.8 3-3.9 5.8 2.5 2.3 4.9 4.9c2.3 2.7 4.5 5.5 6.2 8.9-3.7-1.1-6.8-2.7-9.9-4.5z" />
			<path id="&lt;Path&gt;" class="s0"
				d="m2226.7 979.4q-3-1.8-5.8-3.9-2.3 2.5-5 4.9c-2.6 2.3-5.4 4.5-8.8 6.2 1-3.7 2.7-6.8 4.5-9.9q1.8-3 3.9-5.7-2.6-2.4-4.9-5c-2.3-2.6-4.5-5.5-6.2-8.9 3.6 1.1 6.8 2.8 9.8 4.6q3 1.8 5.8 3.9 2.4-2.6 5-4.9c2.6-2.3 5.5-4.5 8.8-6.2-1.1 3.6-2.7 6.8-4.5 9.8q-1.8 3-3.9 5.8 2.5 2.3 4.9 4.9c2.3 2.7 4.5 5.5 6.2 8.9-3.6-1.1-6.8-2.7-9.8-4.5z" />
			<path id="&lt;Path&gt;" class="s0"
				d="m1582.9 825.7c-2.5-0.3-4.3-2.6-3.9-5.1 0.3-2.5 2.6-4.3 5.1-3.9 2.5 0.3 4.2 2.6 3.9 5.1-0.3 2.5-2.6 4.2-5.1 3.9z" />
			<path id="&lt;Path&gt;" class="s0"
				d="m1359 236.2c-2.5-0.3-4.3-2.6-4-5.1 0.4-2.5 2.6-4.3 5.1-3.9 2.6 0.3 4.3 2.6 4 5.1-0.3 2.5-2.6 4.3-5.1 3.9z" />
			<path id="&lt;Path&gt;" class="s0"
				d="m1797.8 529.5c-2.5-0.4-4.3-2.6-3.9-5.1 0.3-2.6 2.6-4.3 5.1-4 2.5 0.3 4.3 2.6 3.9 5.1-0.3 2.5-2.6 4.3-5.1 4z" />
			<path id="&lt;Path&gt;" class="s0"
				d="m1774.2 211c-2.5-0.3-4.3-2.6-3.9-5.1 0.3-2.5 2.6-4.2 5.1-3.9 2.5 0.3 4.3 2.6 3.9 5.1-0.3 2.5-2.6 4.3-5.1 3.9z" />
			<path id="&lt;Path&gt;" class="s0"
				d="m2098.8 971.6c-2.5-0.3-4.3-2.6-4-5.1 0.4-2.5 2.7-4.3 5.2-4 2.5 0.4 4.2 2.7 3.9 5.2-0.3 2.5-2.6 4.2-5.1 3.9z" />
			<path id="&lt;Path&gt;" class="s0"
				d="m1702.1 1160.3c-2.5-0.4-4.3-2.6-3.9-5.2 0.3-2.5 2.6-4.2 5.1-3.9 2.5 0.3 4.2 2.6 3.9 5.1-0.3 2.5-2.6 4.3-5.1 4z" />
			<path id="&lt;Path&gt;" class="s0"
				d="m1769.6 866.9c-2.5-0.4-4.2-2.6-3.9-5.1 0.3-2.6 2.6-4.3 5.1-4 2.5 0.3 4.3 2.6 4 5.1-0.4 2.5-2.7 4.3-5.2 4z" />
			<path id="&lt;Path&gt;" class="s0"
				d="m1363.5 753.9c-2.5-0.3-4.2-2.6-3.9-5.1 0.3-2.5 2.6-4.3 5.1-4 2.5 0.4 4.3 2.6 4 5.1-0.4 2.5-2.6 4.3-5.2 4z" />
			<path id="&lt;Path&gt;" class="s0"
				d="m2264.4 767.6c-2.5-0.4-4.3-2.7-4-5.2 0.3-2.5 2.6-4.2 5.1-3.9 2.5 0.3 4.3 2.6 4 5.1-0.4 2.5-2.6 4.3-5.1 4z" />
			<path id="&lt;Path&gt;" class="s0"
				d="m2187.8 215.6c-2.5-0.3-4.3-2.6-3.9-5.1 0.3-2.5 2.6-4.3 5.1-3.9 2.5 0.3 4.3 2.6 3.9 5.1-0.3 2.5-2.6 4.2-5.1 3.9z" />
			<path id="&lt;Path&gt;" class="s0"
				d="m2078 1292.6c-2.5-0.3-4.3-2.6-3.9-5.1 0.3-2.5 2.6-4.3 5.1-3.9 2.5 0.3 4.3 2.6 3.9 5.1-0.3 2.5-2.6 4.3-5.1 3.9z" />
			<path id="&lt;Path&gt;" class="s0"
				d="m1658.4 455.5c-5-0.7-8.5-5.3-7.8-10.3 0.6-5 5.2-8.5 10.2-7.9 5 0.7 8.5 5.3 7.9 10.3-0.7 5-5.2 8.5-10.3 7.9z" />
			<path id="&lt;Path&gt;" class="s0"
				d="m1130.4 188.4c-5-0.7-8.5-5.3-7.8-10.3 0.6-5 5.2-8.5 10.2-7.9 5 0.7 8.5 5.3 7.9 10.3-0.7 5-5.2 8.5-10.3 7.9z" />
			<path id="&lt;Path&gt;" class="s0"
				d="m2225.8 406.4c-5-0.6-8.5-5.2-7.9-10.2 0.6-5 5.2-8.6 10.2-7.9 5 0.6 8.6 5.2 7.9 10.2-0.6 5-5.2 8.6-10.2 7.9z" />
			<path id="&lt;Path&gt;" class="s0"
				d="m1148.8 537.6c-5-0.6-8.5-5.2-7.9-10.2 0.7-5 5.3-8.6 10.3-7.9 5 0.6 8.5 5.2 7.9 10.2-0.7 5-5.3 8.6-10.3 7.9z" />
		</g>
	</g>
</svg>