<svg version="1.2" xmlns="http://www.w3.org/2000/svg" viewBox="0 0 1000 500" width="700" height="350">
	<title>6745534-ai</title>
	<style>
		.s0 { fill: #ffd1b3 } 
		.s1 { fill: #ffdfc9 } 
		.s2 { fill: #de8b54 } 
		.s3 { fill: #f7ad7c } 
		.s4 { fill: #54060b } 
		.s5 { fill: #b0581e } 
		.s6 { fill: #778d9e } 
		.s7 { fill: #162938 } 
		.s8 { fill: #4b6375 } 
		.s9 { fill: #253b4d } 
		.s10 { fill: #08121a } 
		.s11 { fill: #422c1a } 
		.s12 { fill: #8c5d37 } 
		.s13 { opacity: .6;fill: #778d9e } 
		.s14 { opacity: .2;fill: #ffffff } 
		.s15 { fill: #f7b36a } 
		.s16 { fill: #ff9524 } 
		.s17 { fill: #001f10 } 
		.s18 { fill: #307a56 } 
		.s19 { fill: #084025 } 
		.s20 { fill: #66462c } 
		.s21 { fill: #a1734d } 
		.s22 { fill: #ffffff } 
	</style>
	<g id="BACKGROUND">
		<path id="&lt;Path&gt;" class="s0" d="m63.9 436.9h872.2c0 7.2-195.2 13-436.1 13-240.9 0-436.1-5.8-436.1-13z"/>
	</g>
	<g id="OBJECTS">
		<g id="&lt;Group&gt;">
			<g id="&lt;Group&gt;">
				<path id="&lt;Path&gt;" class="s1" d="m780.7 344.8c43.7-58.4-24.9-11.2-51.6-19.6-25.8-11.2 39.6-76.4-55.9-88.1-70.3-8.6-136 75.3-237 77.4-73.8 1.6-146-63-134.2-139.3 8.8-79.1 116-116.3 163-47.5 7.7 11.6 13.1 26 25.5 32.2 20.9 10 84.8-23.6 112.8-32.1 92.2-28.1 183.7 26.1 183.2 85.1 0.2 17.9-32.7 34.2-23.8 49.7 17.4 28.5 88.2-4.5 70.8 52-4.7 15 82.6-12.4 51.4 29.3-27.6 36.9-91.9 33.1-104.2 0.9z"/>
				<path id="&lt;Path&gt;" class="s1" d="m290.8 210.4c-9.2 0-16.7 12.4-16.7 27.7 0-15.3-7.5-27.7-16.8-27.7 9.3 0 16.8-12.5 16.8-27.8 0 15.3 7.5 27.8 16.7 27.8z"/>
				<path id="&lt;Path&gt;" class="s1" d="m481.3 77.9c-9.2 0-16.7 12.4-16.7 27.8 0-15.4-7.5-27.8-16.8-27.8 9.3 0 16.8-12.4 16.8-27.8 0 15.4 7.5 27.8 16.7 27.8z"/>
				<path id="&lt;Path&gt;" class="s1" d="m867.3 272c-9.2 0-16.7 12.4-16.7 27.7 0-15.3-7.5-27.7-16.8-27.7 9.3 0 16.8-12.5 16.8-27.8 0 15.3 7.5 27.8 16.7 27.8z"/>
				<path id="&lt;Path&gt;" class="s1" d="m825.5 244.8c-4.7 0-8.4 6.2-8.4 13.9 0-7.7-3.8-13.9-8.4-13.9 4.6 0 8.4-6.2 8.4-13.9 0 7.7 3.7 13.9 8.4 13.9z"/>
				<path id="&lt;Path&gt;" class="s1" d="m489.7 111c-4.6 0-8.4 6.2-8.4 13.9 0-7.7-3.7-13.9-8.4-13.9 4.7 0 8.4-6.2 8.4-13.9 0 7.7 3.8 13.9 8.4 13.9z"/>
				<path id="&lt;Path&gt;" class="s1" d="m297.7 175.2c-4.6 0-8.4 6.3-8.4 13.9 0-7.6-3.8-13.9-8.4-13.9 4.6 0 8.4-6.2 8.4-13.8 0 7.6 3.8 13.8 8.4 13.8z"/>
				<path id="&lt;Path&gt;" class="s1" d="m433.1 68.9c-4.6 0-8.3 6.2-8.3 13.8 0-7.6-3.8-13.8-8.4-13.8 4.6 0 8.4-6.3 8.4-13.9 0 7.6 3.7 13.9 8.3 13.9z"/>
				<path id="&lt;Path&gt;" class="s1" d="m713.5 295.1c-4.6 0-8.4 6.2-8.4 13.9 0-7.7-3.8-13.9-8.4-13.9 4.6 0 8.4-6.2 8.4-13.9 0 7.7 3.8 13.9 8.4 13.9z"/>
			</g>
			<g id="&lt;Group&gt;">
				<path id="&lt;Path&gt;" class="s2" d="m768.9 374.4v-24.9c0-3.4 2.7-6.1 6.1-6.1h113.4c3.3 0 6.1 2.7 6.1 6.1v24.9c0 34.7-28.1 62.8-62.8 62.8-34.7 0-62.8-28.1-62.8-62.8z"/>
				<path id="&lt;Path&gt;" class="s3" d="m771.7 371.2v-22.4c0-3 2.5-5.4 5.5-5.4h103.4c3.1 0 5.6 2.4 5.6 5.4v22.4c0 31-25.7 56.2-57.3 56.2-31.6 0-57.2-25.2-57.2-56.2z"/>
				<path id="&lt;Path&gt;" class="s0" d="m784.5 369.6v-17.5c0-2.3 1.7-4.3 3.8-4.3h70.9c2.1 0 3.8 2 3.8 4.3v17.5c0 24.2-17.5 43.9-39.2 43.9-21.7 0-39.3-19.7-39.3-43.9z"/>
				<path id="&lt;Path&gt;" class="s1" d="m856.2 365.6c8.9 0 16 7.1 16 16 0 8.8-7.1 16-16 16-8.8 0-16-7.2-16-16 0-8.9 7.2-16 16-16z"/>
				<path id="&lt;Path&gt;" class="s1" d="m843.9 401.5c3.7 0 6.7 3.1 6.7 6.8 0 3.7-3 6.7-6.7 6.7-3.8 0-6.8-3-6.8-6.7 0-3.7 3-6.8 6.8-6.8z"/>
				<path id="&lt;Path&gt;" class="s4" d="m779.5 343.4h107.1c0 4-24 7.2-53.5 7.2-29.6 0-53.6-3.2-53.6-7.2z"/>
			</g>
			<g id="&lt;Group&gt;">
				<path id="&lt;Path&gt;" class="s2" d="m923 381.8c0 18.1-10.3 31.7-29.5 31.7q-0.3 0-0.6-0.1h-0.1q-1 0-2 0-0.1 0-0.1-0.1c-5-0.6-9.4-3.9-12.8-9-1.5-2.3 0.2-5.3 2.9-5.3h5.4c1.8 0 3.5 0.8 4.6 2.2 1.6 2.1 3.5 3.3 5.6 3.3 1.9 0 3.7-1 5.3-2.9q0 0 0 0c3.5-4.1 5.8-11.9 5.8-20.9 0-9-2.3-16.9-5.8-20.9-1.6-1.9-3.4-3-5.3-3-2.1 0-4 1.2-5.6 3.3-1.1 1.4-2.8 2.2-4.6 2.2h-5.4c-2.7 0-4.4-3-2.9-5.3 3.4-5.1 7.8-8.4 12.8-9q0-0.1 0.1-0.1 1 0 1.9 0h0.2q0.3-0.1 0.6-0.1c19.2 0 29.5 15.9 29.5 34z"/>
				<path id="&lt;Path&gt;" class="s3" d="m907.3 385.7q0.2-2.4 0.2-5c0-9-2.3-16.9-5.7-20.9-1.6-1.9-3.4-3-5.4-3-2 0-4 1.2-5.6 3.3-1.1 1.4-2.8 2.2-4.5 2.2h-5.5c-2.7 0-4.4-3-2.9-5.3 3.4-5.1 7.8-8.4 12.8-9q0-0.1 0.1 0 1-0.1 2-0.1h0.1q0.2-0.1 0.6 0c17.3 0 27.4 12.8 29.2 28.7-4.1 14-10.8 12.4-15.4 9.1z"/>
				<path id="&lt;Path&gt;" class="s0" d="m913.1 380.6c0 17.9-9 32.4-20.2 32.8h-0.1q-0.3 0.1-0.5 0.1-0.8 0-1.5-0.1-0.1 0-0.1-0.1c-5-0.6-9.4-3.9-12.8-9-1.4-2.3 0.2-5.3 2.9-5.3h5.4c1.8 0 3.5 0.8 4.6 2.2 1.6 2.1 3.6 3.3 5.6 3.3 1.9 0 3.7-1 5.3-2.9q0 0 0 0c3.5-4.1 5.8-11.9 5.8-20.9 0-9-2.3-16.9-5.7-20.9-1.6-1.9-3.5-3-5.4-3-2 0-4 1.2-5.6 3.3-1.1 1.4-2.8 2.2-4.6 2.2h-5.4c-2.7 0-4.3-3-2.9-5.3 3.4-5.1 7.8-8.4 12.8-9q0-0.1 0.1-0.1 0.7-0.1 1.5-0.1 0.3 0 0.5 0.1h0.1c11.2 0.4 20.2 14.9 20.2 32.7z"/>
				<path id="&lt;Path&gt;" class="s2" d="m901.7 401.6c-2.6 4.3-6.1 6.8-9.9 6.8-4.6 0-8.6-3.6-11.4-9.4h5.8c1.8 0 3.5 0.8 4.6 2.2 1.6 2.1 3.5 3.3 5.6 3.3 1.9 0 3.7-1 5.3-2.9z"/>
				<path id="&lt;Path&gt;" class="s3" d="m901.8 359.8c-1.6-1.9-3.4-3-5.4-3-2 0-4 1.2-5.6 3.3-1.1 1.4-2.8 2.2-4.5 2.2h-5.9c2.8-5.8 6.8-9.4 11.4-9.4 3.8 0 7.3 2.6 10 6.9z"/>
			</g>
			<g id="&lt;Group&gt;">
				<path id="&lt;Path&gt;" class="s3" d="m904.3 433.1h-134.4c-0.5 0-1-0.5-1-1.1v-1.5c0-0.6 0.5-1.1 1-1.1h134.4c0.6 0 1.1 0.5 1.1 1.1v1.5c0 0.6-0.5 1.1-1.1 1.1z"/>
				<path id="&lt;Path&gt;" class="s2" d="m888.9 433.1l-8.3 4.1q0 0 0 0h-44.9-3.1-44.9q0 0 0 0l-8.3-4.1h53.2 3.2z"/>
			</g>
		</g>
		<g id="&lt;Group&gt;">
			<g id="&lt;Group&gt;">
				<path id="&lt;Path&gt;" class="s5" d="m517.1 121.8c-15.9 10.1-28.3 36.5-17.2 51.1l-174.6-0.7c-10.2-14 1.6-39 15.8-49.3l1.5-1.1h174.5z"/>
				<path id="&lt;Path&gt;" class="s2" d="m386 261.5l-17.7-92.2c-3.9-20.7-13.3-37.9-25.7-47.5h174.5 0.1c11.8 9.7 20.7 26.2 24.7 46l18.7 93.7h-174.6z"/>
				<g id="&lt;Group&gt;">
					<path id="&lt;Path&gt;" class="s3" d="m412.5 147.5c0 1.6-1.2 2.8-2.6 2.8h-29.3c-1.4 0-2.6-1.2-2.6-2.8 0-1.5 1.2-2.8 2.6-2.8h29.3c1.4 0 2.6 1.3 2.6 2.8z"/>
					<path id="&lt;Path&gt;" class="s3" d="m523.9 147.5c0 1.6-1.2 2.8-2.6 2.8h-93.4c-1.5 0-2.7-1.2-2.7-2.8 0-1.5 1.2-2.8 2.7-2.8h93.4c1.4 0 2.6 1.3 2.6 2.8z"/>
					<path id="&lt;Path&gt;" class="s3" d="m487.5 162.2c0 1.6-1.2 2.8-2.7 2.8h-101c-1.5 0-2.7-1.2-2.7-2.8 0-1.5 1.2-2.8 2.7-2.8h101c1.5 0 2.7 1.3 2.7 2.8z"/>
					<path id="&lt;Path&gt;" class="s3" d="m527 162.2c0 1.6-1.2 2.8-2.6 2.8h-21.6c-1.5 0-2.7-1.2-2.7-2.8 0-1.5 1.2-2.8 2.7-2.8h21.6c1.4 0 2.6 1.3 2.6 2.8z"/>
					<path id="&lt;Path&gt;" class="s3" d="m384.2 176.9c0-1.5 1.2-2.8 2.6-2.8h140.7c1.4 0 2.6 1.3 2.6 2.8 0 1.6-1.2 2.8-2.6 2.8h-140.7c-1.4 0-2.6-1.2-2.6-2.8z"/>
					<path id="&lt;Path&gt;" class="s3" d="m456.9 191.6c0 1.6-1.2 2.8-2.7 2.8h-64.3c-1.4 0-2.6-1.2-2.6-2.8 0-1.5 1.2-2.8 2.6-2.8h64.3c1.5 0 2.7 1.3 2.7 2.8z"/>
					<path id="&lt;Path&gt;" class="s3" d="m533.2 191.6c0 1.6-1.2 2.8-2.7 2.8h-58.3c-1.4 0-2.6-1.2-2.6-2.8 0-1.5 1.2-2.8 2.6-2.8h58.3c1.5 0 2.7 1.3 2.7 2.8z"/>
					<path id="&lt;Path&gt;" class="s3" d="m475.5 206.3c0 1.6-1.2 2.8-2.6 2.8h-79.9c-1.4 0-2.6-1.2-2.6-2.8 0-1.5 1.2-2.8 2.6-2.8h79.9c1.4 0 2.6 1.3 2.6 2.8z"/>
					<path id="&lt;Path&gt;" class="s3" d="m536.3 206.3c0 1.6-1.2 2.8-2.6 2.8h-6.4c-1.4 0-2.6-1.2-2.6-2.8 0-1.5 1.2-2.8 2.6-2.8h6.4c1.4 0 2.6 1.3 2.6 2.8z"/>
					<path id="&lt;Path&gt;" class="s3" d="m393.5 221.1c0-1.6 1.2-2.9 2.6-2.9h140.7c1.4 0 2.6 1.3 2.6 2.9 0 1.5-1.2 2.8-2.6 2.8h-140.7c-1.4 0-2.6-1.3-2.6-2.8z"/>
					<path id="&lt;Path&gt;" class="s3" d="m414.2 235.8c0 1.5-1.2 2.8-2.7 2.8h-12.2c-1.5 0-2.7-1.3-2.7-2.8 0-1.6 1.2-2.9 2.7-2.9h12.2c1.5 0 2.7 1.3 2.7 2.9z"/>
					<path id="&lt;Path&gt;" class="s3" d="m542.5 235.8c0 1.5-1.2 2.8-2.6 2.8h-110.4c-1.4 0-2.6-1.3-2.6-2.8 0-1.6 1.2-2.9 2.6-2.9h110.4c1.4 0 2.6 1.3 2.6 2.9z"/>
				</g>
			</g>
			<g id="&lt;Group&gt;">
				<path id="&lt;Path&gt;" class="s6" d="m818.7 381.5v45.6h-323.4v-165.6h177.2l0.5 33.6z"/>
				<path id="&lt;Path&gt;" class="s7" d="m798.4 381.5v45.6h-169.9v-165.6h24.1v33.6z"/>
				<path id="&lt;Path&gt;" class="s8" d="m784.8 381.5v45.6h-323.4v-165.6h177.2l0.5 33.6z"/>
				<g id="&lt;Group&gt;">
					<g id="&lt;Group&gt;">
						<g id="&lt;Group&gt;">
							<path id="&lt;Path&gt;" class="s9" d="m664.4 376.9c4.7 0 8.5 0.8 8.5 1.8 0 1-3.8 1.8-8.5 1.8-4.7 0-8.5-0.8-8.5-1.8 0-1 3.8-1.8 8.5-1.8z"/>
							<path id="&lt;Path&gt;" class="s10" d="m670 375.5v2.6c0 0.6-2.5 1.1-5.6 1.1-3.1 0-5.6-0.5-5.6-1.1v-2.6z"/>
							<path id="&lt;Path&gt;" class="s9" d="m672.9 370.6v4c0 1-3.8 1.8-8.5 1.8-4.7 0-8.6-0.8-8.6-1.8v-4z"/>
							<path id="&lt;Path&gt;" class="s0" d="m664.4 368.8c4.7 0 8.5 0.8 8.5 1.8 0 1-3.8 1.8-8.5 1.8-4.7 0-8.5-0.8-8.5-1.8 0-1 3.8-1.8 8.5-1.8z"/>
						</g>
						<g id="&lt;Group&gt;">
							<path id="&lt;Path&gt;" class="s9" d="m752.3 376.9c4.7 0 8.5 0.8 8.5 1.8 0 1-3.8 1.8-8.5 1.8-4.7 0-8.5-0.8-8.5-1.8 0-1 3.8-1.8 8.5-1.8z"/>
							<path id="&lt;Path&gt;" class="s10" d="m757.9 375.5v2.6c0 0.6-2.5 1.1-5.6 1.1-3.1 0-5.6-0.5-5.6-1.1v-2.6z"/>
							<path id="&lt;Path&gt;" class="s9" d="m760.8 370.6v4c0 1-3.8 1.8-8.5 1.8-4.7 0-8.5-0.8-8.5-1.8v-4z"/>
							<path id="&lt;Path&gt;" class="s0" d="m752.3 368.8c4.7 0 8.5 0.8 8.5 1.8 0 1-3.8 1.8-8.5 1.8-4.7 0-8.5-0.8-8.5-1.8 0-1 3.8-1.8 8.5-1.8z"/>
						</g>
						<path id="&lt;Path&gt;" class="s0" d="m664.4 368.8h87.9v3.6h-87.9z"/>
						<path id="&lt;Path&gt;" class="s9" d="m664.4 372.4h87.9v4h-87.9z"/>
					</g>
					<g id="&lt;Group&gt;">
						<g id="&lt;Group&gt;">
							<g id="&lt;Group&gt;">
								<path id="&lt;Path&gt;" class="s9" d="m553 312.3c4.7 0 8.5 0.8 8.5 1.8 0 1-3.8 1.8-8.5 1.8-4.7 0-8.5-0.8-8.5-1.8 0-1 3.8-1.8 8.5-1.8z"/>
								<path id="&lt;Path&gt;" class="s10" d="m558.6 310.9v2.6c0 0.7-2.5 1.2-5.6 1.2-3.1 0-5.6-0.5-5.6-1.2v-2.6z"/>
								<path id="&lt;Path&gt;" class="s9" d="m561.5 306.1v3.9c0 1-3.8 1.8-8.5 1.8-4.7 0-8.5-0.8-8.5-1.8v-3.9z"/>
								<path id="&lt;Path&gt;" class="s0" d="m553 304.3c4.7 0 8.5 0.8 8.5 1.8 0 1-3.8 1.8-8.5 1.8-4.7 0-8.5-0.8-8.5-1.8 0-1 3.8-1.8 8.5-1.8z"/>
							</g>
							<g id="&lt;Group&gt;">
								<path id="&lt;Path&gt;" class="s9" d="m573.7 312.3c4.7 0 8.5 0.8 8.5 1.8 0 1-3.8 1.8-8.5 1.8-4.8 0-8.6-0.8-8.6-1.8 0-1 3.8-1.8 8.6-1.8z"/>
								<path id="&lt;Path&gt;" class="s10" d="m579.3 310.9v2.6c0 0.7-2.6 1.2-5.6 1.2-3.1 0-5.6-0.5-5.6-1.2v-2.6z"/>
								<path id="&lt;Path&gt;" class="s9" d="m582.2 306.1v3.9c0 1-3.9 1.8-8.6 1.8-4.7 0-8.5-0.8-8.5-1.8v-3.9z"/>
								<path id="&lt;Path&gt;" class="s0" d="m573.7 304.3c4.7 0 8.5 0.8 8.5 1.8 0 1-3.8 1.8-8.5 1.8-4.8 0-8.6-0.8-8.6-1.8 0-1 3.8-1.8 8.6-1.8z"/>
							</g>
							<g id="&lt;Group&gt;">
								<path id="&lt;Path&gt;" class="s9" d="m594.3 312.3c4.7 0 8.5 0.8 8.5 1.8 0 1-3.8 1.8-8.5 1.8-4.7 0-8.5-0.8-8.5-1.8 0-1 3.8-1.8 8.5-1.8z"/>
								<path id="&lt;Path&gt;" class="s10" d="m599.9 310.9v2.6c0 0.7-2.5 1.2-5.6 1.2-3.1 0-5.6-0.5-5.6-1.2v-2.6z"/>
								<path id="&lt;Path&gt;" class="s9" d="m602.8 306.1v3.9c0 1-3.8 1.8-8.5 1.8-4.7 0-8.5-0.8-8.5-1.8v-3.9z"/>
								<path id="&lt;Path&gt;" class="s0" d="m594.3 304.3c4.7 0 8.5 0.8 8.5 1.8 0 1-3.8 1.8-8.5 1.8-4.7 0-8.5-0.8-8.5-1.8 0-1 3.8-1.8 8.5-1.8z"/>
							</g>
							<g id="&lt;Group&gt;">
								<path id="&lt;Path&gt;" class="s9" d="m615 312.3c4.7 0 8.5 0.8 8.5 1.8 0 1-3.8 1.8-8.5 1.8-4.7 0-8.5-0.8-8.5-1.8 0-1 3.8-1.8 8.5-1.8z"/>
								<path id="&lt;Path&gt;" class="s10" d="m620.6 310.9v2.6c0 0.7-2.5 1.2-5.6 1.2-3.1 0-5.6-0.5-5.6-1.2v-2.6z"/>
								<path id="&lt;Path&gt;" class="s9" d="m623.5 306.1v3.9c0 1-3.8 1.8-8.5 1.8-4.7 0-8.5-0.8-8.5-1.8v-3.9z"/>
								<path id="&lt;Path&gt;" class="s0" d="m615 304.3c4.7 0 8.5 0.8 8.5 1.8 0 1-3.8 1.8-8.5 1.8-4.7 0-8.5-0.8-8.5-1.8 0-1 3.8-1.8 8.5-1.8z"/>
							</g>
							<g id="&lt;Group&gt;">
								<path id="&lt;Path&gt;" class="s9" d="m635.6 312.3c4.8 0 8.6 0.8 8.6 1.8 0 1-3.8 1.8-8.6 1.8-4.7 0-8.5-0.8-8.5-1.8 0-1 3.8-1.8 8.5-1.8z"/>
								<path id="&lt;Path&gt;" class="s10" d="m641.3 310.9v2.6c0 0.7-2.6 1.2-5.6 1.2-3.1 0-5.6-0.5-5.6-1.2v-2.6z"/>
								<path id="&lt;Path&gt;" class="s9" d="m644.2 306.1v3.9c0 1-3.8 1.8-8.6 1.8-4.7 0-8.5-0.8-8.5-1.8v-3.9z"/>
								<path id="&lt;Path&gt;" class="s0" d="m635.6 304.3c4.8 0 8.6 0.8 8.6 1.8 0 1-3.8 1.8-8.6 1.8-4.7 0-8.5-0.8-8.5-1.8 0-1 3.8-1.8 8.5-1.8z"/>
							</g>
							<g id="&lt;Group&gt;">
								<path id="&lt;Path&gt;" class="s9" d="m656.3 312.3c4.8 0 8.6 0.8 8.6 1.8 0 1-3.8 1.8-8.6 1.8-4.7 0-8.5-0.8-8.5-1.8 0-1 3.8-1.8 8.5-1.8z"/>
								<path id="&lt;Path&gt;" class="s10" d="m661.9 310.9v2.6c0 0.7-2.5 1.2-5.6 1.2-3 0-5.6-0.5-5.6-1.2v-2.6z"/>
								<path id="&lt;Path&gt;" class="s9" d="m664.9 306.1v3.9c0 1-3.9 1.8-8.6 1.8-4.7 0-8.5-0.8-8.5-1.8v-3.9z"/>
								<path id="&lt;Path&gt;" class="s0" d="m656.3 304.3c4.8 0 8.6 0.8 8.6 1.8 0 1-3.8 1.8-8.6 1.8-4.7 0-8.5-0.8-8.5-1.8 0-1 3.8-1.8 8.5-1.8z"/>
							</g>
						</g>
					</g>
					<g id="&lt;Group&gt;">
						<g id="&lt;Group&gt;">
							<path id="&lt;Path&gt;" class="s9" d="m574.4 325.1c4.7 0 8.5 0.8 8.5 1.8 0 1-3.8 1.8-8.5 1.8-4.7 0-8.6-0.8-8.6-1.8 0-1 3.9-1.8 8.6-1.8z"/>
							<path id="&lt;Path&gt;" class="s10" d="m580 323.7v2.6c0 0.6-2.5 1.2-5.6 1.2-3.1 0-5.6-0.6-5.6-1.2v-2.6z"/>
							<path id="&lt;Path&gt;" class="s9" d="m582.9 318.9v3.9c0 1-3.8 1.8-8.5 1.8-4.7 0-8.6-0.8-8.6-1.8v-3.9z"/>
							<path id="&lt;Path&gt;" class="s0" d="m574.4 317c4.7 0 8.5 0.9 8.5 1.9 0 1-3.8 1.8-8.5 1.8-4.7 0-8.6-0.8-8.6-1.8 0-1 3.9-1.9 8.6-1.9z"/>
						</g>
						<g id="&lt;Group&gt;">
							<path id="&lt;Path&gt;" class="s9" d="m595 325.1c4.7 0 8.6 0.8 8.6 1.8 0 1-3.9 1.8-8.6 1.8-4.7 0-8.5-0.8-8.5-1.8 0-1 3.8-1.8 8.5-1.8z"/>
							<path id="&lt;Path&gt;" class="s10" d="m600.6 323.7v2.6c0 0.6-2.5 1.2-5.6 1.2-3.1 0-5.6-0.6-5.6-1.2v-2.6z"/>
							<path id="&lt;Path&gt;" class="s9" d="m603.5 318.9v3.9c0 1-3.8 1.8-8.5 1.8-4.7 0-8.5-0.8-8.5-1.8v-3.9z"/>
							<path id="&lt;Path&gt;" class="s0" d="m595 317c4.7 0 8.6 0.9 8.6 1.9 0 1-3.9 1.8-8.6 1.8-4.7 0-8.5-0.8-8.5-1.8 0-1 3.8-1.9 8.5-1.9z"/>
						</g>
						<g id="&lt;Group&gt;">
							<path id="&lt;Path&gt;" class="s9" d="m615.7 325.1c4.7 0 8.5 0.8 8.5 1.8 0 1-3.8 1.8-8.5 1.8-4.7 0-8.5-0.8-8.5-1.8 0-1 3.8-1.8 8.5-1.8z"/>
							<path id="&lt;Path&gt;" class="s10" d="m621.3 323.7v2.6c0 0.6-2.5 1.2-5.6 1.2-3.1 0-5.6-0.6-5.6-1.2v-2.6z"/>
							<path id="&lt;Path&gt;" class="s9" d="m624.2 318.9v3.9c0 1-3.8 1.8-8.5 1.8-4.7 0-8.5-0.8-8.5-1.8v-3.9z"/>
							<path id="&lt;Path&gt;" class="s0" d="m615.7 317c4.7 0 8.5 0.9 8.5 1.9 0 1-3.8 1.8-8.5 1.8-4.7 0-8.5-0.8-8.5-1.8 0-1 3.8-1.9 8.5-1.9z"/>
						</g>
						<g id="&lt;Group&gt;">
							<path id="&lt;Path&gt;" class="s9" d="m636.4 325.1c4.7 0 8.5 0.8 8.5 1.8 0 1-3.8 1.8-8.5 1.8-4.7 0-8.6-0.8-8.6-1.8 0-1 3.9-1.8 8.6-1.8z"/>
							<path id="&lt;Path&gt;" class="s10" d="m642 323.7v2.6c0 0.6-2.5 1.2-5.6 1.2-3.1 0-5.6-0.6-5.6-1.2v-2.6z"/>
							<path id="&lt;Path&gt;" class="s9" d="m644.9 318.9v3.9c0 1-3.8 1.8-8.5 1.8-4.7 0-8.6-0.8-8.6-1.8v-3.9z"/>
							<path id="&lt;Path&gt;" class="s0" d="m636.4 317c4.7 0 8.5 0.9 8.5 1.9 0 1-3.8 1.8-8.5 1.8-4.7 0-8.6-0.8-8.6-1.8 0-1 3.9-1.9 8.6-1.9z"/>
						</g>
						<g id="&lt;Group&gt;">
							<path id="&lt;Path&gt;" class="s9" d="m657 325.1c4.7 0 8.6 0.8 8.6 1.8 0 1-3.9 1.8-8.6 1.8-4.7 0-8.5-0.8-8.5-1.8 0-1 3.8-1.8 8.5-1.8z"/>
							<path id="&lt;Path&gt;" class="s10" d="m662.6 323.7v2.6c0 0.6-2.5 1.2-5.6 1.2-3.1 0-5.6-0.6-5.6-1.2v-2.6z"/>
							<path id="&lt;Path&gt;" class="s9" d="m665.5 318.9v3.9c0 1-3.8 1.8-8.5 1.8-4.7 0-8.5-0.8-8.5-1.8v-3.9z"/>
							<path id="&lt;Path&gt;" class="s0" d="m657 317c4.7 0 8.6 0.9 8.6 1.9 0 1-3.9 1.8-8.6 1.8-4.7 0-8.5-0.8-8.5-1.8 0-1 3.8-1.9 8.5-1.9z"/>
						</g>
						<g id="&lt;Group&gt;">
							<path id="&lt;Path&gt;" class="s9" d="m677.7 325.1c4.7 0 8.5 0.8 8.5 1.8 0 1-3.8 1.8-8.5 1.8-4.7 0-8.5-0.8-8.5-1.8 0-1 3.8-1.8 8.5-1.8z"/>
							<path id="&lt;Path&gt;" class="s10" d="m683.3 323.7v2.6c0 0.6-2.5 1.2-5.6 1.2-3.1 0-5.6-0.6-5.6-1.2v-2.6z"/>
							<path id="&lt;Path&gt;" class="s9" d="m686.2 318.9v3.9c0 1-3.8 1.8-8.5 1.8-4.7 0-8.5-0.8-8.5-1.8v-3.9z"/>
							<path id="&lt;Path&gt;" class="s0" d="m677.7 317c4.7 0 8.5 0.9 8.5 1.9 0 1-3.8 1.8-8.5 1.8-4.7 0-8.5-0.8-8.5-1.8 0-1 3.8-1.9 8.5-1.9z"/>
						</g>
					</g>
					<g id="&lt;Group&gt;">
						<g id="&lt;Group&gt;">
							<path id="&lt;Path&gt;" class="s9" d="m595.7 337.9c4.8 0 8.6 0.8 8.6 1.8 0 1-3.8 1.8-8.6 1.8-4.7 0-8.5-0.8-8.5-1.8 0-1 3.8-1.8 8.5-1.8z"/>
							<path id="&lt;Path&gt;" class="s10" d="m601.3 336.5v2.6c0 0.6-2.5 1.2-5.6 1.2-3 0-5.6-0.6-5.6-1.2v-2.6z"/>
							<path id="&lt;Path&gt;" class="s9" d="m604.3 331.7v3.9c0 1-3.9 1.8-8.6 1.8-4.7 0-8.5-0.8-8.5-1.8v-3.9z"/>
							<path id="&lt;Path&gt;" class="s0" d="m595.7 329.8c4.8 0 8.6 0.9 8.6 1.9 0 1-3.8 1.8-8.6 1.8-4.7 0-8.5-0.8-8.5-1.8 0-1 3.8-1.9 8.5-1.9z"/>
						</g>
						<g id="&lt;Group&gt;">
							<path id="&lt;Path&gt;" class="s9" d="m616.4 337.9c4.7 0 8.5 0.8 8.5 1.8 0 1-3.8 1.8-8.5 1.8-4.7 0-8.5-0.8-8.5-1.8 0-1 3.8-1.8 8.5-1.8z"/>
							<path id="&lt;Path&gt;" class="s10" d="m622 336.5v2.6c0 0.6-2.5 1.2-5.6 1.2-3.1 0-5.6-0.6-5.6-1.2v-2.6z"/>
							<path id="&lt;Path&gt;" class="s9" d="m624.9 331.7v3.9c0 1-3.8 1.8-8.5 1.8-4.7 0-8.5-0.8-8.5-1.8v-3.9z"/>
							<path id="&lt;Path&gt;" class="s0" d="m616.4 329.8c4.7 0 8.5 0.9 8.5 1.9 0 1-3.8 1.8-8.5 1.8-4.7 0-8.5-0.8-8.5-1.8 0-1 3.8-1.9 8.5-1.9z"/>
						</g>
						<g id="&lt;Group&gt;">
							<path id="&lt;Path&gt;" class="s9" d="m637.1 337.9c4.7 0 8.5 0.8 8.5 1.8 0 1-3.8 1.8-8.5 1.8-4.7 0-8.5-0.8-8.5-1.8 0-1 3.8-1.8 8.5-1.8z"/>
							<path id="&lt;Path&gt;" class="s10" d="m642.7 336.5v2.6c0 0.6-2.5 1.2-5.6 1.2-3.1 0-5.6-0.6-5.6-1.2v-2.6z"/>
							<path id="&lt;Path&gt;" class="s9" d="m645.6 331.7v3.9c0 1-3.8 1.8-8.5 1.8-4.7 0-8.5-0.8-8.5-1.8v-3.9z"/>
							<path id="&lt;Path&gt;" class="s0" d="m637.1 329.8c4.7 0 8.5 0.9 8.5 1.9 0 1-3.8 1.8-8.5 1.8-4.7 0-8.5-0.8-8.5-1.8 0-1 3.8-1.9 8.5-1.9z"/>
						</g>
						<g id="&lt;Group&gt;">
							<path id="&lt;Path&gt;" class="s9" d="m657.7 337.9c4.8 0 8.6 0.8 8.6 1.8 0 1-3.8 1.8-8.6 1.8-4.7 0-8.5-0.8-8.5-1.8 0-1 3.8-1.8 8.5-1.8z"/>
							<path id="&lt;Path&gt;" class="s10" d="m663.3 336.5v2.6c0 0.6-2.5 1.2-5.6 1.2-3 0-5.6-0.6-5.6-1.2v-2.6z"/>
							<path id="&lt;Path&gt;" class="s9" d="m666.3 331.7v3.9c0 1-3.8 1.8-8.6 1.8-4.7 0-8.5-0.8-8.5-1.8v-3.9z"/>
							<path id="&lt;Path&gt;" class="s0" d="m657.7 329.8c4.8 0 8.6 0.9 8.6 1.9 0 1-3.8 1.8-8.6 1.8-4.7 0-8.5-0.8-8.5-1.8 0-1 3.8-1.9 8.5-1.9z"/>
						</g>
						<g id="&lt;Group&gt;">
							<path id="&lt;Path&gt;" class="s9" d="m678.4 337.9c4.7 0 8.5 0.8 8.5 1.8 0 1-3.8 1.8-8.5 1.8-4.7 0-8.5-0.8-8.5-1.8 0-1 3.8-1.8 8.5-1.8z"/>
							<path id="&lt;Path&gt;" class="s10" d="m684 336.5v2.6c0 0.6-2.5 1.2-5.6 1.2-3.1 0-5.6-0.6-5.6-1.2v-2.6z"/>
							<path id="&lt;Path&gt;" class="s9" d="m686.9 331.7v3.9c0 1-3.8 1.8-8.5 1.8-4.7 0-8.5-0.8-8.5-1.8v-3.9z"/>
							<path id="&lt;Path&gt;" class="s0" d="m678.4 329.8c4.7 0 8.5 0.9 8.5 1.9 0 1-3.8 1.8-8.5 1.8-4.7 0-8.5-0.8-8.5-1.8 0-1 3.8-1.9 8.5-1.9z"/>
						</g>
						<g id="&lt;Group&gt;">
							<path id="&lt;Path&gt;" class="s9" d="m699.1 337.9c4.7 0 8.5 0.8 8.5 1.8 0 1-3.8 1.8-8.5 1.8-4.7 0-8.5-0.8-8.5-1.8 0-1 3.8-1.8 8.5-1.8z"/>
							<path id="&lt;Path&gt;" class="s10" d="m704.7 336.5v2.6c0 0.6-2.5 1.2-5.6 1.2-3.1 0-5.6-0.6-5.6-1.2v-2.6z"/>
							<path id="&lt;Path&gt;" class="s9" d="m707.6 331.7v3.9c0 1-3.8 1.8-8.5 1.8-4.7 0-8.5-0.8-8.5-1.8v-3.9z"/>
							<path id="&lt;Path&gt;" class="s0" d="m699.1 329.8c4.7 0 8.5 0.9 8.5 1.9 0 1-3.8 1.8-8.5 1.8-4.7 0-8.5-0.8-8.5-1.8 0-1 3.8-1.9 8.5-1.9z"/>
						</g>
					</g>
					<g id="&lt;Group&gt;">
						<g id="&lt;Group&gt;">
							<path id="&lt;Path&gt;" class="s9" d="m617.1 350.7c4.7 0 8.5 0.8 8.5 1.8 0 1-3.8 1.8-8.5 1.8-4.7 0-8.5-0.8-8.5-1.8 0-1 3.8-1.8 8.5-1.8z"/>
							<path id="&lt;Path&gt;" class="s10" d="m622.7 349.3v2.6c0 0.6-2.5 1.2-5.6 1.2-3.1 0-5.6-0.6-5.6-1.2v-2.6z"/>
							<path id="&lt;Path&gt;" class="s9" d="m625.6 344.4v4c0 1-3.8 1.8-8.5 1.8-4.7 0-8.5-0.8-8.5-1.8v-4z"/>
							<path id="&lt;Path&gt;" class="s0" d="m617.1 342.6c4.7 0 8.5 0.8 8.5 1.8 0 1-3.8 1.9-8.5 1.9-4.7 0-8.5-0.9-8.5-1.9 0-1 3.8-1.8 8.5-1.8z"/>
						</g>
						<g id="&lt;Group&gt;">
							<path id="&lt;Path&gt;" class="s9" d="m637.8 350.7c4.7 0 8.5 0.8 8.5 1.8 0 1-3.8 1.8-8.5 1.8-4.7 0-8.5-0.8-8.5-1.8 0-1 3.8-1.8 8.5-1.8z"/>
							<path id="&lt;Path&gt;" class="s10" d="m643.4 349.3v2.6c0 0.6-2.5 1.2-5.6 1.2-3.1 0-5.6-0.6-5.6-1.2v-2.6z"/>
							<path id="&lt;Path&gt;" class="s9" d="m646.3 344.4v4c0 1-3.8 1.8-8.5 1.8-4.7 0-8.5-0.8-8.5-1.8v-4z"/>
							<path id="&lt;Path&gt;" class="s0" d="m637.8 342.6c4.7 0 8.5 0.8 8.5 1.8 0 1-3.8 1.9-8.5 1.9-4.7 0-8.5-0.9-8.5-1.9 0-1 3.8-1.8 8.5-1.8z"/>
						</g>
						<g id="&lt;Group&gt;">
							<path id="&lt;Path&gt;" class="s9" d="m658.5 350.7c4.7 0 8.5 0.8 8.5 1.8 0 1-3.8 1.8-8.5 1.8-4.8 0-8.6-0.8-8.6-1.8 0-1 3.8-1.8 8.6-1.8z"/>
							<path id="&lt;Path&gt;" class="s10" d="m664.1 349.3v2.6c0 0.6-2.5 1.2-5.6 1.2-3.1 0-5.6-0.6-5.6-1.2v-2.6z"/>
							<path id="&lt;Path&gt;" class="s9" d="m667 344.4v4c0 1-3.8 1.8-8.5 1.8-4.7 0-8.6-0.8-8.6-1.8v-4z"/>
							<path id="&lt;Path&gt;" class="s0" d="m658.5 342.6c4.7 0 8.5 0.8 8.5 1.8 0 1-3.8 1.9-8.5 1.9-4.8 0-8.6-0.9-8.6-1.9 0-1 3.8-1.8 8.6-1.8z"/>
						</g>
						<g id="&lt;Group&gt;">
							<path id="&lt;Path&gt;" class="s9" d="m679.1 350.7c4.7 0 8.5 0.8 8.5 1.8 0 1-3.8 1.8-8.5 1.8-4.7 0-8.5-0.8-8.5-1.8 0-1 3.8-1.8 8.5-1.8z"/>
							<path id="&lt;Path&gt;" class="s10" d="m684.7 349.3v2.6c0 0.6-2.5 1.2-5.6 1.2-3.1 0-5.6-0.6-5.6-1.2v-2.6z"/>
							<path id="&lt;Path&gt;" class="s9" d="m687.6 344.4v4c0 1-3.8 1.8-8.5 1.8-4.7 0-8.5-0.8-8.5-1.8v-4z"/>
							<path id="&lt;Path&gt;" class="s0" d="m679.1 342.6c4.7 0 8.5 0.8 8.5 1.8 0 1-3.8 1.9-8.5 1.9-4.7 0-8.5-0.9-8.5-1.9 0-1 3.8-1.8 8.5-1.8z"/>
						</g>
						<g id="&lt;Group&gt;">
							<path id="&lt;Path&gt;" class="s9" d="m699.8 350.7c4.7 0 8.5 0.8 8.5 1.8 0 1-3.8 1.8-8.5 1.8-4.7 0-8.5-0.8-8.5-1.8 0-1 3.8-1.8 8.5-1.8z"/>
							<path id="&lt;Path&gt;" class="s10" d="m705.4 349.3v2.6c0 0.6-2.5 1.2-5.6 1.2-3.1 0-5.6-0.6-5.6-1.2v-2.6z"/>
							<path id="&lt;Path&gt;" class="s9" d="m708.3 344.4v4c0 1-3.8 1.8-8.5 1.8-4.7 0-8.5-0.8-8.5-1.8v-4z"/>
							<path id="&lt;Path&gt;" class="s0" d="m699.8 342.6c4.7 0 8.5 0.8 8.5 1.8 0 1-3.8 1.9-8.5 1.9-4.7 0-8.5-0.9-8.5-1.9 0-1 3.8-1.8 8.5-1.8z"/>
						</g>
						<g id="&lt;Group&gt;">
							<path id="&lt;Path&gt;" class="s9" d="m720.5 350.7c4.7 0 8.5 0.8 8.5 1.8 0 1-3.8 1.8-8.5 1.8-4.7 0-8.5-0.8-8.5-1.8 0-1 3.8-1.8 8.5-1.8z"/>
							<path id="&lt;Path&gt;" class="s10" d="m726.1 349.3v2.6c0 0.6-2.5 1.2-5.6 1.2-3.1 0-5.6-0.6-5.6-1.2v-2.6z"/>
							<path id="&lt;Path&gt;" class="s9" d="m729 344.4v4c0 1-3.8 1.8-8.5 1.8-4.7 0-8.5-0.8-8.5-1.8v-4z"/>
							<path id="&lt;Path&gt;" class="s0" d="m720.5 342.6c4.7 0 8.5 0.8 8.5 1.8 0 1-3.8 1.9-8.5 1.9-4.7 0-8.5-0.9-8.5-1.9 0-1 3.8-1.8 8.5-1.8z"/>
						</g>
					</g>
					<g id="&lt;Group&gt;">
						<g id="&lt;Group&gt;">
							<g id="&lt;Group&gt;">
								<path id="&lt;Path&gt;" class="s9" d="m638.5 363.5c4.7 0 8.5 0.8 8.5 1.8 0 1-3.8 1.8-8.5 1.8-4.7 0-8.5-0.8-8.5-1.8 0-1 3.8-1.8 8.5-1.8z"/>
								<path id="&lt;Path&gt;" class="s10" d="m644.1 362.1v2.6c0 0.6-2.5 1.1-5.6 1.1-3.1 0-5.6-0.5-5.6-1.1v-2.6z"/>
								<path id="&lt;Path&gt;" class="s9" d="m647 357.2v4c0 1-3.8 1.8-8.5 1.8-4.7 0-8.5-0.8-8.5-1.8v-4z"/>
								<path id="&lt;Path&gt;" class="s0" d="m638.5 355.4c4.7 0 8.5 0.8 8.5 1.8 0 1-3.8 1.8-8.5 1.8-4.7 0-8.5-0.8-8.5-1.8 0-1 3.8-1.8 8.5-1.8z"/>
							</g>
							<g id="&lt;Group&gt;">
								<path id="&lt;Path&gt;" class="s9" d="m659.2 363.5c4.7 0 8.5 0.8 8.5 1.8 0 1-3.8 1.8-8.5 1.8-4.7 0-8.5-0.8-8.5-1.8 0-1 3.8-1.8 8.5-1.8z"/>
								<path id="&lt;Path&gt;" class="s10" d="m664.8 362.1v2.6c0 0.6-2.5 1.1-5.6 1.1-3.1 0-5.6-0.5-5.6-1.1v-2.6z"/>
								<path id="&lt;Path&gt;" class="s9" d="m667.7 357.2v4c0 1-3.8 1.8-8.5 1.8-4.7 0-8.5-0.8-8.5-1.8v-4z"/>
								<path id="&lt;Path&gt;" class="s0" d="m659.2 355.4c4.7 0 8.5 0.8 8.5 1.8 0 1-3.8 1.8-8.5 1.8-4.7 0-8.5-0.8-8.5-1.8 0-1 3.8-1.8 8.5-1.8z"/>
							</g>
							<g id="&lt;Group&gt;">
								<path id="&lt;Path&gt;" class="s9" d="m679.8 363.5c4.8 0 8.6 0.8 8.6 1.8 0 1-3.8 1.8-8.6 1.8-4.7 0-8.5-0.8-8.5-1.8 0-1 3.8-1.8 8.5-1.8z"/>
								<path id="&lt;Path&gt;" class="s10" d="m685.4 362.1v2.6c0 0.6-2.5 1.1-5.6 1.1-3 0-5.6-0.5-5.6-1.1v-2.6z"/>
								<path id="&lt;Path&gt;" class="s9" d="m688.4 357.2v4c0 1-3.9 1.8-8.6 1.8-4.7 0-8.5-0.8-8.5-1.8v-4z"/>
								<path id="&lt;Path&gt;" class="s0" d="m679.8 355.4c4.8 0 8.6 0.8 8.6 1.8 0 1-3.8 1.8-8.6 1.8-4.7 0-8.5-0.8-8.5-1.8 0-1 3.8-1.8 8.5-1.8z"/>
							</g>
							<g id="&lt;Group&gt;">
								<path id="&lt;Path&gt;" class="s9" d="m700.5 363.5c4.7 0 8.5 0.8 8.5 1.8 0 1-3.8 1.8-8.5 1.8-4.7 0-8.5-0.8-8.5-1.8 0-1 3.8-1.8 8.5-1.8z"/>
								<path id="&lt;Path&gt;" class="s10" d="m706.1 362.1v2.6c0 0.6-2.5 1.1-5.6 1.1-3.1 0-5.6-0.5-5.6-1.1v-2.6z"/>
								<path id="&lt;Path&gt;" class="s9" d="m709 357.2v4c0 1-3.8 1.8-8.5 1.8-4.7 0-8.5-0.8-8.5-1.8v-4z"/>
								<path id="&lt;Path&gt;" class="s0" d="m700.5 355.4c4.7 0 8.5 0.8 8.5 1.8 0 1-3.8 1.8-8.5 1.8-4.7 0-8.5-0.8-8.5-1.8 0-1 3.8-1.8 8.5-1.8z"/>
							</g>
							<g id="&lt;Group&gt;">
								<path id="&lt;Path&gt;" class="s9" d="m721.2 363.5c4.7 0 8.5 0.8 8.5 1.8 0 1-3.8 1.8-8.5 1.8-4.7 0-8.5-0.8-8.5-1.8 0-1 3.8-1.8 8.5-1.8z"/>
								<path id="&lt;Path&gt;" class="s10" d="m726.8 362.1v2.6c0 0.6-2.5 1.1-5.6 1.1-3.1 0-5.6-0.5-5.6-1.1v-2.6z"/>
								<path id="&lt;Path&gt;" class="s9" d="m729.7 357.2v4c0 1-3.8 1.8-8.5 1.8-4.7 0-8.6-0.8-8.6-1.8v-4z"/>
								<path id="&lt;Path&gt;" class="s0" d="m721.2 355.4c4.7 0 8.5 0.8 8.5 1.8 0 1-3.8 1.8-8.5 1.8-4.7 0-8.5-0.8-8.5-1.8 0-1 3.8-1.8 8.5-1.8z"/>
							</g>
							<g id="&lt;Group&gt;">
								<path id="&lt;Path&gt;" class="s9" d="m741.9 363.5c4.7 0 8.5 0.8 8.5 1.8 0 1-3.8 1.8-8.5 1.8-4.7 0-8.6-0.8-8.6-1.8 0-1 3.9-1.8 8.6-1.8z"/>
								<path id="&lt;Path&gt;" class="s10" d="m747.5 362.1v2.6c0 0.6-2.5 1.1-5.6 1.1-3.1 0-5.6-0.5-5.6-1.1v-2.6z"/>
								<path id="&lt;Path&gt;" class="s9" d="m750.4 357.2v4c0 1-3.8 1.8-8.5 1.8-4.7 0-8.6-0.8-8.6-1.8v-4z"/>
								<path id="&lt;Path&gt;" class="s0" d="m741.9 355.4c4.7 0 8.5 0.8 8.5 1.8 0 1-3.8 1.8-8.5 1.8-4.7 0-8.6-0.8-8.6-1.8 0-1 3.9-1.8 8.6-1.8z"/>
							</g>
						</g>
					</g>
				</g>
				<path id="&lt;Path&gt;" class="s6" d="m664.5 381.5v45.6h-263v-165.6h116.8l0.5 33.6z"/>
				<path id="&lt;Path&gt;" class="s9" d="m641.3 381.5v45.6h-277v-32.5h-14.5v-33.6h14.5v-65.9h-14.5v-33.6h145.3l0.5 33.6z"/>
				<path id="&lt;Path&gt;" class="s8" d="m632.8 381.5h196.5v13.1h-196.5z"/>
				<path id="&lt;Path&gt;" class="s7" d="m364.3 394.6h277v32.5h-277z"/>
				<path id="&lt;Path&gt;" class="s9" d="m641.3 394.6h177.4v32.5h-177.4z"/>
				<path id="&lt;Path&gt;" class="s7" d="m641.3 394.6h177.4v10.1h-177.4z"/>
				<path id="&lt;Path&gt;" class="s8" d="m495.3 295.1v-33.6h177.4l0.3 33.6z"/>
				<path id="&lt;Path&gt;" class="s9" d="m518.6 272h120.3v23.1h-120.3z"/>
				<path id="&lt;Path&gt;" class="s7" d="m638.9 272h13.7v23.1h-13.7z"/>
				<path id="&lt;Path&gt;" class="s7" d="m585.7 361h-0.1v16.8h-207v-16.8h-14.3v-65.9h14.3v-23.1h89.1v23.1z"/>
				<path id="&lt;Path&gt;" class="s7" d="m518.6 272h120.3v9.5h-120.3z"/>
				<path id="&lt;Path&gt;" class="s10" d="m378.6 272h89.1v9.5h-89.1z"/>
				<path id="&lt;Path&gt;" class="s10" d="m364.3 295.1h25.3v9.5h-25.3z"/>
				<path id="&lt;Path&gt;" class="s10" d="m364.6 394.6h276.7v10.3h-276.7z"/>
				<path id="&lt;Path&gt;" class="s10" d="m682.1 404.9h97.8v10.3h-97.8z"/>
				<path id="&lt;Path&gt;" class="s10" d="m380.5 427.1h28.7v10.1h-28.7z"/>
				<path id="&lt;Path&gt;" class="s10" d="m612.8 427.1h28.5v10.1h-28.5z"/>
				<path id="&lt;Path&gt;" class="s7" d="m641.3 427.1h28.5v10.1h-28.5z"/>
				<path id="&lt;Path&gt;" class="s7" d="m408.9 427.1h28.5v10.1h-28.5z"/>
				<path id="&lt;Path&gt;" class="s7" d="m779.9 427.1h28.8v10.1h-28.8z"/>
				<path id="&lt;Path&gt;" class="s10" d="m751.4 427.1h28.5v10.1h-28.5z"/>
				<path id="&lt;Path&gt;" class="s8" d="m378.6 361.2h11v16.6h-11z"/>
				<path id="&lt;Path&gt;" class="s8" d="m378.6 272h11v23.1h-11z"/>
				<path id="&lt;Path&gt;" class="s8" d="m418.3 252.4c0-1.8 1.5-3.2 3.3-3.2h164c1.7 0 3.2 1.4 3.2 3.2 0 1.8-1.5 3.3-3.2 3.3h-164c-1.8 0-3.3-1.5-3.3-3.3z"/>
				<path id="&lt;Path&gt;" class="s9" d="m418.3 254.9v-1.7c0-0.4 0.3-0.8 0.8-0.8h169c0.4 0 0.7 0.4 0.7 0.8v1.7c0 0.4-0.3 0.8-0.7 0.8h-169c-0.5 0-0.8-0.4-0.8-0.8z"/>
				<path id="&lt;Path&gt;" class="s6" d="m533 254v-6.4c0-1.8 1.5-3.3 3.3-3.3h6c1.8 0 3.2 1.5 3.2 3.3v6.4c0 1.8-1.4 3.3-3.2 3.3h-6c-1.8 0-3.3-1.5-3.3-3.3z"/>
				<path id="&lt;Path&gt;" class="s8" d="m545.5 254.6q0.1 0.6-0.1 1.2c-0.3 0.9-1.2 1.5-2.2 1.5h-0.8-2.2-4.9c-1.3 0-2.3-1-2.3-2.3v-2.2h0.9c1.7 0 3.1-1.4 3.1-3.1 0-1.7 1.4-3.1 3.2-3.1h2.2c1.7 0 3.1 1.3 3.1 3.1v4.5q0 0.2 0 0.4z"/>
				<path id="&lt;Path&gt;" class="s9" d="m539 253.7v-3.6c0-1 0.9-1.9 2-1.9h1.3c1.1 0 2 0.9 2 1.9v3.6c0 1.1-0.9 2-2 2h-1.3c-1.1 0-2-0.9-2-2z"/>
				<path id="&lt;Path&gt;" class="s8" d="m545.5 255v0.1z"/>
				<path id="&lt;Path&gt;" class="s10" d="m432.3 255.7h8.8v5.8h-8.8z"/>
				<path id="&lt;Path&gt;" class="s10" d="m566 255.7h8.8v5.8h-8.8z"/>
			</g>
		</g>
		<g id="&lt;Group&gt;">
			<path id="&lt;Path&gt;" class="s11" d="m172.6 284.7c0-2.5 2.2-4.3 4.7-3.9l50.6 10.2 26.5 25.7c0.6 0.6 0.9 1.4 0.9 2.2 0 2.6-2.8 3.9-4.6 2.2l-22.8-22.1-52.2-10.5c-1.8-0.3-3.1-1.9-3.1-3.8z"/>
			<path id="&lt;Path&gt;" class="s12" d="m179.6 281.3v8l-3.9-0.8c-1.8-0.3-3.1-1.9-3.1-3.8 0-2.5 2.2-4.3 4.7-3.8z"/>
			<path id="&lt;Path&gt;" class="s11" d="m248.2 284.7v-1.8c0-0.9 0.7-1.6 1.6-1.6h24.2c0.9 0 1.6 0.7 1.6 1.6v1.8c0 0.8-0.7 1.5-1.6 1.5h-24.2c-0.9 0-1.6-0.7-1.6-1.5z"/>
			<path id="&lt;Path&gt;" class="s12" d="m259.3 284.7v-1.8c0-0.9 0.7-1.6 1.6-1.6h13.1c0.9 0 1.6 0.7 1.6 1.6v1.8c0 0.8-0.7 1.5-1.6 1.5h-13.1c-0.9 0-1.6-0.7-1.6-1.5z"/>
			<path id="&lt;Compound Path&gt;" fill-rule="evenodd" class="s11" d="m254.3 284.4c0 18.5-16.5 33.6-36.9 33.6-20.4 0-37-15.1-37-33.6 0-18.6 16.6-33.6 37-33.6 20.4 0 36.9 15 36.9 33.6zm-5.2 0c0-16-14.2-28.9-31.7-28.9-17.6 0-31.8 12.9-31.8 28.9 0 15.9 14.2 28.9 31.8 28.9 17.5 0 31.7-13 31.7-28.9z"/>
			<g id="&lt;Group&gt;">
				<path id="&lt;Path&gt;" class="s13" d="m247.1 284.4c0 15.3-11.2 27.9-25.8 30.3q-2.4 0.4-5 0.4-2.3 0-4.5-0.3c-3.3-0.5-6.5-1.6-9.5-3.1-7.3-3.7-13-10.4-15.4-18.4-0.8-2.8-1.3-5.8-1.3-8.9 0-15.9 12-28.9 27.4-30.6q1.6-0.2 3.3-0.2c9.5 0 17.9 4.3 23.5 11q1.7 1.9 3 4.1c1.6 2.6 2.8 5.6 3.5 8.7q0.8 3.4 0.8 7z"/>
				<path id="&lt;Path&gt;" class="s14" d="m239.8 264.6l-37.5 47.1c-7.3-3.7-12.9-10.4-15.4-18.4l26.1-39.5q1.6-0.1 3.3-0.1c9.5-0.1 17.9 4.2 23.5 10.9z"/>
				<path id="&lt;Path&gt;" class="s14" d="m246.3 277.4l-25 37.3q-2.4 0.4-5 0.4-2.3 0-4.5-0.3l31-46.1c1.6 2.6 2.8 5.6 3.5 8.7z"/>
			</g>
			<path id="&lt;Compound Path&gt;" fill-rule="evenodd" class="s12" d="m251.6 284.4c0 20.7-16.8 37.5-37.5 37.5-20.8 0-37.6-16.8-37.6-37.5 0-20.7 16.8-37.5 37.6-37.5 20.7 0 37.5 16.8 37.5 37.5zm-5.3 0c0-17.8-14.4-32.3-32.2-32.3-17.9 0-32.3 14.5-32.3 32.3 0 17.8 14.4 32.2 32.3 32.2 17.8 0 32.2-14.4 32.2-32.2z"/>
			<path id="&lt;Compound Path&gt;" fill-rule="evenodd" class="s11" d="m350.3 284.4c0 18.5-16.5 33.6-36.9 33.6-20.4 0-36.9-15.1-36.9-33.6 0-18.6 16.5-33.6 36.9-33.6 20.4 0 36.9 15 36.9 33.6zm-5.2 0c0-16-14.2-28.9-31.7-28.9-17.6 0-31.8 12.9-31.8 28.9 0 15.9 14.2 28.9 31.8 28.9 17.5 0 31.8-13 31.7-28.9z"/>
			<g id="&lt;Group&gt;">
				<path id="&lt;Path&gt;" class="s13" d="m343.1 284.4c0 15.3-11.2 27.9-25.8 30.3q-2.4 0.4-5 0.4-2.3 0-4.4-0.3c-3.4-0.5-6.6-1.6-9.6-3.1-7.3-3.7-12.9-10.4-15.4-18.4-0.8-2.8-1.3-5.8-1.3-8.9 0-15.9 12-28.9 27.4-30.6q1.6-0.2 3.3-0.2c9.5 0 17.9 4.3 23.6 11q1.6 1.9 2.9 4.1c1.6 2.6 2.8 5.6 3.5 8.7q0.8 3.4 0.8 7z"/>
				<path id="&lt;Path&gt;" class="s14" d="m335.9 264.6l-37.5 47.1c-7.4-3.7-13-10.4-15.5-18.4l26.1-39.5q1.7-0.1 3.4-0.1c9.4-0.1 17.8 4.2 23.5 10.9z"/>
				<path id="&lt;Path&gt;" class="s14" d="m342.3 277.4l-25 37.3q-2.4 0.4-5 0.4-2.3 0-4.4-0.3l30.9-46.1c1.6 2.6 2.8 5.6 3.5 8.7z"/>
			</g>
			<path id="&lt;Compound Path&gt;" fill-rule="evenodd" class="s12" d="m347.6 284.4c0 20.7-16.8 37.5-37.5 37.5-20.7 0-37.5-16.8-37.5-37.5 0-20.7 16.8-37.5 37.5-37.5 20.7 0 37.5 16.8 37.5 37.5zm-5.3 0c0-17.8-14.4-32.3-32.2-32.3-17.8 0-32.3 14.5-32.3 32.3 0 17.8 14.5 32.2 32.3 32.2 17.8 0 32.2-14.4 32.2-32.2z"/>
			<path id="&lt;Path&gt;" class="s12" d="m345.7 284.9c0-2.5 1.5-4.3 3.1-3.9l34.1 10.2 17.9 25.7c0.4 0.6 1 1.4 1 2.2l1.5 1.9c-0.3 1.2-3.8 2-5 0.3l-15.4-22.1-35.1-10.5c-1.3-0.3-2.1-2-2.1-3.8z"/>
			<path id="&lt;Path&gt;" class="s11" d="m352.1 286.6c0-2.4 1.4-4.3 2.9-3.8l29.4 8.4 18.7 25.7c0.4 0.6 0.6 1.4 0.6 2.2 0 2.6-2 3.9-3.1 2.2l-15.4-21.6-31.2-9.2c-1.1-0.4-1.9-2-1.9-3.9z"/>
			<path id="&lt;Path&gt;" class="s0" d="m348 284c1.6 0 2.9 0.6 2.9 1.4 0 0.7-1.3 1.3-2.9 1.3-1.6 0-2.8-0.6-2.8-1.3 0-0.8 1.2-1.4 2.8-1.4z"/>
			<path id="&lt;Path&gt;" class="s0" d="m177.4 283.8c1.6 0 2.9 0.6 2.9 1.4 0 0.7-1.3 1.3-2.9 1.3-1.6 0-2.8-0.6-2.8-1.3 0-0.8 1.2-1.4 2.8-1.4z"/>
		</g>
		<g id="&lt;Group&gt;">
			<g id="&lt;Group&gt;">
				<path id="&lt;Path&gt;" class="s0" d="m182.9 356.1h106.4v40.7h-106.4z"/>
				<path id="&lt;Path&gt;" class="s3" d="m289.3 356.1h22.6v40.7h-22.6z"/>
				<path id="&lt;Path&gt;" class="s3" d="m262.9 390.4h-80v-2.9h80c0.5 0 0.9 0.4 0.9 0.9v1.1c0 0.5-0.4 0.9-0.9 0.9z"/>
				<path id="&lt;Path&gt;" class="s3" d="m289.3 382.3h-80c-0.5 0-0.9-0.4-0.9-0.9v-1c0-0.5 0.4-0.9 0.9-0.9h80v2.8z"/>
				<path id="&lt;Path&gt;" class="s3" d="m262.9 365h-80v-2.9h80c0.5 0 0.9 0.4 0.9 0.9v1.1c0 0.5-0.4 0.9-0.9 0.9z"/>
				<path id="&lt;Path&gt;" class="s4" d="m286.3 356.1h-108.6c-1 0-1.8-1.2-1.8-2.7 0-1.5 0.8-2.7 1.8-2.7h108.6 14.7 5v5.4h89.8c7.2 0 13 9.1 13 20.4 0 11.2-5.8 20.3-13 20.3h-89.8v5.5h-5-14.7-108.6c-1 0-1.8-1.3-1.8-2.8 0-1.5 0.8-2.7 1.8-2.7h108.6c7.2 0 13-9.1 13-20.3 0-11.3-5.8-20.4-13-20.4z"/>
				<path id="&lt;Path&gt;" class="s15" d="m303.5 376.5c0-14.3-7.7-25.8-17.2-25.8h144.2c9.5 0 17.2 11.5 17.2 25.8 0 14.2-7.7 25.8-17.2 25.8h-144.2c9.5 0 17.2-11.6 17.2-25.8z"/>
				<path id="&lt;Path&gt;" class="s16" d="m303.5 376.5h144.2c0 14.2-7.7 25.8-17.2 25.8h-144.2c9.5 0 17.2-11.6 17.2-25.8z"/>
				<path id="&lt;Path&gt;" class="s4" d="m409 376.5c0-14.3-7.7-25.8-17.2-25.8h26.3c9.5 0 17.2 11.5 17.2 25.8 0 14.2-7.7 25.8-17.2 25.8h-26.3c9.5 0 17.2-11.6 17.2-25.8z"/>
				<path id="&lt;Path&gt;" class="s4" d="m384.2 376.5c0-14.3-7.7-25.8-17.2-25.8h10c9.5 0 17.2 11.5 17.2 25.8 0 14.2-7.7 25.8-17.2 25.8h-10c9.5 0 17.2-11.6 17.2-25.8z"/>
				<path id="&lt;Path&gt;" class="s4" d="m367.1 376.5c0-14.3-7.7-25.8-17.2-25.8h9.9c9.5 0 17.2 11.5 17.2 25.8 0 14.2-7.7 25.8-17.2 25.8h-9.9c9.5 0 17.2-11.6 17.2-25.8z"/>
			</g>
			<g id="&lt;Group&gt;">
				<path id="&lt;Path&gt;" class="s0" d="m167.8 318.6h106.5v29.4h-106.5z"/>
				<path id="&lt;Path&gt;" class="s3" d="m274.3 318.6h22.5v29.4h-22.5z"/>
				<path id="&lt;Path&gt;" class="s3" d="m247.9 340h-80.1v-2.8h80.1c0.4 0 0.8 0.4 0.8 0.9v1c0 0.5-0.4 0.9-0.8 0.9z"/>
				<path id="&lt;Path&gt;" class="s3" d="m194.2 332c-0.4 0-0.8-0.4-0.8-0.9v-1.1c0-0.5 0.4-0.9 0.8-0.9h80.1v2.9z"/>
				<path id="&lt;Path&gt;" class="s17" d="m271.2 318.6h-108.5c-1 0-1.8-0.9-1.8-2 0-1.1 0.8-2 1.8-2h108.5 14.7 5v3.9h89.8c7.2 0 13.1 6.6 13.1 14.8 0 8.1-5.9 14.7-13.1 14.7h-89.8v3.9h-5-14.7-108.5c-1 0-1.8-0.9-1.8-2 0-1.1 0.8-1.9 1.8-1.9h108.5c7.2 0 13.1-6.6 13.1-14.8 0-8.1-5.9-14.6-13.1-14.6z"/>
				<path id="&lt;Path&gt;" class="s18" d="m288.4 333.3c0-10.3-7.7-18.7-17.2-18.7h144.2c9.5 0 17.2 8.4 17.2 18.7 0 10.3-7.7 18.6-17.2 18.6h-144.2c9.5 0 17.2-8.3 17.2-18.6z"/>
				<path id="&lt;Path&gt;" class="s19" d="m288.4 333.3h144.2c0 10.3-7.7 18.6-17.2 18.6h-144.2c9.5 0 17.2-8.3 17.2-18.6z"/>
				<path id="&lt;Path&gt;" class="s17" d="m302 333.3c0-7.5-3.5-13.5-7.9-13.5h12.1c4.4 0 7.9 6 7.9 13.5 0 7.4-3.5 13.5-7.9 13.5h-12.1c4.4 0 7.9-6.1 7.9-13.5z"/>
				<path id="&lt;Path&gt;" class="s17" d="m412.7 333.3c0-7.5-3.5-13.5-7.9-13.5h12.1c4.4 0 7.9 6 7.9 13.5 0 7.4-3.5 13.5-7.9 13.5h-12.1c4.4 0 7.9-6.1 7.9-13.5z"/>
				<path id="&lt;Path&gt;" class="s17" d="m320.2 333.3v-0.1c0-4.1 3.3-7.4 7.5-7.4h68.5c4.2 0 7.5 3.3 7.5 7.4v0.1c0 4.1-3.3 7.5-7.5 7.5h-68.5c-4.2 0-7.5-3.4-7.5-7.5z"/>
			</g>
			<g id="&lt;Group&gt;">
				<path id="&lt;Path&gt;" class="s0" d="m159.2 405.9h106.5v27.6h-106.5z"/>
				<path id="&lt;Path&gt;" class="s3" d="m265.7 405.9h22.5v27.6h-22.5z"/>
				<path id="&lt;Path&gt;" class="s3" d="m185.6 422.6c-0.4 0-0.8-0.4-0.8-0.9v-1.1c0-0.5 0.4-0.9 0.8-0.9h80.1v2.9z"/>
				<path id="&lt;Path&gt;" class="s3" d="m218.1 414.3c-0.5 0-0.9-0.4-0.9-1v-0.9c0-0.5 0.4-0.9 0.9-0.9h47.6v2.8z"/>
				<path id="&lt;Path&gt;" class="s3" d="m239.3 429.5h-80.1v-2.9h80.1c0.4 0 0.8 0.4 0.8 0.9v1.1c0 0.5-0.4 0.9-0.8 0.9z"/>
				<path id="&lt;Path&gt;" class="s11" d="m262.6 405.9h-108.5c-1 0-1.8-0.8-1.8-1.8 0-1 0.8-1.8 1.8-1.8h108.5 14.7 5v3.6h89.8c7.2 0 13.1 6.2 13.1 13.8 0 7.6-5.9 13.8-13.1 13.8h-89.8v3.7h-5-14.7-108.5c-1 0-1.8-0.8-1.8-1.9 0-1 0.8-1.8 1.8-1.8h108.5c7.2 0 13.1-6.2 13.1-13.8 0-7.6-5.9-13.8-13.1-13.8z"/>
				<path id="&lt;Path&gt;" class="s12" d="m279.8 419.7c0-9.6-7.7-17.4-17.2-17.4h144.2c9.5 0 17.2 7.8 17.2 17.4 0 9.7-7.7 17.5-17.2 17.5h-144.2c9.5 0 17.2-7.8 17.2-17.5z"/>
				<path id="&lt;Path&gt;" class="s20" d="m279.8 419.7h144.2c0 9.7-7.7 17.5-17.2 17.5h-144.2c9.5 0 17.2-7.8 17.2-17.5z"/>
				<g id="&lt;Group&gt;">
					<path id="&lt;Path&gt;" class="s21" d="m334.8 419.7c0-5.5 65.2-9.9 65.2-9.9 5.5 0 9.9 4.4 9.9 9.9 0 5.5-4.4 10-9.9 10 0 0-65.2-4.5-65.2-10z"/>
					<path id="&lt;Path&gt;" class="s21" d="m327 419.7c0-29.3-38.1 10-9.9 10 5.4 0 9.9-4.5 9.9-10z"/>
					<path id="&lt;Path&gt;" class="s21" d="m287 427.9c-3.9-3.9-3.9-10.2 0-14.1 3.9-3.9 10.2-3.9 14 0 3.9 3.9-10.1 18-14 14.1z"/>
				</g>
			</g>
		</g>
		<g id="&lt;Group&gt;">
			<path id="&lt;Path&gt;" class="s8" d="m142.4 397.4v39.8h-62.3v-39.8c0-8.5 6.9-15.5 15.4-15.6v-19.9h3.2v25.2c-6.7 0.1-12.2 6-12.2 13.3v33.9h49.5v-33.9c0-7.4-5.6-13.3-12.4-13.3h0.2v-25.2h3.2v19.9c8.6 0.1 15.4 7.1 15.4 15.6z"/>
			<path id="&lt;Path&gt;" class="s8" d="m86.5 434.3v-33.4c0 0 7.8-10.4 24.8-1.3 15.1 8.1 24.7 1.3 24.7 1.3v33.4z"/>
			<g id="&lt;Group&gt;">
				<path id="&lt;Path&gt;" class="s0" d="m153.4 321.1c-10 20.7-24.2 29.2-36.2 27.3-13.3-2.2-22.7-17.9-26.6-40.3q7.3 7.6 14.5 16.2c-5-9.6-10.3-18.4-15.8-26.3q0-0.2 0-0.4 9.4 9.5 18.7 20.6c-6-11.6-12.5-22.1-19.3-31.1-0.1-9.8 0.6-20.2 2.3-31 1.8-10.7 4.1-20.6 6.8-29.6 5 8.8 9.9 18.3 14.5 28.5-3-14-6.8-26.9-11.3-38.1 25.2-70 77.4-84.9 77.4-84.9 0 0-5.7 8.6-9.5 33.7-4.9 5.9-10 12.3-15 19q7.4-8 14.4-15.2-0.7 5.3-1.3 11.5c-4.3 4.9-8.6 10.2-12.8 15.8q6.2-5.3 12.3-10.1c-1.2 14.8-1.6 33.1-0.7 55.6 1.2 30-2.5 53.2-8.7 70.1-8.1 6-16.9 11.8-26.3 17.5 7.9-2.6 15.5-5.6 22.6-8.8z"/>
				<path id="&lt;Path&gt;" class="s3" d="m125.1 243.6c-5.8-15.9-10.8-31.4-15.4-46.9 3.5-6.8 7.2-13 11.1-18.5-0.6 21.5 1 43.6 4.3 65.4z"/>
				<path id="&lt;Path&gt;" class="s3" d="m131.5 202.8c-3.4-9.3-6-18.9-7.9-28.6 3.1-4.1 6.2-7.8 9.4-11.3-0.4 13.4-1 26.7-1.5 39.9z"/>
				<path id="&lt;Path&gt;" class="s3" d="m165.2 273.5q-14.7 9-29.4 18.1c8.7-14.8 18.8-28.8 30.2-41.8 0.1 8.5-0.2 16.3-0.8 23.7z"/>
				<path id="&lt;Path&gt;" class="s3" d="m112.7 305.4c-8.4-9.9-16.4-19.8-23.8-29.5q0.2-4.4 0.7-8.8 0.9 1 1.7 2c4.6 5.5 7.3 10.4 9.8 15q5.8 10.7 11.6 21.3z"/>
				<path id="&lt;Path&gt;" class="s3" d="m162.1 294.9q-0.9 4.3-2 8.2-1.2 0.7-2.3 1.4-10.4 6.2-20.8 12.5c8.4-7.8 16.8-15.2 25.1-22.1z"/>
				<path id="&lt;Path&gt;" class="s2" d="m117.2 348.3c4.5-116.5 27.1-173.2 27.1-173.2l-24.1 158.2c0 0-3.4 23.6-3 15z"/>
				<path id="&lt;Path&gt;" class="s3" d="m165.7 239.7c-1.4 1.8-2.7 3.4-4 5q-7.8 9.3-15.5 18.7c6.3-11.9 12.7-23.2 19.2-33.9q0.1 4.9 0.3 10.2z"/>
				<path id="&lt;Path&gt;" class="s3" d="m108.8 406c4.3-49 19.7-146.3 28.1-194.8 1.6-9.1 7.4-36.1 7.4-36.1l-34.6 255.1c-0.3 1.5-2 1.4-2-0.1 0.3-9 0.7-19 1.1-24.1z"/>
			</g>
			<g id="&lt;Group&gt;" style="opacity: .6">
				<path id="&lt;Path&gt;" class="s8" d="m136 400.4v33.9h-49.5v-33.9c0-7.4 5.6-13.3 12.4-13.3h-0.2v-25.2h25.1v25.2h-0.2c6.8 0 12.4 5.9 12.4 13.3z"/>
			</g>
			<path id="&lt;Path&gt;" class="s7" d="m86.5 434.3v-33.4c0 0 9.9 11.2 24.8 3.8 21.3-10.5 24.7-3.8 24.7-3.8v33.4z"/>
			<path id="&lt;Path&gt;" class="s8" d="m131.2 356.3v2.1c0 2-1.6 3.5-3.5 3.5h-31.7c-1.9 0-3.5-1.5-3.5-3.5v-2.1z"/>
			<g id="&lt;Group&gt;" style="opacity: .2">
				<path id="&lt;Path&gt;" class="s22" d="m111.9 397.4v39.8h-15.1v-39.8c0-8.6 1.7-15.6 3.8-15.6h-0.1v-19.9h7.6v19.9c2.1 0 3.8 7 3.8 15.6z"/>
			</g>
			<path id="&lt;Path&gt;" class="s14" d="m96.8 356.3h7.3v5.6h-7.3z"/>
		</g>
	</g>
</svg>