<svg version="1.2" xmlns="http://www.w3.org/2000/svg" viewBox="0 0 1000 1000" width="600" height="600">
	<title>8106647-ai</title>
	<style>
		.s0 { fill: #f5f5f5 } 
		.s1 { fill: #e0e0e0 } 
		.s2 { fill: #ff725e } 
		.s3 { fill: #000000 } 
		.s4 { fill: #455a64 } 
		.s5 { fill: #ffbf9d } 
		.s6 { fill: #263238 } 
		.s7 { opacity: .3;fill: #000000 } 
		.s8 { fill: #ffffff } 
	</style>
	<g id="Background Complete">
		<g id="&lt;Group&gt;">
			<g id="&lt;Group&gt;">
				<g id="&lt;Group&gt;">
					<g id="&lt;Group&gt;">
						<path id="&lt;Path&gt;" class="s0" d="m868.2 238.1c-3.6 1.2-7.6 1.1-11.3 0.5-6.2-1.1-13.7-1.6-13.7-1.6 0 0-2.8-7.7-4.7-13.7-1.2-3.6-1.9-7.6-1.3-11.3 0.6-3.5 2.7-6.9 5.3-9.3 2.1-1.9 4.8-3 7.6-3.4 2.8-0.4 5.7 0 8.1 1.3 2.6 1.4 4.6 3.9 5.4 6.8 0.4 1.5 0.4 3.1 0.1 4.7 1.6-0.6 3.4-0.9 5.2-0.7 2.9 0.3 5.7 1.9 7.5 4.3 1.6 2.2 2.4 5 2.5 7.8 0 2.8-0.7 5.7-2.3 8.1-2 2.9-5 5.4-8.4 6.5z"/>
					</g>
				</g>
			</g>
		</g>
		<g id="&lt;Group&gt;">
			<g id="&lt;Group&gt;">
				<g id="&lt;Group&gt;">
					<g id="&lt;Group&gt;">
						<path id="&lt;Compound Path&gt;" fill-rule="evenodd" class="s1" d="m234.6 585.1c9.9-6 20.5-10.6 31.3-13.7l6.5-30.9 52.3-1 7.6 30.8c11 2.7 21.6 6.8 31.8 12.5l26.4-17.4 37.7 36.4-16.4 27.1c6 9.9 10.5 20.4 13.6 31.3l31 6.4 0.9 52.4-30.7 7.5c-2.7 11-6.9 21.7-12.5 31.8l17.3 26.4-36.4 37.7-27-16.4c-9.9 6-20.5 10.5-31.3 13.6l-6.5 31-52.3 0.9-7.6-30.7c-11-2.7-21.6-6.9-31.7-12.5l-26.5 17.3-37.7-36.3 16.4-27.1c-6-9.9-10.5-20.4-13.6-31.3l-31-6.5-0.9-52.3 30.7-7.5c2.7-11 6.9-21.7 12.5-31.8l-17.3-26.5 36.4-37.6zm27.9 69.7c-21.6 22.3-20.9 57.9 1.4 79.4 22.3 21.6 57.9 21 79.4-1.4 21.6-22.3 20.9-57.8-1.4-79.4-22.3-21.5-57.9-20.9-79.4 1.4z"/>
					</g>
				</g>
			</g>
		</g>
		<g id="&lt;Group&gt;">
			<g id="&lt;Group&gt;">
				<g id="&lt;Group&gt;">
					<g id="&lt;Group&gt;">
						<path id="&lt;Compound Path&gt;" fill-rule="evenodd" class="s1" d="m711.2 315.5c7.1-4.2 14.5-7.5 22.2-9.6l4.6-22 37.1-0.7 5.4 21.8c7.8 1.9 15.3 4.9 22.5 8.9l18.8-12.3 26.7 25.8-11.6 19.2c4.2 7 7.4 14.5 9.6 22.2l22 4.5 0.6 37.2-21.8 5.3c-1.9 7.8-4.8 15.4-8.8 22.5l12.3 18.8-25.8 26.7-19.2-11.6c-7 4.2-14.5 7.5-22.2 9.6l-4.6 22-37.1 0.7-5.4-21.8c-7.7-1.9-15.3-4.9-22.5-8.9l-18.8 12.3-26.7-25.8 11.7-19.2c-4.3-7-7.5-14.5-9.7-22.2l-22-4.5-0.6-37.2 21.8-5.3c1.9-7.8 4.9-15.4 8.9-22.5l-12.3-18.8 25.7-26.7zm19.8 49.4c-15.2 15.9-14.8 41.1 1 56.4 15.9 15.2 41.1 14.8 56.4-1 15.2-15.9 14.8-41.1-1-56.4-15.9-15.2-41.1-14.8-56.4 1z"/>
					</g>
				</g>
			</g>
		</g>
		<g id="&lt;Group&gt;">
			<g id="&lt;Group&gt;">
				<g id="&lt;Group&gt;">
					<g id="&lt;Group&gt;">
						<path id="&lt;Compound Path&gt;" fill-rule="evenodd" class="s1" d="m449.8 91.8c5.7-3.4 11.7-6 17.9-7.7l3.6-17.7 29.9-0.5 4.3 17.5c6.2 1.5 12.3 3.9 18.1 7.1l15.1-9.9 21.4 20.8-9.3 15.4c3.4 5.6 6 11.6 7.7 17.8l17.7 3.7 0.5 29.8-17.5 4.3c-1.5 6.3-3.9 12.4-7.1 18.1l9.9 15.1-20.8 21.5-15.4-9.4c-5.6 3.5-11.6 6-17.8 7.8l-3.7 17.7-29.9 0.5-4.2-17.5c-6.3-1.6-12.4-4-18.1-7.2l-15.1 9.9-21.5-20.7 9.3-15.4c-3.4-5.7-5.9-11.7-7.7-17.9l-17.7-3.6-0.5-29.9 17.5-4.3c1.6-6.2 3.9-12.3 7.2-18.1l-9.9-15.1 20.7-21.4zm15.9 39.7c-12.3 12.7-11.9 33 0.8 45.3 12.7 12.3 33 11.9 45.3-0.8 12.2-12.7 11.9-33-0.8-45.3-12.8-12.3-33-11.9-45.3 0.8z"/>
					</g>
				</g>
			</g>
		</g>
		<g id="&lt;Group&gt;">
			<g id="&lt;Group&gt;">
				<g id="&lt;Group&gt;">
					<g id="&lt;Group&gt;">
						<path id="&lt;Compound Path&gt;" fill-rule="evenodd" class="s0" d="m617.9 57.7c3.9-2.4 8-4.1 12.3-5.3l2.5-12.1 20.5-0.4 2.9 12c4.3 1.1 8.5 2.7 12.4 4.9l10.3-6.8 14.8 14.2-6.4 10.6c2.3 3.9 4.1 8 5.3 12.2l12.1 2.5 0.3 20.5-12 2.9c-1 4.3-2.7 8.5-4.9 12.5l6.8 10.3-14.2 14.7-10.6-6.4c-3.8 2.3-7.9 4.1-12.2 5.3l-2.5 12.1-20.5 0.4-2.9-12c-4.3-1.1-8.5-2.7-12.4-4.9l-10.4 6.8-14.7-14.2 6.4-10.6c-2.3-3.9-4.1-8-5.3-12.2l-12.1-2.6-0.4-20.4 12.1-3c1-4.2 2.6-8.4 4.8-12.4l-6.7-10.3 14.2-14.7zm10.9 27.2c-8.4 8.7-8.2 22.6 0.5 31.1 8.7 8.4 22.6 8.1 31.1-0.6 8.4-8.7 8.1-22.6-0.6-31-8.7-8.4-22.6-8.2-31 0.5z"/>
					</g>
				</g>
			</g>
		</g>
		<g id="&lt;Group&gt;">
			<g id="&lt;Group&gt;">
				<g id="&lt;Group&gt;">
					<g id="&lt;Group&gt;">
						<path id="&lt;Compound Path&gt;" fill-rule="evenodd" class="s0" d="m190.3 226.2c2.4-1.4 4.9-2.5 7.6-3.3l1.6-7.5 12.7-0.3 1.8 7.5c2.7 0.7 5.3 1.7 7.8 3.1l6.4-4.3 9.2 8.9-4 6.6c1.5 2.4 2.6 5 3.3 7.6l7.6 1.6 0.2 12.7-7.5 1.9c-0.6 2.7-1.7 5.3-3 7.7l4.2 6.5-8.9 9.1-6.6-3.9c-2.4 1.4-4.9 2.5-7.6 3.3l-1.6 7.5-12.7 0.2-1.9-7.5c-2.6-0.6-5.2-1.6-7.7-3l-6.4 4.2-9.2-8.8 4-6.6c-1.5-2.4-2.6-5-3.3-7.7l-7.6-1.5-0.2-12.8 7.5-1.8c0.6-2.7 1.7-5.3 3-7.8l-4.2-6.4 8.9-9.2zm6.8 17c-5.3 5.5-5.1 14.1 0.3 19.4 5.4 5.2 14.1 5.1 19.4-0.4 5.2-5.4 5.1-14.1-0.4-19.3-5.4-5.3-14.1-5.1-19.3 0.3z"/>
					</g>
				</g>
			</g>
		</g>
		<g id="&lt;Group&gt;">
			<g id="&lt;Group&gt;">
				<g id="&lt;Group&gt;">
					<g id="&lt;Group&gt;">
						<path id="&lt;Compound Path&gt;" fill-rule="evenodd" class="s0" d="m82.7 341.5c4.8-2.9 9.9-5.1 15.2-6.6l3.1-15.1 25.5-0.5 3.6 15c5.4 1.3 10.6 3.3 15.5 6.1l12.9-8.5 18.3 17.7-8 13.2c2.9 4.8 5.1 9.9 6.6 15.2l15.1 3.1 0.4 25.5-14.9 3.6c-1.3 5.4-3.4 10.6-6.1 15.5l8.4 12.8-17.7 18.4-13.1-8c-4.8 2.9-9.9 5.1-15.2 6.6l-3.2 15.1-25.4 0.4-3.7-14.9c-5.3-1.4-10.5-3.4-15.4-6.1l-12.9 8.4-18.3-17.7 8-13.1c-2.9-4.8-5.1-10-6.6-15.2l-15.1-3.2-0.4-25.4 14.9-3.7c1.3-5.3 3.3-10.5 6.1-15.4l-8.5-12.9 17.7-18.3zm13.6 33.9c-10.5 10.8-10.2 28.1 0.7 38.6 10.8 10.5 28.1 10.2 38.6-0.7 10.5-10.8 10.2-28.1-0.7-38.6-10.8-10.5-28.1-10.2-38.6 0.7z"/>
					</g>
				</g>
			</g>
		</g>
		<g id="&lt;Group&gt;">
			<g id="&lt;Group&gt;">
				<g id="&lt;Group&gt;">
					<g id="&lt;Group&gt;">
						<path id="&lt;Compound Path&gt;" fill-rule="evenodd" class="s0" d="m853.6 615.8c4-2.4 8.2-4.2 12.5-5.4l2.6-12.4 20.8-0.4 3 12.3c4.4 1.1 8.7 2.7 12.7 5l10.5-6.9 15.1 14.5-6.6 10.7c2.4 4 4.2 8.2 5.4 12.5l12.4 2.6 0.4 20.9-12.3 3c-1.1 4.3-2.7 8.6-5 12.6l6.9 10.6-14.4 15-10.8-6.6c-4 2.4-8.2 4.2-12.5 5.5l-2.6 12.3-20.8 0.4-3.1-12.3c-4.3-1.1-8.6-2.7-12.6-5l-10.6 7-15-14.5 6.6-10.8c-2.4-4-4.2-8.2-5.5-12.5l-12.3-2.6-0.4-20.8 12.3-3c1.1-4.4 2.7-8.7 5-12.7l-7-10.5 14.5-15.1zm11.2 27.8c-8.6 8.9-8.4 23.1 0.5 31.7 8.9 8.6 23.1 8.3 31.7-0.6 8.6-8.9 8.3-23-0.6-31.6-8.9-8.6-23-8.4-31.6 0.5z"/>
					</g>
				</g>
			</g>
		</g>
		<g id="&lt;Group&gt;">
			<g id="&lt;Group&gt;">
				<g id="&lt;Group&gt;">
					<g id="&lt;Group&gt;">
						<path id="&lt;Compound Path&gt;" fill-rule="evenodd" class="s0" d="m462.6 797.1c5.5-3.4 11.4-5.9 17.5-7.7l3.7-17.4 29.4-0.5 4.2 17.3c6.2 1.5 12.2 3.8 17.8 7l14.9-9.7 21.2 20.4-9.3 15.2c3.4 5.5 6 11.5 7.7 17.6l17.4 3.6 0.5 29.4-17.3 4.2c-1.5 6.2-3.8 12.2-7 17.9l9.8 14.8-20.5 21.2-15.2-9.2c-5.5 3.3-11.4 5.9-17.5 7.6l-3.7 17.4-29.4 0.5-4.2-17.2c-6.2-1.6-12.2-3.9-17.8-7.1l-14.9 9.8-21.2-20.4 9.3-15.2c-3.4-5.6-6-11.5-7.7-17.6l-17.4-3.6-0.5-29.4 17.3-4.3c1.5-6.1 3.8-12.1 7-17.8l-9.8-14.9 20.5-21.1zm15.6 39.1c-12.1 12.6-11.7 32.5 0.8 44.6 12.6 12.1 32.5 11.8 44.6-0.7 12.1-12.6 11.8-32.6-0.8-44.7-12.5-12.1-32.5-11.7-44.6 0.8z"/>
					</g>
				</g>
			</g>
		</g>
		<g id="&lt;Group&gt;">
			<g id="&lt;Group&gt;">
				<g id="&lt;Group&gt;">
					<g id="&lt;Group&gt;">
						<g id="&lt;Group&gt;">
							<path id="&lt;Path&gt;" class="s1" d="m668 916.5c-4.7 4.5-12.2 4.3-16.8-0.4-4.5-4.7-4.3-12.2 0.4-16.8 4.7-4.5 12.2-4.3 16.8 0.4 4.5 4.7 4.3 12.2-0.4 16.8z"/>
						</g>
					</g>
				</g>
			</g>
			<g id="&lt;Group&gt;">
				<g id="&lt;Group&gt;">
					<g id="&lt;Group&gt;">
						<g id="&lt;Group&gt;">
							<g id="&lt;Group&gt;">
								<path id="&lt;Path&gt;" class="s1" d="m669.7 912.5c-0.8-0.1 1-12.5 5.8-27 4.9-14.4 8.9-26 9.5-25.8 0.8 0.1-2.1 12.2-7 26.6-4.8 14.4-7.6 26.3-8.3 26.2z"/>
							</g>
						</g>
					</g>
				</g>
			</g>
			<g id="&lt;Group&gt;">
				<g id="&lt;Group&gt;">
					<g id="&lt;Group&gt;">
						<g id="&lt;Group&gt;">
							<g id="&lt;Group&gt;">
								<path id="&lt;Path&gt;" class="s1" d="m709.6 866.4c0.3 0.6-5.9 3.1-13.6 1.2-7.7-1.8-12.2-6.8-11.6-7.2 0.5-0.6 5.2 3.1 12.2 4.7 6.9 1.7 12.8 0.6 13 1.3z"/>
							</g>
						</g>
					</g>
				</g>
			</g>
			<g id="&lt;Group&gt;">
				<g id="&lt;Group&gt;">
					<g id="&lt;Group&gt;">
						<g id="&lt;Group&gt;">
							<g id="&lt;Group&gt;">
								<path id="&lt;Path&gt;" class="s1" d="m705.1 877.9c0.3 0.6-5.7 3.3-13.1 0.9-7.4-2.3-10.9-8-10.2-8.3 0.6-0.5 4.4 3.8 11 5.8 6.4 2.1 12.1 0.8 12.3 1.6z"/>
							</g>
						</g>
					</g>
				</g>
			</g>
		</g>
		<g id="&lt;Group&gt;">
			<path id="&lt;Compound Path&gt;" class="s0" d="m359.1 915.8l1.7 6.9-27.5 6.9-1.4-5.5 10.8-16.8q1.7-2.7 2.1-4.4 0.4-1.7 0-3.2-0.6-2.2-2.3-3-1.8-0.8-4.7-0.1-2.4 0.6-4.1 2-1.7 1.4-2.5 3.5l-7.1-2.4q1.3-3.7 4.6-6.4 3.3-2.8 8.1-4 4.1-1 7.5-0.4 3.3 0.5 5.6 2.5 2.3 2 3.2 5.3 0.7 3 0.1 5.9-0.6 2.9-3.4 7.2l-6.4 10z"/>
		</g>
	</g>
	<g id="Symbol">
		<g id="&lt;Group&gt;">
			<g id="&lt;Group&gt;">
				<path id="&lt;Path&gt;" class="s2" d="m201.7 732.7c-1.6 9.4-10.5 15.6-19.9 14-9.4-1.6-15.7-10.5-14-19.9 1.6-9.3 10.5-15.6 19.8-14 9.4 1.6 15.7 10.5 14.1 19.9z"/>
			</g>
			<g id="&lt;Group&gt;">
				<path id="&lt;Path&gt;" class="s2" d="m188.4 809.8c-1.7 9.4-10.6 15.6-19.9 14-9.4-1.6-15.7-10.5-14.1-19.9 1.7-9.3 10.6-15.6 19.9-14 9.4 1.6 15.7 10.5 14.1 19.9z"/>
			</g>
			<g id="&lt;Group&gt;">
				<path id="&lt;Path&gt;" class="s2" d="m232.2 785.6l-111.5-19.3 3.5-20 111.5 19.3z"/>
			</g>
		</g>
	</g>
	<g id="Puzzle pieces">
		<g id="&lt;Group&gt;">
			<g id="&lt;Group&gt;">
				<path id="&lt;Path&gt;" class="s2" d="m393.3 176.8c-0.4 7.2-5.2 12.1-11.7 11.7-4.1-0.3-7.4-3.5-9.3-5.8-1.1-1.4-2.9-2.3-4.7-2.4-3.7-0.2-6.9 2.6-7.1 6.3l-2.2 47.7-101.1-4.3 2.9-45.4c0.2-3.7-2.6-6.9-6.3-7.1-1.8-0.1-3.7 0.5-5 1.8-2.1 2-5.8 4.9-10 4.6-6.4-0.4-10.6-5.8-10.1-13.1 0.5-7.3 5.3-12.1 11.7-11.7 4.1 0.2 7.5 3.5 9.3 5.7 1.2 1.5 2.9 2.3 4.7 2.4 3.7 0.3 6.9-2.5 7.2-6.2l1.4-42.5 39.7 1.7c3.5 0.5 6 3.6 5.7 7.1-0.1 1.8-1 3.5-2.4 4.7-2.3 1.8-5.6 5.1-5.8 9.3-0.5 6.4 4.4 11.2 11.6 11.7 7.3 0.5 12.7-3.6 13.2-10 0.3-4.2-2.5-7.9-4.5-10-1.3-1.4-1.9-3.2-1.8-5 0.2-3.4 2.7-6.6 6-6.9l38.3 1.7-1.7 40.5c-0.2 3.7 3.2 6.5 6.9 6.7 1.9 0.2 3.7-0.5 5-1.8 2.1-2 5.8-4.8 10-4.5 6.4 0.4 10.6 5.8 10.1 13.1z"/>
			</g>
			<g id="&lt;Group&gt;" style="opacity: .3">
				<path id="&lt;Path&gt;" class="s3" d="m292.9 231.6c0 0 10-16 22.4-18.7 6.9-1.6 12.7-3.5 17.4-5.5 8.5-3.5 16-8.8 22.4-15.3l5.4-5.5v35.2l-36 12.5z"/>
			</g>
		</g>
		<g id="&lt;Group&gt;">
			<path id="&lt;Path&gt;" class="s4" d="m149.1 418.7l15.2 40c1.2 3.6-0.6 7.4-4.2 8.6-1.7 0.6-3.6 0.5-5.3-0.4-2.6-1.4-6.9-3.1-10.8-1.7-6.2 2.1-8.7 8.4-6.3 15.4 2.4 6.9 8.3 10.3 14.4 8.2 4-1.4 6.3-5.4 7.5-8.1 0.7-1.7 2.2-3 3.9-3.6 3.5-1.2 7.4 0.6 8.6 4.1l14.9 43.2-4.6 1.7-37.2 13.7-63.5 23.4-16.4-45.1c-1.2-3.5 0.6-7.4 4.2-8.6 1.7-0.6 3.6-0.5 5.3 0.4 2.6 1.4 6.9 3.1 10.9 1.8 6.1-2.1 8.6-8.5 6.2-15.4-2.4-6.9-8.3-10.4-14.4-8.2-4 1.3-6.3 5.4-7.5 8.1-0.7 1.7-2.2 2.9-3.9 3.6-3.5 1.2-7.8-0.1-9-3.6l-14.1-38.3 43.1-15.9 3.3-1.3c1.7-1.8 2.2-4.8 1.3-7.4-0.6-1.7-1.8-3.2-3.5-3.9-2.7-1.2-6.7-3.6-8-7.5-2.1-6.1 1.3-12 8.3-14.4 6.9-2.3 13.2 0.3 15.2 6.4 1.4 4-0.4 8.3-1.8 10.8-0.9 1.7-1 3.6-0.4 5.3 0.8 2.6 3.1 4.3 5.6 4.5z"/>
		</g>
	</g>
	<g id="Pencil">
		<g id="&lt;Group&gt;">
			<path id="&lt;Path&gt;" class="s4" d="m841.7 845.8l-52.3-14.2-176.4-159.9 38.3-38.2 177 155.5 18.8 51.1c1.1 2.9-2.3 6.5-5.4 5.7z"/>
			<path id="&lt;Path&gt;" class="s5" d="m847.2 840.2c1 2.9-2.3 6.4-5.3 5.6l-52.1-14c-1.4-4.3-0.2-9.9 3.1-14 3.4-4.2 8.7-6.7 13.5-6.5-1.5-4.3 0.3-10.1 4.2-13.8 4-3.6 9.9-4.8 14-2.8-0.9-2.3 1-4.9 3.7-5.7z"/>
			<path id="&lt;Path&gt;" class="s6" d="m825.5 841.8c0 0-2.5-12.3 16-18.2l7.4 20.3c0.7 1.8-1.3 3.8-3.1 3.3z"/>
			<path id="&lt;Path&gt;" class="s7" d="m613 671.7l18.8-18.8 174.6 158.4c0 0-2.3-0.2-5.2 0.7-2.7 0.9-5.9 2.8-8.5 6.1-2 2.6-3 5.5-3.4 7.8-0.5 3.4 0.5 5.9 0.5 5.9l-0.4-0.2z"/>
			<path id="&lt;Path&gt;" class="s7" d="m824.4 793.8c-0.1 0.3 0.1 0.5 0.2 0.9l-178.3-156.3 5-4.9 177 155.5c0 0-3.9 1-3.9 4.8z"/>
		</g>
	</g>
	<g id="Numbers">
		<g id="&lt;Group&gt;">
			<path id="&lt;Compound Path&gt;" fill-rule="evenodd" class="s6" d="m147 657.4q2.3 2.1 3.1 5.5 1 4-0.5 7.5-1.5 3.6-5.2 6.2-3.7 2.6-9.1 4-5.4 1.3-9.8 0.7-4.5-0.6-7.5-3-3-2.4-4-6.4-0.8-3.3 0.2-6.3 1.1-3 3.8-5.4-2.7-0.9-4.6-2.8-1.8-1.9-2.6-4.8-0.9-3.7 0.5-7 1.4-3.2 4.8-5.7 3.3-2.4 8.2-3.6 4.9-1.2 9-0.7 4.1 0.6 6.9 2.8 2.8 2.2 3.7 6 0.7 2.9 0 5.4-0.7 2.6-2.8 4.6 3.6 0.8 5.9 3zm-25.4-11.2q-1.4 1.9-0.8 4.4 0.6 2.4 2.7 3.4 2.2 1 5.2 0.2 3.1-0.8 4.6-2.6 1.5-1.9 0.9-4.3-0.7-2.5-2.9-3.5-2.2-1-5.2-0.2-3 0.7-4.5 2.6zm17.4 23.9q1.7-2.2 1-5-0.7-2.8-3.3-3.9-2.5-1.1-6.3-0.2-3.6 0.9-5.4 3.1-1.7 2.2-1 5 0.7 2.9 3.3 4 2.5 1.1 6.2 0.2 3.7-0.9 5.5-3.2z"/>
		</g>
		<g id="&lt;Group&gt;">
			<path id="&lt;Compound Path&gt;" class="s6" d="m173 185l1.7 6.9-27.5 6.8-1.4-5.4 10.8-16.8q1.7-2.7 2.1-4.4 0.4-1.8 0-3.3-0.5-2.2-2.3-3-1.8-0.8-4.7-0.1-2.4 0.6-4.1 2-1.7 1.4-2.5 3.6l-7.1-2.5q1.3-3.7 4.6-6.4 3.3-2.7 8.2-3.9 4-1 7.4-0.5 3.4 0.6 5.7 2.6 2.3 2 3.1 5.3 0.7 2.9 0.1 5.8-0.6 3-3.3 7.2l-6.4 10z"/>
		</g>
	</g>
	<g id="Musical notes">
		<g id="&lt;Group&gt;">
			<g id="&lt;Group&gt;">
				<g id="&lt;Group&gt;">
					<g id="&lt;Group&gt;">
						<g id="&lt;Group&gt;">
							<path id="&lt;Path&gt;" class="s6" d="m835.3 316.6c-5.6 3.3-12.9 1.4-16.2-4.3-3.3-5.6-1.4-12.9 4.3-16.2 5.6-3.3 12.9-1.4 16.2 4.3 3.3 5.6 1.4 12.9-4.3 16.2z"/>
						</g>
					</g>
				</g>
			</g>
			<g id="&lt;Group&gt;">
				<g id="&lt;Group&gt;">
					<g id="&lt;Group&gt;">
						<g id="&lt;Group&gt;">
							<g id="&lt;Group&gt;">
								<path id="&lt;Path&gt;" class="s6" d="m837.9 313.1c-0.7-0.3 3.9-11.9 12-24.9 8-12.9 14.6-23.2 15.2-22.9 0.7 0.3-4.9 11.4-13 24.3-8 12.9-13.6 23.8-14.2 23.5z"/>
							</g>
						</g>
					</g>
				</g>
			</g>
			<g id="&lt;Group&gt;">
				<g id="&lt;Group&gt;">
					<g id="&lt;Group&gt;">
						<g id="&lt;Group&gt;">
							<g id="&lt;Group&gt;">
								<path id="&lt;Path&gt;" class="s6" d="m887.4 277.6c0.2 0.6-6.5 1.6-13.5-2-7.1-3.6-10.2-9.5-9.6-9.8 0.6-0.4 4.4 4.3 10.8 7.4 6.3 3.3 12.3 3.6 12.3 4.4z"/>
							</g>
						</g>
					</g>
				</g>
			</g>
			<g id="&lt;Group&gt;">
				<g id="&lt;Group&gt;">
					<g id="&lt;Group&gt;">
						<g id="&lt;Group&gt;">
							<g id="&lt;Group&gt;">
								<path id="&lt;Path&gt;" class="s6" d="m880.4 287.6c0.2 0.7-6.4 1.9-13-2.1-6.7-3.9-8.7-10.3-8-10.4 0.7-0.3 3.5 4.7 9.4 8.2 5.8 3.5 11.6 3.6 11.6 4.3z"/>
							</g>
						</g>
					</g>
				</g>
			</g>
		</g>
		<g id="&lt;Group&gt;">
			<g id="&lt;Group&gt;">
				<g id="&lt;Group&gt;">
					<g id="&lt;Group&gt;">
						<g id="&lt;Group&gt;">
							<g id="&lt;Group&gt;">
								<g id="&lt;Group&gt;">
									<path id="&lt;Path&gt;" class="s6" d="m833.1 714.7c-0.8 7.6-7.5 13.1-15.1 12.4-7.6-0.8-13.2-7.6-12.4-15.2 0.8-7.6 7.5-13.1 15.1-12.3 7.6 0.7 13.2 7.5 12.4 15.1z"/>
								</g>
							</g>
						</g>
					</g>
					<g id="&lt;Group&gt;">
						<g id="&lt;Group&gt;">
							<g id="&lt;Group&gt;">
								<g id="&lt;Group&gt;">
									<g id="&lt;Group&gt;">
										<path id="&lt;Path&gt;" class="s6" d="m831.6 709.9c-1.2 0.7-9.4-11.5-16.1-28-6.6-16.5-11.4-29.8-10.3-30.4 1.2-0.7 8.2 12.2 14.8 28.6 6.6 16.3 12.7 29.1 11.6 29.8z"/>
									</g>
								</g>
							</g>
						</g>
					</g>
					<g id="&lt;Group&gt;">
						<g id="&lt;Group&gt;">
							<g id="&lt;Group&gt;">
								<g id="&lt;Group&gt;">
									<g id="&lt;Group&gt;">
										<path id="&lt;Path&gt;" class="s6" d="m849.1 642.8c0.8 0.7-6.8 9.4-20.2 13.3-6.6 2-13.2 1.9-17.6 0.6-4.5-1.3-6.5-3.6-6.2-4.1 0.4-0.6 2.8 0.5 6.8 0.8 4 0.3 9.7-0.1 15.7-1.9 12-3.4 20.5-9.9 21.5-8.7z"/>
									</g>
								</g>
							</g>
						</g>
					</g>
				</g>
				<g id="&lt;Group&gt;">
					<g id="&lt;Group&gt;">
						<g id="&lt;Group&gt;">
							<g id="&lt;Group&gt;">
								<path id="&lt;Path&gt;" class="s6" d="m877 706c-0.8 7.6-7.6 13.1-15.1 12.3-7.6-0.7-13.2-7.5-12.4-15.1 0.8-7.6 7.5-13.1 15.1-12.3 7.6 0.7 13.1 7.5 12.4 15.1z"/>
							</g>
						</g>
					</g>
				</g>
				<g id="&lt;Group&gt;">
					<g id="&lt;Group&gt;">
						<g id="&lt;Group&gt;">
							<g id="&lt;Group&gt;">
								<g id="&lt;Group&gt;">
									<path id="&lt;Path&gt;" class="s6" d="m875.4 701.2c-1.1 0.7-9.3-11.5-16-28-6.6-16.5-11.5-29.9-10.3-30.4 1.2-0.7 8.2 12.2 14.8 28.6 6.6 16.3 12.7 29.1 11.5 29.8z"/>
								</g>
							</g>
						</g>
					</g>
				</g>
				<g id="&lt;Group&gt;">
					<g id="&lt;Group&gt;">
						<g id="&lt;Group&gt;">
							<g id="&lt;Group&gt;">
								<g id="&lt;Group&gt;">
									<path id="&lt;Path&gt;" class="s6" d="m853 651.3c1 0.8-5.7 9.5-18.1 13.7-12.4 4.2-23.1 1.2-22.7 0 0.2-1.4 10-0.7 21.1-4.6 11.2-3.6 18.7-10.1 19.7-9.1z"/>
								</g>
							</g>
						</g>
					</g>
				</g>
			</g>
		</g>
	</g>
	<g id="Heart">
		<g id="&lt;Group&gt;">
			<g id="&lt;Group&gt;">
				<g id="&lt;Group&gt;">
					<g id="&lt;Group&gt;">
						<path id="&lt;Path&gt;" class="s2" d="m791.9 194.3c-2.7 6.5-7.9 12.1-13.4 16.6-9.2 7.5-19.2 17.5-19.2 17.5 0 0-14.4-5.7-25.4-10.3-6.5-2.8-13-6.8-17.5-12.3-4.2-5.2-6.5-12.2-6.7-18.9-0.1-5.4 1.7-10.7 4.7-15.1 2.9-4.4 7-8.1 11.9-9.9 5.2-2 11.2-1.6 16.2 0.8 2.7 1.4 5.1 3.3 6.9 5.7 1.2-3.1 3-6 5.5-8.2 4.1-3.8 9.7-5.8 15.3-5.4 5.2 0.4 10.2 2.8 14.2 6.2 4.1 3.5 7.3 8 8.7 13.2 1.7 6.5 1.4 13.9-1.2 20.1z"/>
					</g>
				</g>
			</g>
		</g>
	</g>
	<g id="Light bulb">
		<g id="&lt;Group&gt;">
			<g id="&lt;Group&gt;">
				<g id="&lt;Group&gt;">
					<g id="&lt;Group&gt;">
						<g id="&lt;Group&gt;">
							<g id="&lt;Group&gt;">
								<g id="&lt;Group&gt;">
									<g id="&lt;Group&gt;">
										<g id="&lt;Group&gt;">
											<g id="&lt;Group&gt;">
												<g id="&lt;Group&gt;">
													<g id="&lt;Group&gt;">
														<path id="&lt;Path&gt;" class="s2" d="m887.3 520.2c-4.2 8.3-9.2 17.6-9.2 17.6l-58.2-26.7c0 0 4.4-8.9 8.2-16.8-17.3-20.9-21.6-51-8.6-77.6 18-36.7 62.3-52.9 98.9-36.1 36.7 16.8 51.9 60.2 33.9 97-12.6 25.7-38.2 41.3-65 42.6z"/>
													</g>
												</g>
											</g>
										</g>
									</g>
								</g>
							</g>
						</g>
					</g>
				</g>
				<g id="&lt;Group&gt;">
					<g id="&lt;Group&gt;">
						<g id="&lt;Group&gt;">
							<g id="&lt;Group&gt;">
								<path id="&lt;Path&gt;" class="s8" d="m841.1 520.3q1.5-3.1 2.9-6.1c9.8-20 20.4-39.7 29.4-60 1.8-3.9 3.4-7.8 4.9-11.9 2-5.7 4-13.4-1.1-18-5.4-4.9-12.1 0.7-15.5 5.3-3.5 4.6-5.5 10.2-6.2 15.8-1.3 11.7 4.1 22.8 14.1 28.9 10.2 6.2 23.3 6.2 33.6-0.6 5-3.3 9.2-8 11.9-13.4 2.5-5.3 4-12.2 0.9-17.4-1.5-2.5-4.2-3.9-7.2-3.5-2.8 0.4-5.3 2.3-7.2 4.3-4 4.1-6.8 9.4-9.7 14.2-13.1 22.1-23.8 45.3-36.2 67.7-0.5 1-2 0.4-1.5-0.6q2.3-4.2 4.5-8.4c6.8-12.8 13.3-25.7 20.1-38.4 3.3-6.2 6.6-12.4 10.2-18.5 3-5.2 6-10.7 9.8-15.4 3.4-4 8.4-8 13.9-6.2 5.6 1.9 7.1 8.7 6.6 14-1.3 12.2-11.8 23.1-23.3 26.9-11.8 3.9-24.9 0.4-33.4-8-8.5-8.4-10.9-21-7.3-32.5 1.8-5.6 5.2-11.3 10-15 2.2-1.7 4.9-2.9 7.8-2.7 2.9 0.1 5.4 1.9 6.9 4.2 3.6 5.4 1.9 12-0.1 17.7-1.6 4.6-3.5 9.1-5.5 13.5-9.9 21.9-21.5 43-31.8 64.7-0.4 1-1.9 0.3-1.5-0.6z"/>
							</g>
						</g>
					</g>
				</g>
				<g id="&lt;Group&gt;">
					<g id="2gGvdE.tif 00000036970239527410392580000011431145008063268739 ">
						<g id="&lt;Group&gt;">
							<g id="&lt;Group&gt;">
								<g id="&lt;Group&gt;">
									<g id="&lt;Group&gt;">
										<path id="&lt;Path&gt;" class="s4" d="m847.2 559.2c-1.7-0.4-4 0.4-5.5 1.3-1.3 0.7-2.8 0.8-4.1 0.2l-11.7-5.4c-1.2-0.5-2.1-1.6-2.4-2.8-0.5-2.5-2.2-5.2-2.2-5.2z"/>
									</g>
								</g>
							</g>
						</g>
					</g>
					<g id="&lt;Group&gt;">
						<g id="&lt;Group&gt;">
							<g id="&lt;Group&gt;">
								<g id="&lt;Group&gt;">
									<path id="&lt;Path&gt;" class="s6" d="m875 531.9c0 0-13.8 20.7-18.1 25.5-4.1 4.7-10.8 1.6-10.8 1.6 0 0-20.6-9.4-25.6-11.7-1.3-0.6-2.3-1.4-3-2.3-2.1-2.4-2.6-5.8-1.6-8.8 2.4-7.5 8.6-27.1 8.7-27.3z"/>
								</g>
							</g>
						</g>
					</g>
					<g id="&lt;Group&gt;">
						<g id="&lt;Group&gt;">
							<g id="&lt;Group&gt;">
								<g id="&lt;Group&gt;">
									<g id="&lt;Group&gt;">
										<path id="&lt;Path&gt;" class="s4" d="m861.7 555.4l-46.6-21.1c-0.7-0.4-1-1.2-0.6-1.9v-0.1c0.4-0.7 1.2-1 1.9-0.7l46.6 21.1c0.7 0.3 1 1.1 0.7 1.8l-0.1 0.2c-0.3 0.7-1.2 1-1.9 0.7z"/>
									</g>
								</g>
							</g>
						</g>
					</g>
					<g id="&lt;Group&gt;">
						<g id="&lt;Group&gt;">
							<g id="&lt;Group&gt;">
								<g id="&lt;Group&gt;">
									<g id="&lt;Group&gt;">
										<path id="&lt;Path&gt;" class="s4" d="m865.2 549.9l-47.9-21.7c-0.7-0.3-1-1.1-0.6-1.8v-0.2c0.4-0.7 1.2-1 1.9-0.7l47.9 21.7c0.7 0.3 0.9 1.1 0.6 1.9l-0.1 0.1c-0.3 0.7-1.1 1-1.8 0.7z"/>
									</g>
								</g>
							</g>
						</g>
					</g>
					<g id="&lt;Group&gt;">
						<g id="&lt;Group&gt;">
							<g id="&lt;Group&gt;">
								<g id="&lt;Group&gt;">
									<g id="&lt;Group&gt;">
										<path id="&lt;Path&gt;" class="s1" d="m868.9 544.6l-49.7-22.6c-0.7-0.3-1-1.1-0.7-1.8l0.1-0.2c0.3-0.7 1.2-1 1.9-0.7l49.7 22.6c0.7 0.3 1 1.1 0.7 1.8l-0.1 0.2c-0.3 0.7-1.2 1-1.9 0.7z"/>
									</g>
								</g>
							</g>
						</g>
						<g id="&lt;Group&gt;">
							<g id="&lt;Group&gt;">
								<g id="&lt;Group&gt;">
									<g id="&lt;Group&gt;">
										<g id="&lt;Group&gt;">
											<path id="&lt;Path&gt;" class="s6" d="m868.9 544.6c0-0.1 0.5 0.2 1.2-0.1 0.4-0.1 0.7-0.6 0.8-1.1 0.2-0.5-0.1-1.2-0.8-1.5-2.8-1.2-6.7-3-11.6-5.2-9.8-4.4-23.2-10.4-38.1-17.2-0.4-0.1-0.9-0.1-1.2 0.2-0.4 0.2-0.6 0.7-0.6 1.1 0 0.4 0.3 0.8 0.7 1q0.7 0.3 1.4 0.6 2.7 1.2 5.3 2.4 5.3 2.4 10.1 4.6c6.5 3 12.3 5.6 17.1 7.8 4.9 2.3 8.8 4.1 11.5 5.4q2.1 0.9 3.2 1.4 0.5 0.3 0.8 0.4 0.2 0.1 0.2 0.2 0 0-0.2-0.1-0.4-0.2-0.9-0.4-1.1-0.5-3.1-1.4c-2.8-1.2-6.7-3-11.6-5.1-4.9-2.2-10.7-4.9-17.2-7.8q-4.8-2.2-10.1-4.5-2.6-1.2-5.3-2.5-0.7-0.3-1.4-0.6c-0.5-0.2-0.9-0.8-1-1.3 0-0.3 0.1-0.7 0.2-0.9 0.1-0.2 0.3-0.5 0.6-0.7 0.5-0.4 1.1-0.4 1.7-0.2 14.8 6.8 28.3 12.9 38.1 17.3 4.8 2.3 8.7 4.1 11.5 5.3 0.7 0.3 1 1.2 0.9 1.7-0.2 0.6-0.6 1-1 1.2-0.3 0.2-0.7 0.1-0.9 0.1-0.2-0.1-0.3-0.1-0.3-0.1z"/>
										</g>
									</g>
								</g>
							</g>
						</g>
					</g>
					<g id="&lt;Group&gt;">
						<g id="&lt;Group&gt;">
							<g id="&lt;Group&gt;">
								<g id="&lt;Group&gt;">
									<path id="&lt;Path&gt;" class="s4" d="m888.2 524.4l-10 16.8c-1.2 2-3.3 3.4-5.7 3.8l-3.4 0.5-49.5-22.7-1.8-2.9c-1.2-2-1.4-4.4-0.6-6.6 2.3-6 6.7-17.7 6.9-18.2z"/>
								</g>
							</g>
						</g>
					</g>
					<g id="&lt;Group&gt;" style="opacity: .3">
						<g id="&lt;Group&gt;">
							<g id="&lt;Group&gt;">
								<g id="&lt;Group&gt;">
									<g id="&lt;Group&gt;">
										<path id="&lt;Path&gt;" class="s3" d="m860.7 554.9c-0.5 0.1-2.7-0.3-4.6-1.1-3.7-1.5-7.1-2.9-10.7-4.5-5-2.1-9.5-4.3-14-6.4-5.7-2.5-10.8-5-15.4-8.4z"/>
									</g>
								</g>
							</g>
						</g>
					</g>
					<g id="&lt;Group&gt;" style="opacity: .3">
						<g id="&lt;Group&gt;">
							<g id="&lt;Group&gt;">
								<g id="&lt;Group&gt;">
									<g id="&lt;Group&gt;">
										<path id="&lt;Path&gt;" class="s3" d="m863.5 549.1c-0.5 0.2-2.7-0.3-4.6-1-3.7-1.5-7.1-2.9-10.7-4.5-5-2.2-9.5-4.3-14-6.4-5.7-2.6-10.8-5-15.4-8.4z"/>
									</g>
								</g>
							</g>
						</g>
					</g>
					<g id="&lt;Group&gt;">
						<g id="&lt;Group&gt;">
							<g id="&lt;Group&gt;">
								<g id="&lt;Group&gt;">
									<g id="&lt;Group&gt;">
										<path id="&lt;Path&gt;" class="s6" d="m875.9 543c-0.1 0.1-13.4-5.9-29.7-13.3-16.4-7.5-29.6-13.7-29.5-13.8 0-0.1 13.3 5.9 29.7 13.3 16.3 7.5 29.5 13.7 29.5 13.8z"/>
									</g>
								</g>
							</g>
						</g>
					</g>
					<g id="&lt;Group&gt;">
						<g id="&lt;Group&gt;">
							<g id="&lt;Group&gt;">
								<g id="&lt;Group&gt;">
									<g id="&lt;Group&gt;">
										<path id="&lt;Path&gt;" class="s6" d="m888 523.9c0 0.2-14.5-6.3-32.3-14.3-17.8-8.1-32.1-14.7-32.1-14.8 0.1-0.2 14.5 6.2 32.3 14.3 17.8 8.1 32.2 14.7 32.1 14.8z"/>
									</g>
								</g>
							</g>
						</g>
					</g>
				</g>
			</g>
			<g id="&lt;Group&gt;" style="opacity: .2">
				<g id="&lt;Group&gt;">
					<g id="&lt;Group&gt;">
						<g id="&lt;Group&gt;">
							<path id="&lt;Path&gt;" class="s8" d="m895.6 394c1.3-2.8 4.5-4.9 8.4-6 5.5-1.6 11.3-0.7 16.2 1.9 14.6 7.8 22.6 17.2 27.3 33.8 1.5 5.6 2.1 14.8-0.9 20.3-1.5 2.7-3.9 4.9-6.9 5.8-7.9 2.2-13.8-5.4-16-12.5-2-6.7-2.6-14.2-7.2-19.5-3.8-4.3-9.6-6.1-14.5-9.3-4.8-3.2-8.8-9.1-6.4-14.5z"/>
						</g>
					</g>
				</g>
			</g>
			<g id="&lt;Group&gt;" style="opacity: .2">
				<g id="&lt;Group&gt;">
					<g id="&lt;Group&gt;">
						<g id="&lt;Group&gt;">
							<path id="&lt;Path&gt;" class="s8" d="m928.8 461.9c3.6-3.7 10.3-4.1 13.4-1.6 2.6 2.1 4.2 5.4 4 8.8-0.2 4-3.1 7.9-7 9.1-4 1.3-8.6-0.2-10.8-3.5-2.2-3.4-2.4-9.9 0.4-12.8z"/>
						</g>
					</g>
				</g>
			</g>
		</g>
	</g>
	<g id="Speech Bubble">
		<path id="&lt;Path&gt;" class="s8" d="m204.6 365.1l-21.7-3.8c-9.3 8.5-21 14.5-34.3 17-38.1 7.2-74.9-18-82-56.1-7.1-38.2 18-74.9 56.2-82 38.1-7.2 74.8 18 82 56.1 3 16 0.3 31.6-6.6 45z"/>
		<g id="&lt;Group&gt;">
			<path id="&lt;Path&gt;" class="s6" d="m204.3 363.6q0.3 1.5 0.3 1.5c0 0-0.2-0.5-0.5-1.6q-0.5-1.6-1.3-4.6c-1.1-4-2.8-9.9-4.9-17.5v-0.2c4.1-8.2 8-19.8 7.5-33.8-0.1-6.9-1.5-14.4-4.3-21.8-2.7-7.5-6.8-15-12.6-21.6-11.4-13.5-29.8-23.5-50.4-24.2-20.5-0.9-42.7 8.4-56.7 26.1-7.1 9.1-12 19.6-13.9 30.5-2.1 10.8-1.4 21.9 1.4 31.9 2.8 10.1 7.9 19.2 14.3 26.5 6.4 7.4 14.1 13.1 22.2 17 16.2 7.9 33.3 8.6 46.8 5.2 13.7-3.2 23.8-9.9 30.5-15.9l0.1-0.1h0.1c7 1.3 12.3 2.3 16 3q2.7 0.5 4.2 0.8c1 0.2 1.5 0.3 1.5 0.3q0 0-1.3-0.2-1.5-0.2-4.2-0.6c-3.7-0.6-9.1-1.5-16.1-2.6-6.7 6.1-16.8 12.9-30.5 16.3-13.7 3.5-31.2 3-47.7-5-8.2-3.9-16.1-9.7-22.7-17.2-6.5-7.5-11.8-16.7-14.7-27.1-2.9-10.2-3.5-21.5-1.5-32.6 2-11.2 7-21.9 14.3-31.1 14.3-18.2 37-27.7 57.9-26.7 10.5 0.4 20.6 3.1 29.3 7.5 8.8 4.4 16.3 10.4 22.1 17.3 5.9 6.8 10.1 14.5 12.8 22.1 2.7 7.6 4.1 15.2 4.2 22.2 0.3 14.1-3.7 25.7-7.9 33.9 2 7.7 3.5 13.7 4.5 17.8q0.8 2.9 1.2 4.5z"/>
			<path id="&lt;Compound Path&gt;" fill-rule="evenodd" class="s6" d="m135.9 380.6c-10.7 0-21.6-2.4-31.3-7.1-8.6-4.2-16.5-10.2-22.8-17.4-7-8-12.1-17.4-14.9-27.2-3-10.7-3.5-22-1.5-32.9 1.9-11 6.9-21.8 14.4-31.4 13.9-17.6 36.2-27.9 58.4-26.8 10.1 0.4 20.3 3 29.4 7.6 8.5 4.2 16.2 10.2 22.3 17.4 5.6 6.5 9.9 14 12.9 22.2 2.7 7.5 4.1 15 4.2 22.4 0.3 14.8-4.1 26.6-7.9 34l4.5 17.6q0 0 0 0l1.1 4.5c0.2 0.7 0.3 1.2 0.4 1.5q0 0.1 0 0.2c0 0.1 0 0.2-0.1 0.3-0.1 0.1-0.2 0.1-0.3 0.1q-0.1 0-0.2 0c-0.3 0-0.7-0.1-1.3-0.2l-20.1-3.2c-6 5.5-16.2 12.8-30.5 16.3-5.4 1.4-11.1 2.1-16.7 2.1zm-0.8-141.9c-20.8 0-41.5 10-54.5 26.6-7.4 9.4-12.3 20.1-14.2 30.9-2 10.7-1.5 21.9 1.5 32.4 2.7 9.7 7.7 18.9 14.6 26.8 6.2 7.2 14 13.1 22.5 17.2 14.8 7.1 32 8.9 47.3 4.9q2.4-0.6 4.6-1.3-2.2 0.7-4.6 1.3c-15.3 3.8-32.5 1.9-47.1-5.2-8.5-4.1-16.2-10-22.4-17.1-6.8-7.9-11.8-17.1-14.4-26.7-2.9-10.5-3.4-21.6-1.4-32.2 1.8-10.7 6.7-21.3 14-30.7 13.6-17.2 35.5-27.2 57.1-26.3 19.4 0.6 38.3 9.7 50.8 24.3 5.5 6.4 9.8 13.8 12.7 21.8 2.7 7.4 4.2 14.8 4.3 22q0.1 3.9-0.2 7.5 0.4-3.6 0.3-7.5c-0.1-7.2-1.5-14.7-4.2-22.1-2.9-8.1-7.1-15.4-12.7-21.9-6-7-13.6-13-21.9-17.1-9-4.6-19-7.1-29.1-7.5q-1.5-0.1-3-0.1zm0.2 1.5c-20.4 0-40.7 9.8-53.5 26.1-7.2 9.2-12 19.6-13.9 30.2-1.9 10.4-1.4 21.4 1.5 31.7 2.6 9.4 7.5 18.5 14.2 26.3 6.1 7 13.7 12.8 22 16.9 14.4 7 31.4 8.9 46.5 5.1 14.2-3.4 24.3-10.4 30.2-15.8l0.1-0.1q0.2-0.2 0.5-0.1l20.3 3.8q0.4 0.1 0.7 0.1-0.1-0.3-0.3-0.7l-1.3-4.6-4.9-17.6q0-0.1 0-0.1v-0.2q0-0.2 0.1-0.3c3.6-7.2 7.9-19 7.4-33.4-0.1-7.2-1.6-14.5-4.2-21.8-2.9-7.9-7.1-15.1-12.6-21.4-12.2-14.4-30.9-23.4-50-24q-1.4-0.1-2.8-0.1z"/>
		</g>
		<path id="&lt;Path&gt;" class="s6" d="m115.1 309.2c0 5.5-4.4 9.8-9.8 9.8-5.4 0-9.8-4.3-9.8-9.8 0-5.4 4.4-9.7 9.8-9.7 5.4 0 9.8 4.3 9.8 9.7z"/>
		<path id="&lt;Path&gt;" class="s6" d="m145.5 309.2c0 5.5-4.4 9.8-9.8 9.8-5.4 0-9.8-4.3-9.8-9.8 0-5.4 4.4-9.7 9.8-9.7 5.4 0 9.8 4.3 9.8 9.7z"/>
		<path id="&lt;Path&gt;" class="s6" d="m175.9 309.2c0 5.5-4.4 9.8-9.8 9.8-5.4 0-9.8-4.3-9.8-9.8 0-5.4 4.4-9.7 9.8-9.7 5.4 0 9.8 4.3 9.8 9.7z"/>
	</g>
	<g id="Brain side 2">
		<g id="&lt;Group&gt;">
			<g id="&lt;Group&gt;">
				<g id="&lt;Group&gt;">
					<path id="&lt;Path&gt;" class="s2" d="m753.6 335.8c7.2 11.8 5.9 29.4 13.8 43.8 7.8 14.4 0.6 20.3 0.6 20.3l7.2 3.2c17 6.6 15 53.6 15 53.6 0 0 4 9.2 4.6 25.5 0.7 16.3-1.3 46.4-4.3 58.8-2.9 12.4-9.4 15.7-9.4 15.7 0 0 7.2 7.8 9.1 18.3 2 10.4-6.5 23.5-9.8 47-3.2 23.6-11.1 26.2-11.1 26.2 0 0 6.6 4.6 4 22.2-2.7 17.6-14.4 30.1-23.6 48.3-9.1 18.3-24.1 27.5-24.1 27.5 0.7 42.5-35.3 58.1-35.3 58.1-11.1 12.5-26.8 26.2-74.8 42.5-48 16.4-81.4-5.9-97.7-24.2-16.4-18.3-9.7-184.9-9.7-184.9v-182.9c0 0 3.8-63.4 0-75.2-3.8-11.7-3.4-39.8 0-59.4 3.4-19.6-1.4-56.9 0-79.1 1.5-22.2-9.3-65.3 39.1-77.1 48.3-11.8 79 26.8 93.4 37.9 14.4 11.1 19 16.3 39.9 24.2 20.9 7.8 20.2 17.6 35.9 43.1 15.7 25.5 6.5 35.9 6.5 35.9 16.4-1.9 23.6 19 30.7 30.7z"/>
				</g>
				<g id="&lt;Group&gt;">
					<g id="&lt;Group&gt;">
						<g id="&lt;Group&gt;" style="opacity: .3">
							<path id="&lt;Path&gt;" class="s3" d="m726.6 632.9q-0.2 0.1-0.2 0.1 0.1 0 0.2-0.1z"/>
						</g>
						<g id="&lt;Group&gt;" style="opacity: .3">
							<path id="&lt;Path&gt;" class="s3" d="m726.4 633q-0.1 0 0 0z"/>
						</g>
						<g id="&lt;Group&gt;" style="opacity: .3">
							<path id="&lt;Path&gt;" class="s3" d="m726.6 632.9c0.2 0 0.4-0.1 0 0z"/>
						</g>
						<g id="&lt;Group&gt;" style="opacity: .3">
							<path id="&lt;Path&gt;" class="s3" d="m729.8 648.8c-0.6-5.3-2.1-10.6-3.2-15.9 6 7.9 10.6 19.1 9.6 30.9 5.6 0.6 13.3-3.3 15.7-4-6.6 7.8-22 17.1-24.3 26.5-2.3 9.8 10 18.2 5 29.1-3.5-3.1-1.9-5.5-2.7-9.2-3.8-18.6-25-17.4-34.9-14.9 5.8-3.4 11.8-6.8 17.4-9.3 17.2-7.4 19.7-14.8 17.4-33.2z"/>
						</g>
						<g id="&lt;Group&gt;" style="opacity: .3">
							<path id="&lt;Path&gt;" class="s3" d="m684.8 697.2q1.4-0.8 2.9-1.7l-13.4 12.9c-3.2 1.1-9.8 3.1-21.3-4.3 19.8 7.4 23.6-2.4 31.8-6.9z"/>
						</g>
						<g id="&lt;Group&gt;" style="opacity: .3">
							<path id="&lt;Path&gt;" class="s3" d="m695 691.3c-2.4 1.4-4.9 2.9-7.3 4.2l2.5-2.3c0.4-0.5 2.2-1.3 4.8-1.9z"/>
						</g>
					</g>
					<g id="&lt;Group&gt;" style="opacity: .3">
						<path id="&lt;Path&gt;" class="s3" d="m668.4 782.7c14-6.3 23.9-16.8 28.1-32.1 1.1-4 2.9-7.8 4.4-11.7 3.4 3.8 4 7 3.2 9.7-4.7 16.9-15.7 28.8-30.2 38.1-14.3 9.1-28.5 18.4-42.1 28.4-14.8 10.8-30.5 14.3-48.2 9.4 13.1-4.5 28.3-4.3 39.8-10.6 12.3-6.8 21.1-19.7 31.5-30 3.6-0.3 9.2 0.8 13.5-1.2z"/>
					</g>
					<g id="&lt;Group&gt;" style="opacity: .3">
						<path id="&lt;Path&gt;" class="s3" d="m569.9 388.6c-1.9 2.5 0.8 6.1-0.3 9.2-11.3-10.9 12-43-5.6-68.1 16.1 9.7 21.5 39.2 5.9 58.9z"/>
					</g>
					<g id="&lt;Group&gt;" style="opacity: .3">
						<path id="&lt;Path&gt;" class="s3" d="m599.2 778.9q-13.6 6.3-25.4 11.9c-5.8-3.7-12-7.5-19.1-11.9 14.8 0 29.4 0 44.5 0z"/>
					</g>
				</g>
				<g id="&lt;Group&gt;">
					<g id="&lt;Group&gt;">
						<path id="&lt;Path&gt;" class="s6" d="m505.8 567.3q0 0 0.8 0.2 0.8 0.2 2.2 0.6 1.4 0.5 3.5 1.1c1.4 0.4 3 0.8 4.9 1.2 7.3 1.7 18.2 3.6 31.7 3.1 6.7-0.4 14.1-1.3 21.8-3.2 7.6-2.1 15.6-5.2 23.2-9.9 7.5-4.6 14.7-10.8 20.3-18.6 5.3-8.2 8.3-17.9 13.6-26.9 1.2-2.1 2.5-4.1 4-5.9 1.6-1.8 3.3-3.3 4.9-5 3.5-3 7.1-5.9 10.9-8.3 7.6-4.9 15.6-8.5 23.5-11 15.9-5.1 31.1-6.7 44-7.4l-0.3 0.3c2-7.6 3.9-14.5 5.9-20.6 1.9-6 3.9-11.1 5.7-15.1 3.7-8.2 6.5-12.3 6.5-12.3q0 0.1-0.4 0.9-0.5 0.8-1.3 2.3c-1.1 2.1-2.6 5.2-4.4 9.2-1.7 4.1-3.6 9.2-5.5 15.2-1.9 6.1-3.7 13-5.8 20.6v0.3h-0.3c-12.9 0.7-28 2.4-43.8 7.5-7.8 2.6-15.8 6.1-23.2 11-3.8 2.3-7.3 5.2-10.7 8.2-1.6 1.6-3.4 3.2-4.9 4.9-1.5 1.7-2.7 3.7-3.9 5.7-5.2 8.9-8.2 18.6-13.6 26.9-5.8 8-13.1 14.3-20.7 19-7.7 4.7-15.8 7.8-23.5 9.8-7.8 1.9-15.2 2.8-22 3.1-13.6 0.4-24.5-1.5-31.8-3.4-1.9-0.5-3.5-0.8-4.9-1.3q-2.1-0.7-3.5-1.2-1.3-0.4-2.1-0.7-0.8-0.3-0.8-0.3z"/>
					</g>
				</g>
				<g id="&lt;Group&gt;">
					<g id="&lt;Group&gt;">
						<path id="&lt;Path&gt;" class="s6" d="m556.3 686.4q0 0-0.1-0.5 0-0.6-0.1-1.6c0.1-1.4 0.1-3.5 0.8-6.1 1.2-5.2 5.2-12.1 12.1-18.8 3.4-3.3 7.5-6.6 11.6-10.2 4.2-3.7 8.6-7.8 12-13 1.7-2.6 3.1-5.4 4-8.5 1-3.1 1.6-6.4 2.3-9.8 0.6-3.3 1.3-6.7 2.4-10.1 1.1-3.4 2.8-6.7 5-9.7 4.4-5.9 10.3-10.3 16.4-13.4 6.1-3.2 12.4-5.2 18.5-6.7 12.3-2.9 23.5-4.4 32.6-7.1 9-2.6 15.9-6.2 20.2-9.3 2.1-1.6 3.6-2.9 4.7-3.9q0.7-0.6 1.1-1.1 0.4-0.3 0.5-0.3c0 0-1.8 2.4-6.1 5.6-4.2 3.2-11.1 7-20.2 9.7-9.1 2.9-20.4 4.4-32.5 7.4-6.1 1.5-12.4 3.5-18.4 6.6-5.9 3.1-11.7 7.4-15.9 13.2-2.2 2.8-3.8 6-4.9 9.3-1.1 3.3-1.7 6.7-2.4 10-0.7 3.4-1.3 6.7-2.3 9.9-1 3.1-2.5 6.1-4.2 8.8-3.5 5.3-8 9.4-12.2 13-4.2 3.7-8.3 6.9-11.7 10.2-6.8 6.5-10.9 13.2-12.2 18.3-1.4 5.1-0.8 8.1-1 8.1z"/>
					</g>
				</g>
				<g id="&lt;Group&gt;">
					<g id="&lt;Group&gt;">
						<path id="&lt;Path&gt;" class="s6" d="m727.9 557.1c0 0.3-6.3-0.9-14.3-1.1-7.9-0.2-14.3 0.9-14.3 0.5 0-0.1 1.5-0.5 4.1-0.9 2.6-0.4 6.2-0.7 10.3-0.6 4 0 7.6 0.5 10.2 1 2.5 0.5 4.1 1 4 1.1z"/>
					</g>
				</g>
				<g id="&lt;Group&gt;">
					<g id="&lt;Group&gt;">
						<path id="&lt;Path&gt;" class="s6" d="m699.4 539c0.2-0.1 2.7 3.7 2.6 9.1 0 5.4-2.5 9.2-2.7 9-0.3-0.1 1.6-3.9 1.6-9 0.1-5.1-1.8-8.9-1.5-9.1z"/>
					</g>
				</g>
				<g id="&lt;Group&gt;">
					<g id="&lt;Group&gt;">
						<path id="&lt;Path&gt;" class="s6" d="m653.2 659.8c-0.2-0.2 3.6-3.8 7.1-11.4 1.8-3.7 3.4-8.4 4.2-13.9 0.8-5.4 0.7-11.5-0.8-17.6-1.5-6.1-4.2-11.6-7.3-16.1-3.2-4.5-6.7-8-10-10.5-6.6-5.1-11.7-6.6-11.5-6.9q0 0 0.9 0.3c0.5 0.2 1.4 0.5 2.5 1 2.1 0.9 5.2 2.5 8.5 5 3.4 2.5 7.1 6 10.4 10.5 3.2 4.6 6 10.2 7.6 16.4 1.4 6.3 1.5 12.6 0.6 18.1-0.8 5.5-2.5 10.3-4.4 14.1-1.9 3.7-3.8 6.5-5.3 8.3-0.7 1-1.4 1.6-1.8 2.1q-0.7 0.6-0.7 0.6z"/>
					</g>
				</g>
				<g id="&lt;Group&gt;">
					<g id="&lt;Group&gt;">
						<path id="&lt;Path&gt;" class="s6" d="m651.5 702.7c0.1-0.1 1.5 1.5 4.8 3.5 1.7 0.9 3.8 2 6.4 2.7 2.6 0.6 5.8 1 9 0 3.3-0.8 6.3-3.2 8.9-6.3 2.6-3 5.1-6.6 8.9-9.5 3.7-2.8 8.7-3.9 13.6-4.6 4.9-0.8 10-1.6 14.4-4.3 2.2-1.3 4.3-2.9 6-4.7 1.8-1.7 3.4-3.7 4.7-5.7 2.6-4.2 4.2-8.7 5-13.1 0.7-4.5 0.4-8.8-0.4-12.7-0.8-3.9-2.1-7.5-3.7-10.5-3.1-6.1-6.9-10.3-9.6-12.9-1.4-1.4-2.5-2.4-3.3-3q-1.2-1-1.2-1 0-0.1 1.3 0.8c0.8 0.6 2 1.6 3.4 2.9 2.9 2.5 6.8 6.7 10.1 12.9 1.6 3 3 6.6 3.9 10.6 0.8 4 1.1 8.5 0.4 13-0.7 4.6-2.3 9.3-5.1 13.5-1.3 2.1-2.9 4.2-4.7 6-1.9 1.9-3.9 3.5-6.3 4.8-2.3 1.4-4.8 2.4-7.3 3-2.5 0.7-5 1-7.5 1.4-4.8 0.7-9.6 1.7-13.2 4.4-3.5 2.7-6 6.3-8.8 9.3-2.6 3.1-5.8 5.6-9.3 6.4-3.4 1-6.7 0.6-9.4-0.1-2.6-0.8-4.8-1.9-6.4-3-3.3-2.1-4.6-3.8-4.6-3.8z"/>
					</g>
				</g>
				<g id="&lt;Group&gt;">
					<g id="&lt;Group&gt;">
						<path id="&lt;Path&gt;" class="s6" d="m633.9 744.3c0-0.2 2.6-0.4 6.4-1.7 3.9-1.3 8.9-4.1 12.9-8.9 4-4.8 5.8-10.3 6.4-14.3 0.6-4 0.3-6.6 0.5-6.6 0 0 0.2 0.6 0.3 1.8 0.1 1.2 0.1 2.8-0.1 4.9-0.4 4.1-2.2 9.9-6.3 14.9-4.1 4.9-9.5 7.7-13.4 8.9-2 0.6-3.7 0.9-4.8 1-1.2 0.1-1.8 0-1.9 0z"/>
					</g>
				</g>
				<g id="&lt;Group&gt;">
					<g id="&lt;Group&gt;">
						<path id="&lt;Path&gt;" class="s6" d="m566.1 814.9q0-0.1 1.6 0.6c1.1 0.4 2.6 0.9 4.7 1.6 4.1 1.3 10.1 2.8 17.8 3.2 7.6 0.4 16.9-0.4 26.4-3.9 9.5-3.4 19.1-9.4 27-18.1 3.1-3.3 5.7-6.9 7.9-10.5l0.2-0.2h0.3c10.1 0.1 19.4-3.1 26.5-7.8 7.2-4.7 12.1-10.9 15.2-16.4 3.1-5.6 4.4-10.6 5.1-14.1 0.3-1.7 0.5-3.1 0.6-4q0.2-1.4 0.2-1.4 0.1 0 0 1.4c0 0.9-0.2 2.3-0.4 4.1-0.6 3.5-1.9 8.6-4.9 14.3-3 5.7-7.9 12-15.3 16.9-7.2 4.8-16.7 8.1-27 8l0.4-0.2c-2.2 3.6-4.9 7.3-8 10.7-8 8.7-17.9 14.8-27.5 18.3-9.7 3.4-19.1 4.2-26.8 3.7-7.7-0.5-13.8-2.2-17.9-3.6q-3-1.1-4.6-1.8-1.5-0.8-1.5-0.8z"/>
					</g>
				</g>
				<g id="&lt;Group&gt;">
					<g id="&lt;Group&gt;">
						<path id="&lt;Path&gt;" class="s6" d="m731.3 722.9c-0.2-0.1 0.8-2.4 1.3-6.3 0.7-3.9 0.7-9.4-1-15.2-1.7-5.8-4.8-10.4-7.5-13.3-2.6-2.9-4.7-4.3-4.6-4.5 0.1 0 0.6 0.2 1.6 0.9 0.9 0.6 2.1 1.7 3.6 3.1 2.8 2.9 6.1 7.5 7.9 13.5 1.8 6 1.6 11.7 0.8 15.6-0.4 2-0.9 3.6-1.3 4.6-0.4 1.1-0.7 1.6-0.8 1.6z"/>
					</g>
				</g>
				<g id="&lt;Group&gt;">
					<g id="&lt;Group&gt;">
						<path id="&lt;Path&gt;" class="s6" d="m732.6 665.5c0-0.2 2.1 0.2 5.3 0 3.2-0.3 7.8-1.5 11.7-4.4 4-3 6.4-7 7.5-10 1.2-3.1 1.4-5.1 1.6-5.1 0 0 0.1 0.5 0 1.5-0.1 0.9-0.3 2.2-0.9 3.8-1 3.2-3.4 7.5-7.5 10.6-4.2 3.2-9 4.2-12.3 4.3-1.7 0-3.1-0.1-4-0.3-0.9-0.2-1.4-0.3-1.4-0.4z"/>
					</g>
				</g>
				<g id="&lt;Group&gt;">
					<g id="&lt;Group&gt;">
						<path id="&lt;Path&gt;" class="s6" d="m740.1 550.1c0.1 0 0.6 0.6 1.6 1.8 1 1.2 2.3 3 3.7 5.4 1.5 2.3 3 5.2 4.5 8.5 1.4 3.4 2.7 7.2 3.8 11.3 0.9 4.1 1.5 8.1 1.7 11.7 0.2 3.6 0.2 6.9 0 9.7-0.3 2.7-0.6 4.9-0.9 6.4-0.3 1.5-0.5 2.3-0.6 2.3-0.2 0 0.4-3.3 0.7-8.8 0.2-2.7 0.1-5.9-0.1-9.5-0.4-3.6-0.9-7.5-1.9-11.6-1-4-2.3-7.7-3.6-11.1-1.4-3.3-2.9-6.2-4.2-8.5-2.7-4.8-4.9-7.4-4.7-7.6z"/>
					</g>
				</g>
				<g id="&lt;Group&gt;" style="opacity: .3">
					<g id="&lt;Group&gt;">
						<path id="&lt;Path&gt;" class="s3" d="m769.4 503.4c1.6-9.6 1.2-20.5-4.5-28.3 8.5 6.7 10.8 17.9 9.1 28.6-1.6 10.7-6.4 22.2-16.6 26 5.7-7.9 10.4-16.7 12-26.3z"/>
					</g>
				</g>
				<g id="&lt;Group&gt;">
					<g id="&lt;Group&gt;">
						<path id="&lt;Path&gt;" class="s6" d="m757.9 529c-0.1-0.1 2.9-1.9 6.6-6 3.8-4.1 7.9-10.9 9-19.3 1.1-8.5-1.2-16.1-3.8-21-2.5-5-5-7.4-4.8-7.6 0 0 0.7 0.6 1.7 1.7 1 1.2 2.4 3.1 3.8 5.5 2.8 4.9 5.3 12.8 4.2 21.5-1.2 8.7-5.6 15.7-9.5 19.7-2 2-3.8 3.4-5.1 4.3-1.3 0.9-2.1 1.3-2.1 1.2z"/>
					</g>
				</g>
				<g id="&lt;Group&gt;">
					<g id="&lt;Group&gt;">
						<path id="&lt;Path&gt;" class="s6" d="m712.6 418.7c-0.1-0.3 4.4-1.5 9.7-6.5 2.5-2.5 5.2-5.9 7.1-10.3 1.9-4.3 3-9.5 2.5-14.9-0.7-5.4-2.8-10.3-5.6-14.1-2.7-3.9-6-6.7-9.1-8.6-6.1-3.8-10.8-4-10.7-4.3q0-0.1 0.8 0c0.5 0.1 1.3 0.2 2.3 0.4 2 0.5 4.8 1.4 8 3.3 3.2 1.8 6.6 4.7 9.5 8.6 2.9 3.9 5.2 8.9 5.8 14.6 0.6 5.6-0.6 11-2.6 15.4-2 4.5-4.8 8-7.5 10.4-2.7 2.5-5.3 4-7.2 4.9-0.9 0.4-1.7 0.6-2.2 0.8q-0.7 0.3-0.8 0.3z"/>
					</g>
				</g>
				<g id="&lt;Group&gt;">
					<g id="&lt;Group&gt;">
						<path id="&lt;Path&gt;" class="s6" d="m652.2 456.4q0 0-0.2-0.9c-0.1-0.6-0.3-1.5-0.3-2.7-0.3-2.3-0.2-5.7 0.6-9.8 0.8-4.1 2.5-8.9 5.4-13.6 3-4.6 7.3-9.2 12.8-12.4 5.6-3.2 11.7-4.7 17.2-5 5.6-0.2 10.6 0.6 14.5 2 4 1.3 7 3 8.9 4.3 1 0.6 1.6 1.3 2.1 1.6q0.7 0.6 0.7 0.7c-0.2 0.2-4-3.4-11.9-5.9-3.9-1.2-8.8-2-14.2-1.7-5.4 0.3-11.3 1.8-16.7 4.9-5.4 3.2-9.6 7.5-12.5 12.1-3 4.5-4.7 9.2-5.6 13.2-1.7 8-0.5 13.2-0.8 13.2z"/>
					</g>
				</g>
				<g id="&lt;Group&gt;">
					<g id="&lt;Group&gt;">
						<path id="&lt;Path&gt;" class="s6" d="m604.7 278q0 0 0.3 0.3 0.3 0.4 0.7 0.9 1 1.2 2.8 3.5c2.3 3.2 5.6 8 8.4 14.7 1.4 3.3 2.7 7.2 3.4 11.4 0.9 4.3 1.1 9 0.4 14q-0.6 3.7-1.8 7.5c-0.9 2.5-2 5-3.5 7.3-2.8 4.8-7 9.2-12.5 11.9v-0.8c6.2 3 12.2 7.1 17.4 12.6 5.1 5.4 9.3 12.2 11 20 1.5 6.9 0.9 14-1.5 20.2-2.3 6.2-6.6 11.6-11.9 14.8l0.1-0.8c4.3 4.8 6.7 10.7 7.6 16.5 1 5.9 0.5 11.5-0.6 16.7-1.2 5.2-3.2 9.8-5.4 13.8-2.2 4.1-4.7 7.5-7 10.6-4.8 6.1-9.1 10.4-12 13.4q-2.2 2.2-3.4 3.4-0.6 0.5-0.9 0.8-0.3 0.3-0.3 0.3 0 0 0.2-0.3 0.4-0.4 0.9-0.9 1.1-1.3 3.2-3.5c2.9-3.1 7.1-7.5 11.8-13.6 2.3-3 4.7-6.5 6.8-10.5 2.2-4 4.1-8.6 5.2-13.7 1.1-5.1 1.5-10.6 0.6-16.3-0.9-5.7-3.3-11.4-7.5-16l-0.4-0.5 0.6-0.3c5.1-3.1 9.2-8.2 11.4-14.3 2.3-6 2.9-12.9 1.5-19.6-1.7-7.5-5.8-14.2-10.8-19.5-5-5.4-11-9.4-17-12.5l-0.9-0.4 0.9-0.4c5.2-2.7 9.3-6.9 12.1-11.5 1.4-2.4 2.6-4.8 3.4-7.2q1.3-3.7 1.9-7.3c1.4-9.8-0.9-18.5-3.6-25.1-2.7-6.6-5.9-11.4-8.1-14.7q-1.7-2.4-2.6-3.6-0.4-0.6-0.7-0.9-0.2-0.3-0.2-0.4z"/>
					</g>
				</g>
				<g id="&lt;Group&gt;">
					<g id="&lt;Group&gt;">
						<path id="&lt;Path&gt;" class="s6" d="m605 264.2q0 0 1.3-0.8c0.9-0.5 2.2-1.1 4-1.8 3.6-1.3 9.1-2.7 16-2.5 6.8 0.1 15 1.9 23.2 5.6 8.3 3.7 16.7 9.1 25 15.4 5.4 4.3 10.2 9.4 12.9 15.3 2.7 5.8 3.2 12.3 1.2 17.6l-0.6-0.6c5.1-2.4 10-4.3 14.4-5.4 4.5-1.2 8.5-1.7 11.8-1.9 3.3-0.3 5.9-0.2 7.7-0.2q1.2 0.1 2 0.1 0.7 0.1 0.7 0.1 0 0.1-0.7 0.1-0.8 0-2 0c-1.8 0-4.4 0.1-7.7 0.4-3.2 0.3-7.2 0.9-11.6 2.1-4.4 1.2-9.2 3.1-14.2 5.6l-1 0.5 0.4-1.1c1.8-5 1.3-11.3-1.3-16.9-2.6-5.7-7.3-10.6-12.6-14.8-8.3-6.3-16.6-11.7-24.8-15.4-8.1-3.7-16.1-5.6-22.9-5.8-6.7-0.2-12.2 1-15.8 2.2-1.8 0.6-3.1 1.2-4 1.6q-1.4 0.7-1.4 0.6z"/>
					</g>
				</g>
				<g id="&lt;Group&gt;">
					<g id="&lt;Group&gt;">
						<path id="&lt;Path&gt;" class="s6" d="m661.8 244.5c0 0 0.5-0.2 1.4-0.4 1-0.2 2.3-0.4 4-0.4 3.4 0 8.1 1 12.5 3.8 4.4 2.8 7.2 6.8 8.6 9.8 0.7 1.6 1.1 2.9 1.3 3.8 0.2 0.9 0.3 1.4 0.2 1.4-0.2 0.1-0.6-2-2.2-4.8-1.5-2.9-4.3-6.6-8.5-9.3-4.1-2.7-8.7-3.7-11.9-3.9-3.3-0.2-5.3 0.2-5.4 0z"/>
					</g>
				</g>
				<g id="&lt;Group&gt;">
					<g id="&lt;Group&gt;">
						<path id="&lt;Path&gt;" class="s6" d="m563.4 218.2c0-0.3 3.9-0.6 8.8-0.7 4.8-0.2 8.8 0 8.8 0.3 0 0.3-3.9 0.6-8.8 0.7-4.8 0.1-8.8 0-8.8-0.3z"/>
					</g>
				</g>
				<g id="&lt;Group&gt;">
					<g id="&lt;Group&gt;">
						<path id="&lt;Path&gt;" class="s6" d="m566.9 298.1c-0.1 0 0.6-1.3 1.5-3.8 1-2.4 2-6.2 2.3-10.9 0.2-4.6-0.4-10.3-2.9-16-1.2-2.9-3-5.6-5-8.5-1.9-2.8-3.9-5.8-5.2-9.2-0.7-1.8-1.1-3.6-1.2-5.4-0.1-1.9 0.2-3.7 0.7-5.3 1-3.4 2.6-6.3 3.7-9.2 2.1-5.8 1.8-11.7 0.7-16.2-1.1-4.5-3.2-7.9-4.7-10-1.6-2.1-2.7-3.1-2.6-3.2q0.1 0 0.8 0.7 0.8 0.7 2.1 2.3c1.7 2 3.9 5.4 5.1 10 1.3 4.6 1.7 10.7-0.5 16.7-1.1 3-2.6 6-3.6 9.2-1 3.2-0.9 6.7 0.5 10 2.6 6.6 7.7 11.7 10.1 17.7 2.5 5.9 3 11.7 2.7 16.5-0.3 4.8-1.5 8.5-2.6 11q-0.8 1.8-1.3 2.7-0.6 1-0.6 0.9z"/>
					</g>
				</g>
				<g id="&lt;Group&gt;">
					<g id="&lt;Group&gt;">
						<path id="&lt;Path&gt;" class="s6" d="m569.6 397.8q-0.1 0.1-0.4-0.6c-0.2-0.4-0.4-1.1-0.5-2-0.3-1.8-0.1-4.5 1.2-7.5 1.2-3 3.4-6.1 5.1-9.9 1.6-3.7 2.8-8.2 3.3-12.9 0.8-9.6-1.7-18.2-4.6-23.8-2.9-5.6-5.7-8.4-5.5-8.5 0-0.1 0.7 0.6 1.9 1.9 1.1 1.4 2.7 3.5 4.2 6.3 3.1 5.5 5.9 14.3 5 24.2-0.4 4.8-1.7 9.4-3.4 13.3-1.8 3.9-4.1 6.9-5.3 9.7-1.3 2.9-1.7 5.4-1.5 7.2 0.1 1.7 0.6 2.6 0.5 2.6z"/>
					</g>
				</g>
				<g id="&lt;Group&gt;">
					<g id="&lt;Group&gt;">
						<path id="&lt;Path&gt;" class="s6" d="m516 429.2c0.2-0.1 1.7 2 4.9 4.7 3.1 2.7 8.2 5.8 14.4 7.1 6.2 1.2 12.1 0.3 16-1 4-1.3 6.2-2.8 6.3-2.6 0.1 0.1-0.5 0.5-1.5 1.1-1 0.6-2.5 1.4-4.5 2.2-4 1.5-10 2.6-16.5 1.3-6.5-1.3-11.7-4.6-14.7-7.5-1.6-1.4-2.7-2.8-3.4-3.7-0.7-1-1-1.6-1-1.6z"/>
					</g>
				</g>
				<g id="&lt;Group&gt;">
					<g id="&lt;Group&gt;">
						<path id="&lt;Path&gt;" class="s6" d="m583.3 499.3c0 0-0.6 0.5-1.8 0.5-1.3 0.1-3.1-0.3-5-1.4-3.8-2.2-8.6-5.7-13.6-10.1-4.9-4.4-8.9-8.9-11.5-12.3-1.3-1.7-2.4-3.1-3-4.1-0.7-1-1-1.6-1-1.7 0.2 0 1.8 2.1 4.6 5.3 2.7 3.3 6.7 7.7 11.6 12 4.9 4.4 9.7 7.9 13.3 10.3 1.7 1.1 3.4 1.6 4.6 1.6 1.1 0.1 1.7-0.2 1.8-0.1z"/>
					</g>
				</g>
				<g id="&lt;Group&gt;">
					<g id="&lt;Group&gt;">
						<path id="&lt;Path&gt;" class="s6" d="m551.6 513.2c-0.1-0.1 1.4-1.1 3.3-3.1 1.9-1.9 4.2-5.1 5.5-9.1 1.2-3.9 1.2-7.8 0.7-10.5-0.4-2.8-1.1-4.4-0.9-4.4 0.1-0.1 1 1.4 1.6 4.2 0.7 2.8 0.9 6.9-0.4 11.1-1.3 4.2-3.8 7.4-6 9.3-2.1 1.9-3.7 2.6-3.8 2.5z"/>
					</g>
				</g>
				<g id="&lt;Group&gt;" style="opacity: .3">
					<g id="&lt;Group&gt;">
						<path id="&lt;Path&gt;" class="s3" d="m711.5 418.2c-12.3-6.7-28.2-6.4-40.2 0.9-12 7.3-19.7 21.2-19.4 35.2-3.4-11.4-0.9-24.4 6.5-33.7 7.4-9.3 19.5-14.6 31.4-13.9 7.6 0.5 15.4 3.3 22.8 1.2 4.2-1.2 7.8-3.9 10.9-7 4.4-4.3 8.2-10.2 7.7-16.4 0 0 4.5 14-4.1 22.6-8.6 8.6-15.6 11.1-15.6 11.1z"/>
					</g>
				</g>
				<g id="&lt;Group&gt;" style="opacity: .3">
					<g id="&lt;Group&gt;">
						<path id="&lt;Path&gt;" class="s3" d="m673.3 273.6c5.3 3.7 10.3 8 13.9 13.5 3.5 5.4 5.6 12 4.6 18.4 12.2-2.1 20.5-2 32.8-0.4-14.2 1.2-24.3 0.5-35.8 7.9 0.9-10.5-3.4-20.9-10.3-28.8-6.9-7.9-16.2-13.3-25.9-17.1-9.8-3.7-20.1-5.9-30.3-8 17.9-1.9 36.2 4.1 51 14.5z"/>
					</g>
				</g>
				<g id="&lt;Group&gt;" style="opacity: .3">
					<g id="&lt;Group&gt;">
						<path id="&lt;Path&gt;" class="s3" d="m562.9 218.1c0.7-2.9-0.6-5.9-2.1-8.5-1.4-2.6-3.1-5.3-3-8.2 3.9 2.6 7 6.4 9 10.7 0.4 0.9 0.8 2 1.8 2.4 0.6 0.2 1.3 0.2 2 0.1 3.5-0.3 7.1 0.2 10.4 1.4-1.5 1-3.4 1.1-5.3 1.3q-6.3 0.4-12.6 0.8"/>
					</g>
				</g>
				<g id="&lt;Group&gt;" style="opacity: .3">
					<g id="&lt;Group&gt;">
						<path id="&lt;Path&gt;" class="s3" d="m562.2 487.5c7.7 7.5 18 12.2 28.7 13-6.2 2.9-13.7 3.1-20.1 0.4-2.9 4.1-5.9 8.2-9.8 11.5-3.9 3.2-10.7 3.6-15.8 3.2 4.5-2.6 10.9-3.5 13.5-8 2-3.6 2.5-7.9 2.9-12 0.3-3.4 0.5-7.2-1.9-9.6"/>
					</g>
				</g>
				<g id="&lt;Group&gt;" style="opacity: .3">
					<g id="&lt;Group&gt;">
						<path id="&lt;Path&gt;" class="s3" d="m725.6 556.6c-3.9-1.3-8.2-1.4-12.4-1.1-4.2 0.3-8.3 0.9-12.5 0.8-0.2 0-0.5-0.1-0.7-0.2-0.4-0.4-0.2-1.1 0.1-1.6 1.7-3.6 2.1-7.8 0.9-11.6-0.2-0.6-0.3-1.5 0.4-1.6 0.2-0.1 0.5 0.1 0.7 0.3 2.9 2 4.6 5.5 4.7 9 3.4-0.1 6.8-0.1 10.1 0.6 3.4 0.7 6.6 2.2 8.8 4.7"/>
					</g>
				</g>
				<g id="&lt;Group&gt;" style="opacity: .3">
					<g id="&lt;Group&gt;">
						<path id="&lt;Path&gt;" class="s3" d="m556.2 676.6c6.6-7.3 2.7-7.5 10.1-13.9 18-15.5 21.1-20.5 29.7-32.2 2.5-3.5 2-8.1 3.1-12.1 1.2-4.9 1-11.6 3.6-14.9 8.1-10.8 16.6-19.3 26.5-20 5.6-3.6 16.5-6.4 22.3-7.2 9.9-1.3 15.7-2.6 25.1-5.9 9.4-3.4 16.7-6.5 23-14.2l1.4 0.5c-6.3 12.3-19 20.3-32.3 24-10.3 3-21.1 3.6-31.9 3.8 1.3 0.4 2.6 1 4 1.7 30.8 22.8 29.6 47.2 16.6 65.8-11.3 16.1-18.2 36.3-38.4 44.7-13.8 5.8-27.6 11.4-41.4 17.1 2.7-4.8 6.4-9.6 11.2-12 9-4.3 18.9-6.8 27.9-10.9 12.8-5.8 23.2-13.8 20.6-31 25.9-13 30.7-45.6 9.7-64.6-3.5-3.1-13.1-4.7-15.9-2.3-9.5 8-20 16.8-25.1 27.7-8.5 17.9-16.7 35-33.1 47.3-5.5 4.2-9 11-13.7 16.4-1.8 2.1-4.4 3.6-6.6 5.4-1.3-1.2 4.9-12 3.6-13.2z"/>
					</g>
				</g>
				<g id="&lt;Group&gt;" style="opacity: .3">
					<g id="&lt;Group&gt;">
						<path id="&lt;Path&gt;" class="s3" d="m592.8 562.7c15.6-8.6 24.9-25.9 32.3-40.6-3.8 20.6-16.4 40.6-35.2 50-18.7 9.4-41.8 9.6-60.6 0.3 21.7 0.5 44.5 0.7 63.5-9.7z"/>
					</g>
				</g>
			</g>
			<g id="&lt;Group&gt;" style="opacity: .2">
				<g id="&lt;Group&gt;">
					<path id="&lt;Path&gt;" class="s8" d="m679.8 362.3c2.7-1.5 5.7-2.2 8.7-2.3 1.7-0.1 3.4 0.2 5 0.6 5.9 1.8 11.7 3.7 17 6.5 6.1 3.3 11.6 7.9 14.7 13.9 1.6 3.2 2.5 7.2 0.5 10.1-1.5 2.2-4.5 3.2-7.3 2.9-2.7-0.3-5.2-1.5-7.6-2.9-8.2-4.9-15.4-11.6-24.5-14.6-4.1-1.4-9.2-2.6-10.1-7.1-0.5-2.8 1.1-5.7 3.6-7.1z"/>
				</g>
			</g>
			<g id="&lt;Group&gt;" style="opacity: .2">
				<g id="&lt;Group&gt;">
					<path id="&lt;Path&gt;" class="s8" d="m629.5 270.1c2.6-1.4 5.6-2.1 8.7-2.3 1.6-0.1 3.3 0.2 4.9 0.7 5.9 1.7 11.7 3.6 17.1 6.5 6 3.2 11.5 7.8 14.7 13.9 1.6 3.1 2.5 7.1 0.5 10-1.6 2.3-4.6 3.2-7.3 2.9-2.8-0.2-5.3-1.5-7.7-2.9-8.2-4.8-15.4-11.6-24.4-14.6-4.1-1.4-9.3-2.6-10.1-7.1-0.6-2.8 1.1-5.6 3.6-7.1z"/>
				</g>
			</g>
			<g id="&lt;Group&gt;" style="opacity: .2">
				<g id="&lt;Group&gt;">
					<path id="&lt;Path&gt;" class="s8" d="m523.1 188.4c2.2-4.3 3.9-9.7 8.1-12.2 6.1-3.6 12.6-5.9 22.6-7.4 17.4-2.6 34.6 6.2 48.8 16.8 14.2 10.5 27.1 23.1 43.3 30.3 2.2 1 4.5 1.9 6.4 3.4 1.8 1.5 3.3 3.8 3.1 6.2-0.3 4.2-5.1 6.5-9.2 7.1-14 2.1-27.8-4.6-39.3-12.8-11.5-8.1-22.1-18-35.1-23.5-6.4-2.7-14.1-4.2-20.1-0.6-4.1 2.5-6.6 7.1-10.8 9.5-4.7 2.7-11.1 1.9-15.1-1.8-4-3.7-5.1-10.1-2.7-15z"/>
				</g>
			</g>
			<g id="&lt;Group&gt;">
				<g id="&lt;Group&gt;">
					<path id="&lt;Path&gt;" class="s8" d="m761.4 395.2c-0.1 0-0.3-1.1-0.7-3.2-0.4-2-1-5-1.9-8.5-0.9-3.6-2.1-7.9-3.7-12.5-1.6-4.6-3.6-9.6-6-14.7-2.5-5.1-5.1-9.8-7.7-13.9-2.6-4.2-5.1-7.8-7.4-10.7-2.2-3-4.1-5.3-5.5-6.9-1.3-1.6-2-2.5-2-2.5 0.1-0.1 0.9 0.8 2.3 2.3 1.5 1.4 3.5 3.7 5.8 6.6 2.4 2.9 5 6.5 7.7 10.6 2.6 4.2 5.3 8.9 7.8 14 2.4 5.2 4.4 10.2 6 14.9 1.5 4.7 2.7 8.9 3.4 12.6 0.8 3.6 1.4 6.6 1.6 8.7 0.3 2 0.4 3.2 0.3 3.2z"/>
				</g>
			</g>
			<g id="&lt;Group&gt;">
				<g id="&lt;Group&gt;">
					<path id="&lt;Path&gt;" class="s8" d="m718 400.4c-0.1-0.1 1.9-1.6 3.8-4.9 2-3.3 3.6-8.7 2.2-14.4-1.5-5.7-5.5-9.7-8.8-11.6-3.3-2-5.8-2.4-5.7-2.6 0 0 0.6 0 1.7 0.2 1.1 0.2 2.6 0.8 4.4 1.7 3.4 1.8 7.8 5.9 9.4 12 1.5 6.1-0.3 11.8-2.5 15-1.1 1.7-2.2 2.9-3.1 3.6-0.8 0.7-1.3 1.1-1.4 1z"/>
				</g>
			</g>
			<g id="&lt;Group&gt;">
				<g id="&lt;Group&gt;">
					<path id="&lt;Path&gt;" class="s8" d="m618.3 396.7c-0.1 0 0.3-1.4 0.5-3.8 0.3-2.3 0.2-5.6-0.7-9-1-3.4-2.7-6.2-4.1-8.1-1.4-1.9-2.5-2.8-2.4-3 0-0.1 1.3 0.7 3 2.5 1.6 1.8 3.5 4.7 4.5 8.3 1 3.6 1 7.1 0.5 9.4-0.5 2.4-1.2 3.8-1.3 3.7z"/>
				</g>
			</g>
			<g id="&lt;Group&gt;">
				<g id="&lt;Group&gt;">
					<path id="&lt;Path&gt;" class="s8" d="m710.2 279.1c0.1-0.1 0.8 0.3 1.7 1.3 0.9 0.9 1.9 2.5 2.4 4.4 0.5 1.9 0.5 3.7 0.2 5-0.2 1.3-0.7 2-0.8 1.9-0.3 0 0.6-3.1-0.4-6.6-1-3.6-3.3-5.7-3.1-6z"/>
				</g>
			</g>
			<g id="&lt;Group&gt;">
				<g id="&lt;Group&gt;">
					<path id="&lt;Path&gt;" class="s8" d="m758.5 508.8c-0.3-0.1 1.1-3.2 1.4-7.3 0.5-4-0.2-7.3 0.1-7.4 0.2-0.1 1.4 3.3 1 7.5-0.4 4.3-2.3 7.4-2.5 7.2z"/>
				</g>
			</g>
			<g id="&lt;Group&gt;">
				<g id="&lt;Group&gt;">
					<path id="&lt;Path&gt;" class="s8" d="m775.1 602.5c-0.1-0.1 0.9-1.8 2.1-4.8 1.1-3 2.2-7.4 2.2-12.4 0-4.9-1.1-9.3-2.3-12.3-1.2-3.1-2.2-4.8-2.1-4.9 0.1 0 0.4 0.4 0.9 1.1 0.6 0.8 1.2 2 1.9 3.5 1.4 3 2.6 7.5 2.7 12.6 0 5.1-1.3 9.6-2.6 12.7-0.7 1.5-1.4 2.7-1.9 3.4-0.5 0.8-0.8 1.2-0.9 1.1z"/>
				</g>
			</g>
			<g id="&lt;Group&gt;">
				<g id="&lt;Group&gt;">
					<path id="&lt;Path&gt;" class="s8" d="m716.5 667.8c-0.1-0.1 1.4-1.4 3-4.1 1.6-2.7 3.3-6.9 3.1-11.7-0.2-4.7-2.2-8.8-4-11.3-1.8-2.6-3.4-3.8-3.3-3.9 0-0.1 0.5 0.1 1.2 0.7 0.7 0.5 1.7 1.4 2.7 2.7 2.1 2.5 4.2 6.7 4.4 11.8 0.2 5-1.6 9.4-3.5 12.1-0.9 1.3-1.8 2.3-2.4 2.9-0.7 0.6-1.1 0.9-1.2 0.8z"/>
				</g>
			</g>
			<g id="&lt;Group&gt;">
				<g id="&lt;Group&gt;">
					<path id="&lt;Path&gt;" class="s8" d="m720.7 714.7c-0.3 0-0.1-3.7-1.5-8-1.3-4.3-3.6-7.2-3.3-7.4 0.1-0.2 2.9 2.6 4.3 7.1 1.4 4.5 0.7 8.4 0.5 8.3z"/>
				</g>
			</g>
			<g id="&lt;Group&gt;">
				<g id="&lt;Group&gt;">
					<path id="&lt;Path&gt;" class="s8" d="m641.3 645.5c-0.1-0.2 2.4-1.2 5.6-4.1 3.1-2.8 6.7-7.9 7.7-14.3 0.9-6.5-1.2-12.4-3.4-15.9-2.3-3.7-4.4-5.4-4.3-5.5 0-0.1 0.6 0.3 1.5 1.1 0.9 0.8 2.2 2.1 3.4 4 2.5 3.5 4.8 9.6 3.8 16.4-1 6.8-4.9 12-8.2 14.7-1.7 1.5-3.2 2.4-4.3 2.9-1.1 0.5-1.8 0.7-1.8 0.7z"/>
				</g>
			</g>
			<g id="&lt;Group&gt;">
				<g id="&lt;Group&gt;">
					<path id="&lt;Path&gt;" class="s8" d="m653.4 779.7c0-0.2 2.8-0.8 7-2.6 2.1-0.8 4.5-2.1 7.1-3.6 2.5-1.6 5.2-3.5 7.8-5.7 2.6-2.3 4.9-4.7 6.8-7 1.8-2.4 3.4-4.6 4.5-6.6 2.3-3.9 3.4-6.5 3.5-6.5 0.1 0.1-0.1 0.8-0.5 2-0.5 1.2-1.2 2.9-2.3 4.9-1.1 2-2.6 4.4-4.5 6.8-1.9 2.4-4.1 4.9-6.8 7.2-2.6 2.3-5.4 4.2-8.1 5.8-2.6 1.5-5.1 2.6-7.3 3.4-2.1 0.8-3.9 1.3-5.2 1.6-1.2 0.3-1.9 0.4-2 0.3z"/>
				</g>
			</g>
			<g id="&lt;Group&gt;">
				<g id="&lt;Group&gt;">
					<path id="&lt;Path&gt;" class="s8" d="m673.7 558.4c-0.1-0.3 4.9-2.5 9.4-7.3 4.5-4.8 6.3-10 6.6-9.9 0.2 0-1.2 5.6-5.9 10.6-4.6 5.1-10 6.9-10.1 6.6z"/>
				</g>
			</g>
			<g id="&lt;Group&gt;">
				<g id="&lt;Group&gt;">
					<path id="&lt;Path&gt;" class="s8" d="m601.7 459.8c-0.3-0.2 3.8-3.5 7.7-8.5 3.9-5 6-9.8 6.3-9.7 0.2 0.1-1.5 5.2-5.5 10.3-3.9 5.2-8.4 8.1-8.5 7.9z"/>
				</g>
			</g>
			<g id="&lt;Group&gt;" style="opacity: .2">
				<g id="&lt;Group&gt;">
					<path id="&lt;Path&gt;" class="s8" d="m753.5 467.3c-6.8 16.5-14.1 29.2-30.2 37-11.7 5.6-23.8 11.4-36.8 12.4-3.7 0.4-7.7 0.2-11-1.6-3.3-1.7-5.8-5.6-4.9-9.2 0.8-3.3 3.7-5.5 6.7-7.1 11.7-6.4 25.4-8 38.5-10.7 13-2.8 13.7-13.4 21.9-24 1.9-2.4 3.5-5.1 6-7 2.4-1.8 6-2.6 8.5-0.8 5.5 4 1.3 11 1.3 11z"/>
				</g>
			</g>
			<g id="&lt;Group&gt;" style="opacity: .2">
				<g id="&lt;Group&gt;">
					<path id="&lt;Path&gt;" class="s8" d="m645.7 521.2l2.7-1c4.1 0.3 7.7 4 7.8 8.1 0.1 4.1-3.1 8-7.1 8.6-4 0.6-8.3-2.2-9.3-6.1-1.2-4.1 1.7-9 5.9-9.6z"/>
				</g>
			</g>
		</g>
	</g>
	<g id="Brain side 1">
		<g id="&lt;Group&gt;">
			<g id="&lt;Group&gt;">
				<g id="&lt;Group&gt;">
					<path id="&lt;Path&gt;" class="s4" d="m270.9 305.1c0 0-9.1-10.4 6.6-35.9 15.6-25.5 15-35.3 35.9-43.1 20.9-7.9 25.5-13.1 39.9-24.2 14.3-11.1 45-49.7 93.4-37.9 48.3 11.8 37.6 54.9 39.1 77.1 1.4 22.2-3.5 59.5 0 79.1 3.4 19.6 3.7 47.7 0 59.4-3.8 11.8 0 75.2 0 75.2v182.9c0 0 6.6 166.6-9.7 184.9-16.3 18.3-49.8 40.6-97.7 24.2-48-16.3-63.7-30-74.8-42.5 0 0-36-15.6-35.3-58.1 0 0-15-9.2-24.2-27.5-9.1-18.2-20.9-30.7-23.5-48.3-2.6-17.6 3.9-22.2 3.9-22.2 0 0-7.8-2.6-11.1-26.2-3.2-23.5-11.7-36.6-9.8-47 2-10.5 9.2-18.3 9.2-18.3 0 0-6.5-3.3-9.5-15.7-2.9-12.4-4.9-42.5-4.3-58.8 0.7-16.3 4.6-25.5 4.6-25.5 0 0-1.9-47 15-53.6l7.2-3.2c0 0-7.2-5.9 0.7-20.3 7.8-14.4 6.5-32 13.7-43.8 7.2-11.7 14.4-32.6 30.7-30.7z"/>
				</g>
				<g id="&lt;Group&gt;">
					<g id="&lt;Group&gt;">
						<g id="&lt;Group&gt;" style="opacity: .3">
							<path id="&lt;Path&gt;" class="s3" d="m267.3 632.9q0.1 0.1 0.2 0.1-0.1 0-0.2-0.1z"/>
						</g>
						<g id="&lt;Group&gt;" style="opacity: .3">
							<path id="&lt;Path&gt;" class="s3" d="m267.5 633q0.1 0 0 0z"/>
						</g>
						<g id="&lt;Group&gt;" style="opacity: .3">
							<path id="&lt;Path&gt;" class="s3" d="m267.3 632.9c-0.3 0-0.5-0.1 0 0z"/>
						</g>
						<g id="&lt;Group&gt;" style="opacity: .3">
							<path id="&lt;Path&gt;" class="s3" d="m281.4 682c5.6 2.5 11.6 5.9 17.4 9.3-9.8-2.5-31-3.7-34.9 14.9-0.7 3.7 0.9 6.1-2.7 9.2-5-10.9 7.4-19.3 5-29.1-2.2-9.4-17.7-18.7-24.3-26.5 2.4 0.7 10.1 4.6 15.7 4-0.9-11.8 3.6-23 9.7-30.9-1.1 5.3-2.6 10.6-3.3 15.9-2.2 18.4 0.2 25.8 17.4 33.2z"/>
						</g>
						<g id="&lt;Group&gt;" style="opacity: .3">
							<path id="&lt;Path&gt;" class="s3" d="m340.9 704.1c-11.6 7.4-18.1 5.4-21.3 4.3l-13.5-12.9q1.5 0.9 3 1.7c8.1 4.5 12 14.3 31.8 6.9z"/>
						</g>
						<g id="&lt;Group&gt;" style="opacity: .3">
							<path id="&lt;Path&gt;" class="s3" d="m303.7 693.2l2.4 2.3c-2.4-1.3-4.8-2.8-7.3-4.2 2.6 0.6 4.5 1.4 4.9 1.9z"/>
						</g>
					</g>
					<g id="&lt;Group&gt;" style="opacity: .3">
						<path id="&lt;Path&gt;" class="s3" d="m338.9 783.9c10.5 10.3 19.3 23.2 31.5 30 11.6 6.3 26.7 6.1 39.9 10.6-17.7 4.9-33.5 1.4-48.3-9.4-13.6-10-27.8-19.3-42-28.4-14.6-9.3-25.6-21.2-30.3-38.1-0.8-2.7-0.1-5.9 3.3-9.7 1.5 3.9 3.3 7.7 4.4 11.7 4.1 15.3 14 25.8 28.1 32.1 4.2 2 9.8 0.9 13.4 1.2z"/>
					</g>
					<g id="&lt;Group&gt;" style="opacity: .3">
						<path id="&lt;Path&gt;" class="s3" d="m429.8 329.7c-17.5 25.1 5.7 57.2-5.5 68.1-1.2-3.1 1.6-6.7-0.4-9.2-15.5-19.7-10.1-49.2 5.9-58.9z"/>
					</g>
					<g id="&lt;Group&gt;" style="opacity: .3">
						<path id="&lt;Path&gt;" class="s3" d="m439.2 778.9c-7.2 4.4-13.3 8.2-19.2 11.9q-11.8-5.6-25.4-11.9c15.2 0 29.8 0 44.6 0z"/>
					</g>
				</g>
				<g id="&lt;Group&gt;">
					<g id="&lt;Group&gt;">
						<path id="&lt;Path&gt;" class="s6" d="m488 567.3q0 0-0.7 0.3-0.8 0.3-2.1 0.7-1.5 0.5-3.5 1.2c-1.4 0.5-3.1 0.8-4.9 1.3-7.3 1.9-18.3 3.8-31.9 3.4-6.7-0.3-14.2-1.2-21.9-3.1-7.8-2-15.8-5.1-23.5-9.8-7.7-4.7-15-11-20.7-19-5.4-8.3-8.5-18-13.6-26.9-1.2-2-2.5-4-4-5.7-1.5-1.7-3.2-3.3-4.8-4.9-3.4-3-6.9-5.9-10.7-8.2-7.5-4.9-15.4-8.4-23.3-11-15.7-5.1-30.8-6.8-43.7-7.5h-0.3l-0.1-0.3c-2-7.6-3.9-14.5-5.8-20.6-1.8-6-3.7-11.1-5.5-15.2-1.7-4-3.3-7.1-4.4-9.2q-0.8-1.5-1.3-2.3-0.4-0.8-0.4-0.9c0 0 2.9 4.1 6.5 12.3 1.8 4 3.8 9.1 5.8 15.1 1.9 6.1 3.8 13 5.9 20.6l-0.4-0.3c13 0.7 28.2 2.3 44 7.4 8 2.5 16 6.1 23.5 11 3.9 2.4 7.4 5.3 10.9 8.3 1.6 1.7 3.4 3.2 4.9 5 1.6 1.8 2.9 3.8 4.1 5.9 5.2 9 8.3 18.7 13.5 26.9 5.6 7.8 12.9 14 20.4 18.6 7.6 4.7 15.5 7.8 23.2 9.9 7.7 1.9 15 2.8 21.8 3.2 13.5 0.5 24.4-1.4 31.7-3.1 1.8-0.4 3.5-0.8 4.9-1.2q2-0.6 3.5-1.1 1.4-0.4 2.2-0.6 0.7-0.2 0.7-0.2z"/>
					</g>
				</g>
				<g id="&lt;Group&gt;">
					<g id="&lt;Group&gt;">
						<path id="&lt;Path&gt;" class="s6" d="m437.5 686.4c-0.1 0 0.5-3-0.9-8.1-1.4-5.1-5.4-11.8-12.3-18.3-3.4-3.3-7.4-6.5-11.7-10.2-4.2-3.6-8.6-7.7-12.2-13-1.7-2.7-3.2-5.7-4.1-8.8-1-3.2-1.7-6.5-2.4-9.9-0.6-3.3-1.3-6.7-2.4-10-1.1-3.3-2.7-6.5-4.8-9.3-4.2-5.8-10-10.1-16-13.2-6-3.1-12.3-5.1-18.3-6.6-12.2-3-23.4-4.5-32.5-7.4-9.1-2.7-16-6.5-20.2-9.7-4.3-3.2-6.1-5.6-6.1-5.6q0 0 0.4 0.3 0.5 0.5 1.2 1.1c1 1 2.5 2.3 4.7 3.9 4.3 3.1 11.1 6.7 20.2 9.3 9.1 2.7 20.3 4.2 32.5 7.1 6.1 1.5 12.5 3.5 18.6 6.7 6.1 3.1 12 7.5 16.4 13.4 2.1 3 3.8 6.3 4.9 9.7 1.1 3.4 1.8 6.8 2.5 10.1 0.6 3.4 1.3 6.7 2.2 9.8 1 3.1 2.4 5.9 4.1 8.5 3.4 5.2 7.8 9.3 11.9 13 4.2 3.6 8.3 6.9 11.7 10.2 6.8 6.7 10.8 13.6 12.1 18.8 0.7 2.6 0.7 4.7 0.7 6.1q0 1-0.1 1.6 0 0.5-0.1 0.5z"/>
					</g>
				</g>
				<g id="&lt;Group&gt;">
					<g id="&lt;Group&gt;">
						<path id="&lt;Path&gt;" class="s6" d="m265.9 557.1c0-0.1 1.5-0.6 4.1-1.1 2.6-0.5 6.2-1 10.2-1 4-0.1 7.6 0.2 10.2 0.6 2.6 0.4 4.2 0.8 4.2 0.9-0.1 0.4-6.5-0.7-14.4-0.5-7.9 0.2-14.2 1.4-14.3 1.1z"/>
					</g>
				</g>
				<g id="&lt;Group&gt;">
					<g id="&lt;Group&gt;">
						<path id="&lt;Path&gt;" class="s6" d="m294.4 539c0.3 0.2-1.5 4-1.5 9.1 0 5.1 2 8.9 1.7 9-0.2 0.2-2.7-3.6-2.7-9-0.1-5.4 2.3-9.2 2.5-9.1z"/>
					</g>
				</g>
				<g id="&lt;Group&gt;">
					<g id="&lt;Group&gt;">
						<path id="&lt;Path&gt;" class="s6" d="m340.7 659.8q-0.1 0-0.7-0.6c-0.4-0.5-1.1-1.1-1.8-2.1-1.5-1.8-3.5-4.6-5.4-8.3-1.8-3.8-3.5-8.6-4.4-14.1-0.8-5.5-0.8-11.8 0.7-18.1 1.6-6.2 4.3-11.8 7.6-16.4 3.3-4.5 6.9-8 10.3-10.5 3.4-2.5 6.4-4.1 8.6-5 1-0.5 1.9-0.8 2.5-1q0.9-0.3 0.9-0.3c0.1 0.3-4.9 1.8-11.5 6.9-3.3 2.5-6.9 6-10 10.5-3.2 4.5-5.9 10-7.4 16.1-1.4 6.1-1.5 12.2-0.7 17.6 0.8 5.5 2.3 10.2 4.1 13.9 3.6 7.6 7.4 11.2 7.2 11.4z"/>
					</g>
				</g>
				<g id="&lt;Group&gt;">
					<g id="&lt;Group&gt;">
						<path id="&lt;Path&gt;" class="s6" d="m342.4 702.7c0 0-1.4 1.7-4.6 3.8-1.7 1.1-3.8 2.2-6.5 3-2.6 0.7-5.9 1.1-9.3 0.1-3.5-0.8-6.7-3.3-9.4-6.4-2.7-3-5.2-6.6-8.8-9.3-3.6-2.7-8.3-3.7-13.2-4.4-2.4-0.4-4.9-0.7-7.4-1.4-2.6-0.6-5.1-1.6-7.4-3-2.3-1.3-4.4-2.9-6.2-4.8-1.9-1.8-3.5-3.9-4.8-6-2.7-4.2-4.3-8.9-5.1-13.5-0.7-4.5-0.4-9 0.5-13 0.8-4 2.3-7.6 3.9-10.6 3.2-6.2 7.2-10.4 10-12.9 1.5-1.3 2.6-2.3 3.5-2.9q1.2-0.9 1.3-0.8 0 0-1.2 1c-0.8 0.6-1.9 1.6-3.3 3-2.7 2.6-6.5 6.8-9.7 12.9-1.5 3-2.8 6.6-3.7 10.5-0.8 3.9-1 8.2-0.3 12.7 0.8 4.4 2.3 8.9 5 13.1 1.3 2 2.8 4 4.6 5.7 1.8 1.8 3.8 3.4 6.1 4.7 4.4 2.7 9.5 3.5 14.4 4.3 4.9 0.7 9.8 1.8 13.6 4.6 3.8 2.9 6.2 6.5 8.9 9.5 2.6 3.1 5.6 5.5 8.9 6.3 3.2 1 6.4 0.6 9 0 2.6-0.7 4.7-1.8 6.3-2.7 3.3-2 4.8-3.6 4.9-3.5z"/>
					</g>
				</g>
				<g id="&lt;Group&gt;">
					<g id="&lt;Group&gt;">
						<path id="&lt;Path&gt;" class="s6" d="m359.9 744.3c0 0-0.6 0.1-1.8 0-1.2-0.1-2.8-0.4-4.8-1-4-1.2-9.3-4-13.5-8.9-4.1-5-5.8-10.8-6.3-14.9-0.2-2.1-0.2-3.7 0-4.9 0.1-1.2 0.2-1.8 0.3-1.8 0.2 0-0.1 2.6 0.5 6.6 0.6 4 2.4 9.5 6.4 14.3 3.9 4.8 9 7.6 12.8 8.9 3.9 1.3 6.4 1.5 6.4 1.7z"/>
					</g>
				</g>
				<g id="&lt;Group&gt;">
					<g id="&lt;Group&gt;">
						<path id="&lt;Path&gt;" class="s6" d="m427.8 814.9q0 0-1.6 0.8-1.5 0.7-4.6 1.8c-4 1.4-10.1 3.1-17.9 3.6-7.7 0.5-17.1-0.3-26.7-3.7-9.7-3.5-19.5-9.6-27.5-18.3-3.1-3.4-5.8-7.1-8.1-10.7l0.5 0.2c-10.3 0.1-19.9-3.2-27.1-8-7.3-4.9-12.2-11.2-15.2-16.9-3.1-5.7-4.3-10.8-4.9-14.3-0.3-1.8-0.4-3.2-0.5-4.1q0-1.4 0-1.4 0.1 0 0.2 1.4c0.1 0.9 0.3 2.3 0.7 4 0.7 3.5 2 8.5 5.1 14.1 3 5.5 7.9 11.7 15.1 16.4 7.1 4.7 16.5 7.9 26.6 7.8h0.3l0.1 0.2c2.2 3.6 4.9 7.2 8 10.5 7.8 8.7 17.5 14.7 27 18.1 9.5 3.5 18.8 4.3 26.4 3.9 7.6-0.4 13.7-1.9 17.8-3.2 2-0.7 3.6-1.2 4.6-1.6q1.6-0.7 1.7-0.6z"/>
					</g>
				</g>
				<g id="&lt;Group&gt;">
					<g id="&lt;Group&gt;">
						<path id="&lt;Path&gt;" class="s6" d="m262.5 722.9c0 0-0.3-0.5-0.7-1.6-0.4-1-0.9-2.6-1.3-4.6-0.8-3.9-1.1-9.6 0.7-15.6 1.8-6 5.2-10.6 8-13.5 1.4-1.4 2.7-2.5 3.6-3.1 0.9-0.7 1.5-0.9 1.5-0.9 0.1 0.2-1.9 1.6-4.6 4.5-2.6 2.9-5.7 7.5-7.5 13.3-1.7 5.8-1.6 11.3-1 15.2 0.6 3.9 1.5 6.2 1.3 6.3z"/>
					</g>
				</g>
				<g id="&lt;Group&gt;">
					<g id="&lt;Group&gt;">
						<path id="&lt;Path&gt;" class="s6" d="m261.2 665.5c0.1 0.1-0.4 0.2-1.4 0.4-0.9 0.2-2.2 0.3-3.9 0.3-3.4-0.1-8.1-1.1-12.3-4.3-4.2-3.1-6.6-7.4-7.6-10.6-0.5-1.6-0.7-2.9-0.8-3.8-0.1-1-0.1-1.5 0-1.5 0.2 0 0.3 2 1.5 5.1 1.2 3 3.6 7 7.5 10 4 2.9 8.5 4.1 11.7 4.4 3.3 0.2 5.3-0.2 5.3 0z"/>
					</g>
				</g>
				<g id="&lt;Group&gt;">
					<g id="&lt;Group&gt;">
						<path id="&lt;Path&gt;" class="s6" d="m253.8 550.1c0.1 0.2-2 2.8-4.7 7.6-1.4 2.3-2.8 5.2-4.2 8.5-1.4 3.4-2.7 7.1-3.7 11.1-0.9 4.1-1.5 8-1.8 11.6-0.3 3.6-0.3 6.8-0.2 9.5 0.3 5.5 1 8.8 0.8 8.8-0.1 0-0.3-0.8-0.6-2.3-0.4-1.5-0.7-3.7-0.9-6.4-0.3-2.8-0.3-6.1-0.1-9.7 0.3-3.6 0.8-7.6 1.8-11.7 1-4.1 2.3-7.9 3.8-11.3 1.4-3.3 3-6.2 4.4-8.5 1.5-2.4 2.8-4.2 3.8-5.4 0.9-1.2 1.5-1.8 1.6-1.8z"/>
					</g>
				</g>
				<g id="&lt;Group&gt;" style="opacity: .3">
					<g id="&lt;Group&gt;">
						<path id="&lt;Path&gt;" class="s3" d="m236.4 529.7c-10.1-3.8-14.9-15.3-16.6-26-1.7-10.7 0.7-21.9 9.2-28.6-5.7 7.8-6.2 18.7-4.5 28.3 1.6 9.6 6.2 18.4 11.9 26.3z"/>
					</g>
				</g>
				<g id="&lt;Group&gt;">
					<g id="&lt;Group&gt;">
						<path id="&lt;Path&gt;" class="s6" d="m236 529c-0.1 0.1-0.8-0.3-2.2-1.2-1.3-0.9-3.1-2.3-5-4.3-4-4-8.4-11-9.5-19.7-1.1-8.7 1.4-16.6 4.1-21.5 1.4-2.4 2.8-4.3 3.9-5.5 1-1.1 1.7-1.7 1.7-1.7 0.2 0.2-2.3 2.6-4.9 7.6-2.5 4.9-4.8 12.5-3.7 21 1 8.4 5.2 15.2 8.9 19.3 3.7 4.1 6.8 5.9 6.7 6z"/>
					</g>
				</g>
				<g id="&lt;Group&gt;">
					<g id="&lt;Group&gt;">
						<path id="&lt;Path&gt;" class="s6" d="m281.2 418.7q0 0-0.8-0.3c-0.5-0.2-1.2-0.4-2.2-0.8-1.8-0.9-4.4-2.4-7.1-4.9-2.7-2.4-5.5-5.9-7.5-10.4-2-4.4-3.2-9.8-2.7-15.4 0.7-5.7 2.9-10.7 5.8-14.6 2.9-3.9 6.4-6.8 9.5-8.6 3.2-1.9 6.1-2.8 8.1-3.3 0.9-0.2 1.7-0.3 2.3-0.4q0.8-0.1 0.8 0c0.1 0.3-4.6 0.5-10.8 4.3-3 1.9-6.3 4.7-9.1 8.6-2.7 3.8-4.9 8.7-5.5 14.1-0.5 5.4 0.6 10.6 2.5 14.9 1.9 4.4 4.5 7.8 7.1 10.3 5.2 5 9.8 6.2 9.6 6.5z"/>
					</g>
				</g>
				<g id="&lt;Group&gt;">
					<g id="&lt;Group&gt;">
						<path id="&lt;Path&gt;" class="s6" d="m341.6 456.4c-0.3 0 1-5.2-0.8-13.2-0.8-4-2.6-8.7-5.5-13.2-2.9-4.6-7.2-8.9-12.5-12.1-5.4-3.1-11.3-4.6-16.7-4.9-5.4-0.3-10.3 0.5-14.2 1.7-7.9 2.5-11.8 6.1-11.9 5.9q-0.1-0.1 0.7-0.7c0.4-0.3 1.1-1 2.1-1.6 1.9-1.3 4.9-3 8.8-4.3 4-1.4 9-2.2 14.5-2 5.6 0.3 11.6 1.8 17.2 5 5.6 3.2 9.9 7.8 12.8 12.4 3 4.7 4.7 9.5 5.5 13.6 0.8 4.1 0.8 7.5 0.6 9.8-0.1 1.2-0.3 2.1-0.3 2.7q-0.2 0.9-0.3 0.9z"/>
					</g>
				</g>
				<g id="&lt;Group&gt;">
					<g id="&lt;Group&gt;">
						<path id="&lt;Path&gt;" class="s6" d="m389.2 278q0 0.1-0.3 0.4-0.2 0.3-0.6 0.9-1 1.2-2.7 3.6c-2.2 3.3-5.3 8.1-8.1 14.7-2.6 6.6-4.9 15.3-3.5 25.1q0.6 3.6 1.8 7.3c0.9 2.4 2 4.8 3.4 7.2 2.8 4.6 6.9 8.8 12.2 11.5l0.9 0.4-0.9 0.4c-6.1 3.1-12 7.1-17.1 12.5-5 5.3-9 12-10.7 19.5-1.5 6.7-0.9 13.6 1.4 19.6 2.3 6.1 6.4 11.2 11.5 14.3l0.5 0.3-0.4 0.5c-4.1 4.6-6.5 10.3-7.4 16-1 5.7-0.6 11.2 0.5 16.3 1.2 5.1 3 9.7 5.2 13.7 2.2 4 4.6 7.5 6.9 10.5 4.7 6.1 8.9 10.5 11.7 13.6q2.1 2.2 3.3 3.5 0.5 0.5 0.8 0.9 0.3 0.3 0.3 0.3 0 0-0.3-0.3-0.4-0.3-0.9-0.8-1.3-1.2-3.4-3.4c-2.9-3-7.2-7.3-12-13.4-2.4-3.1-4.8-6.5-7-10.6-2.3-4-4.2-8.6-5.4-13.8-1.2-5.2-1.6-10.8-0.7-16.7 0.9-5.8 3.4-11.7 7.7-16.5l0.1 0.8c-5.4-3.2-9.6-8.6-12-14.8-2.3-6.2-3-13.3-1.5-20.2 1.8-7.8 6-14.6 11.1-20 5.1-5.5 11.2-9.6 17.3-12.6v0.8c-5.4-2.7-9.6-7.1-12.5-11.9-1.4-2.3-2.5-4.8-3.4-7.3q-1.3-3.8-1.8-7.5c-0.7-5-0.5-9.7 0.3-14 0.8-4.2 2.1-8.1 3.5-11.4 2.8-6.7 6.1-11.5 8.4-14.7q1.7-2.3 2.7-3.5 0.5-0.5 0.8-0.9 0.2-0.3 0.3-0.3z"/>
					</g>
				</g>
				<g id="&lt;Group&gt;">
					<g id="&lt;Group&gt;">
						<path id="&lt;Path&gt;" class="s6" d="m388.9 264.2q-0.1 0.1-1.4-0.6c-0.9-0.4-2.3-1-4.1-1.6-3.6-1.2-9-2.4-15.8-2.2-6.7 0.2-14.7 2.1-22.9 5.8-8.1 3.7-16.5 9.1-24.7 15.4-5.3 4.2-10 9.1-12.6 14.8-2.6 5.6-3.2 11.9-1.3 16.9l0.4 1.1-1-0.5c-5.1-2.5-9.9-4.4-14.3-5.6-4.4-1.2-8.3-1.8-11.6-2.1-3.3-0.3-5.8-0.4-7.6-0.4q-1.2 0-2 0-0.7 0-0.7-0.1 0 0 0.7-0.1 0.8 0 2-0.1c1.8 0 4.4-0.1 7.7 0.2 3.3 0.2 7.3 0.7 11.7 1.9 4.5 1.1 9.4 3 14.5 5.4l-0.7 0.6c-2-5.3-1.4-11.8 1.3-17.6 2.6-5.9 7.4-11 12.8-15.3 8.3-6.3 16.7-11.7 25-15.4 8.3-3.7 16.4-5.5 23.3-5.6 6.9-0.2 12.4 1.2 16 2.5 1.7 0.7 3.1 1.3 4 1.8q1.3 0.8 1.3 0.8z"/>
					</g>
				</g>
				<g id="&lt;Group&gt;">
					<g id="&lt;Group&gt;">
						<path id="&lt;Path&gt;" class="s6" d="m332 244.5c0 0.2-2.1-0.2-5.3 0-3.3 0.2-7.8 1.2-12 3.9-4.2 2.7-7 6.4-8.5 9.3-1.5 2.8-2 4.9-2.1 4.8-0.1 0-0.1-0.5 0.1-1.4 0.2-0.9 0.7-2.2 1.4-3.8 1.3-3 4.2-7 8.5-9.8 4.4-2.8 9.2-3.8 12.6-3.8 1.6 0 3 0.2 3.9 0.4 0.9 0.2 1.4 0.4 1.4 0.4z"/>
					</g>
				</g>
				<g id="&lt;Group&gt;">
					<g id="&lt;Group&gt;">
						<path id="&lt;Path&gt;" class="s6" d="m430.4 218.2c0 0.3-3.9 0.4-8.7 0.3-4.9-0.1-8.8-0.4-8.8-0.7 0-0.3 3.9-0.5 8.8-0.3 4.8 0.1 8.7 0.4 8.7 0.7z"/>
					</g>
				</g>
				<g id="&lt;Group&gt;">
					<g id="&lt;Group&gt;">
						<path id="&lt;Path&gt;" class="s6" d="m427 298.1q-0.1 0.1-0.6-0.9-0.6-0.9-1.4-2.7c-1-2.5-2.2-6.2-2.6-11-0.3-4.8 0.3-10.6 2.8-16.5 2.4-6 7.5-11.1 10.1-17.7 1.3-3.3 1.5-6.8 0.4-10-0.9-3.2-2.5-6.2-3.6-9.2-2.1-6-1.7-12.1-0.5-16.7 1.3-4.6 3.5-8 5.1-10q1.3-1.6 2.1-2.3 0.8-0.7 0.8-0.7c0.1 0.1-1 1.1-2.6 3.2-1.5 2.1-3.5 5.5-4.7 10-1.1 4.5-1.4 10.4 0.8 16.2 1 2.9 2.6 5.8 3.6 9.2 0.5 1.6 0.9 3.4 0.8 5.3-0.1 1.8-0.5 3.6-1.2 5.4-1.3 3.4-3.4 6.4-5.3 9.2-1.9 2.9-3.7 5.6-4.9 8.5-2.5 5.7-3.1 11.4-2.9 16 0.3 4.7 1.3 8.5 2.2 10.9 0.9 2.5 1.7 3.8 1.6 3.8z"/>
					</g>
				</g>
				<g id="&lt;Group&gt;">
					<g id="&lt;Group&gt;">
						<path id="&lt;Path&gt;" class="s6" d="m424.3 397.8c-0.1 0 0.3-0.9 0.5-2.6 0.1-1.8-0.2-4.3-1.5-7.2-1.3-2.8-3.6-5.8-5.3-9.7-1.8-3.9-3-8.5-3.5-13.3-0.8-9.9 1.9-18.7 5-24.2 1.5-2.8 3.1-4.9 4.3-6.3 1.2-1.3 1.8-2 1.9-1.9 0.2 0.1-2.7 2.9-5.5 8.5-2.9 5.6-5.4 14.2-4.6 23.8 0.4 4.7 1.6 9.2 3.3 12.9 1.6 3.8 3.9 6.9 5.1 9.9 1.2 3 1.5 5.7 1.2 7.5-0.1 0.9-0.4 1.6-0.6 2q-0.3 0.7-0.3 0.6z"/>
					</g>
				</g>
				<g id="&lt;Group&gt;">
					<g id="&lt;Group&gt;">
						<path id="&lt;Path&gt;" class="s6" d="m477.9 429.2c0 0-0.3 0.6-1 1.6-0.7 0.9-1.8 2.3-3.4 3.7-3.1 2.9-8.3 6.2-14.7 7.5-6.5 1.3-12.6 0.2-16.5-1.3-2-0.8-3.6-1.6-4.6-2.2-1-0.6-1.5-1-1.5-1.1 0.1-0.2 2.3 1.3 6.3 2.6 4 1.3 9.8 2.2 16.1 1 6.2-1.3 11.3-4.4 14.4-7.1 3.2-2.7 4.7-4.8 4.9-4.7z"/>
					</g>
				</g>
				<g id="&lt;Group&gt;">
					<g id="&lt;Group&gt;">
						<path id="&lt;Path&gt;" class="s6" d="m410.6 499.3c0-0.1 0.6 0.2 1.8 0.1 1.2 0 2.8-0.5 4.6-1.6 3.6-2.4 8.4-5.9 13.2-10.3 4.9-4.3 8.9-8.7 11.7-12 2.8-3.2 4.4-5.3 4.5-5.3 0.1 0.1-0.3 0.7-0.9 1.7-0.7 1-1.7 2.4-3 4.1-2.7 3.4-6.6 7.9-11.6 12.3-4.9 4.4-9.8 7.9-13.5 10.1-1.9 1.1-3.7 1.5-5 1.4-1.3 0-1.8-0.5-1.8-0.5z"/>
					</g>
				</g>
				<g id="&lt;Group&gt;">
					<g id="&lt;Group&gt;">
						<path id="&lt;Path&gt;" class="s6" d="m442.2 513.2c0 0.1-1.7-0.6-3.8-2.5-2.1-1.9-4.6-5.1-5.9-9.3-1.4-4.2-1.1-8.3-0.5-11.1 0.7-2.8 1.6-4.3 1.7-4.2 0.2 0-0.5 1.6-0.9 4.4-0.5 2.7-0.6 6.6 0.7 10.5 1.2 4 3.5 7.2 5.4 9.1 2 2 3.4 3 3.3 3.1z"/>
					</g>
				</g>
				<g id="&lt;Group&gt;" style="opacity: .3">
					<g id="&lt;Group&gt;">
						<path id="&lt;Path&gt;" class="s3" d="m266.8 407.1c-8.6-8.6-4.1-22.6-4.1-22.6-0.5 6.2 3.2 12.1 7.6 16.4 3.1 3.1 6.8 5.8 11 7 7.3 2.1 15.1-0.7 22.8-1.2 11.8-0.7 23.9 4.6 31.3 13.9 7.4 9.3 10 22.3 6.6 33.7 0.2-14-7.5-27.9-19.5-35.2-12-7.3-27.8-7.6-40.2-0.9 0 0-6.9-2.5-15.5-11.1z"/>
					</g>
				</g>
				<g id="&lt;Group&gt;" style="opacity: .3">
					<g id="&lt;Group&gt;">
						<path id="&lt;Path&gt;" class="s3" d="m371.6 259.1c-10.2 2.1-20.5 4.3-30.3 8-9.8 3.8-19.1 9.2-26 17.1-6.9 7.9-11.1 18.3-10.2 28.8-11.6-7.4-21.7-6.7-35.8-7.9 12.2-1.6 20.6-1.7 32.7 0.4-0.9-6.4 1.1-13 4.7-18.4 3.6-5.5 8.6-9.8 13.9-13.5 14.8-10.4 33-16.4 51-14.5z"/>
					</g>
				</g>
				<g id="&lt;Group&gt;" style="opacity: .3">
					<g id="&lt;Group&gt;">
						<path id="&lt;Path&gt;" class="s3" d="m430.8 218.1q-6.3-0.4-12.6-0.8c-1.9-0.2-3.8-0.3-5.4-1.3 3.4-1.2 6.9-1.7 10.5-1.4 0.6 0.1 1.4 0.1 2-0.1 0.9-0.4 1.4-1.5 1.8-2.4 1.9-4.3 5.1-8.1 9-10.7 0 2.9-1.6 5.6-3.1 8.2-1.4 2.6-2.7 5.6-2 8.5"/>
					</g>
				</g>
				<g id="&lt;Group&gt;" style="opacity: .3">
					<g id="&lt;Group&gt;">
						<path id="&lt;Path&gt;" class="s3" d="m434.2 486c-2.4 2.4-2.2 6.2-1.9 9.6 0.4 4.1 0.8 8.4 2.9 12 2.5 4.5 9 5.4 13.4 8-5 0.4-11.8 0-15.7-3.2-3.9-3.3-6.9-7.4-9.8-11.5-6.4 2.7-13.9 2.5-20.2-0.4 10.7-0.8 21.1-5.5 28.7-13"/>
					</g>
				</g>
				<g id="&lt;Group&gt;" style="opacity: .3">
					<g id="&lt;Group&gt;">
						<path id="&lt;Path&gt;" class="s3" d="m268.1 555.9c2.3-2.5 5.5-4 8.8-4.7 3.3-0.7 6.7-0.7 10.1-0.6 0.1-3.5 1.9-7 4.7-9 0.3-0.2 0.5-0.4 0.8-0.3 0.6 0.1 0.6 1 0.4 1.6-1.2 3.8-0.9 8 0.9 11.6 0.3 0.5 0.5 1.2 0 1.6-0.1 0.1-0.4 0.2-0.6 0.2-4.2 0.1-8.4-0.5-12.6-0.8-4.1-0.3-8.4-0.2-12.4 1.1"/>
					</g>
				</g>
				<g id="&lt;Group&gt;" style="opacity: .3">
					<g id="&lt;Group&gt;">
						<path id="&lt;Path&gt;" class="s3" d="m441.3 689.8c-2.2-1.8-4.8-3.3-6.6-5.4-4.7-5.4-8.2-12.2-13.8-16.4-16.3-12.3-24.6-29.4-33-47.3-5.1-10.9-15.6-19.7-25.1-27.7-2.9-2.4-12.4-0.8-15.9 2.3-21 19-16.3 51.6 9.6 64.6-2.6 17.2 7.9 25.2 20.6 31 9.1 4.1 19 6.6 27.9 10.9 4.9 2.4 8.6 7.2 11.3 12-13.8-5.7-27.6-11.3-41.4-17.1-20.3-8.4-27.2-28.6-38.4-44.7-13-18.6-14.3-43 16.6-65.8 1.3-0.7 2.6-1.3 3.9-1.7-10.8-0.2-21.5-0.8-31.9-3.8-13.2-3.7-25.9-11.7-32.2-24l1.3-0.5c6.4 7.7 13.6 10.8 23.1 14.2 9.4 3.3 15.2 4.6 25.1 5.9 5.7 0.8 16.6 3.6 22.3 7.2 9.8 0.7 18.4 9.2 26.5 20 2.6 3.3 2.3 10 3.6 14.9 1 4 0.6 8.6 3.1 12.1 8.6 11.7 11.6 16.7 29.6 32.2 7.5 6.4 3.5 6.6 10.1 13.9-1.2 1.2 5 12 3.7 13.2z"/>
					</g>
				</g>
				<g id="&lt;Group&gt;" style="opacity: .3">
					<g id="&lt;Group&gt;">
						<path id="&lt;Path&gt;" class="s3" d="m464.6 572.4c-18.8 9.3-42 9.1-60.7-0.3-18.7-9.4-31.3-29.4-35.1-50 7.4 14.7 16.7 32 32.2 40.6 19.1 10.4 41.9 10.2 63.6 9.7z"/>
					</g>
				</g>
			</g>
			<g id="&lt;Group&gt;" style="opacity: .2">
				<g id="&lt;Group&gt;">
					<path id="&lt;Path&gt;" class="s8" d="m317.6 369.4c-0.8 4.5-6 5.7-10.1 7.1-9 3-16.2 9.7-24.5 14.6-2.3 1.4-4.8 2.6-7.6 2.9-2.7 0.3-5.7-0.7-7.3-2.9-2-2.9-1.1-6.9 0.5-10.1 3.2-6 8.7-10.6 14.7-13.9 5.4-2.8 11.2-4.7 17-6.5 1.7-0.4 3.3-0.7 5-0.6 3.1 0.1 6.1 0.8 8.7 2.3 2.5 1.4 4.2 4.3 3.6 7.1z"/>
				</g>
			</g>
			<g id="&lt;Group&gt;" style="opacity: .2">
				<g id="&lt;Group&gt;">
					<path id="&lt;Path&gt;" class="s8" d="m368 277.2c-0.9 4.5-6 5.7-10.1 7.1-9 3-16.3 9.8-24.5 14.6-2.3 1.4-4.9 2.7-7.6 2.9-2.7 0.3-5.7-0.6-7.3-2.9-2-2.9-1.1-6.9 0.5-10 3.2-6.1 8.7-10.7 14.7-13.9 5.4-2.9 11.2-4.8 17-6.5 1.6-0.5 3.3-0.8 5-0.7 3 0.2 6.1 0.9 8.7 2.3 2.5 1.5 4.1 4.3 3.6 7.1z"/>
				</g>
			</g>
			<g id="&lt;Group&gt;" style="opacity: .2">
				<g id="&lt;Group&gt;">
					<path id="&lt;Path&gt;" class="s8" d="m468.1 203.4c-4 3.7-10.5 4.5-15.2 1.8-4.1-2.4-6.7-7-10.8-9.5-5.9-3.6-13.6-2.1-20.1 0.6-12.9 5.5-23.5 15.4-35 23.5-11.6 8.2-25.3 14.9-39.3 12.8-4.2-0.6-9-2.9-9.3-7.1-0.1-2.4 1.3-4.7 3.2-6.2 1.9-1.5 4.2-2.4 6.4-3.4 16.1-7.2 29.1-19.8 43.3-30.3 14.2-10.6 31.3-19.4 48.8-16.8 10 1.5 16.5 3.8 22.6 7.4 4.1 2.5 5.9 7.9 8 12.2 2.5 4.9 1.3 11.3-2.6 15z"/>
				</g>
			</g>
			<g id="&lt;Group&gt;">
				<g id="&lt;Group&gt;">
					<path id="&lt;Path&gt;" class="s8" d="m232.4 395.2c0 0 0.1-1.2 0.4-3.2 0.2-2.1 0.7-5.1 1.5-8.7 0.8-3.7 2-7.9 3.5-12.6 1.6-4.7 3.6-9.7 6-14.9 2.5-5.1 5.2-9.8 7.8-14 2.7-4.1 5.3-7.7 7.6-10.6 2.4-2.9 4.4-5.2 5.8-6.6 1.5-1.5 2.3-2.4 2.3-2.3 0.1 0-0.6 0.9-2 2.5-1.3 1.6-3.2 3.9-5.5 6.9-2.2 2.9-4.8 6.5-7.4 10.7-2.5 4.1-5.2 8.8-7.6 13.9-2.5 5.1-4.5 10.1-6.1 14.7-1.6 4.6-2.8 8.9-3.7 12.5-0.8 3.5-1.5 6.5-1.8 8.5-0.4 2.1-0.7 3.2-0.8 3.2z"/>
				</g>
			</g>
			<g id="&lt;Group&gt;">
				<g id="&lt;Group&gt;">
					<path id="&lt;Path&gt;" class="s8" d="m275.8 400.4c0 0.1-0.5-0.3-1.4-1-0.8-0.7-1.9-1.9-3-3.6-2.2-3.2-4.1-8.9-2.6-15 1.6-6.1 6-10.2 9.5-12 1.8-0.9 3.3-1.5 4.4-1.7 1.1-0.2 1.7-0.2 1.7-0.2 0.1 0.2-2.4 0.6-5.7 2.6-3.3 1.9-7.3 5.9-8.8 11.6-1.5 5.7 0.2 11.1 2.1 14.4 2 3.3 4 4.8 3.8 4.9z"/>
				</g>
			</g>
			<g id="&lt;Group&gt;">
				<g id="&lt;Group&gt;">
					<path id="&lt;Path&gt;" class="s8" d="m375.5 396.7c-0.1 0.1-0.8-1.3-1.2-3.7-0.5-2.3-0.5-5.8 0.5-9.4 1-3.6 2.8-6.5 4.5-8.3 1.6-1.8 2.9-2.6 3-2.5 0.1 0.2-1 1.1-2.4 3-1.5 1.9-3.1 4.7-4.1 8.1-1 3.4-1 6.7-0.8 9 0.3 2.4 0.7 3.8 0.5 3.8z"/>
				</g>
			</g>
			<g id="&lt;Group&gt;">
				<g id="&lt;Group&gt;">
					<path id="&lt;Path&gt;" class="s8" d="m283.7 279.1c0.2 0.3-2.2 2.4-3.1 6-1.1 3.5-0.2 6.6-0.5 6.6-0.1 0.1-0.5-0.6-0.8-1.9-0.2-1.3-0.3-3.1 0.3-5 0.5-1.9 1.5-3.5 2.4-4.4 0.9-1 1.6-1.4 1.7-1.3z"/>
				</g>
			</g>
			<g id="&lt;Group&gt;">
				<g id="&lt;Group&gt;">
					<path id="&lt;Path&gt;" class="s8" d="m235.3 508.8c-0.2 0.2-2-2.9-2.4-7.2-0.5-4.2 0.7-7.6 1-7.5 0.3 0.1-0.4 3.4 0 7.4 0.4 4.1 1.7 7.2 1.4 7.3z"/>
				</g>
			</g>
			<g id="&lt;Group&gt;">
				<g id="&lt;Group&gt;">
					<path id="&lt;Path&gt;" class="s8" d="m218.7 602.5c0 0.1-0.3-0.3-0.9-1.1-0.5-0.7-1.1-1.9-1.8-3.4-1.4-3.1-2.6-7.6-2.6-12.7 0-5.1 1.3-9.6 2.7-12.6 0.6-1.5 1.3-2.7 1.8-3.5 0.5-0.7 0.9-1.1 0.9-1.1 0.2 0.1-0.9 1.8-2 4.9-1.2 3-2.3 7.4-2.3 12.3 0 5 1 9.4 2.2 12.4 1.1 3 2.2 4.7 2 4.8z"/>
				</g>
			</g>
			<g id="&lt;Group&gt;">
				<g id="&lt;Group&gt;">
					<path id="&lt;Path&gt;" class="s8" d="m277.3 667.8c0 0.1-0.4-0.2-1.1-0.8-0.7-0.6-1.6-1.6-2.5-2.9-1.8-2.7-3.7-7.1-3.5-12.1 0.2-5.1 2.4-9.3 4.4-11.8 1.1-1.3 2-2.2 2.8-2.7 0.7-0.6 1.1-0.8 1.2-0.7 0.1 0.1-1.5 1.3-3.4 3.9-1.8 2.5-3.7 6.6-3.9 11.3-0.2 4.8 1.4 9 3 11.7 1.7 2.7 3.2 4 3 4.1z"/>
				</g>
			</g>
			<g id="&lt;Group&gt;">
				<g id="&lt;Group&gt;">
					<path id="&lt;Path&gt;" class="s8" d="m273.2 714.7c-0.3 0.1-1-3.8 0.4-8.3 1.4-4.5 4.2-7.3 4.4-7.1 0.3 0.2-2 3.1-3.3 7.4-1.4 4.3-1.2 8-1.5 8z"/>
				</g>
			</g>
			<g id="&lt;Group&gt;">
				<g id="&lt;Group&gt;">
					<path id="&lt;Path&gt;" class="s8" d="m352.6 645.5c-0.1 0-0.7-0.2-1.8-0.7-1.1-0.5-2.6-1.4-4.3-2.9-3.4-2.7-7.3-7.9-8.3-14.7-0.9-6.8 1.4-12.9 3.9-16.4 1.2-1.9 2.4-3.2 3.3-4 0.9-0.8 1.5-1.2 1.6-1.1 0.1 0.1-2.1 1.8-4.3 5.5-2.2 3.5-4.3 9.4-3.4 15.9 0.9 6.4 4.5 11.5 7.7 14.3 3.1 2.9 5.7 3.9 5.6 4.1z"/>
				</g>
			</g>
			<g id="&lt;Group&gt;">
				<g id="&lt;Group&gt;">
					<path id="&lt;Path&gt;" class="s8" d="m340.4 779.7c0 0.1-0.7 0-2-0.3-1.2-0.3-3-0.8-5.2-1.6-2.1-0.8-4.6-1.9-7.3-3.4-2.6-1.6-5.4-3.5-8.1-5.8-2.6-2.3-4.9-4.8-6.8-7.2-1.8-2.4-3.3-4.8-4.4-6.8-1.1-2-1.9-3.7-2.3-4.9-0.4-1.2-0.7-1.9-0.6-2 0.2 0 1.2 2.6 3.5 6.5 1.2 2 2.7 4.2 4.6 6.6 1.9 2.3 4.1 4.7 6.7 7 2.7 2.2 5.4 4.1 7.9 5.7 2.6 1.5 5 2.8 7.1 3.6 4.2 1.8 7 2.4 6.9 2.6z"/>
				</g>
			</g>
			<g id="&lt;Group&gt;">
				<g id="&lt;Group&gt;">
					<path id="&lt;Path&gt;" class="s8" d="m320.1 558.4c0 0.3-5.4-1.5-10.1-6.6-4.7-5-6.1-10.6-5.8-10.6 0.3-0.1 2.1 5.1 6.6 9.9 4.4 4.8 9.5 7 9.3 7.3z"/>
				</g>
			</g>
			<g id="&lt;Group&gt;">
				<g id="&lt;Group&gt;">
					<path id="&lt;Path&gt;" class="s8" d="m392.2 459.8c-0.1 0.2-4.6-2.7-8.6-7.9-4-5.1-5.7-10.2-5.4-10.3 0.3-0.1 2.4 4.7 6.3 9.7 3.8 5 7.9 8.3 7.7 8.5z"/>
				</g>
			</g>
			<g id="&lt;Group&gt;" style="opacity: .2">
				<g id="&lt;Group&gt;">
					<path id="&lt;Path&gt;" class="s8" d="m241.7 456.3c2.5-1.8 6.1-1 8.5 0.8 2.4 1.9 4 4.6 5.9 7 8.3 10.6 8.9 21.2 22 24 13.1 2.7 26.8 4.3 38.5 10.7 2.9 1.6 5.9 3.8 6.7 7.1 0.8 3.6-1.6 7.5-4.9 9.2-3.4 1.8-7.3 2-11.1 1.6-13-1-25-6.8-36.8-12.4-16.1-7.8-23.3-20.5-30.2-37 0 0-4.1-7 1.4-11z"/>
				</g>
			</g>
			<g id="&lt;Group&gt;" style="opacity: .2">
				<g id="&lt;Group&gt;">
					<path id="&lt;Path&gt;" class="s8" d="m354.1 530.8c-1.1 3.9-5.3 6.7-9.3 6.1-4-0.6-7.3-4.5-7.1-8.6 0.1-4.1 3.6-7.8 7.7-8.1l2.8 1c4.2 0.6 7 5.5 5.9 9.6z"/>
				</g>
			</g>
		</g>
	</g>
</svg>