<svg id="visual" viewBox="0 0 900 600" width="900" height="600" xmlns="http://www.w3.org/2000/svg" xmlns:xlink="http://www.w3.org/1999/xlink" version="1.1"><rect x="0" y="0" width="900" height="600" fill="#001220"></rect><path d="M0 387L13.7 385.8C27.3 384.7 54.7 382.3 82 381.8C109.3 381.3 136.7 382.7 163.8 384C191 385.3 218 386.7 245.2 386.2C272.3 385.7 299.7 383.3 327 377C354.3 370.7 381.7 360.3 409 358.7C436.3 357 463.7 364 491 368.8C518.3 373.7 545.7 376.3 573 373.2C600.3 370 627.7 361 654.8 364.3C682 367.7 709 383.3 736.2 386.5C763.3 389.7 790.7 380.3 818 372.5C845.3 364.7 872.7 358.3 886.3 355.2L900 352L900 601L886.3 601C872.7 601 845.3 601 818 601C790.7 601 763.3 601 736.2 601C709 601 682 601 654.8 601C627.7 601 600.3 601 573 601C545.7 601 518.3 601 491 601C463.7 601 436.3 601 409 601C381.7 601 354.3 601 327 601C299.7 601 272.3 601 245.2 601C218 601 191 601 163.8 601C136.7 601 109.3 601 82 601C54.7 601 27.3 601 13.7 601L0 601Z" fill="#982d3d"></path><path d="M0 440L13.7 441.5C27.3 443 54.7 446 82 444.8C109.3 443.7 136.7 438.3 163.8 437.8C191 437.3 218 441.7 245.2 445.3C272.3 449 299.7 452 327 454.8C354.3 457.7 381.7 460.3 409 457.5C436.3 454.7 463.7 446.3 491 446.3C518.3 446.3 545.7 454.7 573 456.3C600.3 458 627.7 453 654.8 452.8C682 452.7 709 457.3 736.2 454.5C763.3 451.7 790.7 441.3 818 440.5C845.3 439.7 872.7 448.3 886.3 452.7L900 457L900 601L886.3 601C872.7 601 845.3 601 818 601C790.7 601 763.3 601 736.2 601C709 601 682 601 654.8 601C627.7 601 600.3 601 573 601C545.7 601 518.3 601 491 601C463.7 601 436.3 601 409 601C381.7 601 354.3 601 327 601C299.7 601 272.3 601 245.2 601C218 601 191 601 163.8 601C136.7 601 109.3 601 82 601C54.7 601 27.3 601 13.7 601L0 601Z" fill="#b95053"></path><path d="M0 515L13.7 515.5C27.3 516 54.7 517 82 516.7C109.3 516.3 136.7 514.7 163.8 514.2C191 513.7 218 514.3 245.2 514.5C272.3 514.7 299.7 514.3 327 515.5C354.3 516.7 381.7 519.3 409 520.3C436.3 521.3 463.7 520.7 491 515.7C518.3 510.7 545.7 501.3 573 498.2C600.3 495 627.7 498 654.8 502C682 506 709 511 736.2 514.5C763.3 518 790.7 520 818 516.5C845.3 513 872.7 504 886.3 499.5L900 495L900 601L886.3 601C872.7 601 845.3 601 818 601C790.7 601 763.3 601 736.2 601C709 601 682 601 654.8 601C627.7 601 600.3 601 573 601C545.7 601 518.3 601 491 601C463.7 601 436.3 601 409 601C381.7 601 354.3 601 327 601C299.7 601 272.3 601 245.2 601C218 601 191 601 163.8 601C136.7 601 109.3 601 82 601C54.7 601 27.3 601 13.7 601L0 601Z" fill="#db726a"></path></svg>