<svg version="1.2" xmlns="http://www.w3.org/2000/svg" viewBox="0 0 1000 1000" width="600" height="600">
	<title>7501105-ai</title>
	<defs>
		<clipPath clipPathUnits="userSpaceOnUse" id="cp1">
			<path d="m582.81 735.57c0 75.4-29.81 136.52-66.58 136.52h-59.79c36.77 0 66.57-61.12 66.57-136.52 0-75.39-29.8-136.51-66.57-136.51h59.79c36.77 0 66.58 61.12 66.58 136.51z"/>
		</clipPath>
		<clipPath clipPathUnits="userSpaceOnUse" id="cp2">
			<path d="m468.8 735.57c0 75.4-29.81 136.52-66.58 136.52h-59.8c36.77 0 66.58-61.12 66.58-136.52 0-75.39-29.81-136.51-66.58-136.51h59.8c36.77 0 66.58 61.12 66.58 136.51z"/>
		</clipPath>
		<clipPath clipPathUnits="userSpaceOnUse" id="cp3">
			<path d="m468.8 735.57c0 75.4-29.81 136.52-66.58 136.52h-59.8c36.77 0 66.58-61.12 66.58-136.52 0-75.39-29.81-136.51-66.58-136.51h59.8c36.77 0 66.58 61.12 66.58 136.51z"/>
		</clipPath>
		<clipPath clipPathUnits="userSpaceOnUse" id="cp4">
			<path d="m468.8 735.57c0 75.4-29.81 136.52-66.58 136.52h-59.8c36.77 0 66.58-61.12 66.58-136.52 0-75.39-29.81-136.51-66.58-136.51h59.8c36.77 0 66.58 61.12 66.58 136.51z"/>
		</clipPath>
	</defs>
	<style>
		.s0 { fill: #f0e1ff } 
		.s1 { opacity: .5;fill: #f0e1ff } 
		.s2 { fill: #cc9ad8 } 
		.s3 { fill: #7a7ac4 } 
		.s4 { fill: #bdbde5 } 
		.s5 { fill: #fb7995 } 
		.s6 { fill: #edc6f7 } 
		.s7 { fill: #5b599b } 
		.s8 { fill: #21213d } 
		.s9 { fill: #29294f } 
		.s10 { fill: #46417a } 
		.s11 { fill: #31315b } 
		.s12 { fill: #5e5496 } 
		.s13 { fill: #6760a8 } 
		.s14 { fill: #4f4d8c } 
		.s15 { fill: #393768 } 
		.s16 { fill: #6d66b2 } 
		.s17 { fill: #cacaea } 
		.s18 { fill: #dcdcf4 } 
		.s19 { fill: #9999c1 } 
		.s20 { opacity: .7;mix-blend-mode: multiply;fill: #8b86ba } 
		.s21 { fill: #1192d3 } 
		.s22 { fill: #3ba2e2 } 
		.s23 { fill: #d17d4e } 
		.s24 { fill: #ba5c2d } 
		.s25 { fill: #894629 } 
		.s26 { fill: #f8bc97 } 
		.s27 { fill: #f2ad86 } 
		.s28 { fill: #504d99 } 
		.s29 { fill: #5b5b89 } 
		.s30 { fill: #3c3c60 } 
		.s31 { fill: #7e7eaf } 
		.s32 { fill: #ffffff } 
		.s33 { fill: #c1e5f7 } 
		.s34 { fill: #ffb41f } 
		.s35 { fill: #ef9f78 } 
		.s36 { fill: #f9c9b7 } 
		.s37 { opacity: .6;fill: #1f92cc } 
		.s38 { fill: #1b8fc9 } 
		.s39 { fill: #e5966e } 
	</style>
	<g id="BACKGROUND">
		<g id="&lt;Group&gt;">
			<g id="&lt;Group&gt;">
			</g>
		</g>
	</g>
	<g id="OBJECTS">
		<g id="&lt;Group&gt;">
			<g id="&lt;Group&gt;" style="opacity: .5">
				<g id="&lt;Group&gt;">
					<path id="&lt;Path&gt;" class="s0" d="m251.6 409.3c83.6-1.1 85.3-56.7 158.9-125.9 43.3-40.7 117.7-44.8 172 2 36.4 31.4 70.8 15.3 118.2-5.2 50.2-21.6 137.6-3.5 89.5 137.1-48 140.6 85.1 115.3 107.9 236.2 26.1 137.7-144.5 213-288.7 209.6-144.3-3.5-169.8-70.2-326.6-16.9-95.3 32.4-152-29.1-156.5-108.7-4.5-79.6 45.2-7.4-8.3-144.9-51.2-131.3 5.1-181.6 133.6-183.3z"/>
				</g>
			</g>
			<path id="&lt;Path&gt;" class="s1" d="m143.1 344.2c0 0 10.4-43.3 78.4-76 68-32.7 140.3-20.3 141.1 14.5 0.5 20.5-23.2 72.8-110 97.6-86.8 24.8-120.8 0.9-109.5-36.1z"/>
		</g>
		<g id="&lt;Group&gt;">
			<g id="&lt;Group&gt;">
				<g id="&lt;Group&gt;">
					<path id="&lt;Path&gt;" class="s2" d="m491 497.5c0.1-0.9 13.3-91.3-32.8-159.6-0.4-0.6-0.2-1.4 0.3-1.8 0.6-0.4 1.4-0.2 1.8 0.3 46.7 69.2 33.3 160.6 33.2 161.5-0.1 0.7-0.8 1.2-1.5 1q0 0-0.1 0c-0.6-0.2-1-0.8-0.9-1.4z"/>
				</g>
			</g>
			<g id="&lt;Group&gt;">
				<g id="&lt;Group&gt;">
					<g id="&lt;Group&gt;">
						<path id="&lt;Path&gt;" class="s2" d="m463.3 343.4c0 0-10.8-56.3-24.2-52.8-13.3 3.6 4.7 41.4 24.2 52.8z"/>
					</g>
				</g>
				<g id="&lt;Group&gt;">
					<g id="&lt;Group&gt;">
						<path id="&lt;Path&gt;" class="s2" d="m470.9 357.8c0 0 42.4-43.5 32.2-52.8-10.2-9.4-33.2 30.2-32.2 52.8z"/>
					</g>
				</g>
				<g id="&lt;Group&gt;">
					<g id="&lt;Group&gt;">
						<path id="&lt;Path&gt;" class="s2" d="m482.7 388.7c0 0 42.4-43.5 32.2-52.8-10.2-9.4-33.2 30.2-32.2 52.8z"/>
					</g>
				</g>
				<g id="&lt;Group&gt;">
					<g id="&lt;Group&gt;">
						<path id="&lt;Path&gt;" class="s2" d="m475.3 365c0 0-52.4-18.9-57.2-5.9-4.9 12.9 36.6 15.2 57.2 5.9z"/>
					</g>
				</g>
				<g id="&lt;Group&gt;">
					<g id="&lt;Group&gt;">
						<path id="&lt;Path&gt;" class="s2" d="m490.3 414.7c0 0 54.1-39.6 45.2-50.3-8.8-10.6-43.1 27.9-45.2 50.3z"/>
					</g>
				</g>
				<g id="&lt;Group&gt;">
					<g id="&lt;Group&gt;">
						<path id="&lt;Path&gt;" class="s2" d="m492.8 431.1c0 0-59.1-35.6-68.8-25.7-9.7 9.9 46.3 26 68.8 25.7z"/>
					</g>
				</g>
				<g id="&lt;Group&gt;">
					<g id="&lt;Group&gt;">
						<path id="&lt;Path&gt;" class="s2" d="m487.1 400.6c0 0-59.2-35.6-68.9-25.7-9.6 9.9 46.3 26 68.9 25.7z"/>
					</g>
				</g>
				<g id="&lt;Group&gt;">
					<g id="&lt;Group&gt;">
						<path id="&lt;Path&gt;" class="s2" d="m492.9 457.2c0 0 54.3-28.4 48-40.7-6.4-12.3-41 19.2-48 40.7z"/>
					</g>
				</g>
				<g id="&lt;Group&gt;">
					<g id="&lt;Group&gt;">
						<path id="&lt;Path&gt;" class="s2" d="m493.9 465.1c0 0-41.9-36.1-51.6-26.2-9.7 9.9 29 26.4 51.6 26.2z"/>
					</g>
				</g>
				<g id="&lt;Group&gt;">
					<g id="&lt;Group&gt;">
						<path id="&lt;Path&gt;" class="s2" d="m493.9 501.2c0 0-41.9-36.1-51.6-26.2-9.7 9.9 29 26.4 51.6 26.2z"/>
					</g>
				</g>
			</g>
		</g>
		<g id="&lt;Group&gt;" style="opacity: .7">
			<path id="&lt;Path&gt;" class="s0" d="m940.6 857.9c0 29.7-197.3 53.8-440.6 53.8-243.3 0-440.6-24.1-440.6-53.8 0-29.8 197.3-53.9 440.6-53.9 243.3 0 440.6 24.1 440.6 53.9z"/>
		</g>
		<g id="&lt;Group&gt;">
			<g id="&lt;Group&gt;">
				<g id="&lt;Group&gt;">
				</g>
			</g>
			<g id="&lt;Group&gt;">
				<g id="&lt;Group&gt;">
				</g>
			</g>
		</g>
		<g id="&lt;Group&gt;">
			<g id="&lt;Group&gt;">
				<path id="&lt;Path&gt;" class="s3" d="m726.2 702.8c-13.5-1.4-45-59.8-37.4-93.9 8.4-37.9-18.5-80.7 4.7-114.6 18.4-26.9 39.7-42.2 48-75.7 8.8-35.7 40.8-42.8 64.5-65.4 14.9-14.2 61.9-25.4 59.7 9.1-1 15.1-9.5 29.1-14.4 43.5-7.8 23.4-11 45.2-8.7 68.7 4.1 41.9-30.2 54.3-36.5 89-5.1 28.3-6.9 61.3-22 87.5-12.6 22.1-48.3 52.8-57.9 51.8z"/>
				<g id="&lt;Group&gt;">
					<g id="&lt;Group&gt;">
						<path id="&lt;Path&gt;" class="s4" d="m726 704.1c-0.3-0.1-0.6-0.4-0.7-0.8-15.3-38.5-10.3-83.4 6.4-119.1 9.9-21.2 18.6-43.9 20.8-67.3 1.5-15.8 7-29.8 15.5-42.1 10.4-14.9 21.2-31.6 28.8-49.3 3.6-8.3 7.9-18.1 15.7-29.8 10.9-16.5 23.5-34.3 39.9-45.6 0.5-0.4 1.2-0.3 1.5 0.3 0.2 0.5 0 1.2-0.5 1.5-16.1 11.3-28.5 28.8-39.3 45-7.6 11.6-11.9 21.3-15.4 29.5-7.8 17.9-16.9 34.8-29.2 49.9-8.6 10.7-13.7 27.6-15 40.9-2.2 23.7-11.1 46.9-21.1 68.3-16.3 35.1-21.2 79-6.3 116.8 0.3 0.7 0.1 1.5-0.4 1.8q-0.3 0.1-0.7 0z"/>
					</g>
					<g id="&lt;Group&gt;">
						<path id="&lt;Path&gt;" class="s4" d="m815 393.3q-0.2-0.2-0.3-0.6c-1-16.5-1.2-24.9-0.7-42 0-0.6 0.5-1.2 1.1-1.3 0.5 0 1 0.4 1 1.1-0.5 17-0.3 25.4 0.7 41.8 0.1 0.6-0.4 1.2-0.9 1.3-0.4 0.1-0.7 0-0.9-0.3z"/>
					</g>
					<g id="&lt;Group&gt;">
						<path id="&lt;Path&gt;" class="s4" d="m786.2 449.9q-0.3-0.2-0.3-0.6c-3.3-23.3-5.3-46.2-6.1-69.7 0-0.7 0.5-1.3 1.1-1.4 0.5-0.1 1 0.3 1 1 0.8 23.4 2.8 46.3 6 69.5 0.1 0.6-0.3 1.3-0.8 1.4-0.4 0.1-0.7 0-0.9-0.2z"/>
					</g>
					<g id="&lt;Group&gt;">
						<path id="&lt;Path&gt;" class="s4" d="m755.2 504.5q-0.3-0.2-0.4-0.6c-1.1-3.4-5.8-19.4-9.5-35.4-3.1-13.5-5.5-27.8-5.7-28.7-0.2-0.6 0.1-1.4 0.7-1.7 0.5-0.2 1.1 0.1 1.3 0.7 0.1 0.6 1.3 9.5 5.7 28.9 3.5 15.2 8.3 31.8 9.4 35.2 0.2 0.7 0 1.4-0.6 1.7-0.3 0.1-0.6 0.1-0.9-0.1z"/>
					</g>
					<g id="&lt;Group&gt;">
						<path id="&lt;Path&gt;" class="s4" d="m734 582.3c-0.2 0-0.3-0.2-0.4-0.4-14.5-28.3-21.3-64.9-26.6-98.1-0.1-0.7 0.3-1.5 0.8-1.7 0.6-0.2 1.1 0.2 1.2 0.9 5.3 32.9 12 69.2 26.2 97.4 0.3 0.6 0.3 1.4-0.2 1.8-0.3 0.3-0.7 0.3-1 0.1z"/>
					</g>
					<g id="&lt;Group&gt;">
						<path id="&lt;Path&gt;" class="s4" d="m717.4 641.3q-0.3-0.1-0.6-0.6c-8.5-17.1-16.2-34.8-23-52.7-0.3-0.7-0.1-1.6 0.4-1.9 0.5-0.3 1.1 0 1.4 0.6 6.8 18 14.4 35.6 22.9 52.7 0.4 0.6 0.2 1.5-0.2 1.8-0.3 0.2-0.6 0.3-0.9 0.1z"/>
					</g>
					<g id="&lt;Group&gt;">
						<path id="&lt;Path&gt;" class="s4" d="m717.5 664.1q-0.4-0.1-0.6-0.6c-0.3-0.7-0.2-1.5 0.3-1.8 22.8-15.9 46.1-30.5 70.3-44.1 0.5-0.3 1.2 0 1.4 0.5 0.3 0.6 0.1 1.3-0.4 1.6-24.2 13.7-47.4 28.4-70.2 44.3-0.3 0.2-0.5 0.2-0.8 0.1z"/>
					</g>
					<g id="&lt;Group&gt;">
						<path id="&lt;Path&gt;" class="s4" d="m728.4 594.2q-0.3-0.2-0.5-0.6c-0.3-0.6-0.1-1.4 0.4-1.7 23.2-14.7 46.7-28 71.3-40.1 0.6-0.3 1.2 0 1.4 0.5 0.2 0.6 0 1.3-0.6 1.5-24.5 12.3-48 25.6-71.1 40.4-0.3 0.2-0.6 0.1-0.9 0z"/>
					</g>
					<g id="&lt;Group&gt;">
						<path id="&lt;Path&gt;" class="s4" d="m753.3 515.6q-0.4-0.2-0.5-0.7c-0.1-0.7 0.2-1.4 0.8-1.6 26.8-8.5 53.7-15.7 81.3-21.6 0.5-0.1 1.1 0.3 1.2 0.8 0.1 0.6-0.3 1.2-0.8 1.3-27.6 6-54.4 13.3-81.2 21.9-0.3 0.1-0.6 0.1-0.8-0.1z"/>
					</g>
					<g id="&lt;Group&gt;">
						<path id="&lt;Path&gt;" class="s4" d="m781.1 458.4q-0.3-0.2-0.4-0.6c-0.1-0.6 0.3-1.3 0.8-1.5 15.8-4.7 31.5-8.9 47.5-12.8 0.6-0.1 1.1 0.3 1.2 0.9 0.1 0.6-0.2 1.1-0.8 1.3-16 3.9-31.7 8.1-47.4 12.9-0.4 0.1-0.7 0-0.9-0.2z"/>
					</g>
					<g id="&lt;Group&gt;">
						<path id="&lt;Path&gt;" class="s4" d="m810.2 400.9q-0.2-0.4-0.2-0.8c0-0.7 0.5-1.2 1.1-1.3 14.5-0.8 21.7-1.1 36.1-1.2 0.6 0 1 0.4 1 1 0 0.7-0.5 1.1-1.1 1.2-14.4 0.1-21.6 0.4-36.1 1.4-0.3 0-0.6-0.1-0.8-0.3z"/>
					</g>
				</g>
			</g>
		</g>
		<g id="&lt;Group&gt;">
			<g id="&lt;Group&gt;">
				<path id="&lt;Path&gt;" class="s4" d="m453.1 672.2c-9.9-3.2-24.1-51.7-13.2-75.9 12.3-26.9-1.1-63 21.6-84.7 17.8-17.2 36.1-25.2 47.6-48.9 12.1-25.2 37.1-25.5 58.3-38.6 13.4-8.2 50.1-9.2 43.1 16.2-3.1 11-11.7 20.1-17.5 30.1-9.5 16.2-15.3 32-17.3 49.9-3.6 31.9-31.1 35.7-41.2 60.6-8.2 20.3-14.8 44.6-30.1 61.8-12.9 14.5-44.4 31.7-51.3 29.5z"/>
				<g id="&lt;Group&gt;">
					<g id="&lt;Group&gt;">
						<path id="&lt;Path&gt;" class="s3" d="m452.8 673.1c-0.3-0.1-0.4-0.4-0.5-0.7-5.3-31.1 5.4-63.8 23.5-87.8 10.7-14.2 20.7-29.8 26-46.9 3.6-11.5 10-21.1 18.3-28.9 10-9.5 20.7-20.3 29.1-32.3 4-5.6 8.7-12.2 16.4-19.7 10.7-10.6 22.9-21.9 36.9-27.8 0.5-0.1 0.9 0.1 1 0.5 0.2 0.4-0.1 0.9-0.5 1.1-13.8 5.8-25.8 17-36.4 27.4-7.5 7.4-12.2 14-16.1 19.5-8.6 12.1-18 23.3-29.6 32.7-8.1 6.6-14.6 18.3-17.6 28.1-5.4 17.3-15.6 33.2-26.4 47.6-17.7 23.6-28.2 55.6-23.1 86.1 0.1 0.5-0.1 1.1-0.5 1.2q-0.3 0.1-0.5-0.1z"/>
					</g>
					<g id="&lt;Group&gt;">
						<path id="&lt;Path&gt;" class="s3" d="m567.8 455.4q-0.1-0.2-0.1-0.5c1.9-12.5 3-18.7 6-31.4 0.2-0.5 0.6-0.8 1.1-0.8 0.4 0 0.7 0.5 0.6 1-3 12.6-4.2 18.8-6 31.2-0.1 0.5-0.5 0.9-1 0.9-0.2 0-0.5-0.2-0.6-0.4z"/>
					</g>
					<g id="&lt;Group&gt;">
						<path id="&lt;Path&gt;" class="s3" d="m537.5 493.1q-0.2-0.2-0.2-0.5c1.3-17.9 3.4-35.3 6.5-52.9 0.1-0.5 0.5-0.9 1-0.9 0.4 0 0.7 0.4 0.6 0.9-3.1 17.6-5.2 34.9-6.5 52.7 0 0.5-0.4 0.9-0.8 1-0.3 0-0.5-0.1-0.6-0.3z"/>
					</g>
					<g id="&lt;Group&gt;">
						<path id="&lt;Path&gt;" class="s3" d="m505.8 528.9q-0.1-0.2-0.2-0.5c-0.3-2.7-1.3-15.4-1.5-27.9-0.2-10.5 0.2-21.6 0.2-22.2 0-0.6 0.3-1.1 0.8-1.2 0.4-0.1 0.8 0.2 0.9 0.7 0 0.5-0.5 7.3-0.3 22.4 0.2 11.9 1.2 25.1 1.5 27.8 0.1 0.5-0.2 1-0.7 1.1-0.3 0.1-0.5 0-0.7-0.2z"/>
					</g>
					<g id="&lt;Group&gt;">
						<path id="&lt;Path&gt;" class="s3" d="m477.8 583.6q-0.2-0.1-0.3-0.4c-6.3-23.4-5.6-51.7-4.3-77.3 0-0.5 0.4-1 0.8-1.1 0.5-0.1 0.8 0.3 0.8 0.9-1.3 25.3-2 53.4 4.2 76.7 0.1 0.4 0 1-0.4 1.3-0.3 0.1-0.6 0.1-0.8-0.1z"/>
					</g>
					<g id="&lt;Group&gt;">
						<path id="&lt;Path&gt;" class="s3" d="m456.2 625q-0.3-0.2-0.4-0.6c-3.7-14.1-6.6-28.5-8.9-42.9 0-0.6 0.2-1.2 0.7-1.3 0.4-0.2 0.8 0.1 0.9 0.7 2.2 14.4 5.2 28.7 8.8 42.8 0.2 0.5-0.1 1.1-0.5 1.3-0.2 0.1-0.4 0.1-0.6 0z"/>
					</g>
					<g id="&lt;Group&gt;">
						<path id="&lt;Path&gt;" class="s3" d="m452.7 642q-0.3-0.2-0.4-0.6c-0.1-0.5 0.1-1.1 0.5-1.3 19.5-8.2 39.2-15.5 59.4-21.8 0.4-0.1 0.8 0.1 0.9 0.6 0.1 0.5-0.1 1-0.6 1.1-20.1 6.4-39.7 13.7-59.2 22q-0.4 0.2-0.6 0z"/>
					</g>
					<g id="&lt;Group&gt;">
						<path id="&lt;Path&gt;" class="s3" d="m471.8 591.6q-0.2-0.2-0.3-0.6c-0.1-0.5 0.2-1 0.6-1.2 19.6-7.3 39.2-13.5 59.4-18.7 0.5-0.1 0.9 0.2 0.9 0.6 0.1 0.5-0.2 1-0.6 1.1-20.2 5.2-39.8 11.5-59.4 18.9-0.2 0.1-0.4 0-0.6-0.1z"/>
					</g>
					<g id="&lt;Group&gt;">
						<path id="&lt;Path&gt;" class="s3" d="m502.6 536.9q-0.2-0.3-0.2-0.6c0-0.5 0.4-1 0.8-1.1 21.4-2.1 42.6-3.2 64-3.3 0.5 0 0.8 0.3 0.8 0.8 0 0.4-0.4 0.8-0.8 0.8-21.5 0.2-42.6 1.4-64 3.6q-0.3 0-0.6-0.2z"/>
					</g>
					<g id="&lt;Group&gt;">
						<path id="&lt;Path&gt;" class="s3" d="m532.3 498.6q-0.1-0.2-0.1-0.5c0-0.5 0.4-0.9 0.8-1 12.5-1 24.9-1.7 37.4-2.1 0.5 0 0.8 0.4 0.8 0.9 0 0.4-0.4 0.8-0.9 0.8-12.5 0.4-24.8 1.1-37.3 2.2-0.3 0-0.5-0.1-0.7-0.3z"/>
					</g>
					<g id="&lt;Group&gt;">
						<path id="&lt;Path&gt;" class="s3" d="m563.1 460.3q-0.2-0.3-0.1-0.6c0.1-0.5 0.6-0.8 1-0.8 11 1.6 16.4 2.6 27.2 4.7 0.4 0.1 0.7 0.6 0.5 1-0.1 0.4-0.5 0.7-0.9 0.7-10.8-2.2-16.2-3.1-27.2-4.7q-0.3 0-0.5-0.3z"/>
					</g>
				</g>
			</g>
		</g>
		<g id="&lt;Group&gt;">
			<g id="&lt;Group&gt;">
				<path id="&lt;Path&gt;" class="s3" d="m204.7 797.1c-17.5-11.5-29-31.4-41-47.3-14.8-19.5-39.9-16.4-50.5-43.7-6-15.2-14.8-27.7-27-39.8-7.5-7.4-17.2-13.4-22.5-22.4-12.2-20.7 20.4-28.4 34.1-24.3 21.8 6.5 43.8 0.9 60.4 20.2 15.7 18.2 33.7 20.9 53.5 31.8 25 13.8 21.7 48.7 38.8 69.6 15.4 18.7 14.3 64.7 6.3 69.8-5.6 3.6-37.3-4.2-52.1-13.9z"/>
				<g id="&lt;Group&gt;">
					<g id="&lt;Group&gt;">
						<path id="&lt;Path&gt;" class="s4" d="m256.9 812c-0.4-0.1-0.8-0.5-0.8-1-2.6-28.1-19.4-53.7-40.5-70.3-12.9-10.2-25.7-21.7-34.5-35.7-5-7.9-13.5-16.7-22.1-20.6-12.4-5.6-23.3-13.2-33.7-21.8-4.8-4-10.4-8.7-18.8-13.4-11.8-6.7-25-13.7-38.5-15.6-0.4 0-0.7-0.4-0.7-0.8 0-0.4 0.4-0.7 0.8-0.6 13.7 1.8 27.1 8.9 39 15.7 8.5 4.8 14.3 9.5 19.1 13.5 10.2 8.6 22.2 15.6 33.2 21.5 9.1 5 17 11.9 22.9 21.2 8.7 13.9 21.2 25.2 33.9 35.2 21.6 16.9 38.7 43.1 41.3 71.8 0.1 0.3 0 0.5-0.2 0.7q-0.2 0.2-0.4 0.2z"/>
					</g>
					<g id="&lt;Group&gt;">
						<path id="&lt;Path&gt;" class="s4" d="m104.4 647.7c-0.4 0.1-0.9-0.1-1-0.5-4.6-10.5-7.1-15.8-12.7-26.2-0.2-0.4-0.1-0.8 0.3-0.9 0.4-0.2 0.9 0 1.1 0.4 5.6 10.4 8.2 15.7 12.7 26.2q0.1 0.3 0 0.5c0 0.2-0.2 0.4-0.4 0.5z"/>
					</g>
					<g id="&lt;Group&gt;">
						<path id="&lt;Path&gt;" class="s4" d="m139.9 673.6c-0.4 0.1-0.8-0.2-1-0.6-5.2-15.4-11.2-30.1-18-44.9-0.2-0.4-0.1-0.9 0.3-1 0.4-0.1 0.9 0.2 1.1 0.6 6.8 14.8 12.8 29.6 18.1 45q0.1 0.3 0 0.5c-0.1 0.2-0.3 0.4-0.5 0.4z"/>
					</g>
					<g id="&lt;Group&gt;">
						<path id="&lt;Path&gt;" class="s4" d="m176.1 697.7c-0.4-0.1-0.8-0.4-0.9-0.9-0.3-2.4-2.5-14.3-5.2-24.8-3.3-13.3-5.4-19.2-5.5-19.6-0.1-0.5 0.2-0.8 0.6-0.8 0.5 0 0.9 0.3 1 0.8 0.1 0.5 3.1 10.2 5.4 19.5 2.8 11.1 4.9 22.5 5.2 24.9q0.1 0.3 0 0.5c-0.1 0.2-0.3 0.4-0.6 0.4z"/>
					</g>
					<g id="&lt;Group&gt;">
						<path id="&lt;Path&gt;" class="s4" d="m213.6 739.1c-0.5-0.1-0.7-0.6-0.7-1-0.1-22-7.3-46.5-14.4-68.5-0.1-0.5 0.1-0.9 0.5-1 0.4 0 0.9 0.3 1 0.8 7.2 22.2 14.4 47 14.4 69.1q-0.1 0.2-0.2 0.4c-0.1 0.2-0.4 0.3-0.6 0.2z"/>
					</g>
					<g id="&lt;Group&gt;">
						<path id="&lt;Path&gt;" class="s4" d="m242.4 770.4c-0.4-0.1-0.7-0.5-0.7-1-0.1-13.3-0.9-26.6-2.3-39.8-0.1-0.5 0.2-0.9 0.6-0.9 0.4 0.1 0.8 0.5 0.9 1 1.4 13.3 2.2 26.6 2.2 40q0 0.3-0.1 0.5c-0.1 0.2-0.4 0.3-0.6 0.2z"/>
					</g>
					<g id="&lt;Group&gt;">
						<path id="&lt;Path&gt;" class="s4" d="m249.5 784.5c-19.1-2.7-38-4.5-57.3-5.4-0.4 0-0.7-0.4-0.8-0.8 0-0.5 0.3-0.8 0.7-0.8 19.3 0.8 38.3 2.6 57.4 5.2 0.4 0.1 0.7 0.5 0.8 1q0 0.4-0.2 0.6-0.2 0.3-0.6 0.2z"/>
					</g>
					<g id="&lt;Group&gt;">
						<path id="&lt;Path&gt;" class="s4" d="m220.8 744.7c-18.9-1.9-37.6-2.8-56.7-2.7-0.4 0-0.7-0.3-0.8-0.7 0-0.4 0.3-0.8 0.7-0.8 19-0.2 37.8 0.7 56.7 2.5 0.4 0 0.8 0.5 0.8 0.9q0 0.4-0.1 0.6c-0.1 0.1-0.3 0.3-0.6 0.2z"/>
					</g>
					<g id="&lt;Group&gt;">
						<path id="&lt;Path&gt;" class="s4" d="m180.9 703.9c-19.3 3.1-38.2 7-57.1 11.9-0.4 0.1-0.8-0.2-0.9-0.5-0.2-0.4 0.1-0.8 0.4-0.9 19-5 37.9-9 57.2-12.1 0.4-0.1 0.8 0.2 0.9 0.7q0.1 0.3 0 0.6-0.2 0.3-0.5 0.3z"/>
					</g>
					<g id="&lt;Group&gt;">
						<path id="&lt;Path&gt;" class="s4" d="m145.7 677.3c-11.2 2-22.2 4.2-33.4 6.8-0.4 0.1-0.8-0.1-0.9-0.5-0.1-0.4 0.1-0.8 0.5-0.9 11.1-2.6 22.1-4.9 33.4-7 0.4 0 0.8 0.3 0.9 0.7q0.1 0.3 0 0.5c0 0.2-0.2 0.4-0.5 0.4z"/>
					</g>
					<g id="&lt;Group&gt;">
						<path id="&lt;Path&gt;" class="s4" d="m109.8 650.8c-9.3 4-13.9 6.1-22.9 10.5-0.3 0.1-0.8 0-1-0.4-0.2-0.3-0.1-0.8 0.3-1 9-4.4 13.5-6.5 22.8-10.5 0.4-0.2 0.8 0 1 0.4q0.2 0.3 0.1 0.6 0 0.3-0.3 0.4z"/>
					</g>
				</g>
			</g>
		</g>
		<g id="&lt;Group&gt;">
			<g id="&lt;Group&gt;">
				<g id="&lt;Group&gt;">
					<path id="&lt;Path&gt;" class="s4" d="m663.2 549.7q-0.1 0.1-0.1 0.1c-0.8 0.1-1.5-0.4-1.6-1.2-0.1-0.9-14.4-98.4 35.4-172.2 0.4-0.7 1.3-0.8 1.9-0.4 0.6 0.4 0.8 1.3 0.4 1.9-49.2 72.9-35.2 169.4-35 170.3 0.1 0.7-0.3 1.3-1 1.5z"/>
				</g>
			</g>
			<g id="&lt;Group&gt;">
				<g id="&lt;Group&gt;">
					<g id="&lt;Group&gt;">
						<path id="&lt;Path&gt;" class="s4" d="m693.8 383.8c0 0 11.4-60.1 25.7-56.3 14.3 3.8-4.9 44.2-25.7 56.3z"/>
					</g>
				</g>
				<g id="&lt;Group&gt;">
					<g id="&lt;Group&gt;">
						<path id="&lt;Path&gt;" class="s4" d="m685.7 399.1c0 0-45.3-46.3-34.4-56.3 10.8-10 35.4 32.3 34.4 56.3z"/>
					</g>
				</g>
				<g id="&lt;Group&gt;">
					<g id="&lt;Group&gt;">
						<path id="&lt;Path&gt;" class="s4" d="m676.7 420.9c0 0 55.8-20.2 61-6.3 5.2 13.8-39.1 16.2-61 6.3z"/>
					</g>
				</g>
				<g id="&lt;Group&gt;">
					<g id="&lt;Group&gt;">
						<path id="&lt;Path&gt;" class="s4" d="m664.9 459.9c0 0-57.7-42.3-48.2-53.7 9.4-11.3 46 29.8 48.2 53.7z"/>
					</g>
				</g>
				<g id="&lt;Group&gt;">
					<g id="&lt;Group&gt;">
						<path id="&lt;Path&gt;" class="s4" d="m662.2 477.4c0 0 63.2-38 73.5-27.4 10.3 10.5-49.4 27.7-73.5 27.4z"/>
					</g>
				</g>
				<g id="&lt;Group&gt;">
					<g id="&lt;Group&gt;">
						<path id="&lt;Path&gt;" class="s4" d="m660.6 530.3c0 0-59.7-26.7-53.7-40.3 5.9-13.5 44.9 17.8 53.7 40.3z"/>
					</g>
				</g>
				<g id="&lt;Group&gt;">
					<g id="&lt;Group&gt;">
						<path id="&lt;Path&gt;" class="s4" d="m661.1 523.1c0 0 44.7-38.5 55-28 10.4 10.6-30.9 28.2-55 28z"/>
					</g>
				</g>
			</g>
		</g>
		<g id="&lt;Group&gt;">
			<g id="&lt;Group&gt;">
				<g id="&lt;Group&gt;">
					<path id="&lt;Path&gt;" class="s5" d="m223 687.2c-0.4-0.6-41.3-54.9-101.5-66.3-0.5-0.1-0.9-0.6-0.8-1.1 0.1-0.5 0.6-0.8 1.1-0.7 61 11.5 102.3 66.4 102.7 66.9 0.3 0.4 0.2 1-0.2 1.4q0 0-0.1 0c-0.4 0.2-0.9 0.1-1.2-0.2z"/>
				</g>
			</g>
			<g id="&lt;Group&gt;">
				<g id="&lt;Group&gt;">
					<g id="&lt;Group&gt;">
						<path id="&lt;Path&gt;" class="s5" d="m127 621.1c0 0-35.3-23.7-40.5-14.8-5.1 8.9 24.3 19.2 40.5 14.8z"/>
					</g>
				</g>
				<g id="&lt;Group&gt;">
					<g id="&lt;Group&gt;">
						<path id="&lt;Path&gt;" class="s5" d="m138.6 624.7c0 0-0.7-45.2-11-44.7-10.3 0.5-1.4 33.4 11 44.7z"/>
					</g>
				</g>
				<g id="&lt;Group&gt;">
					<g id="&lt;Group&gt;">
						<path id="&lt;Path&gt;" class="s5" d="m153.8 630.9c0 0-37.4 17.8-33.1 27.1 4.3 9.4 27.3-11.4 33.1-27.1z"/>
					</g>
				</g>
				<g id="&lt;Group&gt;">
					<g id="&lt;Group&gt;">
						<path id="&lt;Path&gt;" class="s5" d="m178.9 644.2c0 0 7.3-49.3-2.9-50.2-10.3-0.9-7.9 37.3 2.9 50.2z"/>
					</g>
				</g>
				<g id="&lt;Group&gt;">
					<g id="&lt;Group&gt;">
						<path id="&lt;Path&gt;" class="s5" d="m188.9 651.5c0 0-49.8 12.6-49.6 22.9 0.1 10.3 37.9-10.9 49.6-22.9z"/>
					</g>
				</g>
				<g id="&lt;Group&gt;">
					<g id="&lt;Group&gt;">
						<path id="&lt;Path&gt;" class="s5" d="m215.9 676.6c0 0 16-42.7 6.4-46.4-9.6-3.7-13.2 31-6.4 46.4z"/>
					</g>
				</g>
				<g id="&lt;Group&gt;">
					<g id="&lt;Group&gt;">
						<path id="&lt;Path&gt;" class="s5" d="m212 673.3c0 0-41 3.2-40.8 13.5 0.2 10.3 29.2-1.5 40.8-13.5z"/>
					</g>
				</g>
			</g>
		</g>
		<g id="&lt;Group&gt;">
			<path id="&lt;Path&gt;" class="s4" d="m733.5 729.6c0 0 5.1-103.7 96.9-140.7 91.8-37.1 137 12.3 89.3 42.8-47.7 30.5-118.8 63.1-142.1 95.5-23.4 32.4-44.1 2.4-44.1 2.4z"/>
			<path id="&lt;Path&gt;" class="s3" d="m744 739.1c0 0 32.9-124.3 184-134.6-21.7-3.9-150.5-1.8-184 134.6z"/>
		</g>
		<g id="&lt;Group&gt;">
			<path id="&lt;Path&gt;" class="s4" d="m277.1 856.8c-32.6-20.7-108.2-24.3-162.1-34.5-53.8-10.2-31.1-70.8 64.7-70.6 95.8 0.1 137.8 91.3 137.8 91.3 0 0-7.7 34.5-40.4 13.8z"/>
			<path id="&lt;Path&gt;" class="s3" d="m311.6 855.4c0 0-74.5-99.7-213.8-54.5 18.1-11.3 134.4-55.9 213.8 54.5z"/>
		</g>
		<g id="&lt;Group&gt;">
			<g id="&lt;Group&gt;">
				<g id="&lt;Group&gt;">
					<path id="&lt;Path&gt;" class="s5" d="m751.9 642c0 0 23-101.7 106.8-121.8-55.8 20.9-88.5 65.1-105 122.9-1.9-1.3-1.8-1.1-1.8-1.1z"/>
				</g>
				<path id="&lt;Path&gt;" class="s5" d="m832.4 532.2c0 0 4.6-33.7 50.4-18-27.2 29.4-50.4 18-50.4 18z"/>
				<path id="&lt;Path&gt;" class="s5" d="m808.2 550c0 0 19.8-27.6 52.9 7.8-37.9 13.1-52.9-7.8-52.9-7.8z"/>
				<path id="&lt;Path&gt;" class="s5" d="m809 546.5c0 0 28.6-18.2-4.8-53.3-15.3 37.1 4.8 53.3 4.8 53.3z"/>
				<path id="&lt;Path&gt;" class="s5" d="m782.4 578.6c0 0 16.5-29.7 53.5 1.6-36.1 17.5-53.5-1.6-53.5-1.6z"/>
				<path id="&lt;Path&gt;" class="s5" d="m782.6 575.5c0 0 26.3-21.5-11-52.4-10.8 38.6 11 52.4 11 52.4z"/>
				<path id="&lt;Path&gt;" class="s5" d="m764 612.4c0 0 16.5-29.7 53.4 1.6-36 17.4-53.4-1.6-53.4-1.6z"/>
				<path id="&lt;Path&gt;" class="s5" d="m764 608.1c0 0 26.3-21.5-11-52.4-10.9 38.6 11 52.4 11 52.4z"/>
			</g>
		</g>
		<g id="&lt;Group&gt;">
			<g id="&lt;Group&gt;">
				<path id="&lt;Path&gt;" class="s2" d="m739 810c-6.7-5.8-3.8-45.3 11.7-58.4 17.2-14.6 17.3-45 41.1-52.1 18.8-5.7 35.3-4.7 51-17.3 16.7-13.4 36.1-4.6 56.3-6.1 12.8-1 41.6 11.6 28.8 27-5.5 6.7-14.8 10-22.2 15-12.1 8-21.1 17-27.8 29-11.9 21.2-34.4 13.9-49.4 27.9-12.2 11.3-24.3 26.1-41.1 32.7-14.2 5.6-43.6 6.4-48.4 2.3z"/>
				<g id="&lt;Group&gt;">
					<g id="&lt;Group&gt;">
						<path id="&lt;Path&gt;" class="s6" d="m738.5 810.5c-0.1-0.1-0.2-0.4-0.1-0.6 4.8-23.9 22.5-43.1 43.5-53.6 12.4-6.2 24.6-13.5 33.7-23.7 6.1-6.9 13.8-11.3 22.4-13.9 10.6-3 21.9-6.8 32-12.2 4.6-2.5 10.2-5.5 18.3-8 11.4-3.6 24.1-7.1 36.7-6.2 0.4 0 0.7 0.3 0.6 0.7 0 0.3-0.3 0.6-0.7 0.6-12.4-0.9-24.9 2.6-36.1 6.1-8 2.5-13.5 5.5-18.2 8-10.1 5.4-20.6 9.9-32.3 12.4-8.2 1.7-16.6 7.6-21.7 13.4-9.2 10.3-21.7 17.8-34.3 24.1-20.5 10.3-37.8 29.1-42.6 52.5-0.1 0.4-0.4 0.7-0.8 0.7q-0.2-0.1-0.4-0.3z"/>
					</g>
					<g id="&lt;Group&gt;">
						<path id="&lt;Path&gt;" class="s6" d="m890.5 698.3q-0.1-0.2 0.1-0.3c4.9-8.2 7.7-12.2 13.6-20.1 0.3-0.3 0.7-0.4 1.1-0.2 0.3 0.2 0.4 0.6 0.2 0.9-6 7.8-8.7 11.9-13.7 20-0.2 0.3-0.6 0.4-1 0.2-0.2-0.1-0.3-0.3-0.3-0.5z"/>
					</g>
					<g id="&lt;Group&gt;">
						<path id="&lt;Path&gt;" class="s6" d="m856.1 714q-0.1-0.2 0-0.5c6.1-12.1 12.8-23.7 20.2-35 0.2-0.3 0.7-0.5 1.1-0.3 0.3 0.2 0.4 0.6 0.2 0.9-7.5 11.3-14.1 22.8-20.2 35-0.2 0.3-0.6 0.4-0.9 0.3-0.2-0.1-0.4-0.2-0.4-0.4z"/>
					</g>
					<g id="&lt;Group&gt;">
						<path id="&lt;Path&gt;" class="s6" d="m821.2 727.8q-0.1-0.2 0-0.4c0.5-2 3.4-11.4 6.8-20.3 2.9-7.5 6.4-15.2 6.6-15.6 0.1-0.4 0.6-0.7 0.9-0.6 0.4 0.1 0.6 0.5 0.5 0.8-0.1 0.4-2.5 5-6.6 15.8-3.3 8.5-6.3 18.1-6.9 20.2-0.1 0.3-0.4 0.6-0.8 0.5-0.3 0-0.4-0.2-0.5-0.4z"/>
					</g>
					<g id="&lt;Group&gt;">
						<path id="&lt;Path&gt;" class="s6" d="m783.7 756.3q-0.1-0.1-0.1-0.3c1.8-18.9 10.5-38.7 18.9-56.3 0.1-0.4 0.6-0.6 1-0.5 0.3 0.1 0.5 0.5 0.3 0.9-8.3 17.5-16.9 37.1-18.8 55.8 0 0.4-0.3 0.7-0.7 0.8-0.3 0-0.5-0.2-0.6-0.4z"/>
					</g>
					<g id="&lt;Group&gt;">
						<path id="&lt;Path&gt;" class="s6" d="m755 777.7q-0.1-0.2-0.1-0.5 1.8-17 5.5-33.6c0.1-0.4 0.5-0.7 0.8-0.7 0.4 0.1 0.7 0.4 0.6 0.9q-3.7 16.5-5.5 33.5c0 0.4-0.4 0.7-0.8 0.7q-0.3 0-0.5-0.3z"/>
					</g>
					<g id="&lt;Group&gt;">
						<path id="&lt;Path&gt;" class="s6" d="m747.4 788.5q-0.1-0.2-0.1-0.6c0.1-0.4 0.4-0.7 0.8-0.7 17.5 1.3 34.8 3.3 52.3 6.1 0.4 0.1 0.6 0.4 0.6 0.8-0.1 0.4-0.4 0.6-0.8 0.6-17.5-2.8-34.8-4.7-52.3-5.9q-0.3-0.1-0.5-0.3z"/>
					</g>
					<g id="&lt;Group&gt;">
						<path id="&lt;Path&gt;" class="s6" d="m776.8 759.8q-0.2-0.2-0.1-0.5c0.1-0.4 0.4-0.7 0.8-0.7 17.3 2 34.3 4.7 51.5 8.4 0.4 0.1 0.6 0.4 0.5 0.8 0 0.3-0.4 0.5-0.8 0.5-17.2-3.7-34.2-6.3-51.5-8.2q-0.3 0-0.4-0.3z"/>
					</g>
					<g id="&lt;Group&gt;">
						<path id="&lt;Path&gt;" class="s6" d="m816.4 732.3q-0.1-0.2 0-0.5c0.2-0.4 0.6-0.6 1-0.4 17.2 6.2 33.9 13.1 50.6 20.8 0.3 0.2 0.5 0.5 0.4 0.8-0.2 0.3-0.6 0.5-0.9 0.3-16.7-7.7-33.5-14.5-50.7-20.6q-0.3-0.1-0.4-0.4z"/>
					</g>
					<g id="&lt;Group&gt;">
						<path id="&lt;Path&gt;" class="s6" d="m850.5 716q-0.1-0.2 0-0.4c0.2-0.4 0.6-0.5 0.9-0.4 10.1 3.8 19.8 7.8 29.7 12.1 0.3 0.2 0.5 0.5 0.3 0.9-0.1 0.3-0.5 0.4-0.9 0.3-9.8-4.3-19.6-8.3-29.6-12.1-0.2 0-0.4-0.2-0.4-0.4z"/>
					</g>
					<g id="&lt;Group&gt;">
						<path id="&lt;Path&gt;" class="s6" d="m885.4 700.1q0-0.3 0.1-0.5c0.2-0.3 0.7-0.4 1-0.2 8.1 5.2 12 7.8 19.7 13.2 0.3 0.2 0.4 0.6 0.2 0.9-0.2 0.3-0.6 0.3-1 0.1-7.7-5.4-11.7-8-19.7-13.1q-0.3-0.2-0.3-0.4z"/>
					</g>
				</g>
			</g>
		</g>
		<g id="&lt;Group&gt;">
			<g id="&lt;Group&gt;">
				<path id="&lt;Path&gt;" class="s2" d="m243.2 644c-16.8-6.6-28.9-21.5-41.1-32.8-15-13.9-37.5-6.7-49.4-27.9-6.7-12-15.7-21-27.7-29-7.5-4.9-16.7-8.2-22.3-15-12.8-15.4 16-28 28.8-27 20.2 1.5 39.7-7.3 56.3 6.1 15.7 12.6 32.2 11.6 51.1 17.3 23.8 7.1 23.8 37.5 41 52.1 15.5 13.1 18.4 52.6 11.7 58.4-4.8 4.1-34.2 3.3-48.4-2.2z"/>
				<g id="&lt;Group&gt;">
					<g id="&lt;Group&gt;">
						<path id="&lt;Path&gt;" class="s6" d="m291.7 647c-0.4 0.1-0.7-0.3-0.8-0.7-4.8-23.4-22.1-42.2-42.6-52.5-12.6-6.2-25.1-13.8-34.3-24.1-5.1-5.8-13.5-11.7-21.7-13.4-11.6-2.5-22.2-6.9-32.3-12.4-4.7-2.5-10.2-5.5-18.2-8-11.2-3.5-23.7-7-36.1-6.1-0.3 0-0.7-0.2-0.7-0.6-0.1-0.4 0.2-0.7 0.6-0.7 12.6-0.9 25.3 2.7 36.7 6.2 8.1 2.6 13.7 5.5 18.4 8.1 10 5.4 21.4 9.1 31.9 12.2 8.6 2.5 16.3 6.9 22.4 13.8 9.1 10.2 21.3 17.5 33.7 23.7 21 10.5 38.7 29.7 43.5 53.6 0.1 0.2 0 0.5-0.1 0.7q-0.2 0.1-0.4 0.2z"/>
					</g>
					<g id="&lt;Group&gt;">
						<path id="&lt;Path&gt;" class="s6" d="m139.8 535c-0.4 0.2-0.8 0.1-1-0.2-5-8.1-7.7-12.1-13.6-20-0.3-0.3-0.2-0.7 0.2-0.8 0.3-0.2 0.7-0.2 1 0.1 5.9 7.9 8.7 11.9 13.7 20.1q0.1 0.2 0 0.4c0 0.2-0.1 0.3-0.3 0.4z"/>
					</g>
					<g id="&lt;Group&gt;">
						<path id="&lt;Path&gt;" class="s6" d="m174.1 550.6c-0.3 0.2-0.7 0-0.9-0.3-6.1-12.2-12.7-23.7-20.2-35-0.2-0.3-0.1-0.7 0.3-0.9 0.3-0.2 0.8 0 1 0.3 7.4 11.3 14.1 22.9 20.2 35.1q0.1 0.2 0 0.4c0 0.2-0.2 0.3-0.4 0.4z"/>
					</g>
					<g id="&lt;Group&gt;">
						<path id="&lt;Path&gt;" class="s6" d="m208.9 564.4c-0.3 0.1-0.7-0.1-0.8-0.5-0.6-2.1-3.6-11.7-6.9-20.2-4.1-10.8-6.5-15.4-6.6-15.8-0.1-0.3 0.1-0.7 0.5-0.8 0.3 0 0.8 0.2 0.9 0.6 0.2 0.4 3.7 8.1 6.6 15.7 3.4 8.9 6.3 18.2 6.8 20.2q0.1 0.2 0 0.4c-0.1 0.2-0.2 0.4-0.5 0.4z"/>
					</g>
					<g id="&lt;Group&gt;">
						<path id="&lt;Path&gt;" class="s6" d="m246.3 592.9c-0.4 0-0.7-0.4-0.7-0.8-1.9-18.7-10.5-38.3-18.8-55.8-0.2-0.3 0-0.7 0.4-0.9 0.3-0.1 0.8 0.1 0.9 0.5 8.4 17.6 17.1 37.4 18.9 56.3q0 0.2-0.1 0.3c-0.1 0.2-0.3 0.4-0.6 0.4z"/>
					</g>
					<g id="&lt;Group&gt;">
						<path id="&lt;Path&gt;" class="s6" d="m275.1 614.2c-0.4 0-0.7-0.3-0.8-0.7q-1.8-17-5.5-33.5c0-0.4 0.2-0.8 0.6-0.9 0.4 0 0.7 0.3 0.8 0.7q3.7 16.6 5.5 33.7 0 0.2-0.1 0.4-0.2 0.3-0.5 0.3z"/>
					</g>
					<g id="&lt;Group&gt;">
						<path id="&lt;Path&gt;" class="s6" d="m282.7 625c-17.5 1.2-34.8 3.1-52.3 5.9-0.4 0-0.7-0.2-0.8-0.6 0-0.3 0.2-0.7 0.6-0.8 17.5-2.8 34.8-4.8 52.3-6.1 0.4 0 0.8 0.3 0.8 0.8q0 0.3-0.1 0.5-0.2 0.2-0.5 0.3z"/>
					</g>
					<g id="&lt;Group&gt;">
						<path id="&lt;Path&gt;" class="s6" d="m253.4 596.3c-17.3 1.9-34.3 4.6-51.5 8.2-0.4 0.1-0.7-0.2-0.8-0.5-0.1-0.4 0.1-0.7 0.5-0.8 17.2-3.7 34.2-6.4 51.5-8.3 0.4-0.1 0.8 0.2 0.8 0.6q0.1 0.3 0 0.5-0.2 0.3-0.5 0.3z"/>
					</g>
					<g id="&lt;Group&gt;">
						<path id="&lt;Path&gt;" class="s6" d="m213.8 568.9c-17.2 6.1-34 13-50.7 20.6-0.3 0.2-0.7 0.1-0.8-0.2-0.2-0.4 0-0.7 0.3-0.9 16.7-7.7 33.4-14.6 50.6-20.8 0.4-0.1 0.8 0 1 0.4q0.1 0.3 0 0.5-0.1 0.3-0.4 0.4z"/>
					</g>
					<g id="&lt;Group&gt;">
						<path id="&lt;Path&gt;" class="s6" d="m179.7 552.7c-10 3.7-19.8 7.7-29.6 12-0.4 0.1-0.8 0-0.9-0.3-0.2-0.3 0-0.7 0.3-0.9 9.9-4.3 19.6-8.3 29.7-12.1 0.3-0.1 0.7 0.1 0.9 0.4q0.1 0.2 0 0.4c0 0.2-0.2 0.4-0.4 0.5z"/>
					</g>
					<g id="&lt;Group&gt;">
						<path id="&lt;Path&gt;" class="s6" d="m144.9 536.7c-8 5.1-12 7.7-19.7 13.1-0.3 0.3-0.8 0.2-1-0.1-0.2-0.2-0.1-0.6 0.2-0.9 7.7-5.4 11.7-8 19.7-13.1 0.3-0.2 0.8-0.2 1 0.1q0.2 0.2 0.1 0.5 0 0.3-0.3 0.4z"/>
					</g>
				</g>
			</g>
		</g>
		<g id="&lt;Group&gt;">
			<g id="&lt;Group&gt;">
				<g id="&lt;Group&gt;">
					<path id="&lt;Path&gt;" class="s4" d="m305.9 620.9c-0.1-1.1-3.5-107.4-70.3-176.1-0.6-0.6-0.6-1.6 0-2.1 0.6-0.6 1.5-0.6 2.1 0 67.6 69.6 71.1 177 71.1 178.1 0 0.8-0.6 1.5-1.4 1.5q-0.1 0-0.2 0c-0.7-0.1-1.3-0.7-1.3-1.4z"/>
				</g>
			</g>
			<g id="&lt;Group&gt;">
				<g id="&lt;Group&gt;">
					<g id="&lt;Group&gt;">
						<path id="&lt;Path&gt;" class="s4" d="m242.5 450c0 0-23.9-62.2-38.5-55.4-14.5 6.8 13.8 46.5 38.5 55.4z"/>
					</g>
				</g>
				<g id="&lt;Group&gt;">
					<g id="&lt;Group&gt;">
						<path id="&lt;Path&gt;" class="s4" d="m254.1 465c0 0 39.7-58.5 26.1-67.1-13.6-8.6-31.8 41.4-26.1 67.1z"/>
					</g>
				</g>
				<g id="&lt;Group&gt;">
					<g id="&lt;Group&gt;">
						<path id="&lt;Path&gt;" class="s4" d="m268 486.6c0 0-63.9-10.9-66.8 4.9-2.9 15.9 45.2 10 66.8-4.9z"/>
					</g>
				</g>
				<g id="&lt;Group&gt;">
					<g id="&lt;Group&gt;">
						<path id="&lt;Path&gt;" class="s4" d="m288.1 526.2c0 0 53.8-56.5 41.4-66.9-12.3-10.4-43.6 40.8-41.4 66.9z"/>
					</g>
				</g>
				<g id="&lt;Group&gt;">
					<g id="&lt;Group&gt;">
						<path id="&lt;Path&gt;" class="s4" d="m294.3 544.5c0 0-75-28.7-84.1-15.3-9 13.3 58.4 20.2 84.1 15.3z"/>
					</g>
				</g>
				<g id="&lt;Group&gt;">
					<g id="&lt;Group&gt;">
						<path id="&lt;Path&gt;" class="s4" d="m306.3 600.9c0 0 58.9-40.1 49.9-53.5-9-13.4-44.8 27.7-49.9 53.5z"/>
					</g>
				</g>
				<g id="&lt;Group&gt;">
					<g id="&lt;Group&gt;">
						<path id="&lt;Path&gt;" class="s4" d="m304.3 593.3c0 0-55.3-32.8-64.4-19.5-9 13.4 38.6 24.4 64.4 19.5z"/>
					</g>
				</g>
			</g>
		</g>
		<g id="&lt;Group&gt;">
			<g id="&lt;Group&gt;">
				<g id="&lt;Group&gt;">
					<path id="&lt;Path&gt;" class="s3" d="m772.5 834.5q0 0-0.1-0.1c-0.3-0.4-0.2-1 0.2-1.3 0.6-0.5 57.8-42.8 121.9-36.3 0.5 0 0.9 0.5 0.8 1 0 0.6-0.5 1-1 0.9-63.3-6.4-119.9 35.5-120.5 35.9-0.4 0.3-0.9 0.3-1.3-0.1z"/>
				</g>
			</g>
			<g id="&lt;Group&gt;">
				<g id="&lt;Group&gt;">
					<g id="&lt;Group&gt;">
						<path id="&lt;Path&gt;" class="s3" d="m888.7 797.3c0 0 42.1-13.2 44.6-2.9 2.5 10.4-29.8 12-44.6 2.9z"/>
					</g>
				</g>
				<g id="&lt;Group&gt;">
					<g id="&lt;Group&gt;">
						<path id="&lt;Path&gt;" class="s3" d="m876.1 797.4c0 0 14.1-44.7 24.1-41.2 10.1 3.5-8.4 33.6-24.1 41.2z"/>
					</g>
				</g>
				<g id="&lt;Group&gt;">
					<g id="&lt;Group&gt;">
						<path id="&lt;Path&gt;" class="s3" d="m852.6 800c0 0 14.1-44.7 24.1-41.2 10.1 3.6-8.4 33.6-24.1 41.2z"/>
					</g>
				</g>
				<g id="&lt;Group&gt;">
					<g id="&lt;Group&gt;">
						<path id="&lt;Path&gt;" class="s3" d="m859.2 799.1c0 0 31.9 28.7 24.9 36.7-7.1 8-23.7-19.4-24.9-36.7z"/>
					</g>
				</g>
				<g id="&lt;Group&gt;">
					<g id="&lt;Group&gt;">
						<path id="&lt;Path&gt;" class="s3" d="m874.9 796.6c0 0 37.4 21.1 32.2 30.5-5.1 9.3-27.3-13.8-32.2-30.5z"/>
					</g>
				</g>
				<g id="&lt;Group&gt;">
					<g id="&lt;Group&gt;">
						<path id="&lt;Path&gt;" class="s3" d="m830.3 804.9c0 0 7.3-51.2 17.7-49 10.5 2.1-3.2 39.4-17.7 49z"/>
					</g>
				</g>
				<g id="&lt;Group&gt;">
					<g id="&lt;Group&gt;">
						<path id="&lt;Path&gt;" class="s3" d="m805.7 815c0 0 7.2-51.2 17.7-49 10.5 2.1-3.2 39.4-17.7 49z"/>
					</g>
				</g>
				<g id="&lt;Group&gt;">
					<g id="&lt;Group&gt;">
						<path id="&lt;Path&gt;" class="s3" d="m811.3 812.9c0 0 45.8 27.2 42.6 37.4-3.2 10.2-34.5-22-42.6-37.4z"/>
					</g>
				</g>
				<g id="&lt;Group&gt;">
					<g id="&lt;Group&gt;">
						<path id="&lt;Path&gt;" class="s3" d="m833.8 804.4c0 0 45.8 27.2 42.6 37.4-3.2 10.2-34.5-22-42.6-37.4z"/>
					</g>
				</g>
				<g id="&lt;Group&gt;">
					<g id="&lt;Group&gt;">
						<path id="&lt;Path&gt;" class="s3" d="m786 826.8c0 0 0.2-52.4 10.8-53.3 10.6-0.8 0.4 40-10.8 53.3z"/>
					</g>
				</g>
				<g id="&lt;Group&gt;">
					<g id="&lt;Group&gt;">
						<path id="&lt;Path&gt;" class="s3" d="m788.8 824.1c0 0 38.9 14.3 35.7 24.5-3.2 10.2-27.6-9.1-35.7-24.5z"/>
					</g>
				</g>
				<g id="&lt;Group&gt;">
					<g id="&lt;Group&gt;">
						<path id="&lt;Path&gt;" class="s3" d="m768 835.1c0 0 38.9 14.3 35.7 24.5-3.2 10.2-27.6-9.1-35.7-24.5z"/>
					</g>
				</g>
			</g>
		</g>
		<g id="&lt;Group&gt;">
			<g id="&lt;Group&gt;">
				<path id="&lt;Path&gt;" class="s7" d="m463.4 605.3v-16.5c0-4.3 3.2-7.9 7.4-8.4l32.2-4.2 0.4 22.9z"/>
				<path id="&lt;Path&gt;" class="s8" d="m409.5 742.1c0 0 0-59.5 0-88.5 0-29 9.4-46.4 22.5-50 13-3.6 76.8-13.8 76.8-13.8v169.7z"/>
				<g id="&lt;Group&gt;">
					<g id="&lt;Group&gt;">
						<path id="&lt;Path&gt;" class="s9" d="m487.8 830.5c0 0 0-139.9 0-174 0-34.1 5.1-99.3 34.8-121.1 29.7-21.7 105.1-21 125.4-17.4 20.3 3.6 45 22.5 59.5 55.8 14.5 33.4 40.6 28.3 57.3 45.7 16.6 17.4 23.2 60.9 23.2 140 0 79-10.2 99.3-34.1 113.1-23.9 13.8-55.1 10.1-81.2 10.1-26.1 0-167.5-24.6-174-26.1-6.6-1.4-10.9-26.1-10.9-26.1z"/>
					</g>
					<path id="&lt;Path&gt;" class="s10" d="m606.4 535c-39 6.9-48.9 38.1-48.9 38.1-3.5-22.5 9.5-42.6 27.6-55.6 26.4-2.5 52.3-1.4 62.9 0.5 16.6 3 36 16 50.5 38.8-22.8-24.9-53.1-28.8-92.1-21.8z"/>
					<g id="&lt;Group&gt;">
						<path id="&lt;Path&gt;" class="s11" d="m559.3 867.1c-31.6-5.2-57.9-9.9-60.6-10.5-6.6-1.4-10.9-26.1-10.9-26.1 0 0 0-139.9 0-174 0-16.9 1.3-41.5 6.1-64.6 16.4-1.8 57.6-0.1 70.3 1.3 15 1.7 34.8 8 40.6 53.4 5.8 45.4 6.7 138.7-3.4 172.1-7.7 25.4-20 41.8-42.1 48.4z"/>
					</g>
					<g id="&lt;Group&gt;">
						<path id="&lt;Path&gt;" class="s11" d="m662.1 522.7c-9-1.2-21.7-1.6-39.4 0.2-49.3 4.8-66.7 33.3-66.7 66.9 0 33.6 0 73.2 0 73.2h-68.2c0-2.4 0-4.6 0-6.5 0-34.1 5.1-99.3 34.8-121.1 29.7-21.7 105.1-21 125.4-17.4 4.6 0.8 9.3 2.4 14.1 4.7z"/>
					</g>
				</g>
				<g id="&lt;Group&gt;">
					<path id="&lt;Path&gt;" class="s8" d="m788 759.5c0 79-10.2 99.3-34.1 113.1-23.9 13.8-55.1 10.1-81.2 10.1-9.3 0-33.1-3.1-60.3-7.2 9.8-13.3 26-47.1 25.5-125-0.7-111.2-9.4-162.5-9.4-162.5l89.4 2.2c14.6 15.8 33.7 15.6 46.9 29.3 16.6 17.4 23.2 60.9 23.2 140z"/>
					<path id="&lt;Path&gt;" class="s7" d="m762.7 623.4c-6.7 1.2-27.7 2.9-68.7-6.6-41-9.4-65.5-28.8-65.5-28.8l86.2-1.6c9.6 12.7 21.7 16.7 32.9 21.8q0 0 0 0 0.1 0 0.1 0.1 0.5 0.2 0.9 0.4c8.4 4 23.1 13.1 14.1 14.7z"/>
					<path id="&lt;Path&gt;" class="s10" d="m755.3 618.8c-9.4-0.7-26.1 2.5-67-6.9-41-9.4-59.8-23.9-59.8-23.9l86.2-1.6c9.6 12.7 21.7 16.7 32.9 21.8q0 0 0 0 0.1 0 0.1 0.1 0.5 0.2 0.9 0.4c8.4 4 15.8 10.8 6.7 10.1z"/>
					<g id="&lt;Group&gt;">
						<path id="&lt;Path&gt;" class="s11" d="m725.3 847.6c0 0 0.3 15.2-17.4 16.6-15.2 1.3-62.2-2.2-85.7-6.5 8.1-19.3 16-52.3 15.7-107.2-0.2-26.3-0.8-49.2-1.6-68.9 9.6 0 31.9 0.2 38.9-0.1 5.7-0.2 11.5-13.3 15.2-23.2 2.4-6.5 8.6-10.7 15.5-10.7 10.9 0.2 26.9 0.3 38.6-0.2 15.9-0.6 26.3-2.2 32.7-4.5 7.6 23.7 10.8 61.5 10.8 116.6 0 39.5-2.6 64.4-8.1 81.1-17.2 8.8-54.6 7-54.6 7z"/>
					</g>
				</g>
				<g id="&lt;Group&gt;">
					<path id="&lt;Path&gt;" class="s8" d="m788 759.5q0 3.6-0.1 7 0 0.4 0 0.9c-0.3 30.9-2.3 52.2-6.3 67.4-20.4 9.3-39.6 7.9-48.7 7.6-10-0.2-17.8-3.5-17.8-18.1 0-14.5-0.5-115.3 0-132.7 0.5-17.3 15.6-13.3 37.2-13.8 14-0.3 25.4-1.5 31.6-2.3 2.4 18.4 3.7 41.2 4 68.7q0 0.2 0 0.4 0 2 0 4 0 1.3 0 2.6 0.1 1.3 0.1 2.6 0 2.8 0 5.7z"/>
					<path id="&lt;Path&gt;" class="s10" d="m782.4 831.7c-19.8 9.1-38.5 7.7-47.4 7.5-9.6-0.2-17.1-3.4-17.1-17.4 0-14-0.5-110.9 0-127.6 0.5-16.7 15-12.8 35.8-13.3 13.6-0.3 24.7-1.5 30.6-2.2 2.5 21.2 3.7 47.9 3.7 80.8 0 33.1-1.8 55.8-5.6 72.2z"/>
					<path id="&lt;Path&gt;" class="s8" d="m787.4 788.9c-6.6 1.6-13.9 2.9-21.2 3.9-0.6 13.6-1.3 28.5-2.4 44.8q-1.7 0.4-3.3 0.6c1.1-16.4 1.8-31.4 2.4-45l0.1-3.3c0.6-17.4 0.9-32.5 0.9-45.6v-3.3c-0.1-32.4-1.8-51.6-2.8-60.3q1.7-0.1 3.3-0.2c1 9 2.6 28.1 2.8 60.1 6.6-0.9 13.6-2.2 20.6-3.9q0 1.7 0 3.4c-7 1.7-13.9 2.9-20.6 3.8 0 13.1-0.3 28.2-0.9 45.5 7.4-0.9 14.7-2.2 21.2-4q0 1.8-0.1 3.5z"/>
				</g>
				<g id="&lt;Group&gt;">
					<g id="&lt;Group&gt;">
						<path id="&lt;Path&gt;" class="s11" d="m739.3 581.3l-2 21.5c-0.5 3.4-16.9 3.7-36.6 0.7-19.7-3-35.3-8.1-34.8-11.5l5.4-20.9z"/>
					</g>
					<path id="&lt;Path&gt;" class="s10" d="m739.3 581.3c-0.5 3.2-16.1 3.5-34.9 0.7-18.7-2.8-33.6-7.7-33.1-10.9 0.5-3.2 16.1-3.6 34.9-0.7 18.7 2.8 33.5 7.7 33.1 10.9z"/>
					<path id="&lt;Path&gt;" class="s7" d="m739.3 581.3c-0.5 3.2-16.1 3.5-34.9 0.7-14.2-2.1-26.1-5.4-30.9-8.3 6.1 2.3 15.6 4.6 26.5 6.3 18.8 2.8 34.4 2.5 34.8-0.7 0.2-0.8-0.6-1.7-2.2-2.6 4.3 1.6 6.9 3.3 6.7 4.6z"/>
				</g>
				<g id="&lt;Group&gt;">
					<g id="&lt;Group&gt;">
						<g id="&lt;Group&gt;">
							<path id="&lt;Path&gt;" class="s9" d="m671.6 751.7c0 20.1-6.6 36.4-14.7 36.4h-16.3v-72.9h16.3c8.1 0 14.7 16.3 14.7 36.5z"/>
						</g>
						<path id="&lt;Path&gt;" class="s10" d="m655.4 751.7c0 20.1-6.6 36.4-14.8 36.4-8.1 0-14.7-16.3-14.7-36.4 0-20.2 6.6-36.5 14.7-36.5 8.2 0 14.8 16.3 14.8 36.5z"/>
						<path id="&lt;Path&gt;" class="s7" d="m655.4 751.7c0 20.1-6.6 36.4-14.8 36.4q-0.7 0-1.4-0.2c7.6-1.7 13.4-17.2 13.4-36.2 0-19-5.8-34.6-13.4-36.3q0.7-0.2 1.4-0.2c8.2 0 14.8 16.3 14.8 36.5z"/>
					</g>
				</g>
			</g>
			<g id="&lt;Group&gt;">
				<g id="&lt;Group&gt;">
					<path id="&lt;Path&gt;" class="s12" d="m595.3 735.6c0 72.8-28.8 131.8-64.3 131.8h-57.7c-35.5 0-64.3-59-64.3-131.8 0-72.8 28.8-131.8 64.3-131.8h57.7c35.5 0 64.3 59 64.3 131.8z"/>
				</g>
				<g id="&lt;Group&gt;">
					<path id="&lt;Path&gt;" class="s13" d="m409.7 716.8c2.8-40.7 14.7-75.4 31.4-95.2h122.1c16.7 19.8 28.6 54.5 31.4 95.2z"/>
				</g>
				<g id="&lt;Group&gt;">
					<path id="&lt;Path&gt;" class="s10" d="m582.8 735.6c0 75.4-29.8 136.5-66.6 136.5h-59.8v-76.4c-4.3-18.2-6.7-38.6-6.7-60.1 0-21.6 2.4-42 6.7-60.1v-76.4h59.8c36.8 0 66.6 61.1 66.6 136.5z"/>
					<path id="&lt;Path&gt;" class="s14" d="m450.7 711.3c1.1-12.6 3.1-24.7 5.7-35.8v-53.1h97.1c14.6 20.2 25 52 28.3 88.9z"/>
					<g id="&lt;Clip Group&gt;" clip-path="url(#cp1)">
						<g id="&lt;Group&gt;">
							<g id="&lt;Group&gt;">
								<path id="&lt;Path&gt;" class="s15" d="m604.3 607.2h-176.1v-3.3h176.1z"/>
							</g>
							<g id="&lt;Group&gt;">
								<path id="&lt;Path&gt;" class="s15" d="m604.3 615.6h-176.1v-3.3h176.1z"/>
							</g>
							<g id="&lt;Group&gt;">
								<path id="&lt;Path&gt;" class="s15" d="m604.3 624.1h-176.1v-3.3h176.1z"/>
							</g>
							<g id="&lt;Group&gt;">
								<path id="&lt;Path&gt;" class="s15" d="m604.3 632.5h-176.1v-3.3h176.1z"/>
							</g>
							<g id="&lt;Group&gt;">
								<path id="&lt;Path&gt;" class="s15" d="m604.3 640.9h-176.1v-3.2h176.1z"/>
							</g>
							<g id="&lt;Group&gt;">
								<path id="&lt;Path&gt;" class="s15" d="m604.3 649.4h-176.1v-3.3h176.1z"/>
							</g>
							<g id="&lt;Group&gt;">
								<path id="&lt;Path&gt;" class="s15" d="m604.3 657.8h-176.1v-3.3h176.1z"/>
							</g>
							<g id="&lt;Group&gt;">
								<path id="&lt;Path&gt;" class="s15" d="m604.3 666.3h-176.1v-3.3h176.1z"/>
							</g>
							<g id="&lt;Group&gt;">
								<path id="&lt;Path&gt;" class="s15" d="m604.3 674.7h-176.1v-3.3h176.1z"/>
							</g>
							<g id="&lt;Group&gt;">
								<path id="&lt;Path&gt;" class="s15" d="m604.3 683.1h-176.1v-3.3h176.1z"/>
							</g>
							<g id="&lt;Group&gt;">
								<path id="&lt;Path&gt;" class="s15" d="m604.3 691.6h-176.1v-3.3h176.1z"/>
							</g>
							<g id="&lt;Group&gt;">
								<path id="&lt;Path&gt;" class="s15" d="m604.3 700h-176.1v-3.3h176.1z"/>
							</g>
							<g id="&lt;Group&gt;">
								<path id="&lt;Path&gt;" class="s15" d="m604.3 708.4h-176.1v-3.2h176.1z"/>
							</g>
							<g id="&lt;Group&gt;">
								<path id="&lt;Path&gt;" class="s15" d="m604.3 716.9h-176.1v-3.3h176.1z"/>
							</g>
							<g id="&lt;Group&gt;">
								<path id="&lt;Path&gt;" class="s15" d="m604.3 725.3h-176.1v-3.3h176.1z"/>
							</g>
							<g id="&lt;Group&gt;">
								<path id="&lt;Path&gt;" class="s15" d="m604.3 733.8h-176.1v-3.3h176.1z"/>
							</g>
							<g id="&lt;Group&gt;">
								<path id="&lt;Path&gt;" class="s15" d="m604.3 742.2h-176.1v-3.3h176.1z"/>
							</g>
							<g id="&lt;Group&gt;">
								<path id="&lt;Path&gt;" class="s15" d="m604.3 750.6h-176.1v-3.3h176.1z"/>
							</g>
							<g id="&lt;Group&gt;">
								<path id="&lt;Path&gt;" class="s15" d="m604.3 759.1h-176.1v-3.3h176.1z"/>
							</g>
							<g id="&lt;Group&gt;">
								<path id="&lt;Path&gt;" class="s15" d="m604.3 767.5h-176.1v-3.3h176.1z"/>
							</g>
							<g id="&lt;Group&gt;">
								<path id="&lt;Path&gt;" class="s15" d="m604.3 775.9h-176.1v-3.2h176.1z"/>
							</g>
							<g id="&lt;Group&gt;">
								<path id="&lt;Path&gt;" class="s15" d="m604.3 784.4h-176.1v-3.3h176.1z"/>
							</g>
							<g id="&lt;Group&gt;">
								<path id="&lt;Path&gt;" class="s15" d="m604.3 792.8h-176.1v-3.3h176.1z"/>
							</g>
							<g id="&lt;Group&gt;">
								<path id="&lt;Path&gt;" class="s15" d="m604.3 801.3h-176.1v-3.3h176.1z"/>
							</g>
							<g id="&lt;Group&gt;">
								<path id="&lt;Path&gt;" class="s15" d="m604.3 809.7h-176.1v-3.3h176.1z"/>
							</g>
							<g id="&lt;Group&gt;">
								<path id="&lt;Path&gt;" class="s15" d="m604.3 818.1h-176.1v-3.3h176.1z"/>
							</g>
							<g id="&lt;Group&gt;">
								<path id="&lt;Path&gt;" class="s15" d="m604.3 826.6h-176.1v-3.3h176.1z"/>
							</g>
							<g id="&lt;Group&gt;">
								<path id="&lt;Path&gt;" class="s15" d="m604.3 835h-176.1v-3.3h176.1z"/>
							</g>
							<g id="&lt;Group&gt;">
								<path id="&lt;Path&gt;" class="s15" d="m604.3 843.4h-176.1v-3.2h176.1z"/>
							</g>
							<g id="&lt;Group&gt;">
								<path id="&lt;Path&gt;" class="s15" d="m604.3 851.9h-176.1v-3.3h176.1z"/>
							</g>
							<g id="&lt;Group&gt;">
								<path id="&lt;Path&gt;" class="s15" d="m604.3 860.3h-176.1v-3.3h176.1z"/>
							</g>
							<g id="&lt;Group&gt;">
								<path id="&lt;Path&gt;" class="s15" d="m604.3 868.8h-176.1v-3.3h176.1z"/>
							</g>
						</g>
					</g>
					<path id="&lt;Path&gt;" class="s9" d="m523 735.6c0 75.4-29.8 136.5-66.6 136.5-36.7 0-66.5-61.1-66.5-136.5 0-75.4 29.8-136.5 66.5-136.5 36.8 0 66.6 61.1 66.6 136.5z"/>
				</g>
				<g id="&lt;Group&gt;">
					<path id="&lt;Path&gt;" class="s12" d="m513.7 735.6c0 72.8-28.8 131.8-64.3 131.8h-57.7c-35.5 0-64.3-59-64.3-131.8 0-72.8 28.8-131.8 64.3-131.8h57.7c35.5 0 64.3 59 64.3 131.8z"/>
				</g>
				<g id="&lt;Group&gt;">
					<path id="&lt;Path&gt;" class="s13" d="m328.1 716.8c2.8-40.7 14.7-75.4 31.4-95.2h122.1c16.7 19.8 28.6 54.5 31.4 95.2z"/>
				</g>
				<g id="&lt;Group&gt;">
					<g id="&lt;Group&gt;">
						<g id="&lt;Group&gt;">
							<g id="&lt;Clip Group&gt;" clip-path="url(#cp2)">
							</g>
						</g>
						<g id="&lt;Group&gt;">
							<path id="&lt;Path&gt;" class="s10" d="m468.8 735.6c0 75.4-29.8 136.5-66.6 136.5h-59.8v-76.4c-4.3-18.2-6.8-38.6-6.8-60.1 0-21.6 2.5-42 6.8-60.1v-76.4h59.8c36.8 0 66.6 61.1 66.6 136.5z"/>
							<path id="&lt;Path&gt;" class="s14" d="m336.7 711.3c1.1-12.6 3-24.7 5.7-35.8v-53.1h97c14.6 20.2 25.1 52 28.3 88.9z"/>
							<g id="&lt;Clip Group&gt;" clip-path="url(#cp3)">
								<g id="&lt;Group&gt;">
									<g id="&lt;Group&gt;">
										<path id="&lt;Path&gt;" class="s15" d="m483.3 607.2h-176.1v-3.3h176.1z"/>
									</g>
									<g id="&lt;Group&gt;">
										<path id="&lt;Path&gt;" class="s15" d="m483.3 615.6h-176.1v-3.3h176.1z"/>
									</g>
									<g id="&lt;Group&gt;">
										<path id="&lt;Path&gt;" class="s15" d="m483.3 624.1h-176.1v-3.3h176.1z"/>
									</g>
									<g id="&lt;Group&gt;">
										<path id="&lt;Path&gt;" class="s15" d="m483.3 632.5h-176.1v-3.3h176.1z"/>
									</g>
									<g id="&lt;Group&gt;">
										<path id="&lt;Path&gt;" class="s15" d="m483.3 640.9h-176.1v-3.2h176.1z"/>
									</g>
									<g id="&lt;Group&gt;">
										<path id="&lt;Path&gt;" class="s15" d="m483.3 649.4h-176.1v-3.3h176.1z"/>
									</g>
									<g id="&lt;Group&gt;">
										<path id="&lt;Path&gt;" class="s15" d="m483.3 657.8h-176.1v-3.3h176.1z"/>
									</g>
									<g id="&lt;Group&gt;">
										<path id="&lt;Path&gt;" class="s15" d="m483.3 666.3h-176.1v-3.3h176.1z"/>
									</g>
									<g id="&lt;Group&gt;">
										<path id="&lt;Path&gt;" class="s15" d="m483.3 674.7h-176.1v-3.3h176.1z"/>
									</g>
									<g id="&lt;Group&gt;">
										<path id="&lt;Path&gt;" class="s15" d="m483.3 683.1h-176.1v-3.3h176.1z"/>
									</g>
									<g id="&lt;Group&gt;">
										<path id="&lt;Path&gt;" class="s15" d="m483.3 691.6h-176.1v-3.3h176.1z"/>
									</g>
									<g id="&lt;Group&gt;">
										<path id="&lt;Path&gt;" class="s15" d="m483.3 700h-176.1v-3.3h176.1z"/>
									</g>
									<g id="&lt;Group&gt;">
										<path id="&lt;Path&gt;" class="s15" d="m483.3 708.4h-176.1v-3.2h176.1z"/>
									</g>
									<g id="&lt;Group&gt;">
										<path id="&lt;Path&gt;" class="s15" d="m483.3 716.9h-176.1v-3.3h176.1z"/>
									</g>
									<g id="&lt;Group&gt;">
										<path id="&lt;Path&gt;" class="s15" d="m483.3 725.3h-176.1v-3.3h176.1z"/>
									</g>
									<g id="&lt;Group&gt;">
										<path id="&lt;Path&gt;" class="s15" d="m483.3 733.8h-176.1v-3.3h176.1z"/>
									</g>
									<g id="&lt;Group&gt;">
										<path id="&lt;Path&gt;" class="s15" d="m483.3 742.2h-176.1v-3.3h176.1z"/>
									</g>
									<g id="&lt;Group&gt;">
										<path id="&lt;Path&gt;" class="s15" d="m483.3 750.6h-176.1v-3.3h176.1z"/>
									</g>
									<g id="&lt;Group&gt;">
										<path id="&lt;Path&gt;" class="s15" d="m483.3 759.1h-176.1v-3.3h176.1z"/>
									</g>
									<g id="&lt;Group&gt;">
										<path id="&lt;Path&gt;" class="s15" d="m483.3 767.5h-176.1v-3.3h176.1z"/>
									</g>
									<g id="&lt;Group&gt;">
										<path id="&lt;Path&gt;" class="s15" d="m483.3 775.9h-176.1v-3.2h176.1z"/>
									</g>
									<g id="&lt;Group&gt;">
										<path id="&lt;Path&gt;" class="s15" d="m483.3 784.4h-176.1v-3.3h176.1z"/>
									</g>
									<g id="&lt;Group&gt;">
										<path id="&lt;Path&gt;" class="s15" d="m483.3 792.8h-176.1v-3.3h176.1z"/>
									</g>
									<g id="&lt;Group&gt;">
										<path id="&lt;Path&gt;" class="s15" d="m483.3 801.3h-176.1v-3.3h176.1z"/>
									</g>
									<g id="&lt;Group&gt;">
										<path id="&lt;Path&gt;" class="s15" d="m483.3 809.7h-176.1v-3.3h176.1z"/>
									</g>
									<g id="&lt;Group&gt;">
										<path id="&lt;Path&gt;" class="s15" d="m483.3 818.1h-176.1v-3.3h176.1z"/>
									</g>
									<g id="&lt;Group&gt;">
										<path id="&lt;Path&gt;" class="s15" d="m483.3 826.6h-176.1v-3.3h176.1z"/>
									</g>
									<g id="&lt;Group&gt;">
										<path id="&lt;Path&gt;" class="s15" d="m483.3 835h-176.1v-3.3h176.1z"/>
									</g>
									<g id="&lt;Group&gt;">
										<path id="&lt;Path&gt;" class="s15" d="m483.3 843.4h-176.1v-3.2h176.1z"/>
									</g>
									<g id="&lt;Group&gt;">
										<path id="&lt;Path&gt;" class="s15" d="m483.3 851.9h-176.1v-3.3h176.1z"/>
									</g>
									<g id="&lt;Group&gt;">
										<path id="&lt;Path&gt;" class="s15" d="m483.3 860.3h-176.1v-3.3h176.1z"/>
									</g>
									<g id="&lt;Group&gt;">
										<path id="&lt;Path&gt;" class="s15" d="m483.3 868.8h-176.1v-3.3h176.1z"/>
									</g>
								</g>
							</g>
							<path id="&lt;Path&gt;" class="s9" d="m409 735.6c0 75.4-29.8 136.5-66.6 136.5-36.8 0-66.6-61.1-66.6-136.5 0-75.4 29.8-136.5 66.6-136.5 36.8 0 66.6 61.1 66.6 136.5z"/>
						</g>
						<g id="&lt;Group&gt;">
							<g id="&lt;Clip Group&gt;" clip-path="url(#cp4)">
							</g>
						</g>
					</g>
					<g id="&lt;Group&gt;">
						<g id="&lt;Group&gt;">
							<g id="&lt;Group&gt;">
								<path id="&lt;Path&gt;" class="s12" d="m399.9 735.6c0 72.8-28.7 131.8-64.2 131.8h-57.8v-73.8c-4.2-17.5-6.5-37.2-6.5-58 0-20.8 2.3-40.5 6.5-58v-73.8h57.8c35.5 0 64.2 59 64.2 131.8z"/>
							</g>
							<g id="&lt;Group&gt;">
								<path id="&lt;Path&gt;" class="s13" d="m272.1 716.8c0.9-13.9 2.9-27.1 5.8-39.2v-56h90c16.6 19.8 28.5 54.5 31.4 95.2z"/>
							</g>
							<g id="&lt;Group&gt;">
								<path id="&lt;Path&gt;" class="s9" d="m342.2 735.6c0 72.8-28.8 131.8-64.3 131.8-35.5 0-64.2-59-64.2-131.8 0-72.8 28.7-131.8 64.2-131.8 35.5 0 64.3 59 64.3 131.8z"/>
							</g>
							<g id="&lt;Group&gt;">
								<path id="&lt;Path&gt;" class="s16" d="m342.2 735.6c0 59.3-23.5 107.5-52.4 107.5-29 0-52.4-48.2-52.4-107.5 0-59.4 23.4-107.5 52.4-107.5 28.9 0 52.4 48.1 52.4 107.5z"/>
							</g>
							<path id="&lt;Path&gt;" class="s17" d="m342.2 735.6c0 21.1-2.4 41.1-6.8 58.8-6.8 12.4-15.7 20-25.6 20-21.2 0-38.4-35.3-38.4-78.8 0-43.6 17.2-78.9 38.4-78.9 9.9 0 18.8 7.6 25.7 20.1 4.3 17.7 6.7 37.6 6.7 58.8z"/>
							<path id="&lt;Path&gt;" class="s18" d="m319.3 708.6c-2.6 21-13.1 37.1-23.3 35.8-10.3-1.2-16.5-19.4-13.9-40.4 2.6-21.1 13-37.2 23.3-35.9 10.3 1.3 16.5 19.4 13.9 40.5z"/>
							<g id="&lt;Group&gt;">
								<path id="&lt;Compound Path&gt;" fill-rule="evenodd" class="s19" d="m277.9 867.4c-36.3 0-65.9-59.2-65.9-131.8 0-72.7 29.6-131.8 65.9-131.8 36.4 0 65.9 59.1 65.9 131.8 0 72.6-29.5 131.8-65.9 131.8zm0-260.4c-34.5 0-62.6 57.7-62.6 128.6 0 70.9 28.1 128.5 62.6 128.5 34.6 0 62.7-57.6 62.7-128.5 0-70.9-28.1-128.6-62.7-128.6z"/>
							</g>
						</g>
					</g>
				</g>
			</g>
		</g>
		<g id="&lt;Group&gt;">
			<path id="&lt;Path&gt;" class="s20" d="m392.7 605.2l52.3-10.2c0 0 12.1 58.5 13.2 84.2 1 25.7-10.6 26.4-18.4 24.2-7.8-2.1-7.5-16.6-9.4-30.1-1.9-13.6-2.5-18.9 0-32.1-3.9-19.9-34.2-12.9-34.2-12.9 0 0-3 16.7-3.5 18.1-0.5 1.4-4.1 21.3-7.1 32.6-3 11.4-9.3 86 0 147.1-9.4 42-26.8 14.1-25.1-15.1 1.6-29.1 2.1-75.4 2.7-97.6 0.6-22.3-4.7-66.3-20.3-82.4-15.6-16-31.2-27.5-31.2-27.5h31.2z"/>
			<g id="&lt;Group&gt;">
				<g id="&lt;Group&gt;">
					<path id="&lt;Path&gt;" class="s21" d="m408 592.5c-0.4 0-5.8 5.3-12.3 6.9 5.4 16.7 9.6 30.8 11 39.6 1.8 11.2-0.4 18.9-2.5 35.4-2.1 16.6-18.2 83.8-18.2 83.8 0 0 1.6 1.9-6.5 3.6-8.1 1.7-15.8-2.2-15.8-2.2-2.2-4.7-1.7-76.2 6.5-100.9-14.1-49-36.9-23.5-40.3-83.5-1.6-27.7 19.2-49.3 19.2-49.3l28.1 8.4 4.5 24c0 0 2.1 5.7 5 14.2l24.5-4.6c0 0 8.6 10.1 10.4 12.1 1.8 2-12.7 12.4-13.6 12.5z"/>
					<path id="&lt;Path&gt;" class="s22" d="m408 592.5c-0.4 0-5.8 5.3-12.3 6.9 5.4 16.7 9.6 30.8 11 39.6 1.8 11.2-0.4 18.9-2.5 35.4-2.1 16.6-18.2 83.8-18.2 83.8 0 0 1.6 1.9-6.5 3.6-8.1 1.7-8 0.1-8 0.1-2.2-4.7-1-80.2 7.2-104.9-14.1-49.1-45.4-21.8-48.8-81.8-1.6-27.7 19.2-49.3 19.2-49.3l28.1 8.4 4.5 24c0 0 2.1 5.7 5 14.2l24.5-4.6c0 0 8.6 10.1 10.4 12.1 1.8 2-12.7 12.4-13.6 12.5z"/>
					<g id="&lt;Group&gt;">
						<path id="&lt;Path&gt;" class="s23" d="m362.6 746.1c0 0 2.2 3.9 10.6 6 8.4 2.2 13.3-4.6 15.5-5.3 2.2-0.8 2.5 3.9 1.4 9.9-1.2 5.9-2.5 16.1-2.1 22.6 0.4 6.6 2.2 24.6 2.9 39.1-1.8 8.9-4.6 11.4-10.4 10.9-5.7-0.5-13-8.3-14.8-22.8-1.7-13.5-5.1-17.9-5.2-22-0.2-4.1 1.6-6.2 3.1-13.7 1.4-7.5-6.6-19.9-1-24.7z"/>
						<path id="&lt;Path&gt;" class="s24" d="m382.7 770.5c-0.8 10.2 0.3 14.9 0.9 20.4 0.4 3.8 1.4 10.4 2 14.1 0.1 1.3-0.8 2.5-2.2 2.6q0 0 0 0c-1.2 0-2.2-0.8-2.4-2-1.3-10.3-1.6-18-3.5-23.2-2-5.6-1.2-12.4-1.2-17.4-0.1-3.3-0.6-9-0.9-12.5 3.7 0.3 6.6-1.1 8.8-2.6-0.3 4.2-0.9 13.1-1.5 20.6z"/>
						<g id="&lt;Group&gt;">
							<path id="&lt;Path&gt;" class="s25" d="m390.4 820.5c-0.7 7.1-4.5 10.1-9.8 9.7-5.7-0.5-13.8-9.3-15.6-23.7-1.7-13.6-4.4-17.9-4.5-22-0.1-2.4 0.5-4.1 1.3-6.6-0.2 0.7-0.2 1.5-0.2 2.4 0.2 4.1 3.6 8.5 5.2 22.1 1.8 14.4 9.9 23.6 15.6 24 4.2 0.4 6.4-1.5 8-5.9z"/>
						</g>
					</g>
					<path id="&lt;Path&gt;" class="s26" d="m332.8 511c0 0-15.1 25.9-24.6 32.5-9.5 6.6-22.3-6.5-16-18 6.2-11.5 22.4-30 22.4-30z"/>
					<path id="&lt;Path&gt;" class="s27" d="m446.3 499.8c0 0 14.2 15.8 19.1 26.1 5 10.3-12 16.7-20.1 11.2-8.2-5.5-20.4-23.9-20.4-23.9z"/>
					<path id="&lt;Path&gt;" class="s27" d="m465.4 525.9c0 0 4.8 8.8 4.7 16.9-0.1 8-9.3 18.4-15.1 19.1-5.9 0.7-11.2-24.1-11.7-27.4-0.5-3.4 22.1-8.6 22.1-8.6z"/>
					<path id="&lt;Path&gt;" class="s5" d="m448.9 500.6c0 0-14.9 10.1-20.7 20.4-4.7-3.9-9.1-8.2-12.2-11.3-2.9 19.8 3 51.5 7 53.1-3.4 8-13.1 16-34.2 19.9-27 5-54.8 4.8-61-1.6 1.8-33.2 11.2-56.1 11.4-72.3-1.8 1.3-4.1 3.4-7 7.4-10.8-13.8-22.7-17.5-22.7-17.5l28.4-30.9c3.7-4.1 8.5-7.1 13.9-8.6l17-5c0 0 12.8 0.9 22.4-1 13.1 6.8 20.8 9.4 22.9 10.2 4.8 1.7 6.2 3.9 6.2 3.9z"/>
					<g id="&lt;Group&gt;">
						<path id="&lt;Path&gt;" class="s26" d="m389.9 442.2c0 0 0 12.5 6.5 15.2 0.5 6.8-5.7 17.2-13.9 16.4-8.2-0.8-16.6-7.7-17.2-15.5 2-2.3 4.1-3.2 4.5-9.4 0.4-6.2 0-11.7 0-11.7z"/>
						<path id="&lt;Path&gt;" class="s27" d="m369.7 450.4q0.1-0.7 0.1-1.5c0.4-6.2 0-11.7 0-11.7l20.1 5c0 0 0 2 0.4 4.5-3.4 10.1-13.4 8.1-20.6 3.7z"/>
						<g id="&lt;Group&gt;">
							<path id="&lt;Path&gt;" class="s27" d="m397.4 423.9c0 0 1.5-4.4 5.2-6 3.7-1.7 3.6 4.2 1.9 8.1-1.7 3.9-6.4 6.4-6.9 4.1-0.5-2.4-0.2-6.2-0.2-6.2z"/>
							<path id="&lt;Path&gt;" class="s27" d="m362.5 430.7c-0.2 2.4-5.1 0.3-7.3-3.4-2.2-3.8-3-9.6 0.8-8.3 3.9 1.3 5.9 5.5 5.9 5.5 0 0 0.8 3.8 0.6 6.2z"/>
							<path id="&lt;Path&gt;" class="s26" d="m397.8 398.5c5.3 14 4.2 32.8-3.1 43.1-7.2 10.3-23.4 12.3-30.7-2.8-6.1-12.5-3.9-29-3.9-29 1.9-23.5 32.4-25.2 37.7-11.3z"/>
							<path id="&lt;Path&gt;" class="s27" d="m363.2 437.1c-5.1-12.2-3.1-27.3-3.1-27.3 1.9-23.5 32.4-25.2 37.7-11.3 2.2 5.8 3.3 12.5 3.3 19.1-8-3.7-19.4-5.4-27.1-1.6-7.1 2.9-11.2 11.8-10.8 21.1z"/>
							<path id="&lt;Path&gt;" class="s11" d="m398.6 393.9c3.4-0.2 7 13.2 5.4 23.7-1.7-0.2-3 3.7-3.8 8.4 0 1.6 0.9-8.5-1.5-12-5.9-4.6-2.9-13.7-2.9-13.7 0 0-0.5-6.1 2.8-6.4z"/>
							<path id="&lt;Path&gt;" class="s11" d="m363.1 401.7c0 0 1.3 5.7-0.3 10.4-1.5 4.7-2.1 5-2.5 14-0.4-1.5-1.5-5.7-4.3-7.1-1.6-7-0.7-15.8-0.7-15.8z"/>
							<path id="&lt;Path&gt;" class="s11" d="m395.9 402.2c0.1 0.1 2.2 3.8-0.4 5.2-2.5 1.4-7.5-3-8.7-4.2 3.2 7.2-3.6 7.7-5.4 6.3-1.9-1.4-5.8-6-5.8-6 2.1 5.1-3.8 3.9-5 1.8-1.8 5-6.6 7.4-8.1 4.1-1.4-3.4-0.7-9.3-0.7-9.3 0 0 24.8-9 34.1 2.1z"/>
							<g id="&lt;Group&gt;">
								<g id="&lt;Group&gt;">
									<g id="&lt;Group&gt;">
										<path id="&lt;Path&gt;" class="s13" d="m355.3 403.2c0 0 5.4-15.8 7.2-18.2 1.9-2.3 10.7-3.7 17-4.2 6.3-0.4 17.6 4 19.5 5.9 2 2 5.7 17.7 5.7 17.7z"/>
									</g>
									<path id="&lt;Path&gt;" class="s28" d="m378.7 399.6c18.5-0.3 26 4.8 26 4.8l8.1 11c0 0-4.5 2.7-10.2-0.7-5.8-3.3-20.9-5.8-34.2-1.7-13.2 4-21.2 1.9-21.2 1.9l8.1-11.7c0 0 4.9-3.3 23.4-3.6z"/>
								</g>
							</g>
						</g>
					</g>
				</g>
				<g id="&lt;Group&gt;">
					<g id="&lt;Group&gt;">
						<path id="&lt;Path&gt;" class="s29" d="m372.8 527.4h-4c-0.3 0-0.5-0.2-0.5-0.4v-1.7c0-0.3 0.2-0.5 0.5-0.5h4c0.3 0 0.5 0.2 0.5 0.5v1.7c0 0.2-0.2 0.4-0.5 0.4z"/>
					</g>
					<g id="&lt;Group&gt;">
						<g id="&lt;Group&gt;">
							<path id="&lt;Path&gt;" class="s9" d="m399.7 549.4h-36c-1.2 0-2.1-1-2.1-2.1v-18.6c0-1.1 0.9-2.1 2.1-2.1h36c1.2 0 2.1 1 2.1 2.1v18.6c0 1.1-0.9 2.1-2.1 2.1z"/>
						</g>
						<g id="&lt;Group&gt;">
							<path id="&lt;Path&gt;" class="s30" d="m368.3 549.4h-4.6c-1.2 0-2.1-1-2.1-2.1v-18.6c0-1.1 0.9-2.1 2.1-2.1h4.6z"/>
						</g>
						<g id="&lt;Group&gt;">
							<path id="&lt;Path&gt;" class="s30" d="m401.8 528.7v18.6c0 1.1-0.9 2.1-2.1 2.1h-4v-22.8h4c1.2 0 2.1 1 2.1 2.1z"/>
						</g>
					</g>
					<g id="&lt;Group&gt;">
						<path id="&lt;Path&gt;" class="s19" d="m390.3 538c0 4.7-3.9 8.6-8.6 8.6-4.7 0-8.6-3.9-8.6-8.6 0-4.7 3.9-8.6 8.6-8.6 4.7 0 8.6 3.9 8.6 8.6z"/>
						<path id="&lt;Path&gt;" class="s31" d="m388.3 538c0 3.6-3 6.6-6.6 6.6-3.6 0-6.6-3-6.6-6.6 0-3.6 3-6.6 6.6-6.6 3.6 0 6.6 3 6.6 6.6z"/>
						<path id="&lt;Path&gt;" class="s17" d="m387.5 538c0 3.2-2.6 5.8-5.8 5.8-3.2 0-5.8-2.6-5.8-5.8 0-3.2 2.6-5.8 5.8-5.8 3.2 0 5.8 2.6 5.8 5.8z"/>
						<path id="&lt;Path&gt;" class="s18" d="m384.6 535.9c0 1.1-1.3 2.1-2.9 2.1-1.6 0-2.9-1-2.9-2.1 0-1.2 1.3-2.2 2.9-2.2 1.6 0 2.9 1 2.9 2.2z"/>
					</g>
					<path id="&lt;Path&gt;" class="s17" d="m371.5 532.2h-6.3c-0.4 0-0.7-0.3-0.7-0.7v-1.8c0-0.4 0.3-0.7 0.7-0.7h6.3c0.4 0 0.7 0.3 0.7 0.7v1.8c0 0.4-0.3 0.7-0.7 0.7z"/>
				</g>
				<path id="&lt;Path&gt;" class="s27" d="m422.1 496.4c0 0 4.6 1.1 10.6 12.4 6 11.3 22.5 16.4 29.9 26 7.4 9.6 0 20.6-4.8 24.3-4.8 3.7-12.2-0.1-21.9-15.3-9.8-15.2-4.1-13.8-11.7-17.7-7.6-3.8-9-6.2-9-6.2 0 0 2.6-23.7 6.9-23.5z"/>
				<g id="&lt;Group&gt;">
					<g id="&lt;Group&gt;">
						<g id="&lt;Group&gt;">
							<path id="&lt;Path&gt;" class="s32" d="m430.9 582.6h-163.2v-105.9h163.2z"/>
							<g id="&lt;Group&gt;">
								<path id="&lt;Path&gt;" class="s33" d="m425 577.2h-150.7v-95.1h150.7z"/>
							</g>
							<g id="&lt;Group&gt;">
								<path id="&lt;Path&gt;" class="s13" d="m399.2 577.2h-124.9v-21.7c9.2-7.6 28.1-23.3 37.4-30.4 12.4-9.7 17-12.6 25.9-3.9 7.8 7.7 51.9 47.3 61.6 56z"/>
							</g>
							<g id="&lt;Group&gt;">
								<path id="&lt;Path&gt;" class="s13" d="m424.7 577.2h-25.8l-31.9-31.6c0.6-0.4 22.2-16.7 25.4-16.4 2.6 0.3 23.7 17.6 32.3 25.1z"/>
							</g>
							<path id="&lt;Path&gt;" class="s34" d="m383.9 518.2c0 8.6-7 15.5-15.6 15.5-8.6 0-15.5-6.9-15.5-15.5 0-8.6 6.9-15.5 15.5-15.5 8.6 0 15.6 6.9 15.6 15.5z"/>
						</g>
						<g id="&lt;Group&gt;">
							<g id="&lt;Group&gt;">
								<path id="&lt;Path&gt;" class="s27" d="m277.9 518.3h-11c-1.9 0-3.4-1.6-3.4-3.4 0-1.9 1.5-3.5 3.4-3.5h11c1.9 0 3.5 1.6 3.5 3.5 0 1.8-1.6 3.4-3.5 3.4z"/>
								<path id="&lt;Path&gt;" class="s35" d="m281.2 515.8c-0.4 1.4-1.7 2.5-3.3 2.5h-11c-1.9 0-3.4-1.6-3.4-3.4 0-1 0.4-1.9 1.1-2.5q-0.1 0.4-0.1 0.9c0 1.9 1.5 3.4 3.4 3.4h11c0.9 0 1.7-0.4 2.3-0.9z"/>
								<path id="&lt;Path&gt;" class="s27" d="m278.3 524.8h-13.3c-1.9 0-3.4-1.5-3.4-3.4 0-1.9 1.5-3.4 3.4-3.4h13.3c1.8 0 3.4 1.5 3.4 3.4 0 1.9-1.6 3.4-3.4 3.4z"/>
								<path id="&lt;Path&gt;" class="s35" d="m281.6 521.8c-0.2 1.7-1.6 3-3.3 3h-13.3c-1.9 0-3.4-1.5-3.4-3.4 0-0.9 0.3-1.6 0.8-2.2q0 0.1 0 0.3c0 1.9 1.5 3.5 3.4 3.5h13.3c1 0 1.9-0.5 2.5-1.2z"/>
								<path id="&lt;Path&gt;" class="s27" d="m278.3 531.6h-13.3c-1.9 0-3.4-1.5-3.4-3.4 0-1.9 1.5-3.4 3.4-3.4h13.3c1.8 0 3.4 1.5 3.4 3.4 0 1.9-1.6 3.4-3.4 3.4z"/>
								<path id="&lt;Path&gt;" class="s35" d="m281.6 528.4c-0.1 1.8-1.6 3.2-3.3 3.2h-13.3c-1.9 0-3.4-1.5-3.4-3.4 0-0.8 0.3-1.5 0.7-2.1q0 0.1 0 0.2c0 1.9 1.5 3.4 3.4 3.4h13.3c1.1 0 2-0.5 2.6-1.3z"/>
								<path id="&lt;Path&gt;" class="s27" d="m276.6 537.7h-9.8c-1.6 0-3-1.4-3-3.1 0-1.6 1.4-3 3-3h9.8c1.7 0 3 1.4 3 3 0 1.7-1.3 3.1-3 3.1z"/>
								<path id="&lt;Path&gt;" class="s35" d="m279.6 534.7c0 1.6-1.3 3-3 3h-9.8c-1.6 0-3-1.4-3-3.1 0-0.6 0.3-1.2 0.6-1.7q0 0 0 0c0 1.7 1.4 3 3.1 3h9.7c1 0 1.9-0.5 2.4-1.2z"/>
							</g>
							<path id="&lt;Path&gt;" class="s36" d="m279.6 515.9h-1.8c-0.8 0-1.5-0.6-1.5-1.4v-0.7c0-0.8 0.7-1.4 1.5-1.4h1.8c0.8 0 1.4 0.6 1.4 1.4v0.7c0 0.8-0.6 1.4-1.4 1.4z"/>
							<path id="&lt;Path&gt;" class="s36" d="m279.9 522.4h-1.8c-0.8 0-1.4-0.7-1.4-1.5v-0.6c0-0.9 0.6-1.5 1.4-1.5h1.8c0.8 0 1.5 0.6 1.5 1.5v0.6c0 0.8-0.7 1.5-1.5 1.5z"/>
							<path id="&lt;Path&gt;" class="s36" d="m279.9 529.2h-1.8c-0.8 0-1.4-0.7-1.4-1.5v-0.6c0-0.8 0.6-1.5 1.4-1.5h1.8c0.8 0 1.5 0.7 1.5 1.5v0.6c0 0.8-0.7 1.5-1.5 1.5z"/>
							<path id="&lt;Path&gt;" class="s36" d="m277.7 535.1h-1.5c-0.8 0-1.4-0.6-1.4-1.3v-0.6c0-0.7 0.6-1.3 1.4-1.3h1.5c0.8 0 1.3 0.6 1.3 1.3v0.6c0 0.7-0.5 1.3-1.3 1.3z"/>
						</g>
					</g>
					<g id="&lt;Group&gt;">
						<g id="&lt;Group&gt;">
							<path id="&lt;Path&gt;" class="s27" d="m418.6 515.1c0-1.9 1.6-3.4 3.5-3.4h11c1.9 0 3.4 1.5 3.4 3.4 0 1.9-1.5 3.4-3.4 3.4h-11c-1.9 0-3.5-1.5-3.5-3.4z"/>
							<path id="&lt;Path&gt;" class="s35" d="m421.1 516.9h11c1.9 0 3.4-1.5 3.4-3.4q0-0.5-0.1-0.9c0.7 0.6 1.1 1.5 1.1 2.5 0 1.9-1.5 3.4-3.4 3.4h-11c-1.6 0-2.9-1.1-3.3-2.5 0.6 0.6 1.4 0.9 2.3 0.9z"/>
							<path id="&lt;Path&gt;" class="s27" d="m418.3 521.6c0-1.9 1.6-3.4 3.5-3.4h13.2c1.9 0 3.4 1.5 3.4 3.4 0 1.9-1.5 3.4-3.4 3.4h-13.2c-1.9 0-3.5-1.5-3.5-3.4z"/>
							<path id="&lt;Path&gt;" class="s35" d="m420.9 523.2h13.3c1.9 0 3.4-1.5 3.4-3.4q0-0.2 0-0.4c0.5 0.6 0.8 1.4 0.8 2.2 0 1.9-1.5 3.4-3.4 3.4h-13.2c-1.8 0-3.2-1.3-3.4-3 0.6 0.7 1.5 1.2 2.5 1.2z"/>
							<path id="&lt;Path&gt;" class="s27" d="m418.3 528.4c0-1.8 1.6-3.4 3.5-3.4h13.2c1.9 0 3.4 1.6 3.4 3.4 0 1.9-1.5 3.5-3.4 3.5h-13.2c-1.9 0-3.5-1.6-3.5-3.5z"/>
							<path id="&lt;Path&gt;" class="s35" d="m421 530h13.3c1.9 0 3.4-1.6 3.4-3.4q0-0.2 0-0.3c0.4 0.6 0.7 1.3 0.7 2.1 0 1.9-1.5 3.5-3.4 3.5h-13.2c-1.8 0-3.3-1.5-3.4-3.2 0.6 0.8 1.5 1.3 2.6 1.3z"/>
							<path id="&lt;Path&gt;" class="s27" d="m420.4 534.9c0-1.7 1.3-3 3-3h9.8c1.7 0 3 1.3 3 3 0 1.6-1.3 3-3 3h-9.8c-1.7 0-3-1.4-3-3z"/>
							<path id="&lt;Path&gt;" class="s35" d="m422.8 536.2h9.8c1.6 0 3-1.4 3-3q0-0.1 0-0.1c0.3 0.5 0.6 1.1 0.6 1.8 0 1.6-1.3 3-3 3h-9.8c-1.7 0-3-1.3-3-3 0.5 0.8 1.4 1.3 2.4 1.3z"/>
						</g>
						<path id="&lt;Path&gt;" class="s36" d="m419 514.7v-0.6c0-0.8 0.6-1.5 1.4-1.5h1.8c0.8 0 1.5 0.7 1.5 1.5v0.6c0 0.8-0.7 1.5-1.5 1.5h-1.8c-0.8 0-1.4-0.7-1.4-1.5z"/>
						<path id="&lt;Path&gt;" class="s36" d="m418.6 521.1v-0.6c0-0.8 0.7-1.5 1.5-1.5h1.8c0.8 0 1.4 0.7 1.4 1.5v0.6c0 0.8-0.6 1.5-1.4 1.5h-1.8c-0.8 0-1.5-0.7-1.5-1.5z"/>
						<path id="&lt;Path&gt;" class="s36" d="m418.6 528v-0.7c0-0.8 0.7-1.5 1.5-1.5h1.8c0.8 0 1.4 0.7 1.4 1.5v0.7c0 0.8-0.6 1.4-1.4 1.4h-1.8c-0.8 0-1.5-0.6-1.5-1.4z"/>
						<path id="&lt;Path&gt;" class="s36" d="m421 534v-0.5c0-0.8 0.6-1.4 1.3-1.4h1.6c0.7 0 1.3 0.6 1.3 1.4v0.5c0 0.8-0.6 1.3-1.3 1.3h-1.6c-0.7 0-1.3-0.5-1.3-1.3z"/>
					</g>
				</g>
				<g id="&lt;Group&gt;">
					<path id="&lt;Path&gt;" class="s22" d="m460.5 566.8c-1.1 29.2-3.6 40.8-4.1 63.2-10.5 8.2-23.4 1-23.4 1 0 0-0.5-11.4-1.7-25.9-9 7.8-20 10.9-30.1 12.5-15.7 2.6-22-11.5-7.4-17.3 13.7-5.4 14.9-21.5 14.9-21.5l2.5-3.7c0 0 5-42.2 12.7-59.8 7.7-17.5 19.9-13.3 24.1-9.9 2.4 2 4.2 4.6 5.5 7.8 4 7.7 8 27.2 7 53.6z"/>
					<path id="&lt;Path&gt;" class="s37" d="m432.1 605.2c0 0-0.2 0.3-0.7 0.8q-0.1-0.5-0.1-0.9c-9 7.8-20 10.9-30.1 12.5-1.7-5.8-5.3-13.3-8.2-19-1.5-0.4-3-1.4-4.5-3.2-8.5-5.7-24.4-8.3-39.4-2.5-9 3.5-12.9 7.9-14.6 10.8-1.7-5.2-3.1-11.9-4-20.8 9.4 4.5 34.8 4.1 59-0.3h16.5l3.2-5.6c0.8-0.3 1.2-0.3 1.1 0.2-6.4 21.5 3.3 16.5 6.1 14.3 10.6-8.4 11.3-25 11.3-25z"/>
					<path id="&lt;Path&gt;" class="s38" d="m401.8 619.3c0 0-10.2-29-26.7-33.5 11.5 2.2 24.1 12.6 26.7 33.5z"/>
					<path id="&lt;Path&gt;" class="s38" d="m411.2 575.1c0 0 0.4 12.4-11.9 22.2 3.9-5.3 7.1-11.4 7.2-19.8 3.7-1.8 4.7-2.4 4.7-2.4z"/>
					<path id="&lt;Path&gt;" class="s38" d="m432.7 599.6c1.8 14.2 0.3 31.4 0.3 31.4 0 0-0.8-14.2-1.3-21-0.5-6.8-5.6-33.2-6.7-53.9-1.1-20.7 9.9-39.1 9.9-39.1-4.4 17.1-8.6 31.9-2.2 82.6z"/>
					<g id="&lt;Group&gt;">
						<path id="&lt;Path&gt;" class="s23" d="m431.5 608c0 0 2.2 3.9 10.6 6 8.5 2.1 13.3-4.6 15.5-5.3 2.2-0.8 2.6 3.9 1.4 9.9-1.2 5.9-2.5 16.1-2.1 22.6 0.4 6.5 5.9 26.2 2.9 39.1-1.8 8.9-8.5 13.1-14.1 11.4-5.5-1.7-12.7-10.8-12.4-25.3 0.2-14.6-3.7-15.9-3.9-20-0.2-4.1 1.7-6.2 3.1-13.7 1.4-7.5-6.6-19.9-1-24.7z"/>
						<path id="&lt;Path&gt;" class="s24" d="m451.4 632.2c-0.8 10.2-0.6 14.9 0 20.4 0.4 3.8 1.1 10.7 1.5 14.3 0.1 1.4-0.9 2.5-2.2 2.5q-0.1 0-0.1 0c-1.2 0.1-2.2-0.8-2.4-2-1.2-10.2-0.2-18.1-2.1-23.3-2-5.6-1.1-12.4-1.2-17.3 0-3.3-0.5-9-0.9-12.5 3.7 0.4 6.6-0.9 8.8-2.3-0.3 4.3-0.9 12.9-1.4 20.2z"/>
						<g id="&lt;Group&gt;">
							<path id="&lt;Path&gt;" class="s25" d="m460.3 676.9q-0.2 1.7-0.5 3.4c-1.8 8.9-8.5 13.1-14.1 11.4-5.5-1.7-12.7-10.8-12.4-25.3 0.2-14.6-3.7-15.9-3.9-20-0.1-2.1 0.3-3.7 1-5.7q0 0.2 0 0.5c0.2 4.1 4.1 5.4 3.9 20-0.3 14.5 6.9 23.6 12.4 25.3 5.2 1.6 11.4-1.9 13.6-9.6z"/>
						</g>
					</g>
				</g>
				<path id="&lt;Path&gt;" class="s11" d="m385.2 418.4c0 0 3.6-1.3 5.8-1.1 2.2 0.2 4.1 2.3 4.1 2.3-2.9-0.7-4-0.6-5.8-0.3-1.8 0.4-3.8 1.2-4.2 0.8-0.4-0.4-0.6-1.3 0.1-1.7z"/>
				<path id="&lt;Path&gt;" class="s11" d="m374 420c-0.4 0.4-2.5-0.3-4.3-0.5-1.7-0.2-2.9-0.2-5.8 0.7 0 0 1.9-2.2 4-2.5 2.2-0.4 5.8 0.6 5.8 0.6 0.8 0.4 0.7 1.3 0.3 1.7z"/>
				<g id="&lt;Group&gt;">
					<g id="&lt;Group&gt;">
						<path id="&lt;Path&gt;" class="s11" d="m367.1 426.2q-0.1 0-0.1 0c-0.1 0-0.2-0.1-0.2-0.3 0-0.1 0.6-2.8 2.7-3.3 2.1-0.4 3.3 2 3.3 2.1 0.1 0.1 0 0.3-0.1 0.3-0.1 0.1-0.3 0-0.3-0.1-0.1 0-1.1-2.1-2.8-1.8-1.8 0.4-2.3 2.9-2.3 2.9 0 0.2-0.1 0.2-0.2 0.2z"/>
					</g>
					<g id="&lt;Group&gt;">
						<path id="&lt;Path&gt;" class="s11" d="m392.3 426.2c-0.1 0-0.2 0-0.2-0.2 0 0-0.6-2.5-2.3-2.9-1.7-0.3-2.8 1.8-2.8 1.8 0 0.1-0.2 0.2-0.3 0.1-0.2 0-0.2-0.2-0.2-0.3 0.1-0.1 1.3-2.5 3.4-2.1 2.1 0.5 2.7 3.2 2.7 3.3 0 0.2-0.1 0.3-0.2 0.3q-0.1 0-0.1 0z"/>
					</g>
				</g>
				<path id="&lt;Path&gt;" class="s32" d="m372.4 435.9h13.9c-2.1 2.9-7.8 11.1-13.9 0z"/>
				<g id="&lt;Group&gt;">
					<path id="&lt;Path&gt;" class="s39" d="m374.7 420.2c1.6 0.9 2.5 2.7 2.8 4.5 0.3 1.9-0.6 3.7-1.3 5.4q-0.3 0.6-0.5 1.2c-0.1 0.4 0 0.6 0.4 0.9 0.7 0.4 1.6 0.6 2.4 0.7q1.4 0.2 2.7 0c0.9-0.1 1.8-0.4 2.4-1.1-0.5 0.8-1.5 1.2-2.4 1.4q-1.3 0.2-2.7 0.1c-0.9-0.1-1.8-0.2-2.7-0.7-0.2-0.2-0.4-0.3-0.6-0.6-0.1-0.3 0-0.7 0-0.9q0.3-0.6 0.5-1.2c0.8-1.7 1.6-3.4 1.4-5.1-0.1-0.9-0.4-1.8-0.8-2.6-0.3-0.8-0.8-1.5-1.6-2z"/>
				</g>
			</g>
		</g>
	</g>
	<g id="TEXTS">
		<g id="&lt;Group&gt;">
			<g id="&lt;Group&gt;">
				<g id="&lt;Group&gt;">
				</g>
			</g>
		</g>
	</g>
</svg>