<svg version="1.2" xmlns="http://www.w3.org/2000/svg" viewBox="0 0 1200 800" width="600" height="400">
	<title>man-ai</title>
	<defs>
		<linearGradient id="g1" x1="1038.9" y1="400.7" x2="970.7" y2="546.8" gradientUnits="userSpaceOnUse">
			<stop offset="0" stop-color="#dbccff"/>
			<stop offset="1" stop-color="#d1bbff"/>
		</linearGradient>
		<linearGradient id="g2" x1="1036.6" y1="405.7" x2="968.3" y2="551.8" gradientUnits="userSpaceOnUse">
			<stop offset="0" stop-color="#b5a6e7"/>
			<stop offset="1" stop-color="#7760bf"/>
		</linearGradient>
		<linearGradient id="g3" x1="953.6" y1="425.3" x2="925" y2="486.5" gradientUnits="userSpaceOnUse">
			<stop offset="0" stop-color="#b5a6e7"/>
			<stop offset="1" stop-color="#7760bf"/>
		</linearGradient>
		<linearGradient id="g4" x1="906.9" y1="415.4" x2="891.3" y2="408.1" gradientUnits="userSpaceOnUse">
			<stop offset="0" stop-color="#8b8be0"/>
			<stop offset="1" stop-color="#a177b7"/>
		</linearGradient>
		<linearGradient id="g5" x1="918.3" y1="397.6" x2="905.9" y2="424.1" gradientUnits="userSpaceOnUse">
			<stop offset="0" stop-color="#ffffff"/>
			<stop offset="1" stop-color="#a177b7"/>
		</linearGradient>
		<linearGradient id="g6" x1="960" y1="433.5" x2="931.5" y2="494.7" gradientUnits="userSpaceOnUse">
			<stop offset="0" stop-color="#000000"/>
			<stop offset="1" stop-color="#ffffff"/>
		</linearGradient>
		<linearGradient id="g7" x1="697.9" y1="621.6" x2="697.9" y2="800" gradientUnits="userSpaceOnUse">
			<stop offset="0" stop-color="#4b1567"/>
			<stop offset="1" stop-color="#4f3885"/>
		</linearGradient>
		<radialGradient id="g8" cx="726.3" cy="735.8" r="40.7" gradientUnits="userSpaceOnUse">
			<stop offset="0" stop-color="#4b474b"/>
			<stop offset="1" stop-color="#000000"/>
		</radialGradient>
		<radialGradient id="g9" cx="559.9" cy="734.9" r="42.6" gradientUnits="userSpaceOnUse">
			<stop offset="0" stop-color="#4b474b"/>
			<stop offset="1" stop-color="#000000"/>
		</radialGradient>
		<linearGradient id="g10" x1="732.5" y1="621.6" x2="732.5" y2="800" gradientUnits="userSpaceOnUse">
			<stop offset="0" stop-color="#ccccff"/>
			<stop offset="1" stop-color="#755cbb"/>
		</linearGradient>
		<linearGradient id="g11" x1="688.2" y1="662.1" x2="688.2" y2="710.8" gradientUnits="userSpaceOnUse">
			<stop offset="0" stop-color="#ccccff"/>
			<stop offset="1" stop-color="#755cbb"/>
		</linearGradient>
		<linearGradient id="g12" x1="699.8" y1="645.2" x2="699.8" y2="692.9" gradientUnits="userSpaceOnUse">
			<stop offset="0" stop-color="#ccccff"/>
			<stop offset="1" stop-color="#755cbb"/>
		</linearGradient>
		<linearGradient id="g13" x1="869.5" y1="279.4" x2="869.5" y2="323.6" gradientUnits="userSpaceOnUse">
			<stop offset="0" stop-color="#ffc2a9"/>
			<stop offset="1" stop-color="#ff9595"/>
		</linearGradient>
		<linearGradient id="g14" x1="895.5" y1="249.3" x2="895.5" y2="322.6" gradientUnits="userSpaceOnUse">
			<stop offset="0" stop-color="#ffeadb"/>
			<stop offset="1" stop-color="#c27cb6"/>
		</linearGradient>
		<linearGradient id="g15" x1="906.9" y1="259.5" x2="906.9" y2="372.4" gradientUnits="userSpaceOnUse">
			<stop offset="0" stop-color="#ffc2a9"/>
			<stop offset="1" stop-color="#ff9595"/>
		</linearGradient>
		<linearGradient id="g16" x1="836.9" y1="372.4" x2="801.4" y2="372.4" gradientUnits="userSpaceOnUse">
			<stop offset="0" stop-color="#d1a1d6"/>
			<stop offset="1" stop-color="#bd89c4"/>
		</linearGradient>
		<linearGradient id="g17" x1="498.6" y1="290.2" x2="498.6" y2="441.2" gradientUnits="userSpaceOnUse">
			<stop offset="0" stop-color="#ffc2a9"/>
			<stop offset="1" stop-color="#ff9595"/>
		</linearGradient>
		<linearGradient id="g18" x1="423" y1="317.8" x2="423" y2="392.8" gradientUnits="userSpaceOnUse">
			<stop offset="0" stop-color="#ffeadb"/>
			<stop offset="1" stop-color="#c27cb6"/>
		</linearGradient>
		<linearGradient id="g19" x1="386.1" y1="333.3" x2="386.1" y2="366.9" gradientUnits="userSpaceOnUse">
			<stop offset="0" stop-color="#ffb0b0"/>
			<stop offset="1" stop-color="#ffc2a9"/>
		</linearGradient>
		<linearGradient id="g20" x1="358.6" y1="353.7" x2="358.6" y2="372.1" gradientUnits="userSpaceOnUse">
			<stop offset="0" stop-color="#ffb0b0"/>
			<stop offset="1" stop-color="#ffc2a9"/>
		</linearGradient>
		<linearGradient id="g21" x1="428.7" y1="426.7" x2="394.4" y2="426.7" gradientUnits="userSpaceOnUse">
			<stop offset="0" stop-color="#d1a1d6"/>
			<stop offset="1" stop-color="#bd89c4"/>
		</linearGradient>
		<linearGradient id="g22" x1="663.8" y1="281.7" x2="663.8" y2="352.9" gradientUnits="userSpaceOnUse">
			<stop offset="0" stop-color="#b4cdf8"/>
			<stop offset="1" stop-color="#d3d6fb"/>
		</linearGradient>
		<linearGradient id="g23" x1="669.6" y1="352.8" x2="596.3" y2="352.8" gradientUnits="userSpaceOnUse">
			<stop offset="0" stop-color="#b2e8ff"/>
			<stop offset="1" stop-color="#4964bb"/>
		</linearGradient>
		<linearGradient id="g24" x1="838.4" y1="278.6" x2="838.4" y2="637.5" gradientUnits="userSpaceOnUse">
			<stop offset="0" stop-color="#74a1ef"/>
			<stop offset="1" stop-color="#979dee"/>
		</linearGradient>
		<linearGradient id="g25" x1="802.8" y1="500" x2="715.4" y2="500" gradientUnits="userSpaceOnUse">
			<stop offset="0" stop-color="#b2e8ff"/>
			<stop offset="1" stop-color="#4964bb"/>
		</linearGradient>
		<linearGradient id="g26" x1="957.6" y1="346.5" x2="957.6" y2="514.3" gradientUnits="userSpaceOnUse">
			<stop offset="0" stop-color="#74a1ef"/>
			<stop offset="1" stop-color="#aeb3f3"/>
		</linearGradient>
		<linearGradient id="g27" x1="516.9" y1="527.2" x2="404.3" y2="527.2" gradientUnits="userSpaceOnUse">
			<stop offset="0" stop-color="#81aaf1"/>
			<stop offset="1" stop-color="#aeb3f3"/>
		</linearGradient>
		<linearGradient id="g28" x1="574.5" y1="358.2" x2="574.5" y2="527.2" gradientUnits="userSpaceOnUse">
			<stop offset="0" stop-color="#b2e8ff"/>
			<stop offset="1" stop-color="#4964bb"/>
		</linearGradient>
		<linearGradient id="g29" x1="848.6" y1="637.5" x2="565.9" y2="637.5" gradientUnits="userSpaceOnUse">
			<stop offset="0" stop-color="#b2e8ff"/>
			<stop offset="1" stop-color="#4964bb"/>
		</linearGradient>
		<linearGradient id="g30" x1="599.4" y1="458" x2="545.4" y2="458" gradientUnits="userSpaceOnUse">
			<stop offset="0" stop-color="#b2ffd5"/>
			<stop offset="1" stop-color="#4964bb"/>
		</linearGradient>
		<linearGradient id="g31" x1="648.4" y1="558" x2="569" y2="558" gradientUnits="userSpaceOnUse">
			<stop offset="0" stop-color="#b2ffd5"/>
			<stop offset="1" stop-color="#4964bb"/>
		</linearGradient>
		<linearGradient id="g32" x1="644.7" y1="592.1" x2="559.9" y2="592.1" gradientUnits="userSpaceOnUse">
			<stop offset="0" stop-color="#b2ffd5"/>
			<stop offset="1" stop-color="#4964bb"/>
		</linearGradient>
		<linearGradient id="g33" x1="758.3" y1="392.5" x2="758.3" y2="487.7" gradientUnits="userSpaceOnUse">
			<stop offset="0" stop-color="#b2ffd5"/>
			<stop offset="1" stop-color="#4964bb"/>
		</linearGradient>
		<linearGradient id="g34" x1="763.3" y1="423.5" x2="763.3" y2="495.7" gradientUnits="userSpaceOnUse">
			<stop offset="0" stop-color="#b2ffd5"/>
			<stop offset="1" stop-color="#4964bb"/>
		</linearGradient>
		<linearGradient id="g35" x1="859" y1="348.9" x2="859" y2="403.4" gradientUnits="userSpaceOnUse">
			<stop offset="0" stop-color="#b2ffd5"/>
			<stop offset="1" stop-color="#4964bb"/>
		</linearGradient>
		<linearGradient id="g36" x1="780" y1="383.2" x2="758" y2="383.2" gradientUnits="userSpaceOnUse">
			<stop offset="0" stop-color="#b2ffd5"/>
			<stop offset="1" stop-color="#4964bb"/>
		</linearGradient>
		<linearGradient id="g37" x1="884.7" y1="386.6" x2="884.7" y2="487.7" gradientUnits="userSpaceOnUse">
			<stop offset="0" stop-color="#b2e8ff"/>
			<stop offset="1" stop-color="#4964bb"/>
		</linearGradient>
		<linearGradient id="g38" x1="472" y1="413.2" x2="472" y2="466" gradientUnits="userSpaceOnUse">
			<stop offset="0" stop-color="#b2e8ff"/>
			<stop offset="1" stop-color="#4964bb"/>
		</linearGradient>
		<linearGradient id="g39" x1="507.6" y1="423.2" x2="507.6" y2="463.6" gradientUnits="userSpaceOnUse">
			<stop offset="0" stop-color="#b2e8ff"/>
			<stop offset="1" stop-color="#4964bb"/>
		</linearGradient>
		<linearGradient id="g40" x1="841.7" y1="391.9" x2="841.7" y2="406.9" gradientUnits="userSpaceOnUse">
			<stop offset="0" stop-color="#b2ffd5"/>
			<stop offset="1" stop-color="#4964bb"/>
		</linearGradient>
		<linearGradient id="g41" x1="881.4" y1="370.7" x2="881.4" y2="452.7" gradientUnits="userSpaceOnUse">
			<stop offset="0" stop-color="#b2e8ff"/>
			<stop offset="1" stop-color="#4964bb"/>
		</linearGradient>
		<linearGradient id="g42" x1="620.2" y1="333.3" x2="620.2" y2="395" gradientUnits="userSpaceOnUse">
			<stop offset="0" stop-color="#b2ffd5"/>
			<stop offset="1" stop-color="#4964bb"/>
		</linearGradient>
		<linearGradient id="g43" x1="712.8" y1="301.5" x2="712.8" y2="386.6" gradientUnits="userSpaceOnUse">
			<stop offset="0" stop-color="#b2ffd5"/>
			<stop offset="1" stop-color="#4964bb"/>
		</linearGradient>
		<linearGradient id="g44" x1="694.2" y1="418.8" x2="552" y2="418.8" gradientUnits="userSpaceOnUse">
			<stop offset="0" stop-color="#4634a0"/>
			<stop offset="1" stop-color="#427cc0"/>
		</linearGradient>
		<linearGradient id="g45" x1="681.9" y1="361.7" x2="589.4" y2="361.7" gradientUnits="userSpaceOnUse">
			<stop offset="0" stop-color="#b2e8ff"/>
			<stop offset="1" stop-color="#4964bb"/>
		</linearGradient>
		<linearGradient id="g46" x1="503.3" y1="406.4" x2="503.3" y2="460" gradientUnits="userSpaceOnUse">
			<stop offset="0" stop-color="#b2e8ff"/>
			<stop offset="1" stop-color="#4964bb"/>
		</linearGradient>
		<linearGradient id="g47" x1="748.3" y1="358.2" x2="748.3" y2="520.4" gradientUnits="userSpaceOnUse">
			<stop offset="0" stop-color="#b2e8ff"/>
			<stop offset="1" stop-color="#4964bb"/>
		</linearGradient>
		<linearGradient id="g48" x1="709" y1="550" x2="709" y2="596.5" gradientUnits="userSpaceOnUse">
			<stop offset="0" stop-color="#b2e8ff"/>
			<stop offset="1" stop-color="#4964bb"/>
		</linearGradient>
		<linearGradient id="g49" x1="608.2" y1="561.2" x2="608.2" y2="583.8" gradientUnits="userSpaceOnUse">
			<stop offset="0" stop-color="#b2e8ff"/>
			<stop offset="1" stop-color="#4964bb"/>
		</linearGradient>
		<linearGradient id="g50" x1="726" y1="139.2" x2="726" y2="293.6" gradientUnits="userSpaceOnUse">
			<stop offset="0" stop-color="#ffc2a9"/>
			<stop offset="1" stop-color="#ff9595"/>
		</linearGradient>
		<linearGradient id="g51" x1="695.7" y1="185.8" x2="695.7" y2="231.3" gradientUnits="userSpaceOnUse">
			<stop offset="0" stop-color="#ffc2a9"/>
			<stop offset="1" stop-color="#ff9595"/>
		</linearGradient>
		<linearGradient id="g52" x1="587.3" y1="234.6" x2="583.8" y2="253.1" gradientUnits="userSpaceOnUse">
			<stop offset="0" stop-color="#e1616a"/>
			<stop offset="1" stop-color="#ff8883"/>
		</linearGradient>
		<linearGradient id="g53" x1="651.5" y1="141.5" x2="651.5" y2="240.9" gradientUnits="userSpaceOnUse">
			<stop offset="0" stop-color="#ffeadb"/>
			<stop offset="1" stop-color="#c27cb6"/>
		</linearGradient>
		<linearGradient id="g54" x1="621.2" y1="179.1" x2="582.1" y2="179.1" gradientUnits="userSpaceOnUse">
			<stop offset="0" stop-color="#651d4f"/>
			<stop offset="1" stop-color="#93364f"/>
		</linearGradient>
		<linearGradient id="g55" x1="568.3" y1="187.7" x2="555.4" y2="187.7" gradientUnits="userSpaceOnUse">
			<stop offset="0" stop-color="#651d4f"/>
			<stop offset="1" stop-color="#93364f"/>
		</linearGradient>
		<linearGradient id="g56" x1="614.2" y1="180.5" x2="614.2" y2="200.2" gradientUnits="userSpaceOnUse">
			<stop offset="0" stop-color="#cf6074"/>
			<stop offset="1" stop-color="#f37270"/>
		</linearGradient>
		<linearGradient id="g57" x1="576.8" y1="189.3" x2="576.8" y2="206.4" gradientUnits="userSpaceOnUse">
			<stop offset="0" stop-color="#cf6074"/>
			<stop offset="1" stop-color="#ff817f"/>
		</linearGradient>
		<linearGradient id="g58" x1="605.8" y1="177.8" x2="605.8" y2="216.4" gradientUnits="userSpaceOnUse">
			<stop offset="0" stop-color="#ffeadb"/>
			<stop offset="1" stop-color="#c27cb6"/>
		</linearGradient>
		<linearGradient id="g59" x1="753.8" y1="108.3" x2="753.8" y2="295.6" gradientUnits="userSpaceOnUse">
			<stop offset="0" stop-color="#651d4f"/>
			<stop offset="1" stop-color="#93364f"/>
		</linearGradient>
		<linearGradient id="g60" x1="602.8" y1="134.4" x2="602.8" y2="177.6" gradientUnits="userSpaceOnUse">
			<stop offset="0" stop-color="#ffeadb"/>
			<stop offset="1" stop-color="#8860c7"/>
		</linearGradient>
		<linearGradient id="g61" x1="797.1" y1="108.3" x2="797.1" y2="295.6" gradientUnits="userSpaceOnUse">
			<stop offset="0" stop-color="#ccc2db"/>
			<stop offset="1" stop-color="#8860c7"/>
		</linearGradient>
		<linearGradient id="g62" x1="601.3" y1="287.5" x2="601.3" y2="295.5" gradientUnits="userSpaceOnUse">
			<stop offset="0" stop-color="#776d7e"/>
			<stop offset="1" stop-color="#9d68c2"/>
		</linearGradient>
		<linearGradient id="g63" x1="676.2" y1="172.8" x2="702.7" y2="205.2" gradientUnits="userSpaceOnUse">
			<stop offset="0" stop-color="#ffeadb"/>
			<stop offset="1" stop-color="#b060f4"/>
		</linearGradient>
		<linearGradient id="g64" x1="669" y1="187.2" x2="683.5" y2="204.9" gradientUnits="userSpaceOnUse">
			<stop offset="0" stop-color="#ffeadb"/>
			<stop offset="1" stop-color="#b060f4"/>
		</linearGradient>
		<linearGradient id="g65" x1="566.8" y1="256" x2="556.3" y2="256" gradientUnits="userSpaceOnUse">
			<stop offset="0" stop-color="#651d4f"/>
			<stop offset="1" stop-color="#c46376"/>
		</linearGradient>
		<linearGradient id="g66" x1="579.7" y1="242.1" x2="568.4" y2="242.1" gradientUnits="userSpaceOnUse">
			<stop offset="0" stop-color="#651d4f"/>
			<stop offset="1" stop-color="#c46376"/>
		</linearGradient>
		<linearGradient id="g67" x1="496.4" y1="278.6" x2="142.3" y2="278.6" gradientUnits="userSpaceOnUse">
			<stop offset="0" stop-color="#9d68c2"/>
			<stop offset="1" stop-color="#aec2ff"/>
		</linearGradient>
		<linearGradient id="g68" x1="477.1" y1="292.8" x2="477.1" y2="399.6" gradientUnits="userSpaceOnUse">
			<stop offset="0" stop-color="#ccedff"/>
			<stop offset="1" stop-color="#9d68c2"/>
		</linearGradient>
		<linearGradient id="g69" x1="265.8" y1="300.5" x2="265.8" y2="347.6" gradientUnits="userSpaceOnUse">
			<stop offset="0" stop-color="#ccedff"/>
			<stop offset="1" stop-color="#9d68c2"/>
		</linearGradient>
		<linearGradient id="g70" x1="210.3" y1="300.5" x2="210.3" y2="347.6" gradientUnits="userSpaceOnUse">
			<stop offset="0" stop-color="#ccedff"/>
			<stop offset="1" stop-color="#9d68c2"/>
		</linearGradient>
		<linearGradient id="g71" x1="322.2" y1="300.5" x2="322.2" y2="347.6" gradientUnits="userSpaceOnUse">
			<stop offset="0" stop-color="#ccedff"/>
			<stop offset="1" stop-color="#9d68c2"/>
		</linearGradient>
		<linearGradient id="g72" x1="825.8" y1="182.7" x2="825.8" y2="232" gradientUnits="userSpaceOnUse">
			<stop offset="0" stop-color="#d93de3"/>
			<stop offset="1" stop-color="#ff6dba"/>
		</linearGradient>
		<linearGradient id="g73" x1="1047" y1="182.7" x2="1047" y2="232" gradientUnits="userSpaceOnUse">
			<stop offset="0" stop-color="#a242ea"/>
			<stop offset="1" stop-color="#fe117e"/>
		</linearGradient>
		<linearGradient id="g74" x1="899.3" y1="548.2" x2="872.1" y2="764.4" gradientUnits="userSpaceOnUse">
			<stop offset="0" stop-color="#ff06da"/>
			<stop offset="1" stop-color="#7837a0"/>
		</linearGradient>
		<linearGradient id="g75" x1="200.4" y1="208.7" x2="200.4" y2="226.6" gradientUnits="userSpaceOnUse">
			<stop offset="0" stop-color="#459fff"/>
			<stop offset="1" stop-color="#a96dff"/>
		</linearGradient>
		<linearGradient id="g76" x1="1042.6" y1="413.8" x2="1042.6" y2="436.1" gradientUnits="userSpaceOnUse">
			<stop offset="0" stop-color="#459fff"/>
			<stop offset="1" stop-color="#a96dff"/>
		</linearGradient>
		<linearGradient id="g77" x1="174.2" y1="208.7" x2="174.2" y2="226.6" gradientUnits="userSpaceOnUse">
			<stop offset="0" stop-color="#b31a8f"/>
			<stop offset="1" stop-color="#fe117e"/>
		</linearGradient>
		<linearGradient id="g78" x1="747.9" y1="272.8" x2="747.9" y2="285.5" gradientUnits="userSpaceOnUse">
			<stop offset="0" stop-color="#b31a8f"/>
			<stop offset="1" stop-color="#fe117e"/>
		</linearGradient>
		<linearGradient id="g79" x1="324.6" y1="551.7" x2="324.6" y2="564.3" gradientUnits="userSpaceOnUse">
			<stop offset="0" stop-color="#8642a0"/>
			<stop offset="1" stop-color="#6456c0"/>
		</linearGradient>
		<linearGradient id="g80" x1="981" y1="615.4" x2="981" y2="626.7" gradientUnits="userSpaceOnUse">
			<stop offset="0" stop-color="#8642a0"/>
			<stop offset="1" stop-color="#6456c0"/>
		</linearGradient>
		<linearGradient id="g81" x1="960.9" y1="472.2" x2="960.9" y2="565.5" gradientUnits="userSpaceOnUse">
			<stop offset="0" stop-color="#0683e3"/>
			<stop offset="1" stop-color="#6de2ff"/>
		</linearGradient>
		<linearGradient id="g82" x1="324.8" y1="580.9" x2="324.8" y2="697.6" gradientUnits="userSpaceOnUse">
			<stop offset="0" stop-color="#0683e3"/>
			<stop offset="1" stop-color="#6de2ff"/>
		</linearGradient>
		<linearGradient id="g83" x1="475.9" y1="517" x2="513" y2="610.2" gradientUnits="userSpaceOnUse">
			<stop offset="0" stop-color="#1852a0"/>
			<stop offset="1" stop-color="#067ed3"/>
		</linearGradient>
		<linearGradient id="g84" x1="485.8" y1="519" x2="513.1" y2="620.5" gradientUnits="userSpaceOnUse">
			<stop offset="0" stop-color="#1852a0"/>
			<stop offset="1" stop-color="#067ed3"/>
		</linearGradient>
		<linearGradient id="g85" x1="486.9" y1="506.7" x2="531.7" y2="598.8" gradientUnits="userSpaceOnUse">
			<stop offset="0" stop-color="#188dc1"/>
			<stop offset="1" stop-color="#06bfe7"/>
		</linearGradient>
		<linearGradient id="g86" x1="406.2" y1="101.2" x2="383.3" y2="186.1" gradientUnits="userSpaceOnUse">
			<stop offset="0" stop-color="#188dc1"/>
			<stop offset="1" stop-color="#06bfe7"/>
		</linearGradient>
		<linearGradient id="g87" x1="805.1" y1="207.9" x2="787.8" y2="272.1" gradientUnits="userSpaceOnUse">
			<stop offset="0" stop-color="#1852a0"/>
			<stop offset="1" stop-color="#067ed3"/>
		</linearGradient>
		<linearGradient id="g88" x1="1009.5" y1="316" x2="1025.1" y2="258.1" gradientUnits="userSpaceOnUse">
			<stop offset="0" stop-color="#188dc1"/>
			<stop offset="1" stop-color="#06bfe7"/>
		</linearGradient>
		<linearGradient id="g89" x1="737.5" y1="243.3" x2="749.3" y2="199.5" gradientUnits="userSpaceOnUse">
			<stop offset="0" stop-color="#1852a0"/>
			<stop offset="1" stop-color="#067ed3"/>
		</linearGradient>
	</defs>
	<style>
		.s0 { fill: #f1f1f4 } 
		.s1 { fill: #dbdfff } 
		.s2 { fill: url(#g1) } 
		.s3 { fill: url(#g2) } 
		.s4 { fill: #e5e2ff } 
		.s5 { fill: url(#g3) } 
		.s6 { opacity: .6;mix-blend-mode: multiply;fill: url(#g4) } 
		.s7 { opacity: .6;mix-blend-mode: multiply;fill: url(#g5) } 
		.s8 { opacity: .5;mix-blend-mode: screen;fill: url(#g6) } 
		.s9 { fill: #ffffff } 
		.s10 { fill: url(#g7) } 
		.s11 { opacity: .5;mix-blend-mode: screen;fill: url(#g8) } 
		.s12 { opacity: .5;mix-blend-mode: screen;fill: url(#g9) } 
		.s13 { fill: #6130a1 } 
		.s14 { opacity: .8;mix-blend-mode: multiply;fill: url(#g10) } 
		.s15 { opacity: .8;mix-blend-mode: multiply;fill: url(#g11) } 
		.s16 { opacity: .8;mix-blend-mode: multiply;fill: url(#g12) } 
		.s17 { fill: #fe9083 } 
		.s18 { fill: #cb4d7a } 
		.s19 { fill: #ee8183 } 
		.s20 { fill: url(#g13) } 
		.s21 { opacity: .6;mix-blend-mode: multiply;fill: url(#g14) } 
		.s22 { fill: url(#g15) } 
		.s23 { fill: #e28183 } 
		.s24 { opacity: .9;mix-blend-mode: multiply;fill: url(#g16) } 
		.s25 { fill: url(#g17) } 
		.s26 { opacity: .6;mix-blend-mode: multiply;fill: url(#g18) } 
		.s27 { fill: url(#g19) } 
		.s28 { fill: url(#g20) } 
		.s29 { opacity: .9;mix-blend-mode: multiply;fill: url(#g21) } 
		.s30 { fill: #ffbcaf } 
		.s31 { fill: url(#g22) } 
		.s32 { opacity: .5;mix-blend-mode: multiply;fill: url(#g23) } 
		.s33 { fill: url(#g24) } 
		.s34 { opacity: .5;mix-blend-mode: multiply;fill: url(#g25) } 
		.s35 { fill: url(#g26) } 
		.s36 { fill: url(#g27) } 
		.s37 { opacity: .5;mix-blend-mode: multiply;fill: url(#g28) } 
		.s38 { opacity: .5;mix-blend-mode: multiply;fill: url(#g29) } 
		.s39 { opacity: .5;mix-blend-mode: multiply;fill: url(#g30) } 
		.s40 { opacity: .5;mix-blend-mode: multiply;fill: url(#g31) } 
		.s41 { opacity: .5;mix-blend-mode: multiply;fill: url(#g32) } 
		.s42 { opacity: .5;mix-blend-mode: multiply;fill: url(#g33) } 
		.s43 { opacity: .5;mix-blend-mode: multiply;fill: url(#g34) } 
		.s44 { opacity: .5;mix-blend-mode: multiply;fill: url(#g35) } 
		.s45 { opacity: .5;mix-blend-mode: multiply;fill: url(#g36) } 
		.s46 { opacity: .8;mix-blend-mode: multiply;fill: url(#g37) } 
		.s47 { opacity: .5;mix-blend-mode: multiply;fill: url(#g38) } 
		.s48 { opacity: .3;mix-blend-mode: multiply;fill: url(#g39) } 
		.s49 { opacity: .5;mix-blend-mode: multiply;fill: url(#g40) } 
		.s50 { opacity: .5;mix-blend-mode: multiply;fill: url(#g41) } 
		.s51 { opacity: .5;mix-blend-mode: multiply;fill: url(#g42) } 
		.s52 { opacity: .5;mix-blend-mode: multiply;fill: url(#g43) } 
		.s53 { fill: url(#g44) } 
		.s54 { opacity: .5;mix-blend-mode: multiply;fill: url(#g45) } 
		.s55 { opacity: .3;mix-blend-mode: multiply;fill: url(#g46) } 
		.s56 { opacity: .5;mix-blend-mode: multiply;fill: url(#g47) } 
		.s57 { opacity: .5;mix-blend-mode: multiply;fill: url(#g48) } 
		.s58 { opacity: .5;mix-blend-mode: multiply;fill: url(#g49) } 
		.s59 { fill: #d1fffc } 
		.s60 { opacity: .5;mix-blend-mode: multiply;fill: #7a4ac0 } 
		.s61 { fill: url(#g50) } 
		.s62 { fill: url(#g51) } 
		.s63 { fill: url(#g52) } 
		.s64 { opacity: .6;mix-blend-mode: multiply;fill: url(#g53) } 
		.s65 { fill: url(#g54) } 
		.s66 { fill: url(#g55) } 
		.s67 { fill: url(#g56) } 
		.s68 { fill: url(#g57) } 
		.s69 { fill: #ffebed } 
		.s70 { fill: #914343 } 
		.s71 { fill: #451414 } 
		.s72 { fill: #571d0f } 
		.s73 { fill: #c6659c } 
		.s74 { fill: #cb5f7d } 
		.s75 { fill: #9f4a8b } 
		.s76 { fill: url(#g58) } 
		.s77 { fill: url(#g59) } 
		.s78 { fill: #d2726c } 
		.s79 { opacity: .6;mix-blend-mode: multiply;fill: url(#g60) } 
		.s80 { opacity: .6;mix-blend-mode: multiply;fill: url(#g61) } 
		.s81 { opacity: .5;mix-blend-mode: multiply;fill: url(#g62) } 
		.s82 { fill: #b55b6d } 
		.s83 { opacity: .8;mix-blend-mode: multiply;fill: url(#g63) } 
		.s84 { opacity: .8;mix-blend-mode: multiply;fill: url(#g64) } 
		.s85 { fill: url(#g65) } 
		.s86 { fill: url(#g66) } 
		.s87 { opacity: .6;fill: #d26df7 } 
		.s88 { fill: #9b4ca2 } 
		.s89 { opacity: .6;mix-blend-mode: multiply;fill: url(#g67) } 
		.s90 { opacity: .3;mix-blend-mode: multiply;fill: url(#g68) } 
		.s91 { opacity: .3;mix-blend-mode: multiply;fill: url(#g69) } 
		.s92 { opacity: .3;mix-blend-mode: multiply;fill: url(#g70) } 
		.s93 { opacity: .3;mix-blend-mode: multiply;fill: url(#g71) } 
		.s94 { mix-blend-mode: multiply;fill: #d1d4fb } 
		.s95 { fill: #e0ffff } 
		.s96 { fill: url(#g72) } 
		.s97 { fill: url(#g73) } 
		.s98 { opacity: .8;fill: url(#g74) } 
		.s99 { fill: #713da2 } 
		.s100 { fill: url(#g75) } 
		.s101 { fill: url(#g76) } 
		.s102 { fill: url(#g77) } 
		.s103 { fill: url(#g78) } 
		.s104 { fill: url(#g79) } 
		.s105 { fill: url(#g80) } 
		.s106 { opacity: .7;fill: url(#g81) } 
		.s107 { fill: #403da2 } 
		.s108 { opacity: .7;fill: url(#g82) } 
		.s109 { fill: url(#g83) } 
		.s110 { fill: url(#g84) } 
		.s111 { fill: url(#g85) } 
		.s112 { opacity: .5;mix-blend-mode: multiply;fill: #601734 } 
		.s113 { mix-blend-mode: soft-light;fill: #b3d9ff } 
		.s114 { fill: #ff1d9c } 
		.s115 { fill: #6877ff } 
		.s116 { fill: #4f31e0 } 
		.s117 { fill: url(#g86) } 
		.s118 { fill: url(#g87) } 
		.s119 { fill: url(#g88) } 
		.s120 { fill: url(#g89) } 
		.s121 { fill: #744ca2 } 
		.s122 { fill: #cbd1ff } 
	</style>
	<g id="Layer 3">
		<g id="&lt;Clip Group&gt;">
			<g id="&lt;Group&gt;">
				<path id="&lt;Compound Path&gt;" fill-rule="evenodd" class="s0" d="m904.1 409.3l-5.1 0.2-0.1-4.2h-0.2l-1.5 4.3-7.2 0.2q-2 0-3.4-0.4-1.4-0.5-2.3-1.4-0.9-0.9-1.3-2.2-0.5-1.3-0.5-2.9l-0.1-3.7q-0.1-1.6 0.3-2.9 0.3-1.4 1.2-2.3 0.8-1 2.2-1.5 1.4-0.6 3.4-0.6l13.4-0.4q0.7 0 0.7 0.7zm-5.5-12.9q0-0.1-0.1-0.3-0.1-0.1-0.3-0.1l-8.2 0.3q-1.4 0-2 0.7-0.6 0.6-0.6 2.2l0.1 3q0.1 1.7 0.7 2.3 0.6 0.6 2.1 0.6l8.6-0.3z"/>
				<path id="&lt;Compound Path&gt;" class="s0" d="m874 403.1l-7 0.2-0.1-3.7 8.4-0.2-0.1-2.3q0-0.1-0.1-0.2 0-0.1-0.2-0.1l-10.2 0.3q-0.2 0-0.2 0.3l0.1 2.4h-0.2l-4.8-1.6-0.1-4.7q0-0.7 0.7-0.7l19.2-0.6q0.7 0 0.7 0.7l0.5 16.4q0.1 0.8-0.7 0.8l-19.7 0.6-0.2-4.7 15.1-0.4q0.4 0 0.3-0.4l-0.1-5.3h-0.2z"/>
				<path id="&lt;Compound Path&gt;" class="s0" d="m836.8 398l-0.1-3.7q0-0.8 0.8-0.8l15.9-0.5q2.4-0.1 3.4 0.9 1.1 1.1 1.2 3v1.3q0 1-0.2 1.7-0.2 0.7-0.7 1.2-0.4 0.5-1.2 0.8-0.8 0.3-1.8 0.5l-10.7 1.7q-0.5 0.1-0.6 0.3-0.2 0.1-0.2 0.6v0.5q0.1 0.6 0.3 0.8 0.2 0.2 0.8 0.2l14.3-0.4 0.1 4.6-15.9 0.5q-1.4 0.1-2.5-0.2-1-0.3-1.6-0.8-0.6-0.6-0.9-1.4-0.3-0.9-0.4-2v-1.4q0-1 0.1-1.7 0.2-0.8 0.7-1.3 0.4-0.5 1.1-0.8 0.8-0.4 1.8-0.6l11.1-1.8q0.5-0.1 0.6-0.3 0.2-0.1 0.2-0.7v-0.4q0-0.4-0.2-0.6-0.2-0.2-0.8-0.2l-9.4 0.3q-0.3 0-0.3 0.3l0.1 1.9h-0.2z"/>
				<path id="&lt;Compound Path&gt;" class="s0" d="m829.8 411.6l-0.5-17.9 5-0.1 0.6 17.8z"/>
				<path id="&lt;Compound Path&gt;" class="s0" d="m811.1 407.2q0 0.3 0.3 0.3l8.5-0.2q1.4-0.1 2-0.7 0.6-0.7 0.5-2.3l-0.1-3.2q0-0.8-0.1-1.3-0.2-0.6-0.5-0.9-0.4-0.3-0.9-0.4-0.5-0.2-1.2-0.1l-8.6 0.2q-0.2 0-0.2 0.3l0.1 1.7h-0.2l-4.8-1.6-0.1-3.8q0-0.8 0.7-0.8l13.4-0.4q2-0.1 3.4 0.4 1.4 0.5 2.3 1.4 0.9 0.8 1.3 2.1 0.5 1.4 0.5 3l0.1 3.7q0.1 1.6-0.3 2.9-0.3 1.3-1.2 2.3-0.8 0.9-2.2 1.5-1.4 0.5-3.4 0.6l-13.4 0.4q-0.6 0-0.7-0.7l-0.2-8.8 5-0.1v0.2q-0.1 0.3-0.1 0.8 0 0.4 0 0.8z"/>
				<path id="&lt;Compound Path&gt;" class="s0" d="m802.9 394.5q0.7 0 0.7 0.7l0.5 17.2-4.6 0.1-0.4-13.4q0-0.4-0.4-0.4h-0.2q-0.4 0-0.5 0.3l-6.6 13.1q-0.2 0.4-0.5 0.5-0.2 0.2-0.8 0.2l-7.2 0.2q-0.7 0-0.7-0.7l-0.6-17.1 4.6-0.2 0.4 13.5q0.1 0.4 0.4 0.4h0.3q0.3-0.1 0.5-0.4l6.4-13q0.1-0.4 0.4-0.6 0.2-0.1 0.8-0.2z"/>
			</g>
			<path id="&lt;Path&gt;" class="s1" d="m661.9 81c171.2 0 310 138.8 310 310.1 0 171.2-138.8 310-310 310-171.2 0-310-138.8-310-310 0-171.3 138.8-310.1 310-310.1z"/>
			<path id="&lt;Path&gt;" class="s1" d="m417.3 429.1c77.9 0 141 63.1 141 141 0 77.9-63.1 141.1-141 141.1-77.9 0-141-63.2-141-141.1 0-77.9 63.1-141 141-141z"/>
			<g id="&lt;Group&gt;">
				<path id="&lt;Compound Path&gt;" fill-rule="evenodd" class="s2" d="m889.8 371.2c7.6-13.1 21.1-18.5 21.1-18.5l4.7 2.2-10.6 19.2c1.4 7.4 6.5 11.4 6.5 11.4 0 0 6.4 1.3 13-2.4l7.9-20.4 4.7 2.2c0 0 4.5 13.8-0.7 28.1 0 0-2 4.6-2.3 5-1.9 2.2-6.7 4.7-16.1 4.1l-32.4 61.8c2.6 4.7 3.1 10.5 0.7 15.7-4 8.5-14.1 12.1-22.6 8.2-8.4-4-12.1-14.1-8.1-22.6 2.4-5.2 7.2-8.6 12.4-9.5l26.6-64.5c-6.3-6.6-7.6-11.9-7.1-14.9 0.1-0.7 2.3-5.1 2.3-5.1zm-26.6 106.6l8.5 4 7.8-5.4-0.8-9.4-8.6-4-7.8 5.4z"/>
				<path id="&lt;Compound Path&gt;" fill-rule="evenodd" class="s3" d="m887.5 376.3c7.6-13.2 21.1-18.6 21.1-18.6l4.7 2.2-10.6 19.2c1.4 7.4 6.5 11.5 6.5 11.5v-0.1c0 0 6.3 1.3 12.9-2.3l7.9-20.5 4.7 2.2c0 0 4.5 13.8-0.6 28.1 0 0-7.4 9.8-18.5 9.1l-32.4 61.9c2.7 4.6 3.2 10.4 0.7 15.6-3.9 8.5-14 12.2-22.5 8.2-8.5-4-12.2-14-8.2-22.5 2.4-5.2 7.2-8.6 12.5-9.5l26.6-64.5c-7.7-8.1-4.8-20-4.8-20zm-26.7 106.6l8.6 4 7.7-5.4-0.8-9.5-8.6-4-7.7 5.4z"/>
				<path id="&lt;Path&gt;" class="s4" d="m937.1 364.9l-2.4 5-4.7-2.2 2.4-5z"/>
				<path id="&lt;Path&gt;" class="s4" d="m915.6 354.9l-2.3 5-4.7-2.2 2.3-5z"/>
				<path id="&lt;Path&gt;" class="s4" d="m871.7 481.8l-2.3 5.1-8.6-4 2.4-5.1z"/>
				<g id="&lt;Group&gt;">
					<path id="&lt;Compound Path&gt;" fill-rule="evenodd" class="s5" d="m908.7 411.7l-26.2 50.3c-6.9 0.3-10.6-4.9-10.6-4.9l21.3-52.6c9.6-0.3 15.5 7.2 15.5 7.2zm-34.7 45.8c0.7 0.7 1.9 1.5 3.3 2.2q1.8 0.8 3.7 1.1l26.2-49.3c-1.3-1.1-3.5-2.8-6.3-4.1q-3.2-1.5-6.5-1.9z"/>
					<path id="&lt;Path&gt;" class="s4" d="m881 460.8l1.5 1.2c-7.6 0.4-10.6-4.9-10.6-4.9l2.1 0.4c3.2 2.9 7 3.3 7 3.3z"/>
					<path id="&lt;Path&gt;" class="s6" d="m908.7 411.7l-1.5-0.2c0 0-4.5-4.6-12.8-6l-1.2-1c0 0 3.4-0.6 8.6 1.9 5.2 2.4 6.9 5.3 6.9 5.3z"/>
				</g>
				<path id="&lt;Path&gt;" class="s7" d="m910.6 416.2c0 0 0.5-8-9.4-12-8.4-3.5-12.3 0.3-12.3 0.3l3.4-8.2c10.7 8.6 23.3 10.8 23.3 10.8z"/>
				<path id="&lt;Path&gt;" class="s8" d="m888.9 404.5c2.4-1.7 5.2-1.8 5.2-1.8l-25.4 61.2-3-3.1z"/>
				<path id="&lt;Path&gt;" class="s9" d="m888.9 404.5c0 0 2.6 8.2-5 12.1z"/>
			</g>
			<g id="&lt;Group&gt;">
				<g id="&lt;Group&gt;">
					<path id="&lt;Path&gt;" class="s10" d="m555.7 637.5l-0.1-0.1c-0.3-0.5-1.6-2.7-1.6-6 0-2.4 4.7-5.6 8.2-7.8 2.1-1.2 3.7-2 3.7-2l160.2 1c0 0 2.8 2.1 5.1 4.2 1.6 1.5 3.1 3 3.2 3.7 0.4 1.8-1 4.5-1.1 4.8 0 0 42.2 87.6 37.6 164.7h-85.9l-34.3-125c0 0-10.9-4-16.4-0.7 0 0-22.9 71.1-32.8 125.7h-94c0 0 13.8-97.7 48.2-162.5z"/>
					<path id="&lt;Path&gt;" class="s11" d="m705.5 645.6c19.3-4.5 44.2 32.3 55.7 82.2 11.5 49.8 5.2 93.8-14.1 98.3-19.3 4.4-44.3-32.4-55.8-82.2-11.4-49.9-5.1-93.9 14.2-98.3z"/>
					<path id="&lt;Path&gt;" class="s12" d="m584.9 645.7c19 5.4 23.3 49.7 9.5 98.9-13.8 49.3-40.4 84.9-59.5 79.5-19.1-5.3-23.3-49.6-9.5-98.8 13.8-49.3 40.4-84.9 59.5-79.6z"/>
					<g id="&lt;Group&gt;">
						<path id="&lt;Path&gt;" class="s13" d="m657.3 681.5l-6.9-6.1 0.6-0.8 7.1 6.2 0.1 0.2c0.3 0.5 28 54.5 38.9 118.9l-0.9 0.2c-10.7-63.1-37.6-116.2-38.9-118.6z"/>
					</g>
					<g id="&lt;Group&gt;">
						<path id="&lt;Path&gt;" class="s13" d="m587.8 799.9c10.9-64.4 39.4-118.9 39.7-119.4l6.4-5.9 0.7 0.8-6.3 5.6c-1.2 2.4-28.8 56-39.5 119.1z"/>
					</g>
					<path id="&lt;Path&gt;" class="s14" d="m606 647.7l-43.8-24.1c2.1-1.2 3.7-2 3.7-2l160.2 1c0 0 2.8 2.1 5.1 4.2l-61 37.2c1.4-0.6 49.4-19.2 64.2-33.5l3 2.3-4.1 2.5c0 0-34.4 21.5-57.5 48.4 0 0 23.5 63.9 31.5 116.3h-22.3l-34.3-125c0 0-10.9-4-16.4-0.7 0 0-22.9 71.1-32.8 125.7h-35.6c0 0 30.3-89 48.5-123.9 0 0-25.4-31.1-58.7-38.6l-0.1-0.1c-0.3-0.5-1.6-2.7-1.6-6z"/>
					<path id="&lt;Path&gt;" class="s15" d="m623.3 710.8l-3.3-36.5-4.4-12.2 18.7 12.2z"/>
					<path id="&lt;Path&gt;" class="s16" d="m650.7 675l19.5-11 41.7-18.8-53.1 35.1-3.2 12.6z"/>
				</g>
				<g id="&lt;Group&gt;">
					<path id="&lt;Path&gt;" class="s17" d="m597.1 299c0.2-1.2 0.4-3.1 0.6-5.4 0.1-1.9 0.2-4.1 0.2-6.6-0.1-3.6-0.3-7.6-1-11.9l46.8-24.8 13.6-7.2c0 0 0.1 0.6 0.3 1.7 0.3 2.2 1.1 6.2 2.5 11.4 1.7 6.2 4.2 14 8 22.4 0.5 1 0.9 2 1.4 3l0.1 0.1q0.2 0.3 0.3 0.7c0 0-0.1 0.6-0.5 1.8q0 0 0 0c-0.4 1.4-1.1 3.5-2.2 6.2q0 0.1 0 0.2c-5.6 14.2-19.9 42.8-49.1 51.9 0 0-2.3-2-5.5-6.3-3.6-5-8.5-13-12.4-24.3q-1.9-5.2-3.3-11.3c0 0 0.1-0.4 0.2-1.3 0-0.1 0-0.2 0-0.3z"/>
					<path id="&lt;Path&gt;" class="s18" d="m597 298.2l0.7-4.6 59.9-48.8 2.5 11.4c0 0-25.2 53.5-38.5 58.2-12.1 4.4-21.7-4.6-24.1-13.5q0 0 0 0-0.3-0.8-0.4-1.6-0.1-0.4-0.1-0.8z"/>
				</g>
				<g id="&lt;Group&gt;">
					<g id="&lt;Group&gt;">
						<path id="&lt;Path&gt;" class="s19" d="m796.4 288.7c0 0 3.7-20.2 2.1-35.1-1.7-14.9 0.4-31.8 0.4-31.8 0 0 3.6-1.5 6.3 0 2.6 1.5 8.8 16.9 6 29.3-2.8 12.4-0.6 42.1-0.6 42.1h4.2l9.1-12.5 4.4-1.3c0 0 25.4 24 25 38.3l-3.3 12.7-31.3-1.1-20.5-23.4z"/>
						<path id="&lt;Path&gt;" class="s20" d="m841.2 283.7l0.2 4.1 10.2 7.2v5.6l8.7 7.3c-0.6 8.9-9.3 15.7-9.3 15.7-5.2 0.2-7.2-4.6-7.2-4.6l1.4-4.6-5.5 5.5c-5.8-0.4-6.9-6.8-6.9-6.8l-1.6 1.8c-6.6-0.4-7.2-6-7.2-6 3.6-13.6 4.3-29.5 4.3-29.5 6.9-0.1 12.9 4.3 12.9 4.3z"/>
						<path id="&lt;Path&gt;" class="s21" d="m798.1 249.3c0 0 1.5 3.9 3.7 5.5 2.2 1.5 8.5 2.6 8.5 2.6l0.3 35.8h4.2l9.1-12.5c0 0-4.7 7.1-4.9 12.5l3.6 1.7 3.1-10.7 1.5 7.7-1.5 9.6c0 0-5.4-4.6-15.2-4.8l-1.4 2.6c0 0 17.6 14.7 21.7 23.3 0 0-8.7-11.1-28.6-23.3l-1.9-5.9-2.5-14c0 0 2.4-20.2 0.3-30.1z"/>
						<path id="&lt;Path&gt;" class="s22" d="m795.2 285.1c3.4-8.2 8.7-25.6 8.7-25.6 0 0 4.5 0 7 2.6 2.5 2.7 4.9 24.4-9.7 31.5l1 5.7c0 0 20.3 12.5 28.6 23.3l19.2 7.8c0 0 0.5 11.9-0.1 15.1l-0.2 0.6v0.1c-1.9 3.4-12.8 9.7-12.8 9.7l-1 16.5c0 0-20.4-2.5-28.8-20.8 0 0-1.2-5.8-3.1-10.2-1.9-4.4-19.1-24.9-20.7-29.8-1.6-4.9 8.5-18.4 11.9-26.5z"/>
						<path id="&lt;Path&gt;" class="s23" d="m841.4 287.8c-0.6 15.4-8.6 25.3-8.6 25.3 6.3-9.5 8.4-29.4 8.4-29.4z"/>
						<path id="&lt;Path&gt;" class="s23" d="m851.6 300.6c-3.2 15-11.9 19.3-11.9 19.3 9.9-8.9 11.9-24.9 11.9-24.9z"/>
						<path id="&lt;Path&gt;" class="s24" d="m801.4 337.2c0 0 21.6 21 35.5 18.7l-1 16.5c0 0-22.7-2-30.1-25.9 0 0-2.7-6.9-4.4-9.3z"/>
					</g>
					<g id="&lt;Group&gt;">
						<path id="&lt;Path&gt;" class="s25" d="m349.9 357.5l7.4 8.2 3.1-0.6-6.2-8-2-2.6 20.1-21.2 8.7 8.3 8.6 8.1 3.1-1.6-0.1-0.2c-0.8-1.8-6.5-14-11.5-23.3q-0.1 0-0.1 0c-1.1-2-2.2-3.9-3.2-5.5-5.9-9.6-11.6-25.8-11.6-25.8 1.7-3.8 4.7-3 4.7-3 7.1 4 20.3 18.8 22.6 26.5q0 0 0 0.1 0.1 0.1 0.1 0.2 0.1 0.2 0.1 0.4 0.1 0.2 0.1 0.3c3 8.9 15.2 35.2 17.5 38.6 2.4 3.6 7.8 8.1 9.1 8.1 1.3 0 9.3-8.9 10.4-11.5 1-2.5 1.6-7.3 1.6-7.3 9.2-6.3 26.1 0.3 27.7 2.2 1.5 1.8 0 5.8 0 5.8 0 0-10.9 0.6-13.3 1.9-2.4 1.2-13.1 10.9-14.4 15.6-1.3 4.7-1.9 16.1-3.7 19.9-1.7 3.7-8.3 8.9-8.3 8.9 1 4.9 5.2 9.2 5.2 9.2-0.9 24.5-12.8 32-12.8 32l-18.4-27.9h-7.9c-23.3-11.1-43.2-47.5-43.2-47.5z"/>
						<path id="&lt;Path&gt;" class="s26" d="m357.3 365.7l3.1-0.6-6.2-8 31.1-5.5-4.3-10 8.6 8.1 3.1-1.6-0.1-0.2-11.6-23.3q0 0 0.1 0c0.6 0.2 10.7 3.2 12.4 0 1.2-2.3 0.7-5.3 0.3-6.8 3 8.9 15.2 35.2 17.5 38.6 2.4 3.6 7.8 8.1 9.1 8.1-16.3 6.6-21.1 28.3-21.1 28.3 1.3-17.2 15.7-29.9 15.7-29.9l-7.9-10c0 0-2.7-1.5-10.3 0.8-7.6 2.2-42.5 29.2-42.5 29.2l-6.4-9.4z"/>
						<path id="&lt;Path&gt;" class="s27" d="m387.2 354.2c-2.4 8.1-7.9 6.4-7.9 6.4l-4.5-3.4 1.1 3.2c-1 4.9-6.8 6.5-6.8 6.5-12.5-4.1-17.5-13.4-17.5-13.4 5.7-9.5 11.6-10.7 11.6-10.7l-0.9-2.5c3.9-7.9 10-7 10-7z"/>
						<path id="&lt;Path&gt;" class="s28" d="m341.5 363.3c0 0-1.3-5.8 4.9-9.6l12 13.2c0 0-0.4 4.3-5.6 5.2 0 0-8.2-2.8-11.3-8.8z"/>
						<path id="&lt;Path&gt;" class="s29" d="m420.4 400l1.2 3.4-18.4 23.3-8.8-13.4c20.4-6.7 34.3-22.2 34.3-22.2-1 3.4-8.3 8.9-8.3 8.9z"/>
						<path id="&lt;Path&gt;" class="s23" d="m363.2 342.8c0 0 5.8 9.6 11.6 14.4l1.1 3.2c0 0-11.2-7.7-15.4-16.4 0 0 1.4-1 2.7-1.2z"/>
					</g>
					<path id="&lt;Path&gt;" class="s30" d="m786.9 300.4c3.6-4.8 10.9-18.7 10.9-18.7 0 0 2.5 11.7-1.4 19.8-3.8 8.1-13.1 10.1-13.1 10.1-1-1 0-6.4 3.6-11.2z"/>
				</g>
				<g id="&lt;Group&gt;">
					<path id="&lt;Path&gt;" class="s31" d="m596.9 296.8c0 0 0 0.5 0.1 1.4q0.1 0.4 0.1 0.8 0.2 0.8 0.4 1.9 0 0 0 0c0.4 2.5 1.3 5.8 2.7 9.2 3.3 8.1 9.9 16.9 22.7 16.8 14.9 0 27.3-13.3 35.6-25.4 7-10.3 11.1-19.8 11.1-19.8q-0.1 1.2-0.2 2.5 0 0 0 0c-0.2 3.1-0.7 6.2-1.4 9.2q0 0 0 0.1c-5.8 25.1-26.3 43.7-38.5 52.9-4.7 3.6-8.2 5.7-9.2 6.3q-0.3 0.2-0.3 0.2-0.1-0.1-0.2-0.1c-3.8-2-7-4.4-9.7-7.1-18.2-18.2-13.2-48.9-13.2-48.9z"/>
					<path id="&lt;Path&gt;" class="s32" d="m596.9 296.8c0 0 0 0.5 0.1 1.4q0.1 0.4 0.1 0.8 0.2 0.8 0.4 1.9 0 0 0 0c0.4 2.5 1.3 5.8 2.7 9.2q0 0.8 0 1.8c0.1 3 0.7 6.9 2.5 11.2 1.9 4.2 5.1 9.9 9.9 13.1 4.9 3.2 11.6 4 20.3-1.5 17.5-11 25.6-33.2 25.6-33.2 7-10.3 11.1-19.8 11.1-19.8q-0.1 1.2-0.2 2.5 0 0 0 0c-0.2 3.1-0.7 6.2-1.4 9.2q0 0 0 0.1c-5.8 25.1-26.3 43.7-38.5 52.9-4.7 3.6-8.2 5.7-9.2 6.3l-0.3 0.1h-0.2c-3.8-2-7-4.4-9.7-7.1-18.2-18.2-13.2-48.9-13.2-48.9z"/>
					<path id="&lt;Path&gt;" class="s33" d="m486.2 432.4q0.4-2.6 0.9-5.2c0 0 1.6-0.5 3.9-2q0 0 0-0.1c3-2 7.1-5.9 9.7-13.1 4.2-11.4 8.7-43.5 10.9-52v-0.1q0.3-1.1 0.5-1.7c1.6-3.4 22.2-19.7 40.8-30.3 3.9-2.2 7.6-4.1 11.1-5.7 20.3-8.9 25.4-16.9 25.4-16.9l3-7.2 4.5-1.3v3.8c0 0-0.5 27.7 23.1 45.1 0 0 34-13.4 47.2-55.1q0-0.1 0-0.2 1.4-4.2 2.4-8.7l-0.1-0.1-1.4-3h4.3l9.6 11.8c0 0 25 12.2 50.5 22.3q1.8 0.8 3.5 1.4c22.7 8.9 29.5 10.9 33.4 13.5 4.1 2.8 9.4 28.3 10.6 29.9 1.3 1.5 8.6 3.7 9.9 5.8 0.5 0.7-0.1 3.8-0.9 7.4q0 0 0 0.1-0.1 0.1-0.1 0.2 0 0.3-0.1 0.5c-1.4 5.8-3.5 12.5-3.5 12.5 0 0 0.7 0.6 1.8 1.9 3 3.1 9.2 10.1 15.7 18.9q1.5 2 3 4.1c9.1 13.1 17.9 29.4 18.2 44 0.7 30.7-14.4 60.7-18.2 61.4-2.4 0.5-11.7-5.4-21.9-14.3-4.2-3.6-8.6-7.8-12.7-12.3-2-2-3.8-4.2-5.6-6.3-14.8-18.2-31.1-55.4-31.1-55.4l-2.6 3.1c0 0-2.7 58-16.3 101.2 0 0 15.9 14 14.8 19.7-1.2 5.6-9.9 14.5-10.3 24.6-0.3 10 11 21.8 11 25.6 0 3.8-5.6 6.8-5.6 6.8 0 0 2.2 2.6 2 3.8-0.2 1.1-2.8 3.4-2.8 3.4l2.8 7.8c0 0-37.6 18.1-94.1 15.1-47.7-2.5-62.9-11.8-66.5-14.7l-0.4-0.3-0.4-0.4-0.2-0.1v-8c0 0-9.5-14.8-9.5-17.8 0-1 1.5-3.8 3.5-7.1v-0.1c3.7-6.4 9-15.1 8.3-17.8-1.1-4.1-5.1-7.9-5.3-9.6q0-0.1 0-0.1c-0.2-1.7 8.5-15.5 8.7-18.3 0.2-2.9-9.9-68.8-15.2-84.8l-7.8-12.4-0.1 0.5c-0.6 3.1-4.4 21-17.8 47.8-6.7 13.4-13.4 21.6-19 26.5q-0.1 0-0.1 0-0.1 0.1-0.1 0.1c-6.7 5.8-11.8 6.9-13.4 6.7q0 0-0.3-0.1c-3.8-2.6-20.3-39.9-11.6-94.7z"/>
					<path id="&lt;Path&gt;" class="s34" d="m731.3 408.9l19.9-16.1 6.8-9.6c14.1-31.1 11.4-55.6 11.4-55.6 4.1 2.8 9.4 28.3 10.6 29.9 1.3 1.5 8.6 3.7 9.9 5.8 0.5 0.7-0.1 3.8-0.9 7.4q0 0 0 0.1-0.1 0.1-0.1 0.2 0 0.3-0.1 0.5c-1.4 5.8-3.5 12.5-3.5 12.5 0 0 0.7 0.6 1.8 1.9 3 3.1 9.2 10.1 15.7 18.9l-6.4 41.1-12.5 54.1c-4.2-3.6-8.6-7.8-12.7-12.3-2-2-3.8-4.2-5.6-6.3-14.8-18.2-31.1-55.4-31.1-55.4l-2.6 3.1-16.5-5.6c8.3-4.6 15.9-14.6 15.9-14.6z"/>
					<path id="&lt;Path&gt;" class="s35" d="m772.3 414.7c0.7-3.3 0.7-9 0.8-13.9 0-4 0.1-7.4 0.5-8.3 0.9-2.1 7.2-6.4 9.5-8 2.4-1.5 4.1-13.2 5.9-13.8 1.8-0.6 10.2 3.6 11.3 3.6 1.1 0 1.9-3.4 1.9-3.4v-22l3.6-2.4 1.3 5.1c7.3 16.7 28.8 20.8 28.8 20.8l0.6-10.2c0 0 9.3 4.5 9.6 6.6 0.4 1.9-4.5 12.3-5.3 14.1l-0.1 0.2v0.1c0 0 8.2 5.9 7.9 8.7-0.3 2.9-5.2 9.5-5.7 12.8-0.4 3.4-1 57.1-9.8 75.8-8.9 18.7-18.6 33.8-27.3 33.8 0 0-39.2-20.2-42.7-46.4-3.5-26.3 7.8-47.4 9.2-53.2z"/>
					<path id="&lt;Path&gt;" class="s36" d="m405.1 429.5l7 10.2c0 0 10.3-12.3 13.5-30.5l-2.1-2.5c0 0 3-2.2 3.5-2 0.5 0.2 6.9 8 8.8 8.5 0.6 0.1 1.7-0.5 3.2-1.4 3.3-2.1 8.3-5.8 12-5.5 5.1 0.5 12.8 18.6 16.2 20.3 2.3 1.2 4.7-1.6 7.6-3.4 1.3-0.8 2.8-1.4 4.3-1.3 4.8 0.3 11.5 3.1 11.9 3.3q0 0 0 0c0.6 0.7 13.3 17.9 20.7 38.8 7.7 21.7 9.7 47.5-13.6 63.2q0 0-0.3-0.1c-3.9-2-42.7-21.7-79.8-61.1 0 0 2.3-7.5 0-9.8-2.3-2.2-11.1-8.1-12.9-10.8-1.8-2.8 0-15.9 0-15.9z"/>
					<path id="&lt;Path&gt;" class="s37" d="m405.1 429.5l7 10.2c0 0 10.3-12.3 13.5-30.5l-2.1-2.5c0 0 3-2.2 3.5-2 0 0 0.9 20-11.3 40.4l8.4 12.9c0 0 12.6-17.9 11.7-44.8 0.6 0.1 10.2-6.7 13.6-6.8 2.8 4.9 3.8 30.7 0.4 53.6 0 0 3.3 18.7 18 27.6 14.6 8.8 15-37.6-0.6-61 2.3 1.2 4.7-1.6 7.6-3.4 3.3 2.4 7.3 5.5 11.4 9.2 5.4 4.9 10.9 11 14.7 17.7 10.3 18.5 13.6 33.9 13.6 33.9 0 0-0.2-8.7-2.8-20-2.9-12.4-8.8-28-20.7-38.8v-0.1c3-2 7.1-5.9 9.7-13.1 4.2-11.4 8.7-43.5 10.9-52v-0.1l0.5-1.7c0 0 12.1 23.9 25 39.4l3.4-11 4.9 54.6 3.2 4.4-0.1 0.5c-0.6 3.1-4.4 21-17.8 47.8-14.8 29.5-29.6 33.7-32.6 33.3q0 0-0.3-0.1c-3.9-2-42.7-21.7-79.8-61.1 0 0 2.3-7.5 0-9.8-2.3-2.2-11.1-8.1-12.9-10.8-1.8-2.8 0-15.9 0-15.9z"/>
					<path id="&lt;Path&gt;" class="s38" d="m570.6 621.6c0 0 26.8 11 69.7 10 43-1.1 79.4-13.7 79.4-13.7l2.2-7.8c0 0-66.9 26.5-148.7 5.6 3.1 0.3 100.8 11.5 146.5-11.2 0 0 4.5-7.8 2.5-10.8-2.1-3.1-51.8 7.8-65 6.3-2.5-0.3-2-1.6 0.6-3.5q0 0 0.1 0c2.6-1.9 7.3-4.5 13-7.5q0.1 0 0.1 0c9.4-4.9 21.5-10.8 31.8-16.5q0.4-0.1 0.7-0.4c8.6-4.7 15.8-9.3 19.1-13.1q0.1-0.2 0.3-0.5c11.1-13.8-6.3-23.2-6.3-23.2 0 0-24 31.4-71 33.3q0 0-0.1 0-4.4 0.2-9 0.1c-50.8-2-63.4-19.7-64.3-21.2q-0.1-0.1-0.1-0.1 0 0 0.2 0.2c2.6 1.7 28 17.3 58.7 15.9q4.5-0.2 9.1-0.9c36.3-5.8 64.6-33.6 69.4-45 4.8-11.3 3.8-41.2 3.8-41.2 0 0-29 53.1-91.4 62.4 2.2-0.6 70.9-21.9 83.3-85.1 0 0-3.2-5.8-20.4-10.9-17.2-5-76.1-8.8-76.1-8.8 0 0 67.7 1.5 86.2-1 18.4-2.5 36.4-24.1 36.4-24.1l19.9-16.1-5 16.1 27.4-16.4c0 0-0.2 3.6-0.5 8.3-0.2 4.3-0.6 9.6-0.8 13.9-0.6 8.9 2.2 45.8 15.6 62.5 0 0-9.2-55.7-4.8-92.7l3.9-9.5 2-4.3q0 0.1 0 0.1-0.1 0.1-0.1 0.2 0 0.2-0.1 0.5c-0.4 1.8-1.4 6.9-1.7 14.4-0.3 8.7 0.3 20.7 3.8 34.5 7.3 28.8 28.2 40.1 28.2 40.1 0 0-7.7-25.3-13.3-51.6-2.6-12.1-4.8-24.5-5.5-34.6 1.1 0 1.9-3.4 1.9-3.4v-22c0 0 6.4 17.1 18.7 26 12.1 8.6 24.6-5.4 25.2-6.1l-5.3 14.1-0.1 0.2v0.1c0 0-5.7 20.5-16.7 20.2 0 0 15.1 4.8 24.6-11.5-0.3 2.9-5.2 9.5-5.7 12.8-0.4 3.4-1 57.1-9.8 75.8-8.9 18.7-18.6 33.8-27.3 33.8-3.8 0.8-25.4-14.7-40.2-32.9-14.8-18.2-31.1-55.4-31.1-55.4l-2.6 3.1c0 0-2.7 58-16.3 101.2 0 0 15.9 14 14.8 19.7q0 0 0 0c-1.2 5.7-9.9 14.6-10.3 24.6q0 1.4 0.3 2.9c1.5 9.3 10.7 19.2 10.7 22.7 0 3.8-5.6 6.8-5.6 6.8 0 0 2.2 2.6 2 3.8-0.2 1.1-2.8 3.4-2.8 3.4l2.8 7.8c0 0-37.6 18.1-94.1 15.1-47.7-2.5-62.9-11.8-66.5-14.7l-0.4-0.3-0.4-0.4-0.2-0.1v-8z"/>
					<path id="&lt;Path&gt;" class="s39" d="m556.4 458l-11-16.8c21.5-5.7 54-7.5 54-7.5-26.3 9.6-43 24.3-43 24.3z"/>
					<path id="&lt;Path&gt;" class="s40" d="m569 523.4c0 0 20.3 17 40.2 24.8 20 7.8 39.2 8.6 39.2 8.6 0 0-11.5 3.4-39.7-1.2-28.2-4.5-37.9-19.8-37.9-19.8z"/>
					<path id="&lt;Path&gt;" class="s41" d="m568.2 570.8c-1.1-4.1-5.1-7.9-5.3-9.6 0.6 0.6 10.9 10.7 39.4 16.4 29.4 5.9 42 3.4 42.4 5.1 0.4 1.7-47.3 15.7-84.8 6v-0.1c3.7-6.4 9-15.1 8.3-17.8z"/>
					<path id="&lt;Path&gt;" class="s42" d="m703.7 430.4c19.7-9.8 27.6-21.5 27.6-21.5l19.9-16.1-5 16.1 27.4-16.4c0 0-1.3 18.5-1.3 22.2-0.1 3.6-8.7 30.6-7.7 48.6 1 18.1 4.5 19.7 4.5 19.7l2.1 4.7c-2-2-3.8-4.2-5.6-6.3-14.8-18.2-31.1-55.4-31.1-55.4l-2.6 3.1c0 0-20.3 23.1-29.3 21.9 0 0-8.6-8.9-40.7-12.2 2.3 0.1 23.2 0.9 41.8-8.4z"/>
					<path id="&lt;Path&gt;" class="s43" d="m729.7 456.2c-5.5 18.1-44.1 39.5-44.1 39.5 14.6-15.1 19.6-42 19.6-42l-12.7-18.9c15.3-6.2 22.9-11.3 22.9-11.3l19.1 2.5z"/>
					<path id="&lt;Path&gt;" class="s44" d="m846.1 368.8l-5.4 14.4c0 0-5.6 19.4-16.7 20.2-11 0.9-21.8-32.5-21.8-32.5v-22c0 0 11.7 25.2 24.4 28.1 12.7 2.8 19.5-8.2 19.5-8.2z"/>
					<path id="&lt;Path&gt;" class="s45" d="m780 357.5c0 0-9.8 19.7-22 25.7 0 0 14.5-35 11.4-55.6 0 0 5.3 3.3 10.6 29.9z"/>
					<path id="&lt;Path&gt;" class="s46" d="m545.4 441.2l3.1 4.9c-6.1 24.5-14.8 41.6-14.8 41.6l3.4-90.1 3.4-11c-0.5 20.6 4.9 54.6 4.9 54.6z"/>
					<path id="&lt;Path&gt;" class="s47" d="m418 466l0.9-4.8c18.8-3.8 16.9-48 16.9-48 6.5 51.9-17.8 52.8-17.8 52.8z"/>
					<path id="&lt;Path&gt;" class="s48" d="m467.2 426.6c0 0 0.7 1.6 7.6-3.4 0 0 23.6 16.8 32.7 40.4 0 0-14.5-21.7-22.3-24-7.8-2.4-9.6 6.3-9.6 6.3 0 0-3.1-12.2-8.4-19.3z"/>
					<path id="&lt;Path&gt;" class="s49" d="m842.9 404.7c-10.2 5.6-20.4-1.2-20.4-1.2 17 5.2 26.1-11.6 26.1-11.6 0.7 1.9-5.7 12.8-5.7 12.8z"/>
					<path id="&lt;Path&gt;" class="s50" d="m789 370.7c0 0-12.5 46.8 20.1 82 0 0-21.2-10.9-26-36.1-4.8-25.2 5.9-45.9 5.9-45.9z"/>
					<path id="&lt;Path&gt;" class="s51" d="m564.7 333.3c0 0 1.4 21.1 11.6 36.3 10.1 15.1 30.2 25.4 30.2 25.4 0 0-25.2-9.3-36.8-22.4-11.6-13.1-5-39.3-5-39.3z"/>
					<path id="&lt;Path&gt;" class="s52" d="m693.6 346.5c-9.8 19-60.7 40.1-60.7 40.1 0 0 49.4-31.4 55-49.4 5.7-18 5.7-35.7 5.7-35.7 0 0 9.9 26 0 45z"/>
					<path id="&lt;Path&gt;" class="s53" d="m694.2 385.6v28.8c0 0-66.2-0.5-140.5 4.4l-1.7-25.9c0 0 64.6-7.7 142.2-7.3z"/>
					<path id="&lt;Path&gt;" class="s54" d="m592.4 298.1l4.5-1.3v3.8c0 0-0.5 27.7 23.1 45.1 0 0 34-13.4 47.2-55.1q0-0.1 0-0.2 1.4-4.2 2.4-8.7l-0.1-0.1-1.4-3h4.3c0 0-1.2 6.1-4.4 14.8q0 0 0 0.1c-5.8 16-18.2 40.8-41.8 52.7q-3 1.5-6.2 2.7v9.3c0 0 8-3 18.8-11 13.4-9.9 31.1-27.6 43.1-56.6-0.7 2.6-9.9 34.2-38.4 57-6.7 5.3-14.5 10.2-23.5 14.1 0 0-9-4.1-17.3-16.1-6.1-8.7-11.7-21.7-13.3-40.3z"/>
					<path id="&lt;Path&gt;" class="s55" d="m449.4 406.4c0 0 6.4 21 0.4 53.6 0 0-3.1-41.3-5.3-44.9-2.3-3.6-8.7-1.9-8.7-1.9 0 0 10-5.6 13.6-6.8z"/>
					<path id="&lt;Path&gt;" class="s56" d="m516.8 487.7c-1.2-26-25.8-62.6-25.8-62.6 3-2 7.1-5.9 9.7-13.1 4.2-11.4 8.7-43.5 10.9-52v-0.1q0.3-1.1 0.5-1.7c10.8 23.7 25 39.4 25 39.4l4 2.4 4.3 41.2 3.1 4.9c-0.6 3.1-4.4 21-17.8 47.8-6.7 13.4-13.4 21.6-19 26.5 0.9-1.2 6.2-9 5.1-32.7z"/>
					<path id="&lt;Path&gt;" class="s57" d="m657.9 596.5c1.2-1.9 5.8-4.1 13-7.5q0.1 0 0.1 0c8-3.8 19-8.9 31.8-16.5q0.4-0.1 0.7-0.4c9.1-5.3 15.1-9.7 19.1-13.1 6.3-5.4 7.6-8.4 7.8-9-1.2 5.7-9.9 14.6-10.3 24.6q0 1.4 0.3 2.9-0.1 0.1-0.1 0.1c-18.1 11.6-62.5 18.9-62.5 18.9q0 0 0.1 0z"/>
					<path id="&lt;Path&gt;" class="s58" d="m602.3 577.6c29.4 5.9 42 3.4 42.4 5.1-60.2 5.3-76.5-11.9-76.5-11.9-1.1-4.1-5.1-7.9-5.3-9.6 0.6 0.6 10.9 10.7 39.4 16.4z"/>
					<g id="&lt;Group&gt;">
						<path id="&lt;Compound Path&gt;" fill-rule="evenodd" class="s59" d="m572.2 402.1c0.3 3.9-2.5 6.6-7.2 6.9q-1.2 0.1-2.4 0.2 0.1 2.1 0.3 4.1-2.8 0.3-5.7 0.5-0.7-8.4-1.3-16.7 4-0.4 8.1-0.7c4.7-0.4 7.9 1.9 8.2 5.7zm-5.7 0.5c-0.1-1.2-0.9-1.9-2.5-1.8q-1 0.1-2.1 0.1 0.2 2 0.3 4 1.1-0.1 2.1-0.2c1.6-0.1 2.2-0.9 2.2-2.1z"/>
						<path id="&lt;Compound Path&gt;" fill-rule="evenodd" class="s59" d="m581.7 407.7q-0.8 0.1-1.5 0.1 0.1 2.1 0.3 4.2-2.9 0.2-5.7 0.4-0.6-8.3-1.2-16.7 4.1-0.3 8.1-0.6c4.8-0.3 7.9 1.9 8.2 5.8 0.1 2.4-0.9 4.3-2.9 5.5q2 2.5 3.9 4.9-3 0.2-6 0.4-1.6-2-3.2-4zm0-8.2q-1.1 0.1-2.1 0.1 0.1 2 0.3 4 1-0.1 2-0.2c1.6-0.1 2.3-0.9 2.2-2.1-0.1-1.2-0.9-1.9-2.4-1.8z"/>
						<path id="&lt;Compound Path&gt;" fill-rule="evenodd" class="s59" d="m591.5 402.9c-0.4-5.1 3.4-9 9-9.4 5.5-0.3 9.7 3.2 10 8.2 0.3 5.1-3.5 9-9 9.4-5.5 0.3-9.7-3.1-10-8.2zm13.3-0.8c-0.2-2.6-2-4.1-4.1-4-2.1 0.1-3.7 1.8-3.5 4.4 0.2 2.6 1.9 4.1 4 4 2.1-0.1 3.7-1.8 3.6-4.4z"/>
						<path id="&lt;Compound Path&gt;" class="s59" d="m610.6 408q1.4-1.8 2.9-3.7c0.9 1 1.8 1.5 2.7 1.5 1.2-0.1 1.8-0.8 1.7-2.2q-0.1-3.2-0.3-6.4-2.9 0.2-5.7 0.3-0.1-2.1-0.3-4.2 5.7-0.3 11.4-0.6 0.3 5.1 0.5 10.3c0.3 4.6-2.1 7-6.6 7.2-2.6 0.1-4.8-0.6-6.3-2.2z"/>
						<path id="&lt;Compound Path&gt;" class="s59" d="m640.2 404.4q0.1 2.2 0.2 4.3-7 0.3-14 0.6-0.4-8.4-0.8-16.7 6.9-0.4 13.8-0.7 0.1 2.2 0.2 4.3-4.1 0.2-8.2 0.4 0.1 0.9 0.1 1.9 3.6-0.1 7.2-0.3 0.1 2 0.1 4.1-3.5 0.1-7.1 0.3 0.1 1.1 0.1 2.2 4.2-0.2 8.4-0.4z"/>
						<path id="&lt;Compound Path&gt;" class="s59" d="m641.6 400.3c-0.2-5.2 3.6-9 9.1-9.2 3.3-0.1 5.9 1 7.7 3.1q-1.8 1.7-3.5 3.3c-1.1-1.2-2.3-1.9-3.8-1.8-2.3 0.1-3.9 1.8-3.8 4.3 0.1 2.6 1.8 4.2 4.1 4.1 1.5-0.1 2.7-0.8 3.6-2.1q1.9 1.5 3.7 3c-1.6 2.3-4.1 3.5-7.4 3.7-5.4 0.2-9.5-3.3-9.7-8.4z"/>
						<path id="&lt;Compound Path&gt;" class="s59" d="m663.6 395.5q-2.5 0-4.9 0.1-0.1-2.2-0.2-4.4 7.8-0.2 15.6-0.4 0.1 2.2 0.2 4.4-2.5 0-5 0.1 0.2 6.2 0.3 12.4-2.8 0.1-5.6 0.2-0.2-6.2-0.4-12.4z"/>
						<path id="&lt;Compound Path&gt;" class="s59" d="m674.9 406.2q0.9-2.1 1.8-4.2c1.6 0.9 3.7 1.5 5.6 1.4 1.6 0 2.1-0.3 2.1-0.9 0-2.1-9.3-0.2-9.4-6.5-0.1-3.1 2.5-5.7 7.7-5.8 2.3-0.1 4.6 0.4 6.4 1.3q-0.8 2.1-1.6 4.2-2.5-1.2-4.8-1.2c-1.6 0-2.1 0.5-2.1 1.1 0 2 9.3 0.2 9.4 6.4 0.1 3-2.5 5.7-7.7 5.8-2.8 0-5.6-0.6-7.4-1.6z"/>
					</g>
				</g>
				<path id="&lt;Path&gt;" class="s60" d="m564 322.2c20.3-8.9 25.4-16.9 25.4-16.9l3-7.2 4.5-1.3c0 0 0 0.5 0.1 1.4l0.7-4.6c0.1-1.9 0.2-4.1 0.2-6.6l45.8-36.7 13.6-7.2c0 0 0.1 0.6 0.3 1.7l2.5 11.4c1.7 6.2 4.2 14 8 22.4h4.3l9.6 11.8c0 0 25 12.2 50.5 22.3q1.8 0.8 3.5 1.4l-38 13.8-8.3 2.9-46.2 16.8-4.7-0.4-9.3-0.8-3.3-0.2-6.2-0.5h-9.9-7.4v-0.1l-11.3-5.2-38.5-12.5c3.9-2.2 7.6-4.1 11.1-5.7z"/>
				<g id="&lt;Group&gt;">
					<path id="&lt;Path&gt;" class="s61" d="m552.1 229c0.6-4.4 3.8-8.4 6-13.4v-0.1c0.6-1.5 1.2-3.1 1.6-4.9 1-5-1.2-16.5-2.8-25.9-0.2-1.3-0.4-2.6-0.6-3.8-0.5-3.2-0.8-5.9-0.8-7.8 0-7.8 5.5-21.5 5.5-21.5 17.7-17.2 72.2-15.2 84.1-1.8 11.9 13.4 4.8 38.1 4.8 52.5 0 14.4 8.6 32.9 7.6 40-1 7-17.7 35.3-37.5 44.9-19.8 9.6-37.8 5.6-37.8 5.6-23.2-17.7-30.9-58.1-30.1-63.8z"/>
					<path id="&lt;Path&gt;" class="s62" d="m650.1 198.3c0 0 4.9-12.3 17.2-12.5 0 0 7.2 2.8 8.3 8.3 0 0-2.6 19.9-5.7 29.2-3 9.3-14.1 7.9-14.1 7.9 0 0-9.7-14.8-5.7-32.9z"/>
					<path id="&lt;Path&gt;" class="s63" d="m602.7 238.8c0 0-4.1-0.3-5.8 1-1.8 1.3-8.2 7.6-16.4 9.3-8.1 1.7-13.6-5.3-15.3-5.6-1.8-0.4-3.7 2.1-3.7 2.1 0 0 0.8-2.9 5-4.1 0 0 1.7 6.5 13.5 4.3 11.8-2.3 16.9-7.5 16.9-7.5l0.6-1.1c0 0 3.3 0.7 5.2 1.6z"/>
					<path id="&lt;Path&gt;" class="s64" d="m620.2 177.6l-0.2-1.3c0 0-11.8-20.6-35.1-21.2-23.3-0.6-28.6 14-28.6 14l-4.3-6.5 9.9-20 68.4-1.1 16.7 13.4 2.1 32.9-7.4 43.5-18 9.6-5.1-4.5c1.9-14.5 12.7-27.8 12.7-27.8l-7.9-5.5c0 0-20.3 9.8-32 6.8 0 0-8.8-25.7-8.3-44.7 0 0 30 4.4 37.1 12.4z"/>
					<path id="&lt;Path&gt;" class="s65" d="m611.6 175c-7.5-1.7-22.3-1.2-22.3-1.2-4.7-3.1-7.2-11.2-7.2-11.2 0 0 11.4 2.8 25.4 6.1 12.6 3 13.7 10.4 13.7 10.4 0 0-2.1-2.4-9.6-4.1z"/>
					<path id="&lt;Path&gt;" class="s66" d="m556.3 169.1c0 0 7.2 5.5 12 18.6 0 0-4.7-6.1-8.9-6-2.9 0.1-2.5 3-2.5 3 0 0-2.9-7.8-0.6-15.6z"/>
					<path id="&lt;Path&gt;" class="s67" d="m594.3 195.6c0.6-8 6.1-15.1 6.1-15.1 15.3 4 16.1 19.7 16.1 19.7-14-6.1-22.2-4.6-22.2-4.6z"/>
					<path id="&lt;Path&gt;" class="s68" d="m559.7 203.4c-0.5-10.4 4.4-14.1 4.4-14.1 7.2 4.6 8.4 17.1 8.4 17.1-8.5-4.5-12.8-3-12.8-3z"/>
					<path id="&lt;Path&gt;" class="s69" d="m616.5 200.2c0 0-5 6.1-18.9 7.3 0 0-2.7-4-2.4-12 0 0 12.8-1.2 21.3 4.7z"/>
					<path id="&lt;Path&gt;" class="s69" d="m572.5 206.4v1.9c0 0-2.1 4.5-9.8 5.2 0 0-2.5-3.9-2.7-10.1 0 0 4.9-1.3 12.5 3z"/>
					<path id="&lt;Path&gt;" class="s70" d="m601.6 195.2c0 0 3.5 4.3 3.2 11.1 0 0-4.6 1.1-7.2 1.2 0 0-3.1-4.2-2.4-12 0 0 4-0.8 6.4-0.3z"/>
					<path id="&lt;Path&gt;" class="s70" d="m565.2 203.6c0 0 2 2.1 2.4 8.7 0 0-2.7 1.2-4.9 1.2 0 0-2.8-4-2.7-10.1 0 0 2-0.8 5.2 0.2z"/>
					<path id="&lt;Path&gt;" class="s71" d="m597.6 207.5c-3.8-5.2-2.4-12-2.4-12l3.9-0.5c4.9 3.3 3.6 11.8 3.6 11.8-1.2 0.3-5.1 0.7-5.1 0.7z"/>
					<path id="&lt;Path&gt;" class="s71" d="m563.5 203.2c0 0 1.8 3.8 2.6 9.7 0 0-1.4 0.5-3.4 0.6 0 0-2.7-3.3-2.7-10.1 0 0 2.1-0.6 3.5-0.2z"/>
					<path id="&lt;Path&gt;" class="s72" d="m616.5 200.2c0 0-9.3-5.4-25.1-2.3l2.9-2.3c0 0 11.3-3.5 22.2 4.6z"/>
					<path id="&lt;Path&gt;" class="s72" d="m572.5 206.4c0 0-7.4-3.9-16.1-1.8l3.6-2.7c0 0 5.8-0.9 12.5 4.5z"/>
					<path id="&lt;Path&gt;" class="s9" d="m606.5 200.2c0 0-2.6-0.6-4.8 1.7 0 0 3.1 0.9 4.8-1.7z"/>
					<path id="&lt;Path&gt;" class="s9" d="m569.1 207.5c0 0-3.9-0.8-5.3 1.1 0 0 2.1 1.4 5.3-1.1z"/>
					<path id="&lt;Path&gt;" class="s73" d="m615.6 201.1c0 0-7.2 7.1-18.8 8.8l-0.3-4.2 1.1 1.8c0 0 11.1-0.6 18-6.4z"/>
					<path id="&lt;Path&gt;" class="s73" d="m572.5 208.3c0 0-1.2 4.6-10.6 6.7l0.3-2.3 0.5 0.8c0 0 6.7-0.8 9.8-5.2z"/>
					<path id="&lt;Path&gt;" class="s74" d="m588.1 229.6h-3c0 0-6.9 4-11.5 3.2-4.5-0.8-9.8-6.1-9.8-6.1 4 2.5 11.2 0.8 17.7 0 6.4-0.7 9.9 0 9.9 0-0.9 1.8-3.3 2.9-3.3 2.9z"/>
					<path id="&lt;Path&gt;" class="s75" d="m582.1 231c0 0 1.4-1.9 2.7-2.1 1.3-0.3 2.9 0.7 2.9 0.7-2.8 0-5.6 1.4-5.6 1.4z"/>
					<path id="&lt;Path&gt;" class="s30" d="m563.8 226.7c-1.7-1.6 7-17.2 11.2-17.7 4.2-0.6 8.1 17.4 8.1 17.4 0 0-5.8 0.8-11.4 1.5-5.6 0.8-7.9-1.2-7.9-1.2z"/>
					<path id="&lt;Path&gt;" class="s76" d="m557.6 177.8c2.3-0.3 10.7 9.9 10.7 9.9 0 0 5.3 16.4 4.2 21.3-1 4.8-13.9 7.4-13.9 7.4l-0.5-0.8v-0.1c0.6-1.5 1.2-3.1 1.6-4.9 1-5-1.2-16.5-2.8-25.9 0 0-0.5-2-0.6-3.8 0-1.5 0.2-2.9 1.3-3.1z"/>
					<path id="&lt;Compound Path&gt;" fill-rule="evenodd" class="s77" d="m558 244.5c2.6-5.5 1-8.4 24.1-11.5 32.7-4.3 35.5 5.7 41 4.2q0.4-0.1 0.7-0.2c6-2.4 20.2-16.3 20.6-35.1 0.3-19.5-12.7-33.4-12.7-33.4 4.7-3.9 6.6-15.5 1.5-20.4-5.1-4.9-13.9-3.8-35.3-1.5-21.4 2.2-21.4 0.9-21.4 0.9-6.8 1.8-10.7 8.1-11.8 10.2-0.2 0.4-0.3 0.6-0.3 0.6l-2.7-2.4c-7.2 10.4-5.8 21.7-5.8 21.7 0 0-11.8-23.8-10.4-27.2 2.4-6.3 9.2-15.4 9.6-15.9v-0.1c0 0 1.9-18.1 7.6-18.1 5.7 0 29.9 5.4 29.9 5.4-2.6-6.2-2.2-13.4-2.2-13.4q0 0 0.1 0.1c7.9 7.1 15.6 7.9 26.6 13 5.5 2.5 8.1 4.9 10.2 7.4l0.8 0.9 0.8 0.9c0.7 1 1.5 2 2.4 3q0.1 0.1 0.2 0.1 0 0 0 0c0.9 1 1.9 2 3.2 3 7.2 5.9 23 9.8 24.9 16 1.9 6.2-2.4 14.6-4.6 23.4-2.3 8.7-1.3 16.4-1.3 16.4 0 0-7.5 9.7-5 23.9 2.2 12.8 7.1 14.8 7.1 14.8 3.4 7.1 1.8 13.6 1.8 13.6-7 27.9-36 44.4-36 44.4-25.7 9.6-42.7 5.5-42.7 5.5q0 0 0-0.1c-18.7-12.2-25.2-52.6-25.4-54.5 0.3 0.5 3.8 5.9 4.5 4.4zm11.5 25.8c4.6-0.8 5.5-12.3 7-13.8 1.5-1.5 9.8-0.9 9.8-0.9 0 0 7.5 8.6 10.6 8.9 3 0.2 19.2-6.3 15.7-16.2-3.5-9.8-15.7-11.1-15.7-11.1 0 0-6.4 5.3-15.8 5.9-9.5 0.6-12.9-1.1-14-1.6-1.2-0.5-7.3 2.3-7.1 10.9 0.1 5.9 5 18.7 9.5 17.9z"/>
					<path id="&lt;Path&gt;" class="s78" d="m564.5 226.4c1.5 3.8 9.1 6.4 9.1 6.4 0 0-9.4-2.2-10.3-6.4-0.8-3.8 7.4-14 7.4-14-4.3 6.3-6.2 14-6.2 14z"/>
					<path id="&lt;Path&gt;" class="s79" d="m545.5 150.4l6.5-1.7c0 0 1.1-9.4 3.1-14.2v-0.1c0 0 0.9 11.1 6.6 21.5-7.2 10.4-5.8 21.7-5.8 21.7 0 0-11.8-23.8-10.4-27.2z"/>
					<path id="&lt;Path&gt;" class="s80" d="m572 120.8c0 0 5.2-1 20.6 0.9-2.6-6.2-2.2-13.4-2.2-13.4q0 0 0.1 0.1c0.9 1 8.8 9.1 14.9 12.4l18.3 7.4 3.6 0.6 0.8 0.9 0.8 0.9 2.4 3c-1-0.9-6.1-5.2-15.4-7.1-10.4-2.2-26.3-2.5-26.3-2.5 0 0-11.3 13.9-12.4 19.7 0 0 12.6-5.8 16.1-6.8 3.3-1 32.4 4 35.4 4.5-2.8-0.2-28.5-2.5-36-0.5-7.9 2.1-11.7 5.2-11.7 5.2 0 0 37.7-3.8 47.1-2.3 9.3 1.5 11.5 4.5 11.5 4.5 0 0 7.9 6.3 20 4.4 1.9 6.2-2.4 14.6-4.6 23.4-2.3 8.7-1.3 16.4-1.3 16.4 0 0-7.5 9.7-5 23.9 2.2 12.8 7.1 14.8 7.1 14.8 3.4 7.1 1.8 13.6 1.8 13.6-7 27.9-36 44.4-36 44.4-25.7 9.6-42.7 5.5-42.7 5.5q0 0 0-0.1c-0.2-0.3-2.4-3.6-0.5-5.5 2-2 23.7-0.2 34.2-3.6 10.4-3.5 11.5-46.5 11.5-46.5l-0.3-2c6-2.4 20.2-16.3 20.6-35.1 0.3-19.5-12.7-33.4-12.7-33.4 4.7-3.9 6.6-15.5 1.5-20.4-5.1-4.9-13.9-3.8-35.3-1.5-21.4 2.2-21.4 0.9-21.4 0.9-6.8 1.8-10.7 8.1-11.8 10.2 0 0 0.3-27 7.3-36.9z"/>
					<path id="&lt;Path&gt;" class="s81" d="m578.9 294.7c-3.5-6.5 4.7-6.6 19-7.1 14.3-0.6 23.7 1.6 23.7 1.6-24.7 9.5-42.7 5.5-42.7 5.5z"/>
					<path id="&lt;Path&gt;" class="s82" d="m572 120.8c0 0-8.7-3.4-12.1-2.8 0 0 1.3-1.8 2.7-2.2 1.5-0.4 30 5.9 30 5.9 0 0-17.8-2-20.6-0.9z"/>
					<path id="&lt;Path&gt;" class="s82" d="m630.6 132.7c4.4 5.2 8.5 6.9 8.5 6.9l-10.4 1.8-35.4-4.5c-3-3.4-3.7-12.9-3.7-12.9 13.5-1.5 36.6 3.6 41 8.7z"/>
					<path id="&lt;Path&gt;" class="s82" d="m555.1 134.4c0 0-2.9 9.3-3.1 14.3l-6.5 1.7c0 0 2-7.1 9.6-16z"/>
					<path id="&lt;Path&gt;" class="s83" d="m651.5 215c0 0 2.5-12 8.6-17.9 6.1-5.9 13.1-4 13.1-4 0 0-1.9 22.2-3.9 27.6-2 5.4-5 6.8-5 6.8 0 0 4.2-3.8 4.8-11.1 0.6-7.3 0.7-17.6-0.9-18.9-1.6-1.2-8.1 3.6-8.1 3.6 0 0 2.1 2.5 3.3 9 1.2 6.6-3.3 11.3-5 11.2-1.7-0.1 0.1-7.5-0.2-9.7-0.3-2.1-4.1-1.7-6.7 3.4z"/>
					<path id="&lt;Path&gt;" class="s84" d="m657.6 200.1c0 0 6.7 4.4 6 13.4-0.8 9-5.9 8.6-5.9 6.7 0-1.9 1-6.8 0.4-9.5-0.5-2.7-4.9-1.5-4.9-1.5 0 0 2.9-7.1 4.4-9.1z"/>
					<path id="&lt;Path&gt;" class="s82" d="m615.5 140.5c0 0-10.1 3.4-21.2 4.4-11 1-13.3 1.2-13.3 1.2 0 0 4.4-4.3 13.9-5.6 9.5-1.3 20.6 0 20.6 0z"/>
					<path id="&lt;Path&gt;" class="s85" d="m566.7 240.9c0 0-4.8 0-6.7 6.1-1.5 4.8-2 9-2 9l-1.7-6.7c0 0 2.3-8.4 4.6-10.3 1.7-1.3 4.5-2.7 5.9-2.4z"/>
					<path id="&lt;Path&gt;" class="s86" d="m579.7 234.9l-0.8 7.2c0 0-5.9 0.4-9.8-1.2l-0.7-4.3c0 0 7.5-1.9 11.3-1.7z"/>
				</g>
			</g>
			<g id="&lt;Group&gt;">
				<path id="&lt;Path&gt;" class="s87" d="m496.7 269.2l-6.5 183.6c-0.2 7.3-6.2 13.1-13.5 13.1h-316.2c-7.4 0-13.4-5.9-13.6-13.2l-4.4-185.8c-0.2-7.6 6-13.9 13.6-13.8l327.2 2.1c7.6 0.1 13.7 6.4 13.4 14z"/>
				<g id="&lt;Group&gt;">
					<path id="&lt;Compound Path&gt;" fill-rule="evenodd" class="s88" d="m146.4 452.7l-4.4-185.8c-0.1-3.8 1.3-7.4 4-10.1 2.7-2.8 6.3-4.2 10.1-4.2l327.2 2.1c3.8 0.1 7.3 1.6 10 4.3 2.6 2.8 4 6.4 3.9 10.2l-6.5 183.6c-0.2 7.6-6.4 13.6-14 13.6h-316.2c-7.7 0-13.9-6-14.1-13.7zm0.3-195.2c-2.5 2.5-3.8 5.9-3.7 9.4l4.4 185.8c0.2 7 6 12.7 13.1 12.7h316.2c7.1 0 12.8-5.5 13-12.6l6.5-183.6c0.1-3.5-1.2-6.9-3.6-9.5-2.5-2.5-5.8-3.9-9.3-4l-327.2-2.1q0 0-0.1 0c-3.5 0-6.8 1.4-9.3 3.9z"/>
				</g>
				<path id="&lt;Path&gt;" class="s89" d="m496.2 278.6h-353.3l-0.6-9.7c-0.5-8.6 6.4-15.8 14.9-15.7l327 2.6c6.9 0 12.3 5.7 12.2 12.5z"/>
				<path id="&lt;Path&gt;" class="s90" d="m478.4 293.4v106.2h-108.1v-106.8z"/>
				<path id="&lt;Path&gt;" class="s91" d="m218.7 300.5h47.1v47.1h-47.1z"/>
				<path id="&lt;Path&gt;" class="s92" d="m163.2 300.5h47.1v47.1h-47.1z"/>
				<path id="&lt;Path&gt;" class="s93" d="m275.2 300.5h47v47.1h-47z"/>
				<path id="&lt;Path&gt;" class="s94" d="m163.2 375h120.3v11.3h-120.3z"/>
				<path id="&lt;Path&gt;" class="s94" d="m163.2 392.1h150.4v3.5h-150.4z"/>
				<path id="&lt;Path&gt;" class="s94" d="m283.4 353.6h28.8v3.5h-28.8z"/>
				<path id="&lt;Path&gt;" class="s94" d="m227.9 353.6h28.7v3.5h-28.7z"/>
				<path id="&lt;Path&gt;" class="s94" d="m172.4 353.6h28.7v3.5h-28.7z"/>
				<path id="&lt;Path&gt;" class="s94" d="m273.8 397.8h48.4v3.5h-48.4z"/>
				<path id="&lt;Path&gt;" class="s94" d="m163.2 403.4h150.4v3.5h-150.4z"/>
				<path id="&lt;Path&gt;" class="s94" d="m163.2 409h159v3.5h-159z"/>
				<path id="&lt;Path&gt;" class="s94" d="m163.2 414.6h159v3.5h-159z"/>
				<path id="&lt;Path&gt;" class="s94" d="m163.2 437.3h150.4v3.5h-150.4z"/>
				<path id="&lt;Path&gt;" class="s94" d="m163.2 442.9h159v3.5h-159z"/>
				<path id="&lt;Path&gt;" class="s94" d="m163.2 448.5h159v3.5h-159z"/>
				<path id="&lt;Path&gt;" class="s94" d="m169.6 420.2h152.6v3.5h-152.6z"/>
				<path id="&lt;Path&gt;" class="s94" d="m163.2 425.8h150.4v3.5h-150.4z"/>
				<path id="&lt;Path&gt;" class="s94" d="m193.4 431.4h128.8v3.5h-128.8z"/>
				<g id="&lt;Group&gt;" style="mix-blend-mode: soft-light">
					<path id="&lt;Compound Path&gt;" fill-rule="evenodd" class="s95" d="m417.4 347.6c0-17 13.8-30.8 30.7-30.8 17 0 30.8 13.8 30.8 30.8 0 16.9-13.8 30.7-30.8 30.7-16.9 0-30.7-13.8-30.7-30.7zm2 0c0 15.8 12.9 28.7 28.7 28.7 15.9 0 28.8-12.9 28.8-28.7 0-15.9-12.9-28.8-28.8-28.8-15.8 0-28.7 12.9-28.7 28.8z"/>
				</g>
				<path id="&lt;Path&gt;" class="s9" d="m448.1 330.8c9.3 0 16.8 7.5 16.8 16.8 0 9.2-7.5 16.7-16.8 16.7-9.2 0-16.7-7.5-16.7-16.7 0-9.3 7.5-16.8 16.7-16.8z"/>
				<g id="&lt;Group&gt;" style="mix-blend-mode: soft-light">
					<path id="&lt;Compound Path&gt;" fill-rule="evenodd" class="s95" d="m339.5 292.8c0-16.9 13.8-30.7 30.8-30.7 17 0 30.8 13.8 30.8 30.7 0 17-13.8 30.8-30.8 30.8-17 0-30.8-13.8-30.8-30.8zm2 0c0 15.9 12.9 28.8 28.8 28.8 15.9 0 28.8-12.9 28.8-28.8 0-15.8-12.9-28.7-28.8-28.7-15.9 0-28.8 12.9-28.8 28.7z"/>
				</g>
				<path id="&lt;Path&gt;" class="s9" d="m370.3 277.1c8.7 0 15.7 7 15.7 15.7 0 8.7-7 15.8-15.7 15.8-8.7 0-15.7-7.1-15.7-15.8 0-8.7 7-15.7 15.7-15.7z"/>
				<g id="&lt;Group&gt;" style="mix-blend-mode: soft-light">
					<path id="&lt;Path&gt;" class="s9" d="m471.3 274l-1.9-2.6 12.2-10.6 2.2 3.4z"/>
					<path id="&lt;Path&gt;" class="s9" d="m469.1 264.2l2.3-3.4 12.1 10.6-1.8 2.6z"/>
				</g>
				<path id="&lt;Path&gt;" class="s9" d="m151.4 263.1h108.9v5.4h-108.9z"/>
			</g>
			<g id="&lt;Group&gt;">
				<path id="&lt;Path&gt;" class="s96" d="m833.3 184.2v47.3l-56.5 0.5-0.8-49.3z"/>
				<path id="&lt;Path&gt;" class="s97" d="m776.8 232l-2.6-0.1-1.9-43 3.7-6.2z"/>
				<path id="&lt;Path&gt;" class="s9" d="m794.1 222.1l-4.3-5.8 28.2-23.7 5.2 7.6z"/>
				<path id="&lt;Path&gt;" class="s9" d="m789 200.2l5.3-7.6 28.2 23.7-4.3 5.8z"/>
			</g>
			<g id="&lt;Group&gt;">
				<path id="&lt;Path&gt;" class="s98" d="m685.6 725l-4.3-158.7c-0.3-8.9 6.9-16.2 15.8-16.2h201.3c8.9 0 16.1 7.3 15.9 16.2l-3.6 158.6c-0.2 8.6-7.3 15.5-15.9 15.5h-193.3c-8.6 0-15.6-6.9-15.9-15.4z"/>
				<g id="&lt;Group&gt;">
					<path id="&lt;Compound Path&gt;" fill-rule="evenodd" class="s99" d="m685.1 725l-4.3-158.6c-0.1-4.5 1.5-8.7 4.6-11.9 3.1-3.2 7.3-4.9 11.7-4.9h201.3c4.5 0 8.6 1.7 11.7 4.9 3.1 3.2 4.8 7.4 4.7 11.8l-3.6 158.6c-0.2 8.8-7.6 16-16.4 16h-193.3c-9 0-16.1-7-16.4-15.9zm12-174.4c-4.2 0-8.1 1.6-11 4.6-2.9 3-4.4 7-4.3 11.1l4.3 158.6c0.3 8.4 7 15 15.4 15h193.3c8.3 0 15.2-6.8 15.4-15l3.6-158.6c0.1-4.2-1.5-8.1-4.4-11.1-2.9-3-6.8-4.6-11-4.6z"/>
				</g>
				<g id="&lt;Group&gt;">
					<path id="&lt;Path&gt;" class="s9" d="m760.5 582.5h101.7v4.4h-101.7z"/>
					<path id="&lt;Path&gt;" class="s9" d="m811.3 593.1h50.9v4.4h-50.9z"/>
					<path id="&lt;Path&gt;" class="s9" d="m811.3 602h50.9v4.3h-50.9z"/>
					<path id="&lt;Path&gt;" class="s9" d="m765.1 602h40.5v4.3h-40.5z"/>
					<path id="&lt;Path&gt;" class="s9" d="m780.2 610.8h82v4.3h-82z"/>
					<path id="&lt;Path&gt;" class="s9" d="m833 619.6h29.2v4.4h-29.2z"/>
					<path id="&lt;Path&gt;" class="s9" d="m776.5 646.2h50.5v4.3h-50.5z"/>
					<path id="&lt;Path&gt;" class="s9" d="m770.7 628.5h91.5v4.3h-91.5z"/>
					<path id="&lt;Path&gt;" class="s9" d="m791.8 637.3h70.4v4.4h-70.4z"/>
					<path id="&lt;Path&gt;" class="s9" d="m829.1 646.2h33.1v4.3h-33.1z"/>
					<path id="&lt;Path&gt;" class="s9" d="m811.3 655h50.9v4.4h-50.9z"/>
					<path id="&lt;Path&gt;" class="s9" d="m847.6 663.8h14.6v4.4h-14.6z"/>
					<path id="&lt;Path&gt;" class="s9" d="m788.6 663.8h53v4.4h-53z"/>
					<path id="&lt;Path&gt;" class="s9" d="m776.5 672.4h50.5v4.4h-50.5z"/>
					<path id="&lt;Path&gt;" class="s9" d="m829.1 672.4h33.1v4.4h-33.1z"/>
					<path id="&lt;Path&gt;" class="s9" d="m811.3 681.3h50.9v4.3h-50.9z"/>
					<path id="&lt;Path&gt;" class="s9" d="m847.6 690.1h14.6v4.4h-14.6z"/>
					<path id="&lt;Path&gt;" class="s9" d="m788.6 690.1h53v4.4h-53z"/>
				</g>
			</g>
			<path id="&lt;Path&gt;" class="s100" d="m191.5 208.7c4.9 0 8.9 4 8.9 9 0 4.9-4 8.9-8.9 8.9-4.9 0-8.9-4-8.9-8.9 0-5 4-9 8.9-9z"/>
			<path id="&lt;Path&gt;" class="s101" d="m1031.5 413.8c6.1 0 11.1 5 11.1 11.2 0 6.1-5 11.1-11.1 11.1-6.2 0-11.1-5-11.1-11.1 0-6.2 4.9-11.2 11.1-11.2z"/>
			<path id="&lt;Path&gt;" class="s102" d="m165.3 208.7c4.9 0 8.9 4 8.9 9 0 4.9-4 8.9-8.9 8.9-5 0-9-4-9-8.9 0-5 4-9 9-9z"/>
			<path id="&lt;Path&gt;" class="s103" d="m741.6 272.8c3.5 0 6.3 2.8 6.3 6.3 0 3.5-2.8 6.4-6.3 6.4-3.5 0-6.3-2.9-6.3-6.4 0-3.5 2.8-6.3 6.3-6.3z"/>
			<path id="&lt;Path&gt;" class="s104" d="m318.3 551.7c3.5 0 6.3 2.8 6.3 6.3 0 3.5-2.8 6.3-6.3 6.3-3.5 0-6.3-2.8-6.3-6.3 0-3.5 2.8-6.3 6.3-6.3z"/>
			<path id="&lt;Path&gt;" class="s105" d="m975.3 615.4c3.1 0 5.7 2.5 5.7 5.6 0 3.1-2.6 5.7-5.7 5.7-3.1 0-5.6-2.6-5.6-5.7 0-3.1 2.5-5.6 5.6-5.6z"/>
			<g id="&lt;Group&gt;">
				<path id="&lt;Path&gt;" class="s106" d="m864.5 551.4l-2-64.2c-0.3-8.2 6.3-15 14.5-15h101.8c8.2 0 14.8 6.8 14.5 15.1l-2.1 64.2c-0.3 7.8-6.7 14-14.6 14h-97.6c-7.9 0-14.3-6.2-14.5-14.1z"/>
				<g id="&lt;Group&gt;">
					<path id="&lt;Compound Path&gt;" fill-rule="evenodd" class="s107" d="m864 551.4l-2-64.2c-0.1-4.1 1.4-8 4.2-10.9 2.9-3 6.7-4.6 10.8-4.6h101.8c4.1 0 7.9 1.6 10.8 4.6 2.9 3 4.4 6.9 4.2 11l-2.1 64.2c-0.3 8.1-6.9 14.5-15.1 14.5h-97.6c-8.2 0-14.8-6.4-15-14.6zm13-78.7c-3.8 0-7.4 1.5-10 4.3-2.7 2.7-4.1 6.4-4 10.2l2 64.2c0.2 7.7 6.4 13.6 14 13.6h97.6c7.6 0 13.8-5.9 14.1-13.6l2.1-64.1c0.2-3.9-1.2-7.5-3.9-10.3-2.7-2.8-6.3-4.3-10.1-4.3z"/>
				</g>
				<g id="&lt;Group&gt;">
					<path id="&lt;Path&gt;" class="s9" d="m950.6 495.3l24.1 27.9-24.6 20.8v-10.8l14.2-12.2-13.1-14.9z"/>
				</g>
				<g id="&lt;Group&gt;">
					<path id="&lt;Path&gt;" class="s9" d="m910.3 505.5l-15.7 16.7 14.1 12.3v10.7l-24.5-20.8 24.1-27.9z"/>
				</g>
				<g id="&lt;Group&gt;">
					<path id="&lt;Path&gt;" class="s9" d="m938.3 544l-23.8-46.2h9.9l20.9 46.2z"/>
				</g>
			</g>
			<g id="&lt;Group&gt;">
				<path id="&lt;Path&gt;" class="s108" d="m204.1 680l-2.4-80.3c-0.3-10.3 7.9-18.8 18.2-18.8h127.3c10.3 0 18.5 8.5 18.2 18.8l-2.7 80.3c-0.4 9.9-8.4 17.6-18.2 17.6h-122.1c-9.9 0-18-7.8-18.3-17.6z"/>
				<g id="&lt;Group&gt;">
					<path id="&lt;Compound Path&gt;" fill-rule="evenodd" class="s107" d="m203.6 680l-2.4-80.3c-0.2-5.1 1.7-10 5.3-13.6 3.5-3.7 8.3-5.7 13.4-5.7h127.3c5.1 0 9.9 2 13.4 5.7 3.6 3.7 5.4 8.5 5.3 13.6l-2.7 80.4c-0.4 10.1-8.6 18-18.7 18h-122.1c-10.2 0-18.4-7.9-18.8-18.1zm16.3-98.6c-4.8 0-9.4 1.9-12.7 5.4-3.4 3.4-5.2 8-5 12.9l2.4 80.3c0.3 9.6 8.1 17.1 17.8 17.1h122.1c9.6 0 17.3-7.5 17.7-17.1l2.7-80.3c0.1-4.8-1.6-9.4-5-12.9-3.4-3.5-7.9-5.4-12.7-5.4z"/>
				</g>
				<path id="&lt;Path&gt;" class="s94" d="m229.1 593.8h111.8v66.4h-111.8z"/>
				<path id="&lt;Path&gt;" class="s9" d="m294.9 610.3v33.5l-28.6-18.3z"/>
				<path id="&lt;Path&gt;" class="s94" d="m229.1 672.5h111.8v6h-111.8z"/>
				<path id="&lt;Path&gt;" class="s9" d="m340.9 672.5v6h-28.9v-6z"/>
			</g>
			<g id="&lt;Group&gt;">
				<g id="&lt;Group&gt;">
					<path id="&lt;Compound Path&gt;" fill-rule="evenodd" class="s109" d="m411.8 604l-5.7 3.2-6.1-16.7 6.6-1.1q-0.2-0.9-0.3-1.8c-0.5-2.9-0.7-5.7-0.6-8.4l-6.8-4.3 3.1-14.7 6.6 6.3q1.3-2.8 3.3-4.9 0.6-0.6 1.2-1.1l-4.1-9.3 10.7-3.5 2.6 9.4c2.4 0 4.8 0.6 7.2 1.7l1.2-8.9 11.8 8.9-2.7 7.9c2.1 2.4 4 5.2 5.7 8.3l5.7-3.2 6.1 16.7-6.5 1.1c0.7 3.6 0.9 7 0.8 10.2l6.9 4.3-3.1 14.7-6.6-6.2c-1.2 2.4-2.7 4.4-4.5 5.9l4 9.3-10.5 4.1-1.6-5.9-1.2-4c-2.3 0-4.8-0.6-7.2-1.7l-1.2 8.8-11.8-8.9 2.8-7.8q-2.5-2.9-4.7-6.4-0.5-1-1.1-2zm16.9-14.5q0 0 0 0zm0 0c-3.3-9.2-7.9-15.2-5.9-16.7zm5.9 16.8l-5.8-16.6c3.2 9.1 4.3 16.1 5.8 16.6z"/>
				</g>
				<path id="&lt;Compound Path&gt;" fill-rule="evenodd" class="s110" d="m406.1 607.2l-6.1-16.7 6.3-2.9 1-0.5-0.7-9.2-6.9-3.4 2.3-14.3 9.9-3.2-2.9-5.8 10.7-3.5 4.4-1.4 10.6-4.1 1.9 7.2 9.2-4.4 11.8 8.9-3.6 9.7 11 30.5 5.5 19.8-10.5 1.2 3.4 7.8-10.5 4.1-15.1 4.9 2.4-4.8 1.5-2.9-5.5 1.8-9.6 3.1-11.8-8.9 7.3-8.6-9.2-5.6zm8.2-45.3l2.8-6.6-5.2 1.6zm24.9 23.9c-3.2-9.2-10.6-15-16.4-12.9l5.8 16.6 5.9 16.7c5.8-2 8-11.2 4.7-20.4z"/>
				<g id="&lt;Group&gt;">
					<path id="&lt;Compound Path&gt;" fill-rule="evenodd" class="s111" d="m421.2 602.3l-6.1-16.7 6.6-1.1c-0.7-3.5-1-7-0.9-10.2l-6.9-4.3 3.2-14.7 6.6 6.3c1.1-2.4 2.6-4.5 4.5-6l-4.1-9.3 10.6-4.1 2.7 10c2.4 0 4.8 0.6 7.2 1.6l1.2-8.8 11.8 8.9-2.7 7.9c2.1 2.4 4 5.2 5.7 8.3l5.7-3.2 6.1 16.7-6.6 1.1c0.7 3.5 1 7 0.9 10.2l6.9 4.3-3.1 14.7-6.6-6.3c-1.2 2.4-2.7 4.5-4.5 6l4 9.3-10.5 4.1-2.8-9.9c-2.4-0.1-4.8-0.6-7.2-1.7l-1.2 8.8-11.8-8.9 2.8-7.8c-2.2-2.5-4.1-5.3-5.8-8.4zm28.4-1c5.8-2.1 8-11.2 4.7-20.4-3.2-9.2-10.5-15-16.4-13-5.9 2.1-8 11.2-4.8 20.4 3.3 9.2 10.6 15 16.5 13z"/>
				</g>
				<path id="&lt;Path&gt;" class="s112" d="m398.9 574.9l15-4.9 6.9 4.3-15.1 4.9z"/>
				<path id="&lt;Path&gt;" class="s113" d="m417.6 612.4l15.1-4.9-2.8 7.8-15.1 4.9z"/>
				<path id="&lt;Path&gt;" class="s112" d="m428.2 555.6l-8.3 2.4-2.8-2.7-5.5 1.8-2.6-5.9 15.1-4.9z"/>
				<path id="&lt;Path&gt;" class="s112" d="m450.1 617.1l-7.9 3.2 0.7-4.9c0 0 4.2 2.2 7.2 1.7z"/>
				<path id="&lt;Path&gt;" class="s112" d="m448.9 571.8l-13.3 7c0 0-1.9-2.5-3.4-3.6 0 0 3.5-14.7 16.7-3.4z"/>
			</g>
			<path id="&lt;Path&gt;" class="s114" d="m762.2 79.9l-12 23.6-8.6-3.9 12.8-25.7z"/>
			<path id="&lt;Path&gt;" class="s115" d="m1043.3 672.6l-11.9 13-4.6-5.3 11.2-12.4z"/>
			<path id="&lt;Path&gt;" class="s116" d="m443.4 221.3l13.1 7.6-4.8 9.1-11.9-7.3z"/>
			<path id="&lt;Path&gt;" class="s116" d="m386.2 683.5l16.6 9.8-4.8 9-17.1-12.1z"/>
			<g id="&lt;Group&gt;">
				<path id="&lt;Path&gt;" class="s117" d="m321.9 168.4l-3.6-67.1h88.1l-2.9 67.3z"/>
				<path id="&lt;Path&gt;" class="s118" d="m406.4 101.3l2.7 3.9-2.7 63.4h-2.9z"/>
				<path id="&lt;Path&gt;" class="s9" d="m377.2 114.7l13.8-1.5-1.9 46.2-11.9-1.2v-4.8l6.9 0.2 0.8-35.6-7.7 0.2z"/>
				<path id="&lt;Path&gt;" class="s9" d="m348.8 118.2l-7.7-0.2 0.8 35.6 6.9-0.2v4.8l-11.9 1.2-1.9-46.2 13.8 1.5z"/>
			</g>
			<g id="&lt;Group&gt;">
				<path id="&lt;Path&gt;" class="s119" d="m1011.3 316l-2-45.9h60.1l-2.5 45.7z"/>
				<path id="&lt;Path&gt;" class="s120" d="m1011.3 316h-2l-1.8-43.2 1.8-2.7z"/>
				<path id="&lt;Path&gt;" class="s9" d="m1032.5 281.7c0 0-5.1 0.1-5.2 1.3-0.1 1.9 0.1 8.7 0.1 8.7l-1.1 1.4 1.1 1.2c0 0 0 9.5 0.7 10.1 0.7 0.6 5 0.3 5 0.3v2.7c0 0-5.3 0.9-6.8 0-1.6-0.9-1.5-11.8-1.5-11.8l-2.4-2.3 2.6-2.4c0 0-1.4-10.8-0.3-11.3 1.2-0.5 7.8-0.3 7.8-0.3z"/>
				<path id="&lt;Path&gt;" class="s9" d="m1047.6 279.3c0 0 6.5-0.2 7.7 0.3 1.2 0.5-0.3 11.3-0.3 11.3l2.6 2.4-2.4 2.3c0 0 0.1 10.9-1.4 11.8-1.6 0.9-6.9 0-6.9 0v-2.7c0 0 4.3 0.3 5-0.3 0.8-0.6 0.7-10.1 0.7-10.1l1.2-1.2-1.2-1.4c0 0 0.2-6.8 0.1-8.7-0.1-1.2-5.1-1.3-5.1-1.3z"/>
			</g>
			<g id="&lt;Group&gt;">
				<g id="&lt;Group&gt;">
					<path id="&lt;Compound Path&gt;" fill-rule="evenodd" class="s121" d="m480.8 144.1l38.2-8-14.7 38.6zm1.7 0.6l21.4 27.9 13.5-35.2z"/>
				</g>
				<g id="&lt;Group&gt;">
					<path id="&lt;Path&gt;" class="s121" d="m385.8 703.4l0.8-0.6 13 17.6-0.8 0.6z"/>
				</g>
				<g id="&lt;Group&gt;">
					<path id="&lt;Path&gt;" class="s121" d="m519.4 557.7l13.9-17.3 0.8 0.6-13.9 17.3z"/>
				</g>
				<g id="&lt;Group&gt;">
					<path id="&lt;Path&gt;" class="s121" d="m948.2 679l27.8-20.2 0.6 0.8-27.8 20.2z"/>
				</g>
				<g id="&lt;Group&gt;">
					<path id="&lt;Path&gt;" class="s121" d="m951.6 656l0.8-0.6 20.8 27.2-0.8 0.6z"/>
				</g>
				<g id="&lt;Group&gt;">
					<path id="&lt;Path&gt;" class="s121" d="m993.1 383.9l18-9.5 0.4 0.9-17.9 9.4z"/>
				</g>
				<g id="&lt;Group&gt;">
					<path id="&lt;Path&gt;" class="s121" d="m283.2 119.1l0.7-0.7 20.7 23.7-0.7 0.6z"/>
				</g>
				<g id="&lt;Group&gt;">
					<path id="&lt;Path&gt;" class="s121" d="m697.6 218.6l9.2-18.6 0.9 0.4-9.3 18.6z"/>
				</g>
				<g id="&lt;Group&gt;">
					<path id="&lt;Path&gt;" class="s121" d="m830 514.4l0.6-0.8 23.8 20-0.6 0.7z"/>
				</g>
			</g>
			<path id="&lt;Path&gt;" class="s122" d="m104 677.7c0 7.6-6.2 13.8-13.8 13.8-7.6 0-13.8-6.2-13.8-13.8 0-7.6 6.2-13.8 13.8-13.8 7.6 0 13.8 6.2 13.8 13.8z"/>
		</g>
	</g>
</svg>