<svg id="visual" viewBox="0 0 900 600" width="900" height="600" xmlns="http://www.w3.org/2000/svg" xmlns:xlink="http://www.w3.org/1999/xlink" version="1.1"><rect x="0" y="0" width="900" height="600" fill="#e1f2ff"></rect><defs><linearGradient id="grad1_0" x1="33.3%" y1="0%" x2="100%" y2="100%"><stop offset="20%" stop-color="#e1f2ff" stop-opacity="1"></stop><stop offset="80%" stop-color="#e1f2ff" stop-opacity="1"></stop></linearGradient></defs><defs><linearGradient id="grad2_0" x1="0%" y1="0%" x2="66.7%" y2="100%"><stop offset="20%" stop-color="#e1f2ff" stop-opacity="1"></stop><stop offset="80%" stop-color="#e1f2ff" stop-opacity="1"></stop></linearGradient></defs><g transform="translate(900, 0)"><path d="M0 486.7C-60.4 475.3 -120.8 463.8 -183.7 443.5C-246.6 423.1 -312 394 -344.2 344.2C-376.4 294.4 -375.3 223.8 -393.6 163C-411.8 102.2 -449.3 51.1 -486.7 0L0 0Z" fill="#061d38"></path></g><g transform="translate(0, 600)"><path d="M0 -486.7C55.1 -462 110.2 -437.2 173.4 -418.5C236.5 -399.8 307.8 -387.1 344.2 -344.2C380.6 -301.3 382.1 -228.1 400 -165.7C418 -103.3 452.4 -51.6 486.7 0L0 0Z" fill="#061d38"></path></g></svg>