<svg
    id="visual"
    viewBox="0 0 900 600"
    width="900"
    height="600"
    xmlns="http://www.w3.org/2000/svg"
    xmlns:xlink="http://www.w3.org/1999/xlink"
    version="1.1"
>
    <rect x="0" y="0" width="900" height="600" fill="#164E63"></rect>

    <g transform="translate(900, 0)">
        <path
            d="M0 486.7C-23.2 459.3 -46.4 431.9 -76.2 432.3C-106.1 432.7 -142.5 460.9 -164.5 452C-186.5 443.1 -193.9 397 -221.5 383.6C-249.1 370.3 -296.8 389.6 -312.9 372.9C-329 356.2 -313.5 303.6 -333.2 279.6C-353 255.7 -407.9 260.4 -411.4 237.5C-414.8 214.6 -366.9 163.9 -372.1 135.4C-377.4 107 -435.9 100.7 -463.8 81.8C-491.8 62.9 -489.3 31.5 -486.7 0L0 0Z"
            fill="#051A28"
        ></path>
    </g>
    <g transform="translate(0, 600)">
        <path
            d="M0 -486.7C24 -454.6 47.9 -422.4 71.5 -405.7C95.2 -389.1 118.4 -388.1 137.8 -378.7C157.2 -369.3 172.7 -351.5 204 -353.3C235.3 -355.1 282.3 -376.5 311.1 -370.8C339.9 -365 350.3 -332.2 366.2 -307.3C382 -282.3 403.2 -265.4 421.5 -243.4C439.8 -221.4 455.2 -194.3 453.9 -165.2C452.6 -136.1 434.6 -105 437.3 -77.1C440 -49.2 463.4 -24.6 486.7 0L0 0Z"
            fill="#012233"
        ></path>
    </g>
</svg>