<?xml version="1.0" standalone="no"?>
<svg width="1920" height="1080" xmlns:xlink="http://www.w3.org/1999/xlink" id="wave"
    style="transform:rotate(180deg); transition: 0.3s" viewBox="0 0 1440 490" version="1.1"
    xmlns="http://www.w3.org/2000/svg">
    <defs>
        <linearGradient id="sw-gradient-0" x1="0" x2="0" y1="1" y2="0">
            <stop stop-color="rgba(0, 0, 0, 1)" offset="0%" />
            <stop stop-color="rgba(0, 0, 0, 1)" offset="100%" />
        </linearGradient>
    </defs>
    <defs>
        <linearGradient id="sw-gradient-0" x1="1" x2="0" y1="0" y2="0">
            <stop stop-color="rgba(0, 0, 0, 1)" offset="0%" />
            <stop stop-color="rgba(0, 0, 0, 1)" offset="100%" />
        </linearGradient>
    </defs>
    <path style="transform:translate(0, 0px); opacity:1" fill="url(#sw-gradient-0)"
        d="M0,49L1440,343L2880,98L4320,49L5760,343L7200,294L8640,147L10080,147L11520,294L12960,245L14400,392L15840,196L17280,294L18720,294L20160,0L21600,392L23040,147L24480,245L25920,98L27360,343L28800,196L30240,98L31680,441L33120,196L34560,98L34560,490L33120,490L31680,490L30240,490L28800,490L27360,490L25920,490L24480,490L23040,490L21600,490L20160,490L18720,490L17280,490L15840,490L14400,490L12960,490L11520,490L10080,490L8640,490L7200,490L5760,490L4320,490L2880,490L1440,490L0,490Z" />
</svg>